<?xml version="1.0" encoding="utf-8"?>
<!-- Generator: Adobe Illustrator 15.1.0, SVG Export Plug-In . SVG Version: 6.00 Build 0)  -->
<!DOCTYPE svg PUBLIC "-//W3C//DTD SVG 1.0//EN" "http://www.w3.org/TR/2001/REC-SVG-20010904/DTD/svg10.dtd">
<svg version="1.0" id="レイヤー1" xmlns="http://www.w3.org/2000/svg" xmlns:xlink="http://www.w3.org/1999/xlink" x="0px"
	 y="0px" width="841.89px" height="595.275px" viewBox="0 0 841.89 595.275" enable-background="new 0 0 841.89 595.275"
	 xml:space="preserve">
<g>
	<rect x="195.5" y="147.5" fill="none" stroke="#999999" stroke-width="0.1" width="50" height="100"/>
	<rect x="295.5" y="147.5" fill="none" stroke="#999999" stroke-width="0.1" width="50" height="100"/>
	<rect x="395.5" y="147.5" fill="none" stroke="#999999" stroke-width="0.1" width="50" height="100"/>
	<rect x="495.5" y="147.5" fill="none" stroke="#999999" stroke-width="0.1" width="50" height="100"/>
	<rect x="595.5" y="147.5" fill="none" stroke="#999999" stroke-width="0.1" width="50" height="100"/>
	<rect x="195.5" y="247.5" fill="none" stroke="#999999" stroke-width="0.1" width="50" height="100"/>
	<rect x="295.5" y="247.5" fill="none" stroke="#999999" stroke-width="0.1" width="50" height="100"/>
	<rect x="395.5" y="247.5" fill="none" stroke="#999999" stroke-width="0.1" width="50" height="100"/>
	<rect x="495.5" y="247.5" fill="none" stroke="#999999" stroke-width="0.1" width="50" height="100"/>
	<rect x="595.5" y="247.5" fill="none" stroke="#999999" stroke-width="0.1" width="50" height="100"/>
	<rect x="195.5" y="-52.5" fill="none" stroke="#999999" stroke-width="0.1" width="50" height="100"/>
	<rect x="295.5" y="-52.5" fill="none" stroke="#999999" stroke-width="0.1" width="50" height="100"/>
	<rect x="395.5" y="-52.5" fill="none" stroke="#999999" stroke-width="0.1" width="50" height="100"/>
	<rect x="495.5" y="-52.5" fill="none" stroke="#999999" stroke-width="0.1" width="50" height="100"/>
	<rect x="595.5" y="-52.5" fill="none" stroke="#999999" stroke-width="0.1" width="50" height="100"/>
	<rect x="195.5" y="47.5" fill="none" stroke="#999999" stroke-width="0.1" width="50" height="100"/>
	<rect x="295.5" y="47.5" fill="none" stroke="#999999" stroke-width="0.1" width="50" height="100"/>
	<rect x="395.5" y="47.5" fill="none" stroke="#999999" stroke-width="0.1" width="50" height="100"/>
	<rect x="495.5" y="47.5" fill="none" stroke="#999999" stroke-width="0.1" width="50" height="100"/>
	<rect x="595.5" y="47.5" fill="none" stroke="#999999" stroke-width="0.1" width="50" height="100"/>
	<rect x="195.5" y="347.5" fill="none" stroke="#999999" stroke-width="0.1" width="50" height="100"/>
	<rect x="295.5" y="347.5" fill="none" stroke="#999999" stroke-width="0.1" width="50" height="100"/>
	<rect x="395.5" y="347.5" fill="none" stroke="#999999" stroke-width="0.1" width="50" height="100"/>
	<rect x="495.5" y="347.5" fill="none" stroke="#999999" stroke-width="0.1" width="50" height="100"/>
	<rect x="595.5" y="347.5" fill="none" stroke="#999999" stroke-width="0.1" width="50" height="100"/>
	<rect x="195.5" y="447.5" fill="none" stroke="#999999" stroke-width="0.1" width="50" height="100"/>
	<rect x="295.5" y="447.5" fill="none" stroke="#999999" stroke-width="0.1" width="50" height="100"/>
	<rect x="395.5" y="447.5" fill="none" stroke="#999999" stroke-width="0.1" width="50" height="100"/>
	<rect x="495.5" y="447.5" fill="none" stroke="#999999" stroke-width="0.1" width="50" height="100"/>
	<rect x="595.5" y="447.5" fill="none" stroke="#999999" stroke-width="0.1" width="50" height="100"/>
	<rect x="195.5" y="547.5" fill="none" stroke="#999999" stroke-width="0.1" width="50" height="100"/>
	<rect x="295.5" y="547.5" fill="none" stroke="#999999" stroke-width="0.1" width="50" height="100"/>
	<rect x="395.5" y="547.5" fill="none" stroke="#999999" stroke-width="0.1" width="50" height="100"/>
	<rect x="495.5" y="547.5" fill="none" stroke="#999999" stroke-width="0.1" width="50" height="100"/>
	<rect x="595.5" y="547.5" fill="none" stroke="#999999" stroke-width="0.1" width="50" height="100"/>
</g>
<g>
	<polygon points="331,620.5 332.2,575.899 306.9,575.899 306.9,590.5 318,590.5 317.2,620.5 303.301,620.5 303.301,635.1 
		337.7,635.1 337.7,620.5 	"/>
	<polygon points="330.774,521.967 332.175,476.533 307.1,476.533 307.1,489.033 319.824,489.033 318.774,521.967 303.434,521.967 
		303.434,534.466 337.567,534.466 337.567,521.967 	"/>
	<polygon points="330.55,423.434 332.15,377.166 307.3,377.166 307.3,387.566 321.649,387.566 320.35,423.434 303.567,423.434 
		303.567,433.832 337.434,433.832 337.434,423.434 	"/>
	<polygon points="330.324,324.9 332.125,277.8 307.5,277.8 307.5,286.1 323.475,286.1 321.924,324.9 303.7,324.9 303.7,333.199 
		337.301,333.199 337.301,324.9 	"/>
	<polygon points="329.933,226.367 331.933,178.433 307.699,178.433 307.699,184.633 325.466,184.633 323.665,226.367 
		303.833,226.367 303.833,232.565 337.167,232.565 337.167,226.367 	"/>
	<polygon points="329.541,127.833 331.741,79.066 307.899,79.066 307.899,83.167 327.458,83.167 325.405,127.833 303.967,127.833 
		303.967,131.933 337.034,131.933 337.034,127.833 	"/>
	<polygon points="329.149,29.3 331.55,-20.3 308.1,-20.3 308.1,-18.3 329.45,-18.3 327.146,29.3 304.1,29.3 304.1,31.3 336.9,31.3 
		336.9,29.3 	"/>
</g>
<g>
	<polygon points="404.9,575.1 404.9,589.3 421.9,589.3 421.9,597 407.301,597 407.301,611.2 421.9,611.2 421.9,621.3 404.9,621.3 
		404.9,635.899 435.7,635.899 435.7,575.1 	"/>
	<polygon points="405.1,475.732 405.1,487.899 423.533,487.899 423.533,497.85 407.367,497.85 407.367,510.017 423.533,510.017 
		423.533,522.766 405.1,522.766 405.1,535.266 435.533,535.266 435.533,475.732 	"/>
	<polygon points="405.3,376.367 405.3,386.5 425.168,386.5 425.168,398.7 407.434,398.7 407.434,408.834 425.168,408.834 
		425.168,424.232 405.3,424.232 405.3,434.633 435.367,434.633 435.367,376.367 	"/>
	<polygon points="405.5,277 405.5,285.1 426.801,285.1 426.801,299.55 407.5,299.55 407.5,307.65 426.801,307.65 426.801,325.699 
		405.5,325.699 405.5,334 435.2,334 435.2,277 	"/>
	<polygon points="405.7,177.633 405.7,183.699 428.768,183.699 428.768,200.399 407.566,200.399 407.566,206.467 428.768,206.467 
		428.768,227.166 405.7,227.166 405.7,233.366 435.033,233.366 435.033,177.633 	"/>
	<polygon points="405.9,78.267 405.9,82.3 430.733,82.3 430.733,101.25 407.634,101.25 407.634,105.283 430.733,105.283 
		430.733,128.633 405.9,128.633 405.9,132.733 434.867,132.733 434.867,78.267 	"/>
	<polygon points="406.1,-21.101 406.1,-19.101 432.7,-19.101 432.7,2.1 407.7,2.1 407.7,4.1 432.7,4.1 432.7,30.1 406.1,30.1 
		406.1,32.1 434.7,32.1 434.7,-21.101 	"/>
</g>
<g>
	<g>
		<path d="M501.2,579.899c1.097,8.444,2.229,17.934,3.2,26.801l10.1-3.2c-1.013-9.055-2.173-18.731-3.2-26.8L501.2,579.899z"/>
		<path d="M513.7,577.5c1.057,8.616,2.193,18.189,3.2,27.2l10.1-3.2c-1.032-9.239-2.177-18.95-3.2-27.2L513.7,577.5z"/>
		<path d="M526.9,574.7c0,31.762-5.357,42.979-17.601,48.6l5.4,15c16.777-6.692,25.2-23.252,25.2-62.8L526.9,574.7z"/>
	</g>
	<g>
		<path d="M505.118,506.787c-1.028-9.143-2.162-18.446-3.267-26.729l9.163-2.716c1.047,7.973,2.204,17.436,3.267,26.737
			L505.118,506.787z"/>
		<path d="M517.318,504.853c-1.02-9.074-2.186-18.751-3.268-27.329l9.164-2.714c1.053,8.275,2.227,18.07,3.268,27.338
			L517.318,504.853z"/>
		<path d="M514.199,537.919l-4.799-12.806c12.598-5.723,18.394-16.883,18.566-49.951l11.333,0.676
			C539.143,514.823,531.088,531.082,514.199,537.919z"/>
	</g>
	<g>
		<path d="M505.836,406.875c-1.084-9.418-2.221-18.536-3.332-26.658l8.226-2.233c1.067,7.877,2.222,17.127,3.334,26.675
			L505.836,406.875z"/>
		<path d="M517.736,405.005c-1.033-9.138-2.228-18.918-3.333-27.458l8.227-2.228c1.083,8.302,2.284,18.181,3.335,27.477
			L517.736,405.005z"/>
		<path d="M513.699,437.539l-4.198-10.612c12.953-5.823,19.187-16.928,19.532-51.302l9.667,0.551
			C538.385,414.599,530.699,430.559,513.699,437.539z"/>
	</g>
	<g>
		<path d="M506.555,306.962c-1.142-9.692-2.279-18.626-3.398-26.587l7.288-1.75c1.087,7.781,2.239,16.818,3.401,26.613
			L506.555,306.962z"/>
		<path d="M518.154,305.157c-1.046-9.2-2.27-19.085-3.399-27.587l7.29-1.741c1.113,8.327,2.343,18.29,3.402,27.614L518.154,305.157z
			"/>
		<path d="M513.199,337.158l-3.598-8.418c13.309-5.924,19.98-16.973,20.498-52.653l8,0.427
			C537.627,314.374,530.311,330.033,513.199,337.158z"/>
	</g>
	<g>
		<path d="M507.271,207.049c-1.197-9.967-2.337-18.716-3.464-26.515l5.519-1.268c1.105,7.686,2.256,16.51,3.469,26.551
			L507.271,207.049z"/>
		<path d="M518.738,205.31c-1.059-9.264-2.312-19.252-3.466-27.716l5.521-1.255c1.144,8.352,2.4,18.399,3.47,27.752L518.738,205.31z
			"/>
		<path d="M512.698,236.778l-2.663-6.224c13.664-6.025,20.773-17.018,21.465-54.005l6,0.302
			C536.868,214.149,529.922,229.509,512.698,236.778z"/>
	</g>
	<g>
		<path d="M507.99,107.137c-1.254-10.242-2.396-18.807-3.53-26.444l3.747-0.785c1.127,7.591,2.274,16.201,3.537,26.489
			L507.99,107.137z"/>
		<path d="M519.323,105.462c-1.071-9.327-2.354-19.419-3.532-27.844l3.751-0.77c1.174,8.378,2.459,18.509,3.536,27.89
			L519.323,105.462z"/>
		<path d="M512.198,136.397l-1.729-4.029c14.02-6.126,21.567-17.063,22.432-55.357l3.999,0.177
			C536.11,113.925,529.533,128.984,512.198,136.397z"/>
	</g>
	<g>
		<path d="M508.708,7.224c-1.311-10.517-2.453-18.896-3.596-26.372l1.977-0.303c1.146,7.495,2.291,15.892,3.604,26.427
			L508.708,7.224z"/>
		<path d="M519.907,5.614c-1.084-9.391-2.396-19.586-3.598-27.973l1.98-0.283c1.204,8.403,2.518,18.619,3.604,28.027L519.907,5.614z
			"/>
		<path d="M511.697,36.018l-0.795-1.836c14.375-6.227,22.361-17.107,23.397-56.708l2,0.053
			C535.353,13.7,529.145,28.46,511.697,36.018z"/>
	</g>
</g>
<g>
	<polygon points="239,592 237.801,576.6 201.6,590.2 202.801,605.6 	"/>
	<path d="M226.4,592c-0.746,6.446-2.457,14.114-4.801,21.6l11,7.601c2.963-7.848,5.451-18.878,6.4-29.2H226.4z"/>
	<polygon points="224.6,637.899 219.801,570.3 206.4,572.3 211.2,639.899 	"/>
</g>
<g>
	<g>
		<polygon points="202.95,504.536 201.817,491.396 237.585,477.663 238.715,490.803 		"/>
		<path d="M232.877,520.371l-9.823-6.193c2.456-7.348,4.167-15.701,4.667-23.015l10.994-0.36
			C238.156,501.408,235.873,512.654,232.877,520.371z"/>
		<polygon points="212.301,539.515 207.301,472.516 218.967,470.817 223.966,537.816 		"/>
	</g>
	<g>
		<polygon points="203.099,403.473 202.036,392.594 237.37,378.727 238.431,389.605 		"/>
		<path d="M231.614,419.209l-8.313-5.294c2.949-7.076,5.096-16.019,5.733-24.163l9.396-0.146
			C237.707,400.455,235.042,411.787,231.614,419.209z"/>
		<polygon points="213.401,439.131 208.202,372.731 218.133,371.336 223.332,437.734 		"/>
	</g>
	<g>
		<polygon points="203.248,302.409 202.254,293.791 237.154,279.79 238.146,288.409 		"/>
		<path d="M230.352,318.048l-6.803-4.396c3.443-6.805,6.025-16.335,6.801-25.313l7.797,0.069
			C237.258,299.502,234.211,310.92,230.352,318.048z"/>
		<polygon points="214.502,338.746 209.103,272.947 217.299,271.854 222.698,337.652 		"/>
	</g>
	<g>
		<polygon points="203.397,201.346 202.472,194.987 236.938,180.854 237.862,187.212 		"/>
		<path d="M229.603,216.997l-5.07-3.328c3.81-6.577,6.682-16.729,7.467-26.55l5.863,0.092
			C236.994,198.562,233.76,210.109,229.603,216.997z"/>
		<polygon points="215.77,238.362 210.17,173.163 216.298,172.371 221.898,237.57 		"/>
	</g>
	<g>
		<polygon points="203.546,100.282 202.689,96.184 236.723,81.917 237.578,86.015 		"/>
		<path d="M228.853,115.946l-3.338-2.26c4.176-6.35,7.339-17.122,8.133-27.787l3.93,0.116
			C236.729,97.622,233.31,109.299,228.853,115.946z"/>
		<polygon points="217.037,137.978 211.237,73.378 215.298,72.889 221.098,137.488 		"/>
	</g>
</g>
<g>
	
		<rect x="219.101" y="-27.178" transform="matrix(0.3937 0.9192 -0.9192 0.3937 125.269 -207.7231)" width="1.999" height="36.556"/>
	<path d="M228.104,14.896l-1.605-1.191c4.543-6.123,7.996-17.516,8.8-29.024l1.996,0.139
		C236.465-3.317,232.859,8.488,228.104,14.896z"/>
	<rect x="184.16" y="4.5" transform="matrix(0.0933 0.9956 -0.9956 0.0933 201.5871 -210.3698)" width="64.281" height="2.001"/>
</g>
<g>
	<path d="M641.5,607h-31.467c-5.829,0-8.23-3.024-10.869-4.527l5.022-16.989c2.036,1.149,4.904,2.351,5.997,2.517H641.5V607z"/>
	<path d="M641.333,505.5h-32.139c-4.909,0-7.255-2.591-10-4.218l4.488-14.313c1.965,1.15,4.658,2.346,5.682,2.53h31.969V505.5z"/>
	<path d="M641.167,404h-32.813c-3.988,0-6.279-2.156-9.129-3.908l3.954-11.636c1.894,1.151,4.411,2.341,5.365,2.544h32.622V404z"/>
	<g>
		<path d="M641,302.5h-33.484c-3.068,0-5.304-1.723-8.26-3.598l3.42-8.959c1.822,1.152,4.165,2.335,5.05,2.557H641V302.5z"/>
	</g>
	<path d="M640.833,201.167h-34.156c-2.913,0-4.961-1.731-7.019-3.073l2.533-6.646c1.396,0.958,3.541,2.238,4.626,2.386h34.016
		V201.167z"/>
	<path d="M640.667,99.833h-34.828c-2.758,0-4.618-1.741-5.777-2.547l1.645-4.334c0.973,0.763,2.918,2.141,4.202,2.215h34.759V99.833
		z"/>
	<path d="M640.5-1.5H605c-2.603,0-4.275-1.75-4.536-2.022l0.758-2.022C601.769-4.976,603.516-3.5,605-3.5h35.5V-1.5z"/>
</g>
</svg>
