<?xml version="1.0" encoding="utf-8"?>
<!-- Generator: Adobe Illustrator 15.1.0, SVG Export Plug-In . SVG Version: 6.00 Build 0)  -->
<!DOCTYPE svg PUBLIC "-//W3C//DTD SVG 1.0//EN" "http://www.w3.org/TR/2001/REC-SVG-20010904/DTD/svg10.dtd">
<svg version="1.0" xmlns="http://www.w3.org/2000/svg" xmlns:xlink="http://www.w3.org/1999/xlink" x="0px" y="0px"
	 width="841.89px" height="595.275px" viewBox="0 0 841.89 595.275" enable-background="new 0 0 841.89 595.275"
	 xml:space="preserve">
<g id="レイヤー1">
	<g>
		<rect x="195.5" y="147.5" fill="none" stroke="#999999" stroke-width="0.1" width="50" height="100"/>
		<rect x="295.5" y="147.5" fill="none" stroke="#999999" stroke-width="0.1" width="50" height="100"/>
		<rect x="395.5" y="147.5" fill="none" stroke="#999999" stroke-width="0.1" width="50" height="100"/>
		<rect x="495.5" y="147.5" fill="none" stroke="#999999" stroke-width="0.1" width="50" height="100"/>
		<rect x="595.5" y="147.5" fill="none" stroke="#999999" stroke-width="0.1" width="50" height="100"/>
		<rect x="195.5" y="247.5" fill="none" stroke="#999999" stroke-width="0.1" width="50" height="100"/>
		<rect x="295.5" y="247.5" fill="none" stroke="#999999" stroke-width="0.1" width="50" height="100"/>
		<rect x="395.5" y="247.5" fill="none" stroke="#999999" stroke-width="0.1" width="50" height="100"/>
		<rect x="495.5" y="247.5" fill="none" stroke="#999999" stroke-width="0.1" width="50" height="100"/>
		<rect x="595.5" y="247.5" fill="none" stroke="#999999" stroke-width="0.1" width="50" height="100"/>
		<rect x="195.5" y="-52.5" fill="none" stroke="#999999" stroke-width="0.1" width="50" height="100"/>
		<rect x="295.5" y="-52.5" fill="none" stroke="#999999" stroke-width="0.1" width="50" height="100"/>
		<rect x="395.5" y="-52.5" fill="none" stroke="#999999" stroke-width="0.1" width="50" height="100"/>
		<rect x="495.5" y="-52.5" fill="none" stroke="#999999" stroke-width="0.1" width="50" height="100"/>
		<rect x="595.5" y="-52.5" fill="none" stroke="#999999" stroke-width="0.1" width="50" height="100"/>
		<rect x="195.5" y="47.5" fill="none" stroke="#999999" stroke-width="0.1" width="50" height="100"/>
		<rect x="295.5" y="47.5" fill="none" stroke="#999999" stroke-width="0.1" width="50" height="100"/>
		<rect x="395.5" y="47.5" fill="none" stroke="#999999" stroke-width="0.1" width="50" height="100"/>
		<rect x="495.5" y="47.5" fill="none" stroke="#999999" stroke-width="0.1" width="50" height="100"/>
		<rect x="595.5" y="47.5" fill="none" stroke="#999999" stroke-width="0.1" width="50" height="100"/>
		<rect x="195.5" y="347.5" fill="none" stroke="#999999" stroke-width="0.1" width="50" height="100"/>
		<rect x="295.5" y="347.5" fill="none" stroke="#999999" stroke-width="0.1" width="50" height="100"/>
		<rect x="395.5" y="347.5" fill="none" stroke="#999999" stroke-width="0.1" width="50" height="100"/>
		<rect x="495.5" y="347.5" fill="none" stroke="#999999" stroke-width="0.1" width="50" height="100"/>
		<rect x="595.5" y="347.5" fill="none" stroke="#999999" stroke-width="0.1" width="50" height="100"/>
		<rect x="195.5" y="447.5" fill="none" stroke="#999999" stroke-width="0.1" width="50" height="100"/>
		<rect x="295.5" y="447.5" fill="none" stroke="#999999" stroke-width="0.1" width="50" height="100"/>
		<rect x="395.5" y="447.5" fill="none" stroke="#999999" stroke-width="0.1" width="50" height="100"/>
		<rect x="495.5" y="447.5" fill="none" stroke="#999999" stroke-width="0.1" width="50" height="100"/>
		<rect x="595.5" y="447.5" fill="none" stroke="#999999" stroke-width="0.1" width="50" height="100"/>
		<rect x="195.5" y="547.5" fill="none" stroke="#999999" stroke-width="0.1" width="50" height="100"/>
		<rect x="295.5" y="547.5" fill="none" stroke="#999999" stroke-width="0.1" width="50" height="100"/>
		<rect x="395.5" y="547.5" fill="none" stroke="#999999" stroke-width="0.1" width="50" height="100"/>
		<rect x="495.5" y="547.5" fill="none" stroke="#999999" stroke-width="0.1" width="50" height="100"/>
		<rect x="595.5" y="547.5" fill="none" stroke="#999999" stroke-width="0.1" width="50" height="100"/>
	</g>
	<g>
		<path d="M211.216,35.477l-0.432-1.953C228.915,29.517,237,12.238,237-22.5v-12h-32.5v29h-2v-31H239v14
			C239,13.35,230.431,31.23,211.216,35.477z"/>
		<path d="M211.013,135.98l-1.442-4.544c17.612-3.871,25.179-19.422,25.179-52.77V67.5h-28.167v27.833h-4.417v-32.5h37.084v15.833
			C239.25,114.659,230.534,131.796,211.013,135.98z"/>
		<path d="M210.811,236.484l-2.454-7.135c17.095-3.734,24.144-17.559,24.144-49.516V169.5h-23.833v26.667h-6.833v-34H239.5v17.666
			C239.5,215.968,230.638,232.362,210.811,236.484z"/>
		<path d="M201.5,261.5h38.25V281c0,36.277-9.009,51.928-29.143,55.988l-3.465-9.727c16.576-3.598,23.107-15.695,23.107-46.262v-9.5
			h-19.5V297h-9.25V261.5z"/>
		<path d="M201.167,360.833H240v21.333c0,36.421-9.155,51.327-29.595,55.326l-3.977-12.318
			c16.059-3.461,22.071-13.832,22.071-43.008V373.5h-16.167v24.333h-11.167V360.833z"/>
		<path d="M200.833,460.166h39.417v23.168c0,36.563-9.302,50.726-30.048,54.662l-4.488-14.909
			c15.541-3.324,21.036-11.969,21.036-39.753V475.5h-12.833v23.167h-13.083V460.166z"/>
		<path d="M200.5,559.5v40h15v-22h9.5v7c0,26.394-4.977,33.312-20,36.5l5,17.5c21.052-3.875,30.5-17.294,30.5-54v-25H200.5z"/>
	</g>
	<g>
		<g>
			<path d="M418.196-17.904c-4.937-6.66-9.817-12.518-14.923-17.908l1.453-1.375c5.16,5.449,10.092,11.367,15.077,18.092
				L418.196-17.904z"/>
			<path d="M405.291,33.457l-0.582-1.914c20.109-6.119,31.816-26.35,34.795-60.131l1.992,0.176
				C438.439,6.261,426.258,27.076,405.291,33.457z"/>
		</g>
		<g>
			<path d="M417.622,83.163c-4.921-6.415-9.864-12.156-14.977-17.424l2.711-3.979c5.207,5.334,10.186,11.108,15.147,17.576
				L417.622,83.163z"/>
			<path d="M437.336,70.593l4.494,0.813c-3.123,35.68-15.355,56.077-36.421,62.558l-1.318-4.678
				C423.248,123.235,434.382,104.253,437.336,70.593z"/>
		</g>
		<g>
			<path d="M417.047,184.23c-4.905-6.17-9.91-11.794-15.031-16.938l3.969-6.583c5.254,5.219,10.28,10.849,15.219,17.061
				L417.047,184.23z"/>
			<path d="M435.169,169.774l6.995,1.451c-3.188,36.687-15.472,56.665-36.637,63.246l-2.055-7.443
				C421.679,221.048,432.238,203.313,435.169,169.774z"/>
		</g>
		<g>
			<path d="M421.902,276.202l-5.43,9.096c-4.891-5.925-9.957-11.433-15.086-16.454l5.227-9.188
				C411.914,264.76,416.987,270.246,421.902,276.202z"/>
			<path d="M433.002,268.956l9.496,2.088c-3.254,37.694-15.589,57.254-36.853,63.935l-2.791-10.207
				C420.109,318.859,430.095,302.373,433.002,268.956z"/>
		</g>
		<g>
			<path d="M422.102,374.635l-6.204,11.73c-4.875-5.68-10.003-11.071-15.14-15.97l5.984-11.792
				C412.089,363.593,417.21,368.935,422.102,374.635z"/>
			<path d="M431.334,368.137l11.498,2.726c-3.32,38.702-15.706,57.843-37.068,64.623l-3.527-12.972
				C418.826,416.672,428.402,401.433,431.334,368.137z"/>
		</g>
		<g>
			<path d="M422.301,473.067l-6.977,14.365c-4.861-5.436-10.051-10.71-15.195-15.484l6.742-14.396
				C412.265,462.426,417.433,467.624,422.301,473.067z"/>
			<path d="M429.667,467.318l13.499,3.363c-3.387,39.709-15.822,58.431-37.284,65.312l-4.264-15.736
				C417.544,514.483,426.711,500.493,429.667,467.318z"/>
		</g>
		<g>
			<path d="M422.5,571.5c-4.844-5.188-10.06-10.241-15.5-15l-7.5,17c5.152,4.651,10.403,9.81,15.25,15L422.5,571.5z"/>
			<path d="M428,566.5c-2.98,33.054-11.739,45.796-27,51.5l5,18.5c21.561-6.98,34.048-25.284,37.5-66L428,566.5z"/>
		</g>
	</g>
	<g>
		<g>
			<path d="M303-36.5v2h33.98c-0.604,40.373-9.826,61.404-29.801,68.053l0.632,1.897c21.244-7.071,30.865-29.262,31.196-71.95H303z"
				/>
			<rect x="305" y="-9.5" width="31" height="2"/>
		</g>
		<g>
			<path d="M302.666,62.833v4.5h31.901c-0.704,39.382-9.084,57.89-28.084,64.211l1.61,4.414c21.515-6.99,30.804-27.6,31.08-73.125
				H302.666z"/>
			<rect x="304.75" y="89.917" width="31.166" height="4.417"/>
		</g>
		<g>
			<path d="M302.333,162.167v7h29.821c-0.803,38.39-8.342,54.374-26.367,60.368l2.588,6.932c21.786-6.91,30.743-25.938,30.963-74.3
				H302.333z"/>
			<rect x="304.5" y="189.333" width="31.333" height="6.834"/>
		</g>
		<g>
			<path d="M302,261.5v9.5h27.74c-0.902,37.398-7.6,50.859-24.65,56.526l3.566,9.448c22.057-6.829,30.682-24.275,30.848-75.475H302z
				"/>
			<rect x="304.25" y="288.75" width="31.5" height="9.25"/>
		</g>
		<g>
			<path d="M301.667,360.833v12h26.16c-1.002,36.407-6.857,47.345-22.934,52.685l4.044,11.965
				c22.328-6.748,30.621-22.613,30.731-76.649H301.667z"/>
			<rect x="304" y="388.166" width="31.667" height="11.667"/>
		</g>
		<g>
			<path d="M301.333,460.166v14.501h24.58c-1.102,35.415-6.114,43.83-21.217,48.842l4.522,14.483
				c22.6-6.669,30.561-20.953,30.616-77.826H301.333z"/>
			<rect x="303.75" y="487.583" width="31.833" height="14.084"/>
		</g>
		<g>
			<path d="M309.5,638.5c22.871-6.588,30.5-19.291,30.5-79h-39v17h23c-1.201,34.423-5.372,40.315-19.5,45L309.5,638.5z"/>
			<rect x="303.5" y="587" width="32" height="16.5"/>
		</g>
	</g>
</g>
<g id="x1.3">
	<g>
		<path d="M616.8,380.596c-6.517,0-11.8-5.282-11.8-11.8c0-6.517,5.283-11.8,11.8-11.8c6.518,0,11.8,5.283,11.8,11.8
			C628.6,375.313,623.317,380.596,616.8,380.596z M616.8,347.996c-11.487,0-20.8,9.313-20.8,20.8s9.313,20.8,20.8,20.8
			s20.8-9.313,20.8-20.8S628.287,347.996,616.8,347.996z"/>
		<path d="M616.8,480.596c-6.517,0-11.8-5.282-11.8-11.8c0-6.517,5.283-11.8,11.8-11.8c6.518,0,11.8,5.283,11.8,11.8
			C628.6,475.313,623.317,480.596,616.8,480.596z M616.8,447.996c-11.487,0-20.8,9.313-20.8,20.8s9.313,20.8,20.8,20.8
			s20.8-9.313,20.8-20.8S628.287,447.996,616.8,447.996z"/>
		<path d="M616.8,580.596c-6.517,0-11.8-5.282-11.8-11.8c0-6.517,5.283-11.8,11.8-11.8c6.518,0,11.8,5.283,11.8,11.8
			C628.6,575.313,623.317,580.596,616.8,580.596z M616.8,547.996c-11.487,0-20.8,9.313-20.8,20.8s9.313,20.8,20.8,20.8
			s20.8-9.313,20.8-20.8S628.287,547.996,616.8,547.996z"/>
	</g>
	<path d="M615.5,278.996c-6.352,0-11.5-5.149-11.5-11.5s5.148-11.5,11.5-11.5s11.5,5.149,11.5,11.5S621.852,278.996,615.5,278.996z
		 M615.5,247.996c-10.77,0-19.5,8.73-19.5,19.5s8.73,19.5,19.5,19.5s19.5-8.73,19.5-19.5S626.27,247.996,615.5,247.996z"/>
	<path d="M613.98,177.965c-6.618,0-11.983-5.365-11.983-11.983c0-6.618,5.365-11.983,11.983-11.983s11.983,5.366,11.983,11.983
		C625.964,172.6,620.599,177.965,613.98,177.965z M613.98,147.999c-9.933,0-17.983,8.052-17.983,17.983
		c0,9.932,8.051,17.983,17.983,17.983c9.932,0,17.983-8.051,17.983-17.983C631.964,156.05,623.912,147.999,613.98,147.999z"/>
	<path d="M612.47,76.936c-6.886,0-12.467-5.582-12.467-12.467s5.581-12.467,12.467-12.467s12.467,5.582,12.467,12.467
		S619.355,76.936,612.47,76.936z M612.47,48.002c-9.095,0-16.467,7.372-16.467,16.467c0,9.094,7.372,16.466,16.467,16.466
		s16.467-7.373,16.467-16.466C628.937,55.375,621.564,48.002,612.47,48.002z"/>
	<path d="M610.95-24.104c-7.152,0-12.95-5.798-12.95-12.95c0-7.152,5.798-12.95,12.95-12.95s12.95,5.798,12.95,12.95
		C623.9-29.902,618.103-24.104,610.95-24.104z M610.95-52.004c-8.257,0-14.95,6.693-14.95,14.95c0,8.256,6.693,14.95,14.95,14.95
		s14.95-6.693,14.95-14.95C625.9-45.311,619.207-52.004,610.95-52.004z"/>
</g>
<g id="x1.4">
	<g>
		<g>
			
				<rect x="492.521" y="561.679" transform="matrix(0.3489 0.9372 -0.9372 0.3489 862.0233 -104.8518)" width="27.894" height="12.5"/>
		</g>
		<polygon points="505.334,483.146 495.69,456.742 506.803,452.674 516.445,479.077 		"/>
		<polygon points="505.19,383.11 495.637,356.444 506.146,352.669 515.7,379.335 		"/>
		<g>
			
				<rect x="490.997" y="262.62" transform="matrix(0.3316 0.9434 -0.9434 0.3316 590.4118 -297.6393)" width="28.543" height="10.501"/>
		</g>
		<polygon points="505.554,182.391 495.734,155.203 502.962,152.645 512.781,179.832 		"/>
		<polygon points="506.06,81.706 495.887,54.259 500.435,52.625 510.607,80.072 		"/>
		<g>
			
				<rect x="487.417" y="-34.186" transform="matrix(0.3551 0.9348 -0.9348 0.3551 292.8444 -490.896)" width="29.639" height="1.999"/>
		</g>
	</g>
	<g>
		<g>
			
				<rect x="512.168" y="557.687" transform="matrix(0.3656 0.9308 -0.9308 0.3656 858.7055 -132.0199)" width="28.069" height="12.5"/>
		</g>
		<polygon points="524.879,479.209 514.569,452.802 525.591,448.495 535.9,474.902 		"/>
		<polygon points="524.24,379.133 513.884,352.445 524.294,348.402 534.65,375.09 		"/>
		<g>
			
				<rect x="508.846" y="258.432" transform="matrix(0.3599 0.933 -0.933 0.3599 580.9744 -319.4506)" width="28.906" height="10.501"/>
		</g>
		<polygon points="522.479,178.489 511.94,151.022 519.095,148.267 529.634,175.733 		"/>
		<polygon points="521.355,77.922 510.682,49.958 515.193,48.224 525.867,76.189 		"/>
		<g>
			
				<rect x="500.539" y="-38.231" transform="matrix(0.355 0.9349 -0.9349 0.355 297.8421 -506.1746)" width="30.446" height="1.999"/>
		</g>
	</g>
</g>
<g id="x1.0" display="none">
	<g display="inline">
		<g>
			<path d="M596-40.5c0,6.341,5.159,11.5,11.5,11.5S619-34.159,619-40.5h-2c0,5.237-4.262,9.5-9.5,9.5s-9.5-4.263-9.5-9.5
				c0-5.239,4.262-9.5,9.5-9.5s9.5,4.261,9.5,9.5h2c0-6.341-5.159-11.5-11.5-11.5S596-46.841,596-40.5z"/>
			<path d="M617.333,60.667c0-4.782-3.886-8.667-8.666-8.667c-4.781,0-8.667,3.885-8.667,8.667c0,4.78,3.886,8.667,8.667,8.667
				C613.447,69.333,617.333,65.447,617.333,60.667h4c0,6.988-5.678,12.667-12.666,12.667c-6.989,0-12.667-5.679-12.667-12.667
				S601.678,48,608.667,48c6.988,0,12.666,5.678,12.666,12.667H617.333z"/>
			<path d="M617.667,161.833c0-4.325-3.51-7.833-7.834-7.833c-4.323,0-7.833,3.509-7.833,7.833c0,4.323,3.51,7.833,7.833,7.833
				C614.157,169.667,617.667,166.157,617.667,161.833h6c0,7.636-6.197,13.833-13.834,13.833c-7.636,0-13.833-6.197-13.833-13.833
				c0-7.637,6.197-13.833,13.833-13.833c7.637,0,13.834,6.197,13.834,13.833H617.667z"/>
			<path d="M618,263c0-3.867-3.134-7-7-7s-7,3.133-7,7c0,3.866,3.134,7,7,7S618,266.866,618,263h8c0,8.283-6.716,15-15,15
				s-15-6.717-15-15c0-8.284,6.716-15,15-15s15,6.716,15,15H618z"/>
			<path d="M618.333,363.333c0-3.867-3.134-7-7-7s-7,3.133-7,7c0,3.866,3.134,7,7,7S618.333,367.199,618.333,363.333h8.334
				c0,8.468-6.865,15.334-15.334,15.334c-8.468,0-15.333-6.866-15.333-15.334c0-8.469,6.865-15.333,15.333-15.333
				c8.469,0,15.334,6.864,15.334,15.333H618.333z"/>
			<path d="M618.667,463.667c0-3.867-3.134-7-7-7s-7,3.133-7,7c0,3.865,3.134,7,7,7S618.667,467.532,618.667,463.667h8.666
				c0,8.651-7.014,15.666-15.666,15.666c-8.653,0-15.667-7.015-15.667-15.666c0-8.653,7.014-15.667,15.667-15.667
				c8.652,0,15.666,7.014,15.666,15.667H618.667z"/>
			<path d="M619,564c0-3.867-3.134-7-7-7s-7,3.133-7,7c0,3.865,3.134,7,7,7S619,567.865,619,564h9c0,8.836-7.163,16-16,16
				s-16-7.164-16-16c0-8.838,7.163-16,16-16s16,7.162,16,16H619z"/>
		</g>
		<g>
			<g>
				<g>
					<path d="M509.5-50.894c3.855,5.799,8.064,12.688,11.259,18.434l1.748-0.974c-3.219-5.787-7.458-12.729-11.341-18.566
						L509.5-50.894z"/>
				</g>
				<g>
					<path d="M496-46.394c3.711,5.582,7.807,12.32,10.957,18.029l1.752-0.967c-3.176-5.753-7.304-12.545-11.043-18.169L496-46.394z"
						/>
				</g>
			</g>
			<g>
				<path d="M510.134,50.271c3.69,5.777,7.693,12.493,10.839,18.223l4.165-2.116c-3.194-5.887-7.148-12.54-10.894-18.377
					L510.134,50.271z"/>
				<path d="M496,54.637c3.573,5.582,7.488,12.203,10.571,17.887l4.135-2.078c-3.147-5.831-7.021-12.39-10.629-18.046L496,54.637z"
					/>
			</g>
			<g>
				<path d="M510.767,151.435c3.525,5.755,7.322,12.296,10.42,18.012l6.583-3.257c-3.172-5.986-6.84-12.353-10.447-18.189
					L510.767,151.435z"/>
				<path d="M496,155.668c3.435,5.582,7.169,12.086,10.186,17.743l6.518-3.188c-3.118-5.909-6.738-12.236-10.214-17.924L496,155.668
					z"/>
			</g>
			<g>
				<path d="M511.4,252.599c3.36,5.733,6.951,12.101,10,17.801l9-4.399c-3.147-6.086-6.53-12.164-10-18L511.4,252.599z"/>
				<path d="M496,256.699c3.297,5.582,6.851,11.969,9.8,17.601l8.9-4.3c-3.09-5.986-6.455-12.081-9.8-17.801L496,256.699z"/>
			</g>
			<g>
				<path d="M531.69,366c-3.14-6.12-6.441-12.146-9.833-18l-9.834,4.999c3.306,5.726,6.82,12.061,9.834,17.768L531.69,366z"/>
				<path d="M515.327,369.88c-3.08-6.012-6.35-12.01-9.637-17.747l-9.69,4.895c3.242,5.587,6.71,11.893,9.637,17.516L515.327,369.88
					z"/>
			</g>
			<g>
				<path d="M532.98,466c-3.131-6.153-6.352-12.128-9.667-18l-10.666,5.398c3.25,5.719,6.689,12.022,9.666,17.734L532.98,466z"/>
				<path d="M515.953,469.76c-3.07-6.038-6.243-11.938-9.473-17.693L496,457.354c3.187,5.592,6.568,11.818,9.474,17.431
					L515.953,469.76z"/>
			</g>
			<g>
				<path d="M534.271,566c-3.123-6.188-6.263-12.109-9.5-18l-11.5,5.799c3.195,5.711,6.559,11.982,9.5,17.701L534.271,566z"/>
				<path d="M516.58,569.64c-3.061-6.063-6.138-11.867-9.31-17.64L496,557.683c3.132,5.597,6.428,11.742,9.311,17.346L516.58,569.64
					z"/>
			</g>
		</g>
	</g>
	<g display="inline">
		<g>
			<path fill="#00BD12" d="M596-40.5c0,6.341,5.159,11.5,11.5,11.5S619-34.159,619-40.5h-2c0,5.237-4.262,9.5-9.5,9.5
				s-9.5-4.263-9.5-9.5c0-5.239,4.262-9.5,9.5-9.5s9.5,4.261,9.5,9.5h2c0-6.341-5.159-11.5-11.5-11.5S596-46.841,596-40.5z"/>
			<path fill="#00BD12" d="M617.333,60.667c0-4.782-3.886-8.667-8.666-8.667c-4.781,0-8.667,3.885-8.667,8.667
				c0,4.78,3.886,8.667,8.667,8.667C613.447,69.333,617.333,65.447,617.333,60.667h4c0,6.988-5.678,12.667-12.666,12.667
				c-6.989,0-12.667-5.679-12.667-12.667S601.678,48,608.667,48c6.988,0,12.666,5.678,12.666,12.667H617.333z"/>
			<path fill="#00BD12" d="M617.667,161.833c0-4.325-3.51-7.833-7.834-7.833c-4.323,0-7.833,3.509-7.833,7.833
				c0,4.323,3.51,7.833,7.833,7.833C614.157,169.667,617.667,166.157,617.667,161.833h6c0,7.636-6.197,13.833-13.834,13.833
				c-7.636,0-13.833-6.197-13.833-13.833c0-7.637,6.197-13.833,13.833-13.833c7.637,0,13.834,6.197,13.834,13.833H617.667z"/>
			<path fill="#00BD12" d="M618,263c0-3.867-3.134-7-7-7s-7,3.133-7,7c0,3.866,3.134,7,7,7S618,266.866,618,263h8
				c0,8.283-6.716,15-15,15s-15-6.717-15-15c0-8.284,6.716-15,15-15s15,6.716,15,15H618z"/>
			<path fill="#00BD12" d="M618.333,363.333c0-3.867-3.134-7-7-7s-7,3.133-7,7c0,3.866,3.134,7,7,7S618.333,367.199,618.333,363.333
				h8.334c0,8.468-6.865,15.334-15.334,15.334c-8.468,0-15.333-6.866-15.333-15.334c0-8.469,6.865-15.333,15.333-15.333
				c8.469,0,15.334,6.864,15.334,15.333H618.333z"/>
			<path fill="#00BD12" d="M618.667,463.667c0-3.867-3.134-7-7-7s-7,3.133-7,7c0,3.865,3.134,7,7,7S618.667,467.532,618.667,463.667
				h8.666c0,8.651-7.014,15.666-15.666,15.666c-8.653,0-15.667-7.015-15.667-15.666c0-8.653,7.014-15.667,15.667-15.667
				c8.652,0,15.666,7.014,15.666,15.667H618.667z"/>
			<path fill="#00BD12" d="M619,564c0-3.867-3.134-7-7-7s-7,3.133-7,7c0,3.865,3.134,7,7,7S619,567.865,619,564h9
				c0,8.836-7.163,16-16,16s-16-7.164-16-16c0-8.838,7.163-16,16-16s16,7.162,16,16H619z"/>
		</g>
		<g>
			<g>
				<g>
					<path fill="#00BD12" d="M509.5-50.894c3.855,5.799,8.064,12.688,11.259,18.434l1.748-0.974
						c-3.219-5.787-7.458-12.729-11.341-18.566L509.5-50.894z"/>
				</g>
				<g>
					<path fill="#00BD12" d="M496-46.394c3.711,5.582,7.807,12.32,10.957,18.029l1.752-0.967
						c-3.176-5.753-7.304-12.545-11.043-18.169L496-46.394z"/>
				</g>
			</g>
			<g>
				<path fill="#00BD12" d="M510.134,50.271c3.69,5.777,7.693,12.493,10.839,18.223l4.165-2.116
					c-3.194-5.887-7.148-12.54-10.894-18.377L510.134,50.271z"/>
				<path fill="#00BD12" d="M496,54.637c3.573,5.582,7.488,12.203,10.571,17.887l4.135-2.078
					c-3.147-5.831-7.021-12.39-10.629-18.046L496,54.637z"/>
			</g>
			<g>
				<path fill="#00BD12" d="M510.767,151.435c3.525,5.755,7.322,12.296,10.42,18.012l6.583-3.257
					c-3.172-5.986-6.84-12.353-10.447-18.189L510.767,151.435z"/>
				<path fill="#00BD12" d="M496,155.668c3.435,5.582,7.169,12.086,10.186,17.743l6.518-3.188
					c-3.118-5.909-6.738-12.236-10.214-17.924L496,155.668z"/>
			</g>
			<g>
				<path fill="#00BD12" d="M511.4,252.599c3.36,5.733,6.951,12.101,10,17.801l9-4.399c-3.147-6.086-6.53-12.164-10-18
					L511.4,252.599z"/>
				<path fill="#00BD12" d="M496,256.699c3.297,5.582,6.851,11.969,9.8,17.601l8.9-4.3c-3.09-5.986-6.455-12.081-9.8-17.801
					L496,256.699z"/>
			</g>
			<g>
				<path fill="#00BD12" d="M531.69,366c-3.14-6.12-6.441-12.146-9.833-18l-9.834,4.999c3.306,5.726,6.82,12.061,9.834,17.768
					L531.69,366z"/>
				<path fill="#00BD12" d="M515.327,369.88c-3.08-6.012-6.35-12.01-9.637-17.747l-9.69,4.895c3.242,5.587,6.71,11.893,9.637,17.516
					L515.327,369.88z"/>
			</g>
			<g>
				<path fill="#00BD12" d="M532.98,466c-3.131-6.153-6.352-12.128-9.667-18l-10.666,5.398c3.25,5.719,6.689,12.022,9.666,17.734
					L532.98,466z"/>
				<path fill="#00BD12" d="M515.953,469.76c-3.07-6.038-6.243-11.938-9.473-17.693L496,457.354
					c3.187,5.592,6.568,11.818,9.474,17.431L515.953,469.76z"/>
			</g>
			<g>
				<path fill="#00BD12" d="M534.271,566c-3.123-6.188-6.263-12.109-9.5-18l-11.5,5.799c3.195,5.711,6.559,11.982,9.5,17.701
					L534.271,566z"/>
				<path fill="#00BD12" d="M516.58,569.64c-3.061-6.063-6.138-11.867-9.31-17.64L496,557.683
					c3.132,5.597,6.428,11.742,9.311,17.346L516.58,569.64z"/>
			</g>
		</g>
	</g>
</g>
</svg>
