<?xml version="1.0" encoding="utf-8"?>
<!-- Generator: Adobe Illustrator 14.0.0, SVG Export Plug-In . SVG Version: 6.00 Build 43363)  -->
<!DOCTYPE svg PUBLIC "-//W3C//DTD SVG 1.0//EN" "http://www.w3.org/TR/2001/REC-SVG-20010904/DTD/svg10.dtd">
<svg version="1.0" id="レイヤー1" xmlns="http://www.w3.org/2000/svg" xmlns:xlink="http://www.w3.org/1999/xlink" x="0px"
	 y="0px" width="841.89px" height="595.275px" viewBox="0 0 841.89 595.275" enable-background="new 0 0 841.89 595.275"
	 xml:space="preserve">
<g>
	<rect x="71.5" y="-76.5" fill="none" stroke="#000000" stroke-width="0.25" width="50" height="150"/>
	<rect x="171.5" y="-76.5" fill="none" stroke="#000000" stroke-width="0.25" width="50" height="150"/>
	<rect x="271.5" y="-76.5" fill="none" stroke="#000000" stroke-width="0.25" width="50" height="150"/>
	<rect x="371.5" y="-76.5" fill="none" stroke="#000000" stroke-width="0.25" width="50" height="150"/>
	<rect x="471.5" y="-76.5" fill="none" stroke="#000000" stroke-width="0.25" width="50" height="150"/>
	<rect x="571.5" y="-76.5" fill="none" stroke="#000000" stroke-width="0.25" width="50" height="150"/>
	<rect x="671.5" y="-76.5" fill="none" stroke="#000000" stroke-width="0.25" width="50" height="150"/>
	<rect x="71.5" y="73.5" fill="none" stroke="#000000" stroke-width="0.25" width="50" height="150"/>
	<rect x="171.5" y="73.5" fill="none" stroke="#000000" stroke-width="0.25" width="50" height="150"/>
	<rect x="271.5" y="73.5" fill="none" stroke="#000000" stroke-width="0.25" width="50" height="150"/>
	<rect x="371.5" y="73.5" fill="none" stroke="#000000" stroke-width="0.25" width="50" height="150"/>
	<rect x="471.5" y="73.5" fill="none" stroke="#000000" stroke-width="0.25" width="50" height="150"/>
	<rect x="571.5" y="73.5" fill="none" stroke="#000000" stroke-width="0.25" width="50" height="150"/>
	<rect x="671.5" y="73.5" fill="none" stroke="#000000" stroke-width="0.25" width="50" height="150"/>
	<rect x="71.5" y="223.5" fill="none" stroke="#000000" stroke-width="0.25" width="50" height="150"/>
	<rect x="171.5" y="223.5" fill="none" stroke="#000000" stroke-width="0.25" width="50" height="150"/>
	<rect x="271.5" y="223.5" fill="none" stroke="#000000" stroke-width="0.25" width="50" height="150"/>
	<rect x="371.5" y="223.5" fill="none" stroke="#000000" stroke-width="0.25" width="50" height="150"/>
	<rect x="471.5" y="223.5" fill="none" stroke="#000000" stroke-width="0.25" width="50" height="150"/>
	<rect x="571.5" y="223.5" fill="none" stroke="#000000" stroke-width="0.25" width="50" height="150"/>
	<rect x="671.5" y="223.5" fill="none" stroke="#000000" stroke-width="0.25" width="50" height="150"/>
	<rect x="71.5" y="373.5" fill="none" stroke="#000000" stroke-width="0.25" width="50" height="150"/>
	<rect x="171.5" y="373.5" fill="none" stroke="#000000" stroke-width="0.25" width="50" height="150"/>
	<rect x="271.5" y="373.5" fill="none" stroke="#000000" stroke-width="0.25" width="50" height="150"/>
	<rect x="371.5" y="373.5" fill="none" stroke="#000000" stroke-width="0.25" width="50" height="150"/>
	<rect x="471.5" y="373.5" fill="none" stroke="#000000" stroke-width="0.25" width="50" height="150"/>
	<rect x="571.5" y="373.5" fill="none" stroke="#000000" stroke-width="0.25" width="50" height="150"/>
	<rect x="671.5" y="373.5" fill="none" stroke="#000000" stroke-width="0.25" width="50" height="150"/>
	<rect x="71.5" y="523.5" fill="none" stroke="#000000" stroke-width="0.25" width="50" height="150"/>
	<rect x="171.5" y="523.5" fill="none" stroke="#000000" stroke-width="0.25" width="50" height="150"/>
	<rect x="271.5" y="523.5" fill="none" stroke="#000000" stroke-width="0.25" width="50" height="150"/>
	<rect x="371.5" y="523.5" fill="none" stroke="#000000" stroke-width="0.25" width="50" height="150"/>
	<rect x="471.5" y="523.5" fill="none" stroke="#000000" stroke-width="0.25" width="50" height="150"/>
	<rect x="571.5" y="523.5" fill="none" stroke="#000000" stroke-width="0.25" width="50" height="150"/>
	<rect x="671.5" y="523.5" fill="none" stroke="#000000" stroke-width="0.25" width="50" height="150"/>
	<rect x="771.5" y="-76.5" fill="none" stroke="#000000" stroke-width="0.25" width="50" height="150"/>
	<rect x="771.5" y="73.5" fill="none" stroke="#000000" stroke-width="0.25" width="50" height="150"/>
	<rect x="771.5" y="223.5" fill="none" stroke="#000000" stroke-width="0.25" width="50" height="150"/>
	<rect x="771.5" y="373.5" fill="none" stroke="#000000" stroke-width="0.25" width="50" height="150"/>
	<rect x="771.5" y="523.5" fill="none" stroke="#000000" stroke-width="0.25" width="50" height="150"/>
</g>
<g>
	<path d="M96.5,557.5c14.134,0,21,8.363,21,37.5s-6.866,37.5-21,37.5V621c5.225,0,8-4.36,8-26s-2.775-26-8-26s-8,4.36-8,26
		s2.775,26,8,26v11.5c-14.134,0-21-8.363-21-37.5S82.366,557.5,96.5,557.5z"/>
	<path d="M96.5,407.5c13.215,0,20,8.326,20,37.5s-6.785,37.5-20,37.5v-9.25c6.052,0,9.6-5.603,9.6-28.25s-3.548-28.25-9.6-28.25
		s-9.6,5.603-9.6,28.25s3.548,28.25,9.6,28.25v9.25c-13.215,0-20-8.326-20-37.5S83.285,407.5,96.5,407.5z"/>
	<path d="M96.5,257.5c12.297,0,19,8.29,19,37.5s-6.703,37.5-19,37.5v-7c6.88,0,11.2-6.845,11.2-30.5s-4.32-30.5-11.2-30.5
		s-11.2,6.845-11.2,30.5s4.32,30.5,11.2,30.5v7c-12.297,0-19-8.29-19-37.5S84.203,257.5,96.5,257.5z"/>
	<path fill="#110C0A" d="M96.5,107.5c12.106,0,18,9.752,18,37.5s-5.894,37.5-18,37.5V178c7.148,0,13.1-5.531,13.1-33
		s-5.952-33-13.1-33s-13.1,5.531-13.1,33s5.952,33,13.1,33v4.5c-12.106,0-18-9.752-18-37.5S84.394,107.5,96.5,107.5z"/>
	<path d="M96.5,32.5c11.916,0,17-11.215,17-37.5s-5.084-37.5-17-37.5s-17,11.215-17,37.5S84.584,32.5,96.5,32.5v-2
		c-7.417,0-15-4.218-15-35.5s7.583-35.5,15-35.5s15,4.218,15,35.5s-7.583,35.5-15,35.5V32.5z"/>
</g>
<g>
	<polygon points="195.5,572.25 195.5,631.5 209.5,631.5 209.5,558.5 195.5,558.5 178,568.5 178,581.25 195.326,572.15 	"/>
	<polygon points="196.4,481.5 207.5,481.5 207.5,408.5 196.4,408.5 178.9,418.75 178.9,429.125 196.226,419.525 196.4,419.625 	"/>
	<polygon points="197.3,331.5 205.5,331.5 205.5,258.5 197.3,258.5 179.8,269 179.8,277 197.126,266.899 197.3,267 	"/>
	<polygon points="198.4,181.5 203.5,181.5 203.5,108.5 198.4,108.5 180.15,118.952 180.15,124.083 198.226,113.79 198.4,113.89 	"/>
	<polygon points="199.5,-41.5 180.5,-31.095 180.5,-28.834 199.326,-39.32 199.5,-39.22 199.5,31.5 201.5,31.5 201.5,-41.5 	"/>
</g>
<g>
	<polygon points="498,631.5 511.5,631.5 511.5,558.5 496.5,558.5 473.5,604.5 473.5,616.5 519.5,616.5 519.5,604.5 485.1,604.5 
		485.1,604.3 497.8,579 498,579 	"/>
	<polygon points="499.4,481.5 510.25,481.5 510.25,408.5 498.15,408.5 474.5,455.15 474.5,465.25 518.5,465.25 518.5,455.65 
		484.1,455.65 484.1,455.449 499.199,425.75 499.4,425.75 	"/>
	<polygon points="500.8,272.5 500.8,331.5 509,331.5 509,258.5 499.8,258.5 475.5,305.8 475.5,314 517.5,314 517.5,306.8 
		483.1,306.8 483.1,306.6 500.6,272.5 	"/>
	<polygon points="502.4,181.5 507.5,181.5 507.5,108.5 501.9,108.5 475.5,158.15 475.5,163.25 516.5,163.25 516.5,158.65 
		480.5,158.65 480.5,158.45 502.199,117.775 502.4,117.775 	"/>
	<polygon points="477.9,10.3 503.8,-36.95 504,-36.95 504,31.5 506,31.5 506,-41.5 504,-41.5 475.5,10.5 475.5,12.5 515.5,12.5 
		515.5,10.5 477.9,10.5 	"/>
</g>
<g>
	<path d="M591.7,586.001L591.5,586l0.5-15.5h22v-12h-34.5l-1,41h11c1.977-2.326,4.039-3.439,6.424-3.439
		c4.01,0,6.076,2.688,6.076,11.939c0,9.094-3.358,12.5-10,12.5c-3.338,0-9.002-1.69-14-4.5v13c5.265,2.548,9.32,3.5,15,3.5
		c14.807,0,23-7.766,23-24.5c0-17.012-5.951-23.939-16.076-23.939C597.373,584.061,593.784,584.924,591.7,586.001z"/>
	<path d="M590.5,437.25l0.6-19.15h22.15v-9.6h-32.5l-1,39.75H589c1.975-2.384,4.629-3.77,7.212-3.77
		c5.031,0,7.838,3.588,7.838,13.77c0,10.391-3.95,14.55-10.8,14.55c-3.518,0-9.146-1.653-14-4.399v10.85
		c5.126,2.332,9.359,3.25,14.75,3.25c13.678,0,21.25-7.336,21.25-24.25c0-16.72-5.854-23.47-16.038-23.47
		c-3.071,0-6.41,0.993-8.512,2.47H590.5z"/>
	<path d="M589.5,288.5l0.7-22.8h22.3v-7.2H582l-1,38.5h7.5c1.974-2.442,5.22-4.1,8-4.1c6.053,0,9.6,4.488,9.6,15.6
		c0,11.688-4.543,16.6-11.6,16.6c-3.698,0-9.291-1.616-14-4.3v8.7c4.987,2.116,9.397,3,14.5,3c12.549,0,19.5-6.907,19.5-24
		c0-16.428-5.756-23-16-23c-3.592,0-6.681,1.124-8.8,3H589.5z"/>
	<path d="M611.5,113.1v-4.6h-28.479l-1.283,36.75h4.729c2.307-2.529,6.33-4.3,9.783-4.3c8.143,0,12.3,5.501,12.3,18.05
		c0,12.713-5.124,18.8-14.05,18.8c-3.854,0-9.006-1.525-13.25-3.991v5.507c4.439,2.099,8.959,3.185,13.5,3.185
		c10.494,0,19-5.449,19-23.5c0-15.784-5.658-22.75-16.5-22.75c-3.736,0-7.394,1.322-9.999,3.383h-0.2l1.027-26.533H611.5z"/>
	<path d="M584.602-9.235l1.354-30.265H610.5v-2h-26.456l-1.567,35h1.956C587.074-9.116,591.874-11,596-11c10.233,0,15,6.514,15,20.5
		c0,13.738-5.706,21-16.5,21c-4.008,0-8.721-1.435-12.5-3.682v2.313c3.893,2.081,8.521,3.369,12.5,3.369c8.439,0,18.5-3.99,18.5-23
		c0-15.14-5.561-22.5-17-22.5c-3.882,0-8.106,1.521-11.198,3.765H584.602z"/>
</g>
<g>
	<path d="M777,558.5v12h26v0.2c-8.019,18.15-15.445,38.844-21.6,60.8H796c6.188-24.1,12.188-42.224,20-61v-12H777z"/>
	<path d="M804.5,418.301c-8.267,18.664-15.75,40.208-21.699,63.199H794.5c5.955-24.647,12.394-44.289,20.5-63.4v-9.6h-37v9.6h26.5
		V418.301z"/>
	<path d="M806,265.9c-8.515,19.178-16.054,41.573-21.8,65.6h8.8c5.722-25.195,12.6-46.354,21-65.8v-7.2h-35v7.2h27V265.9z"/>
	<path d="M779.75,108.5v4.6h28.457v0.2c-8.719,20.258-16.004,42.97-21.645,68.2h5.425c5.665-25.987,12.657-48.177,21.263-68.4v-4.6
		H779.75z"/>
	<path d="M810.414-39.3c-8.922,21.338-15.953,44.366-21.489,70.8h2.05c5.607-26.778,12.715-50,21.525-71v-2h-32v2h29.914V-39.3z"/>
</g>
<g>
	<path d="M293.5,619.3c14.945-16.527,21.5-29.719,21.5-41.8c0-13.212-7.21-20-19-20c-6.558,0-13.565,2.645-18.5,7v13
		c5.188-4.945,11.504-8,15.5-8c5.047,0,8,3.193,8,9c0,10.095-6.258,21.91-23.5,41v12h38v-12h-22V619.3z"/>
	<path d="M291.25,471.699C307.744,452.609,314,439.476,314,427c0-12.916-6.178-19.5-17.75-19.5c-6.212,0-12.931,2.521-17.75,6.75
		v10.85c5.021-4.743,11.655-7.899,15.65-7.899c5.78,0,8.65,3.604,8.65,10.3c0,11.178-6.917,24.826-24.3,44.4v9.6h36v-9.6h-23.25
		V471.699z"/>
	<path d="M289,324.099c18.042-21.653,24-34.729,24-47.599c0-12.62-5.146-19-16.5-19c-5.867,0-12.297,2.397-17,6.5v8.7
		c4.854-4.542,11.807-7.8,15.8-7.8c6.513,0,9.3,4.016,9.3,11.6c0,12.261-7.576,27.742-25.1,47.8v7.2h34v-7.2H289V324.099z"/>
	<path d="M296.25,107.5c-5.307,0-11.462,2.517-16,6.547v5.753c4.476-4.456,11.009-7.6,15.4-7.6c7.988,0,11.4,4.4,11.4,13.8
		c0,12.301-7.523,27.125-26.8,50.9v4.6h32.5v-4.6h-26.498v-0.201c19.457-24.533,25.998-37.858,25.998-50.699
		C312.25,113.466,307.287,107.5,296.25,107.5z"/>
	<path d="M311.5-24.5c0-12.449-4.78-18-15.5-18c-4.747,0-10.626,2.637-15,6.594v2.807c4.098-4.37,10.211-7.4,15-7.4
		c9.462,0,13.5,4.785,13.5,16c0,12.341-7.47,26.508-28.5,54v2h31v-2h-28.497v-0.2C304.375,1.888,311.5-11.688,311.5-24.5z"/>
</g>
<g>
	<path d="M390.213-11.2L412-39.511V-41.5h-31.5v2h28.787v0.2L387.5-10.989V-9h5c12.28,0,18,6.037,18,19c0,14.561-4.925,20.5-17,20.5
		c-4.337,0-8.267-1.325-12-4.021v2.437c3.737,2.409,7.681,3.584,12,3.584c13.318,0,19-6.729,19-22.5c0-14.131-6.542-21-20-21h-2.287
		V-11.2z"/>
	<path d="M380,108.5v4.6h26.894v0.2L387,138.905v4.595h6c11.173,0,15.3,4.32,15.3,16.75c0,12.52-4.635,17.55-14.8,17.55
		c-3.967,0-7.762-1.193-12.5-4.16v5.568c4.62,2.365,8.267,3.292,13.25,3.292c12.846,0,19.25-6.729,19.25-22.25
		c0-14.852-6.094-21.35-18.75-21.35h-1.644v-0.2L413,113.095V108.5H380z"/>
	<path d="M404.5,265.9l-18,22.899v7.2h7c10.065,0,12.6,2.604,12.6,14.5c0,10.479-4.344,14.6-12.6,14.6c-3.596,0-7.258-1.062-13-4.3
		v8.7c5.502,2.321,8.854,3,14.5,3c12.374,0,19.5-6.73,19.5-22c0-15.572-5.646-21.7-17.5-21.7h-1v-0.2l18-22.899v-7.2h-34.5v7.2h25
		V265.9z"/>
	<path d="M378.5,408.5v9.6h24v0.201l-17,19.85v9.6h5.5c10.908,0,13.3,2.218,13.3,12c0,9.432-3.72,13.05-10.8,13.05
		c-4.328,0-8.032-1.039-14-4.399v10.85c5.927,2.613,9.057,3.25,15.25,3.25c13.609,0,20.75-6.993,20.75-22.75
		c0-14.735-5.877-21.1-17-21.1h-1v-0.201L415,418.1v-9.6H378.5z"/>
	<path d="M400.5,570.7l-16,16.8v12h4c11.75,0,14,1.832,14,9.5c0,8.385-3.097,11.5-9,11.5c-5.061,0-8.807-1.017-15-4.5v13
		c6.352,2.906,9.261,3.5,16,3.5c14.844,0,22-7.256,22-23.5c0-13.898-6.109-20.5-16.5-20.5h-1v-0.2l17-17.8v-12h-38.5v12h23V570.7z"
		/>
</g>
<g>
	<path d="M701,569c3.862,0,8.564,1.175,12,3v-12.5c-3.761-1.14-9.72-2-13.5-2c-16.483,0-23.5,9.498-23.5,42c0,25.834,6.577,33,21,33
		v-11.7c-4.514,0-7-2.971-7-14.3c0-9.847,2.571-13,7.5-13c5.056,0,6.7,2.152,6.7,13c0,11.675-2.158,14.3-7.2,14.3v11.7
		c13.958,0,21-6.716,21-26c0-17.837-5.487-24-17.5-24c-3.306,0-6.966,1.309-9.8,3.5h-0.2C691.302,572.092,693.994,569,701,569z"/>
	<path d="M699.75,407.5c-15.263,0-22.5,9.587-22.5,42c0,25.758,6.363,33,19.75,33v-9.45c-5.465,0-8.55-3.646-8.55-16.8
		c0-10.588,3.223-14.5,9.05-14.5c5.783,0,8.25,3.129,8.25,15c0,13.115-2.787,16.3-8.75,16.3v9.45c12.932,0,19.75-6.887,19.75-25.75
		c0-17.6-5.586-24-17.25-24c-3.728,0-7.473,1.505-10.55,4.25h-0.2c0.938-16.244,4.255-20.15,12.25-20.15
		c3.838,0,7.72,0.947,11.25,2.75v-10.1C708.609,408.291,703.496,407.5,699.75,407.5z"/>
	<path d="M700,257.5c-14.042,0.001-21.5,9.676-21.5,42c0,25.682,6.148,33,18.5,33v-7.2c-6.417,0-10.1-4.32-10.1-19.3
		c0-11.33,3.874-16,10.6-16c6.511,0,9.8,4.104,9.8,17c0,14.555-3.416,18.3-10.3,18.3v7.2c11.906,0,18.5-7.057,18.5-25.5
		c0-17.362-5.684-24-17-24c-4.149,0-7.98,1.701-11.3,5H687c1.073-18.58,5.016-23.3,14-23.3c3.813,0,6.875,0.718,10.5,2.5v-7.7
		C707.979,258.222,703.711,257.499,700,257.5z"/>
	<path d="M700.5,112.1c3.91,0,6.872,0.718,10.75,2.675v-4.964c-3.703-1.584-7.378-2.312-11.25-2.311c-13.486,0-20.75,9.513-20.75,42
		c0,25.461,6.107,33,18,33v-4.6c-7.133,0-11.757-4.038-12.578-19.837c-0.69-13.281,4.997-20.313,13.088-20.313
		c7.959,0,11.891,5.65,11.891,19.5c0,17.585-5.846,20.65-12.4,20.65v4.6c11.125,0,17.5-6.94,17.5-25.25c0-17.054-5.842-24-16.49-24
		c-5.719,0-10.535,3.207-13.594,8.671l-0.199-0.017C685.266,117.602,690.812,112.1,700.5,112.1z"/>
	<path d="M698.02-16.5c-7.289,0-13.089,4.714-15.888,12.343l-0.197-0.035C682.457-34.217,689.607-40.5,700-40.5
		c4.007,0,6.869,0.717,11,2.85v-2.228c-3.886-1.891-6.967-2.622-11-2.622c-12.93,0-20,9.35-20,42c0,25.24,6.065,33,17.5,33v-2
		c-7.85,0-13.486-3.752-15.058-20.375C681.003-5.104,688.563-14.5,698.02-14.5c9.407,0,13.98,7.196,13.98,22
		c0,20.615-8.275,23-14.5,23v2c10.345,0,16.5-6.824,16.5-25C714-9.246,708.001-16.5,698.02-16.5z"/>
</g>
<g>
	<polygon points="83.624,318.909 81.037,317.392 108.876,269.956 111.463,271.474 83.624,318.909 	"/>
	<polygon points="84.522,619.429 81.07,617.409 108.478,570.571 111.93,572.591 84.522,619.429 	"/>
</g>
</svg>
