<?xml version="1.0" encoding="utf-8"?>
<!-- Generator: Adobe Illustrator 14.0.0, SVG Export Plug-In . SVG Version: 6.00 Build 43363)  -->
<!DOCTYPE svg PUBLIC "-//W3C//DTD SVG 1.0//EN" "http://www.w3.org/TR/2001/REC-SVG-20010904/DTD/svg10.dtd">
<svg version="1.0" id="レイヤー1" xmlns="http://www.w3.org/2000/svg" xmlns:xlink="http://www.w3.org/1999/xlink" x="0px"
	 y="0px" width="841.89px" height="595.275px" viewBox="0 0 841.89 595.275" enable-background="new 0 0 841.89 595.275"
	 xml:space="preserve">
<g>
	<rect x="71.5" y="-76.5" fill="none" stroke="#000000" stroke-width="0.25" width="50" height="150"/>
	<rect x="171.5" y="-76.5" fill="none" stroke="#000000" stroke-width="0.25" width="50" height="150"/>
	<rect x="271.5" y="-76.5" fill="none" stroke="#000000" stroke-width="0.25" width="50" height="150"/>
	<rect x="371.5" y="-76.5" fill="none" stroke="#000000" stroke-width="0.25" width="50" height="150"/>
	<rect x="471.5" y="-76.5" fill="none" stroke="#000000" stroke-width="0.25" width="50" height="150"/>
	<rect x="571.5" y="-76.5" fill="none" stroke="#000000" stroke-width="0.25" width="50" height="150"/>
	<rect x="671.5" y="-76.5" fill="none" stroke="#000000" stroke-width="0.25" width="50" height="150"/>
	<rect x="71.5" y="73.5" fill="none" stroke="#000000" stroke-width="0.25" width="50" height="150"/>
	<rect x="171.5" y="73.5" fill="none" stroke="#000000" stroke-width="0.25" width="50" height="150"/>
	<rect x="271.5" y="73.5" fill="none" stroke="#000000" stroke-width="0.25" width="50" height="150"/>
	<rect x="371.5" y="73.5" fill="none" stroke="#000000" stroke-width="0.25" width="50" height="150"/>
	<rect x="471.5" y="73.5" fill="none" stroke="#000000" stroke-width="0.25" width="50" height="150"/>
	<rect x="571.5" y="73.5" fill="none" stroke="#000000" stroke-width="0.25" width="50" height="150"/>
	<rect x="671.5" y="73.5" fill="none" stroke="#000000" stroke-width="0.25" width="50" height="150"/>
	<rect x="71.5" y="223.5" fill="none" stroke="#000000" stroke-width="0.25" width="50" height="150"/>
	<rect x="171.5" y="223.5" fill="none" stroke="#000000" stroke-width="0.25" width="50" height="150"/>
	<rect x="271.5" y="223.5" fill="none" stroke="#000000" stroke-width="0.25" width="50" height="150"/>
	<rect x="371.5" y="223.5" fill="none" stroke="#000000" stroke-width="0.25" width="50" height="150"/>
	<rect x="471.5" y="223.5" fill="none" stroke="#000000" stroke-width="0.25" width="50" height="150"/>
	<rect x="571.5" y="223.5" fill="none" stroke="#000000" stroke-width="0.25" width="50" height="150"/>
	<rect x="671.5" y="223.5" fill="none" stroke="#000000" stroke-width="0.25" width="50" height="150"/>
	<rect x="71.5" y="373.5" fill="none" stroke="#000000" stroke-width="0.25" width="50" height="150"/>
	<rect x="171.5" y="373.5" fill="none" stroke="#000000" stroke-width="0.25" width="50" height="150"/>
	<rect x="271.5" y="373.5" fill="none" stroke="#000000" stroke-width="0.25" width="50" height="150"/>
	<rect x="371.5" y="373.5" fill="none" stroke="#000000" stroke-width="0.25" width="50" height="150"/>
	<rect x="471.5" y="373.5" fill="none" stroke="#000000" stroke-width="0.25" width="50" height="150"/>
	<rect x="571.5" y="373.5" fill="none" stroke="#000000" stroke-width="0.25" width="50" height="150"/>
	<rect x="671.5" y="373.5" fill="none" stroke="#000000" stroke-width="0.25" width="50" height="150"/>
	<rect x="71.5" y="523.5" fill="none" stroke="#000000" stroke-width="0.25" width="50" height="150"/>
	<rect x="171.5" y="523.5" fill="none" stroke="#000000" stroke-width="0.25" width="50" height="150"/>
	<rect x="271.5" y="523.5" fill="none" stroke="#000000" stroke-width="0.25" width="50" height="150"/>
	<rect x="371.5" y="523.5" fill="none" stroke="#000000" stroke-width="0.25" width="50" height="150"/>
	<rect x="471.5" y="523.5" fill="none" stroke="#000000" stroke-width="0.25" width="50" height="150"/>
	<rect x="571.5" y="523.5" fill="none" stroke="#000000" stroke-width="0.25" width="50" height="150"/>
	<rect x="671.5" y="523.5" fill="none" stroke="#000000" stroke-width="0.25" width="50" height="150"/>
</g>
<g>
	<rect x="495.5" y="-49.5" width="2" height="103"/>
	<rect x="494.125" y="100.5" width="4.75" height="103"/>
	<rect x="492.75" y="250.5" width="7.5" height="103"/>
	<rect x="491.5" y="400.5" width="10" height="103"/>
	<rect x="490.25" y="550.5" width="12.5" height="103"/>
</g>
<g>
	<polygon points="96.6,598 89.7,579.5 75,579.5 87.5,605.5 75,631.5 89.8,631.5 96.199,613.5 96.399,613.5 102.8,631.5 118,631.5 
		105.5,605.5 118,579.5 103.7,579.5 96.8,598 	"/>
	<polygon points="96.6,449.5 87.95,429.5 76,429.5 89.5,455.5 76,481.5 87.899,481.5 96.199,461.75 96.399,461.75 104.7,481.5 
		117,481.5 103.5,455.5 117,429.5 105.45,429.5 96.8,449.5 	"/>
	<polygon points="96.6,301 86.2,279.5 77,279.5 91.5,305.5 77,331.5 86,331.5 96.199,310 96.399,310 106.6,331.5 116,331.5 
		101.5,305.5 116,279.5 107.201,279.5 96.8,301 	"/>
	<polygon points="83.78,129.5 78,129.5 93.41,155.5 78,181.5 83.68,181.5 96.3,158.69 96.5,158.69 109.12,181.5 115,181.5 
		99.59,155.5 115,129.5 109.42,129.5 96.7,152.31 96.5,152.31 	"/>
	<polygon points="96.6,7.38 111.64,31.5 114,31.5 97.68,5.5 114,-20.5 111.64,-20.5 96.6,3.62 96.4,3.62 81.36,-20.5 79,-20.5 
		95.32,5.5 79,31.5 81.36,31.5 96.4,7.38 	"/>
</g>
<g>
	<polygon points="196.899,614.5 188.2,579.5 174,579.5 191,630.5 182.5,653.5 196.3,653.5 220,579.5 205.8,579.5 197.1,614.5 	"/>
	<polygon points="197.149,467 186.5,429.5 175,429.5 192.25,480.5 184.1,503.5 195.15,503.5 219,429.5 207.55,429.5 197.35,467 	"/>
	<polygon points="197.399,319.5 184.8,279.5 176,279.5 193.5,330.5 185.7,353.5 194,353.5 218,279.5 209.3,279.5 197.6,319.5 	"/>
	<polygon points="182.465,129.5 177,129.5 194.65,179.749 186.28,203.5 191.5,203.5 217,129.5 211.58,129.5 197.286,172.779 
		197.086,172.779 	"/>
	<polygon points="196.772,26.059 180.13,-20.5 178,-20.5 195.8,28.999 186.86,53.5 189,53.5 216,-20.5 213.86,-20.5 196.973,26.059 
			"/>
</g>
<g>
	<polygon points="299,590.4 278,590.4 278,579.5 315,579.5 315,590.4 294,620.399 294,620.6 315,620.6 315,631.5 278,631.5 
		278,620.6 299,590.601 	"/>
	<polygon points="278.75,429.5 314.25,429.5 314.25,438.4 291.35,472.399 291.35,472.6 314.25,472.6 314.25,481.5 278.75,481.5 
		278.75,472.6 301.65,438.601 301.65,438.4 278.75,438.4 	"/>
	<polygon points="279.5,279.5 313.5,279.5 313.5,286.4 288.7,324.399 288.7,324.6 313.5,324.6 313.5,331.5 279.5,331.5 279.5,324.6 
		304.3,286.6 304.3,286.4 279.5,286.4 	"/>
	<polygon points="280.25,129.5 312.75,129.5 312.75,133.95 286.07,176.85 286.07,177.05 312.75,177.05 312.75,181.5 280.25,181.5 
		280.25,177.05 306.93,134.15 306.93,133.95 280.25,133.95 	"/>
	<polygon points="309.56,-18.3 281,29.5 281,31.5 312,31.5 312,29.5 283.44,29.5 283.44,29.3 312,-18.5 312,-20.5 281,-20.5 
		281,-18.5 309.56,-18.5 	"/>
</g>
<g>
	<path d="M390.167,601.4c7.73-3.133,11.334-7.93,11.334-16.233V574c0-9.672,0.343-10,8.666-10h5.333v-9.5h-10.666
		c-10.62,0-15.333,4.361-15.333,16v14.668c0,8.271-3.026,11.582-9.001,11.582h-4v9.5h4c5.975,0,9.001,3.311,9.001,11.582V632.5
		c0,11.639,4.713,16,15.333,16H415.5V639h-5.333c-8.323,0-8.666-0.328-8.666-10v-11.167c0-8.304-3.604-13.101-11.334-16.233V601.4z"
		/>
	<path d="M390.583,450.65c6.75-2.887,9.917-7.203,9.917-15.566V422.75c0-9.691,0.811-10.5,9.083-10.5h4.667v-7.75h-8.583
		c-10.103,0-14.767,4.34-14.767,15.5v14.834c0,8.612-3.018,12.041-8.9,12.041h-4.25v7.75H382c5.882,0,8.9,3.429,8.9,12.041V481.5
		c0,11.16,4.664,15.5,14.767,15.5h8.583v-7.75h-4.667c-8.272,0-9.083-0.809-9.083-10.5v-12.334c0-8.134-3.48-12.909-9.729-15.566
		L390.583,450.65z"/>
	<path d="M391,299.9c5.768-2.64,8.5-6.477,8.5-14.9v-13.5c0-9.71,1.279-11,9.5-11h4v-6h-6.5c-9.586,0-14.2,4.319-14.2,15v15
		c0,8.953-3.01,12.5-8.8,12.5H379v6h4.5c5.79,0,8.8,3.547,8.8,12.5v15c0,10.681,4.614,15,14.2,15h6.5v-6h-4
		c-8.221,0-9.5-1.29-9.5-11V315c0-7.965-3.356-12.719-8.125-14.9L391,299.9z"/>
	<path d="M379.25,147.25v4h5.25c5.325,0,8.4,4.325,8.4,12.75v15.5c0,10.247,4.102,14.5,13.1,14.5h6.25v-4h-5
		c-7.111,0-9.75-1.666-9.75-11.5v-14.75c0-7.438-2.809-12.29-7.064-14.4l-0.188-0.2c4.755-2.339,7.252-6.733,7.252-14.4V120
		c0-9.835,2.639-11.5,9.75-11.5h5v-4H406c-8.999,0-13.1,4.253-13.1,14.5v15.5c0,8.425-3.075,12.75-8.4,12.75H379.25z"/>
	<path d="M389.496-1.601C393.238-3.64,395.5-8.589,395.5-15.5v-16c0-9.96,3.998-12,10-12h6v-2h-6c-8.411,0-12,4.187-12,14v16
		c0,7.897-3.141,13-8,13h-6v2h6c4.859,0,8,5.103,8,13v16c0,9.813,3.589,14,12,14h6v-2h-6c-6.002,0-10-2.041-10-12v-16
		c0-6.912-2.262-11.861-6.004-13.9V-1.601z"/>
</g>
<g>
	<path d="M602.833,601.4c-7.73-3.133-11.334-7.93-11.334-16.233V574c0-9.672-0.343-10-8.666-10H577.5v-9.5h10.666
		c10.62,0,15.333,4.361,15.333,16v14.668c0,8.271,3.026,11.582,9.001,11.582h4v9.5h-4c-5.975,0-9.001,3.311-9.001,11.582V632.5
		c0,11.639-4.713,16-15.333,16H577.5V639h5.333c8.323,0,8.666-0.328,8.666-10v-11.167c0-8.304,3.604-13.101,11.334-16.233V601.4z"/>
	<path d="M602.416,450.65c-6.749-2.887-9.916-7.203-9.916-15.566V422.75c0-9.691-0.812-10.5-9.084-10.5h-4.666v-7.75h8.583
		c10.103,0,14.767,4.34,14.767,15.5v14.834c0,8.612,3.018,12.041,8.9,12.041h4.25v7.75H611c-5.883,0-8.9,3.429-8.9,12.041V481.5
		c0,11.16-4.664,15.5-14.767,15.5h-8.583v-7.75h4.666c8.272,0,9.084-0.809,9.084-10.5v-12.334c0-8.134,3.479-12.909,9.729-15.566
		L602.416,450.65z"/>
	<path d="M602,299.9c-5.768-2.64-8.5-6.477-8.5-14.9v-13.5c0-9.71-1.279-11-9.5-11h-4v-6h6.5c9.586,0,14.2,4.319,14.2,15v15
		c0,8.953,3.01,12.5,8.8,12.5h4.5v6h-4.5c-5.79,0-8.8,3.547-8.8,12.5v15c0,10.681-4.614,15-14.2,15H580v-6h4
		c8.221,0,9.5-1.29,9.5-11V315c0-7.965,3.356-12.719,8.125-14.9L602,299.9z"/>
	<path d="M613.75,147.25v4h-5.25c-5.324,0-8.4,4.325-8.4,12.75v15.5c0,10.247-4.102,14.5-13.1,14.5h-6.25v-4h5
		c7.111,0,9.75-1.666,9.75-11.5v-14.75c0-7.438,2.809-12.29,7.064-14.4l0.188-0.2c-4.755-2.339-7.252-6.733-7.252-14.4V120
		c0-9.835-2.639-11.5-9.75-11.5h-5v-4H587c8.998,0,13.1,4.253,13.1,14.5v15.5c0,8.425,3.076,12.75,8.4,12.75H613.75z"/>
	<path d="M603.504-1.601C599.762-3.64,597.5-8.589,597.5-15.5v-16c0-9.96-3.998-12-10-12h-6v-2h6c8.411,0,12,4.187,12,14v16
		c0,7.897,3.141,13,8,13h6v2h-6c-4.859,0-8,5.103-8,13v16c0,9.813-3.589,14-12,14h-6v-2h6c6.002,0,10-2.041,10-12v-16
		c0-6.912,2.262-11.861,6.004-13.9V-1.601z"/>
</g>
<g>
	<path d="M706.25,313.375c-7.407,0-10.077-5.91-11.845-9.82l-0.391-0.858c-2.601-5.63-4.747-7.876-7.204-7.518
		c-1.252,0.184-4.186,0.615-4.186,11.321h-6c0-4.346,0-15.89,9.314-17.258c7.923-1.162,11.85,7.315,13.522,10.937l0.411,0.905
		c1.933,4.276,3.191,6.291,6.377,6.291c2.429,0,4.125-4.472,4.125-10.875h6C716.375,306.909,712.495,313.375,706.25,313.375
		L706.25,313.375z"/>
	<path d="M685.83,438.5c8.273-1.218,12.436,7.324,14.187,11.094c0.045,0.096,0.209,0.455,0.248,0.539
		c0.032,0.068,0.147,0.323,0.18,0.395c0.106,0.234,0.211,0.468,0.316,0.699c1.599,3.527,2.59,4.938,4.669,5.286
		c0.391,0.065,0.849-0.122,1.405-0.49c1.195-0.79,2.313-3.204,2.62-7.199c0.059-0.366,0.104-2.01,0.131-2.425
		c0.025-0.366,1.269-0.75,1.269-1.148h6.271c0,0.346-0.009,1.933-0.025,2.261c-0.238,11.383-5.125,16.614-10.85,16.614l0,0
		c-7.926,0-10.729-6.249-12.489-10.172c-0.078-0.175-0.35-0.775-0.427-0.942c-2.347-5.079-3.974-6.527-5.296-6.864
		c-0.722-0.184-1.405,0.02-2.001,0.57c-0.911,0.842-2.142,2.402-2.522,7.281c-0.047,0.358-0.083,2.009-0.106,2.456
		c-0.021,0.395-1.408,0.825-1.408,1.296h-6.125c0-0.289,0-1.891,0.011-2.285C675.957,450.758,676.494,439.871,685.83,438.5z"/>
	<path d="M706.25,614.875c-8.444,0-11.38-6.588-13.134-10.523c-0.156-0.35-0.309-0.693-0.463-1.026
		c-2.905-6.288-4.613-6.814-5.623-6.662c-1.929,0.283-2.905,3.593-2.905,9.837v2.5h-9v-2.5c0-4.251,0-17.186,10.597-18.741
		c9.046-1.337,13.443,8.202,15.102,11.791c0.171,0.369,0.341,0.75,0.514,1.138c1.791,4.019,2.653,5.188,4.913,5.188
		c0.772,0,2.625-2.697,2.625-9.375V594h9v2.5C717.875,610.048,711.87,614.875,706.25,614.875L706.25,614.875z"/>
</g>
</svg>
