<?xml version="1.0" encoding="utf-8"?>
<!-- Generator: Adobe Illustrator 16.0.3, SVG Export Plug-In . SVG Version: 6.00 Build 0)  -->
<!DOCTYPE svg PUBLIC "-//W3C//DTD SVG 1.0//EN" "http://www.w3.org/TR/2001/REC-SVG-20010904/DTD/svg10.dtd">
<svg version="1.0" id="レイヤー1" xmlns="http://www.w3.org/2000/svg" xmlns:xlink="http://www.w3.org/1999/xlink" x="0px"
	 y="0px" width="841.8896484px" height="595.2753906px" viewBox="0 0 841.8896484 595.2753906"
	 enable-background="new 0 0 841.8896484 595.2753906" xml:space="preserve">
<g>
	<rect x="221.5" y="-76.5" fill="none" stroke="#000000" stroke-width="0.25" width="50" height="150"/>
	<rect x="321.5" y="-76.5" fill="none" stroke="#000000" stroke-width="0.25" width="100" height="150"/>
	<rect x="221.5" y="73.5" fill="none" stroke="#000000" stroke-width="0.25" width="50" height="150"/>
	<rect x="321.5" y="73.5" fill="none" stroke="#000000" stroke-width="0.25" width="100" height="150"/>
	<rect x="221.5" y="223.5" fill="none" stroke="#000000" stroke-width="0.25" width="50" height="150"/>
	<rect x="321.5" y="223.5" fill="none" stroke="#000000" stroke-width="0.25" width="100" height="150"/>
	<rect x="221.5" y="373.5" fill="none" stroke="#000000" stroke-width="0.25" width="50" height="150"/>
	<rect x="321.5" y="373.5" fill="none" stroke="#000000" stroke-width="0.25" width="100" height="150"/>
	<rect x="221.5" y="523.5" fill="none" stroke="#000000" stroke-width="0.25" width="50" height="150"/>
	<rect x="621.5" y="-76.5" fill="none" stroke="#000000" stroke-width="0.25" width="50" height="150"/>
	<rect x="621.5" y="73.5" fill="none" stroke="#000000" stroke-width="0.25" width="50" height="150"/>
	<rect x="621.5" y="223.5" fill="none" stroke="#000000" stroke-width="0.25" width="50" height="150"/>
	<rect x="621.5" y="373.5" fill="none" stroke="#000000" stroke-width="0.25" width="50" height="150"/>
	<rect x="621.5" y="523.5" fill="none" stroke="#000000" stroke-width="0.25" width="50" height="150"/>
	<rect x="321.5" y="523.5" fill="none" stroke="#000000" stroke-width="0.25" width="100" height="150"/>
	<rect x="71.5" y="-76.5" fill="none" stroke="#000000" stroke-width="0.25" width="100" height="150"/>
	<rect x="71.5" y="73.5" fill="none" stroke="#000000" stroke-width="0.25" width="100" height="150"/>
	<rect x="71.5" y="223.5" fill="none" stroke="#000000" stroke-width="0.25" width="100" height="150"/>
	<rect x="71.5" y="373.5" fill="none" stroke="#000000" stroke-width="0.25" width="100" height="150"/>
	<rect x="71.5" y="523.5" fill="none" stroke="#000000" stroke-width="0.25" width="100" height="150"/>
	<rect x="471.5" y="-76.5" fill="none" stroke="#000000" stroke-width="0.25" width="100" height="150"/>
	<rect x="471.5" y="73.5" fill="none" stroke="#000000" stroke-width="0.25" width="100" height="150"/>
	<rect x="471.5" y="223.5" fill="none" stroke="#000000" stroke-width="0.25" width="100" height="150"/>
	<rect x="471.5" y="373.5" fill="none" stroke="#000000" stroke-width="0.25" width="100" height="150"/>
	<rect x="471.5" y="523.5" fill="none" stroke="#000000" stroke-width="0.25" width="100" height="150"/>
</g>
<g>
	<rect x="226.5" y="598.5" width="40" height="7"/>
	<rect x="227" y="448.9501953" width="39" height="6.0498047"/>
	<rect x="227.5" y="299.4003906" width="38" height="5.0996094"/>
	<rect x="228" y="150.4501953" width="37" height="3.5498047"/>
	<rect x="228.5" y="1.5" width="36" height="2"/>
</g>
<g>
	<rect x="321.5" y="597" width="100" height="7"/>
	<rect x="321.5" y="447.4501953" width="100" height="6.0498047"/>
	<rect x="321.5" y="297.9003906" width="100" height="5.0996094"/>
	<rect x="321.5" y="148.9501953" width="100" height="3.5498047"/>
	<rect x="321.5" width="100" height="2"/>
</g>
<g>
	<g>
		<rect x="637" y="-49.5" width="2" height="103"/>
		<rect x="654" y="-49.5" width="2" height="103"/>
	</g>
	<g>
		<rect x="635.625" y="100.5" width="4.625" height="103"/>
		<rect x="652.75" y="100.5" width="4.625" height="103"/>
	</g>
	<g>
		<rect x="634.25" y="250.5" width="7.25" height="103"/>
		<rect x="651.5" y="250.5" width="7.25" height="103"/>
	</g>
	<g>
		<rect x="633" y="400.5" width="9.375" height="103"/>
		<rect x="650.625" y="400.5" width="9.375" height="103"/>
	</g>
	<g>
		<rect x="631.75" y="550.5" width="11.5" height="103"/>
		<rect x="649.75" y="550.5" width="11.5" height="103"/>
	</g>
</g>
<g>
	<rect x="471.5" y="592" width="100" height="7"/>
	<rect x="471.5" y="442.4746094" fill="#110C0A" width="100" height="6.0507813"/>
	<rect x="471.5" y="292.9501953" width="100" height="5.0996094"/>
	<rect x="471.5" y="143.7250977" width="100" height="3.5498047"/>
	<rect x="471.5" y="-5.5" width="100" height="2"/>
</g>
<g>
	<rect x="109" y="592" width="25" height="7"/>
	<rect x="109" y="442.4746094" width="25" height="6.0507813"/>
	<rect x="109" y="292.9501953" width="25" height="5.0996094"/>
	<rect x="109" y="143.7250977" width="25" height="3.5498047"/>
	<rect x="109" y="-5.5" width="25" height="2"/>
</g>
</svg>
