<?xml version="1.0" encoding="utf-8"?>
<!-- Generator: Adobe Illustrator 15.1.0, SVG Export Plug-In . SVG Version: 6.00 Build 0)  -->
<!DOCTYPE svg PUBLIC "-//W3C//DTD SVG 1.0//EN" "http://www.w3.org/TR/2001/REC-SVG-20010904/DTD/svg10.dtd">
<svg version="1.0" id="レイヤー_1" xmlns="http://www.w3.org/2000/svg" xmlns:xlink="http://www.w3.org/1999/xlink" x="0px"
	 y="0px" width="800.25px" height="1050.25px" viewBox="0 0 800.25 1050.25" enable-background="new 0 0 800.25 1050.25"
	 xml:space="preserve">
<g>
	<rect x="0.125" y="0.125" fill="none" stroke="#000000" stroke-width="0.25" width="100" height="150"/>
	<rect x="100.125" y="0.125" fill="none" stroke="#000000" stroke-width="0.25" width="100" height="150"/>
	<rect x="200.125" y="0.125" fill="none" stroke="#000000" stroke-width="0.25" width="100" height="150"/>
	<rect x="300.125" y="0.125" fill="none" stroke="#000000" stroke-width="0.25" width="100" height="150"/>
	<rect x="400.125" y="0.125" fill="none" stroke="#000000" stroke-width="0.25" width="100" height="150"/>
	<rect x="500.125" y="0.125" fill="none" stroke="#000000" stroke-width="0.25" width="100" height="150"/>
	<rect x="600.125" y="0.125" fill="none" stroke="#000000" stroke-width="0.25" width="100" height="150"/>
	<rect x="0.125" y="150.125" fill="none" stroke="#000000" stroke-width="0.25" width="100" height="150"/>
	<rect x="100.125" y="150.125" fill="none" stroke="#000000" stroke-width="0.25" width="100" height="150"/>
	<rect x="200.125" y="150.125" fill="none" stroke="#000000" stroke-width="0.25" width="100" height="150"/>
	<rect x="300.125" y="150.125" fill="none" stroke="#000000" stroke-width="0.25" width="100" height="150"/>
	<rect x="400.125" y="150.125" fill="none" stroke="#000000" stroke-width="0.25" width="100" height="150"/>
	<rect x="500.125" y="150.125" fill="none" stroke="#000000" stroke-width="0.25" width="100" height="150"/>
	<rect x="600.125" y="150.125" fill="none" stroke="#000000" stroke-width="0.25" width="100" height="150"/>
	<rect x="0.125" y="300.125" fill="none" stroke="#000000" stroke-width="0.25" width="100" height="150"/>
	<rect x="100.125" y="300.125" fill="none" stroke="#000000" stroke-width="0.25" width="100" height="150"/>
	<rect x="200.125" y="300.125" fill="none" stroke="#000000" stroke-width="0.25" width="100" height="150"/>
	<rect x="300.125" y="300.125" fill="none" stroke="#000000" stroke-width="0.25" width="100" height="150"/>
	<rect x="400.125" y="300.125" fill="none" stroke="#000000" stroke-width="0.25" width="100" height="150"/>
	<rect x="500.125" y="300.125" fill="none" stroke="#000000" stroke-width="0.25" width="100" height="150"/>
	<rect x="600.125" y="300.125" fill="none" stroke="#000000" stroke-width="0.25" width="100" height="150"/>
	<rect x="0.125" y="450.125" fill="none" stroke="#000000" stroke-width="0.25" width="100" height="150"/>
	<rect x="100.125" y="450.125" fill="none" stroke="#000000" stroke-width="0.25" width="100" height="150"/>
	<rect x="200.125" y="450.125" fill="none" stroke="#000000" stroke-width="0.25" width="100" height="150"/>
	<rect x="300.125" y="450.125" fill="none" stroke="#000000" stroke-width="0.25" width="100" height="150"/>
	<rect x="400.125" y="450.125" fill="none" stroke="#000000" stroke-width="0.25" width="100" height="150"/>
	<rect x="500.125" y="450.125" fill="none" stroke="#000000" stroke-width="0.25" width="100" height="150"/>
	<rect x="600.125" y="450.125" fill="none" stroke="#000000" stroke-width="0.25" width="100" height="150"/>
	<rect x="0.125" y="600.125" fill="none" stroke="#000000" stroke-width="0.25" width="100" height="150"/>
	<rect x="100.125" y="600.125" fill="none" stroke="#000000" stroke-width="0.25" width="100" height="150"/>
	<rect x="200.125" y="600.125" fill="none" stroke="#000000" stroke-width="0.25" width="100" height="150"/>
	<rect x="300.125" y="600.125" fill="none" stroke="#000000" stroke-width="0.25" width="100" height="150"/>
	<rect x="400.125" y="600.125" fill="none" stroke="#000000" stroke-width="0.25" width="100" height="150"/>
	<rect x="500.125" y="600.125" fill="none" stroke="#000000" stroke-width="0.25" width="100" height="150"/>
	<rect x="600.125" y="600.125" fill="none" stroke="#000000" stroke-width="0.25" width="100" height="150"/>
	<rect x="0.125" y="750.125" fill="none" stroke="#000000" stroke-width="0.25" width="100" height="150"/>
	<rect x="100.125" y="750.125" fill="none" stroke="#000000" stroke-width="0.25" width="100" height="150"/>
	<rect x="200.125" y="750.125" fill="none" stroke="#000000" stroke-width="0.25" width="100" height="150"/>
	<rect x="300.125" y="750.125" fill="none" stroke="#000000" stroke-width="0.25" width="100" height="150"/>
	<rect x="400.125" y="750.125" fill="none" stroke="#000000" stroke-width="0.25" width="100" height="150"/>
	<rect x="500.125" y="750.125" fill="none" stroke="#000000" stroke-width="0.25" width="100" height="150"/>
	<rect x="600.125" y="750.125" fill="none" stroke="#000000" stroke-width="0.25" width="100" height="150"/>
	<rect x="0.125" y="900.125" fill="none" stroke="#000000" stroke-width="0.25" width="100" height="150"/>
	<rect x="100.125" y="900.125" fill="none" stroke="#000000" stroke-width="0.25" width="100" height="150"/>
	<rect x="200.125" y="900.125" fill="none" stroke="#000000" stroke-width="0.25" width="100" height="150"/>
	<rect x="300.125" y="900.125" fill="none" stroke="#000000" stroke-width="0.25" width="100" height="150"/>
	<rect x="400.125" y="900.125" fill="none" stroke="#000000" stroke-width="0.25" width="100" height="150"/>
	<rect x="500.125" y="900.125" fill="none" stroke="#000000" stroke-width="0.25" width="100" height="150"/>
	<rect x="600.125" y="900.125" fill="none" stroke="#000000" stroke-width="0.25" width="100" height="150"/>
	<rect x="700.125" y="0.125" fill="none" stroke="#000000" stroke-width="0.25" width="100" height="150"/>
	<rect x="700.125" y="150.125" fill="none" stroke="#000000" stroke-width="0.25" width="100" height="150"/>
	<rect x="700.125" y="300.125" fill="none" stroke="#000000" stroke-width="0.25" width="100" height="150"/>
	<rect x="700.125" y="450.125" fill="none" stroke="#000000" stroke-width="0.25" width="100" height="150"/>
	<rect x="700.125" y="600.125" fill="none" stroke="#000000" stroke-width="0.25" width="100" height="150"/>
	<rect x="700.125" y="750.125" fill="none" stroke="#000000" stroke-width="0.25" width="100" height="150"/>
	<rect x="700.125" y="900.125" fill="none" stroke="#000000" stroke-width="0.25" width="100" height="150"/>
</g>
<g>
	<polygon points="144.625,957.625 144.625,1008.125 165.625,1008.125 165.625,935.125 144.625,935.125 119.625,955.125 
		126.125,972.125 144.525,957.625 	"/>
	<polygon points="146.291,858.125 163.958,858.125 163.958,785.125 146.291,785.125 120.625,805.458 126.375,819.791 
		146.158,804.375 146.291,804.375 	"/>
	<polygon points="147.958,708.125 162.292,708.125 162.292,635.125 147.958,635.125 121.625,655.792 126.625,667.458 
		147.792,651.125 147.958,651.125 	"/>
	<polygon points="149.625,558.125 160.625,558.125 160.625,485.125 149.625,485.125 122.625,506.125 126.875,515.125 
		149.425,497.875 149.625,497.875 	"/>
	<polygon points="150.792,408.125 158.792,408.125 158.792,335.125 150.792,335.125 123.792,356.458 127.046,362.975 
		150.591,344.484 150.792,344.484 	"/>
	<polygon points="151.958,258.125 156.958,258.125 156.958,185.125 151.958,185.125 124.958,206.792 127.217,210.826 
		151.758,191.095 151.958,191.095 	"/>
	<polygon points="153.125,37.705 153.125,108.125 155.125,108.125 155.125,35.125 153.125,35.125 126.125,57.125 127.388,58.676 
		152.925,37.705 	"/>
</g>
<g>
	<polygon points="434.125,979.425 449.425,958.125 449.625,958.125 449.625,1008.125 468.625,1008.125 468.625,935.125 
		449.625,935.125 416.625,979.625 416.625,995.125 479.625,995.125 479.625,979.625 434.125,979.625 	"/>
	<polygon points="432.79,830.658 450.592,805.758 450.79,805.758 450.79,858.125 467.058,858.125 467.058,785.125 450.79,785.125 
		417.29,830.858 417.29,844.125 478.625,844.125 478.625,830.858 432.79,830.858 	"/>
	<polygon points="431.457,681.892 451.758,653.392 451.957,653.392 451.957,708.125 465.49,708.125 465.49,635.125 451.957,635.125 
		417.957,682.092 417.957,693.125 477.625,693.125 477.625,682.092 431.457,682.092 	"/>
	<polygon points="476.625,542.125 476.625,533.325 430.125,533.325 430.125,533.125 452.925,501.025 453.125,501.025 
		453.125,558.125 463.925,558.125 463.925,485.125 453.125,485.125 418.625,533.325 418.625,542.125 	"/>
	<polygon points="476.457,391.125 476.457,384.592 427.674,384.592 427.674,384.391 454.925,346.925 455.125,346.925 
		455.125,408.125 462.99,408.125 462.99,335.125 455.125,335.125 419.125,384.592 419.125,391.125 	"/>
	<polygon points="476.291,240.125 476.291,235.858 425.223,235.858 425.223,235.658 456.925,192.825 457.125,192.825 
		457.125,258.125 462.059,258.125 462.059,185.125 457.125,185.125 419.625,235.858 419.625,240.125 	"/>
	<polygon points="422.771,86.925 458.925,38.725 459.125,38.725 459.125,108.125 461.125,108.125 461.125,35.125 459.125,35.125 
		420.125,87.125 420.125,89.125 476.125,89.125 476.125,87.125 422.771,87.125 	"/>
</g>
<g>
	<path d="M230.204,106.125v-0.2c30.507-25.95,40.921-39.018,40.921-51.8c0-12.523-7.995-20-21.5-20c-7.619,0-17.174,3.244-23.5,8
		l1.202,1.599c5.95-4.474,15.12-7.599,22.298-7.599c12.393,0,19.5,6.561,19.5,18c0,11.552-8.696,23.855-42,52v2h45v-2H230.204z"/>
	<path d="M225.792,191.791l1.801,4c6.279-4.438,14.815-7.266,21.532-7.266c11.489,0,17.867,5.868,17.867,16.267
		c0,11.32-8.04,22.762-40.2,49v4.333h46v-4.333h-38.947v-0.2c29.3-24.311,38.281-36.393,38.281-49.133
		c0-12.75-8.27-20.333-22.5-20.333C241.607,184.125,232.312,187.119,225.792,191.791z"/>
	<path d="M225.458,341.459l2.399,6.398c6.607-4.402,14.511-6.934,20.767-6.934c10.587,0,16.232,5.174,16.232,14.533
		c0,11.088-7.385,21.666-38.399,46v6.666h47v-6.666h-35.975v-0.201c28.093-22.672,35.641-33.768,35.641-46.467
		c0-12.977-8.543-20.666-23.5-20.666C241.209,334.125,232.173,336.869,225.458,341.459z"/>
	<path d="M241.125,548.925c26.885-21.032,33-31.144,33-43.8c0-13.204-8.817-21-24.5-21c-8.815,0-17.591,2.494-24.5,7l3,8.8
		c6.936-4.366,14.205-6.6,20-6.6c9.685,0,14.6,4.479,14.6,12.8c0,10.857-6.729,20.573-36.6,43v9h48v-9h-33V548.925z"/>
	<path d="M223.958,641.458l3.667,11.2c7.43-4.572,14.771-6.9,20.166-6.9c8.597,0,12.899,3.863,12.899,11.033
		c0,9.851-5.888,18.271-35.399,40v11.334h50v-11.334h-31.333v-0.2c25.309-19.777,31.167-29.081,31.167-41.133
		c0-13.313-9.021-21.333-25.333-21.333C240.755,634.125,230.87,636.953,223.958,641.458z"/>
	<path d="M222.792,791.792l4.333,13.6c7.924-4.774,15.337-7.197,20.333-7.197c7.507,0,11.2,3.244,11.2,9.267
		c0,8.844-5.048,15.968-34.2,37v13.667h52V844.46h-29.667v-0.2c23.731-18.523,29.333-27.02,29.333-38.466
		c0-13.424-9.226-21.667-26.167-21.667C240.7,784.125,229.707,787.288,222.792,791.792z"/>
	<path d="M249.625,991.925c22.154-17.271,27.5-24.958,27.5-35.8c0-13.533-9.43-22-27-22c-9.48,0-21.583,3.498-28.5,8l5,16
		c8.419-4.982,15.903-7.5,20.5-7.5c6.418,0,9.5,2.629,9.5,7.5c0,7.836-4.206,13.664-33,34v16h54v-16h-28V991.925z"/>
</g>
<g>
	<path d="M50.125,109.125c12.089,0,26.5-6.506,26.5-37.5s-14.411-37.5-26.5-37.5s-26.5,6.506-26.5,37.5
		S38.036,109.125,50.125,109.125v-2c-16.257,0-24.5-11.944-24.5-35.5s8.243-35.5,24.5-35.5s24.5,11.944,24.5,35.5
		s-8.243,35.5-24.5,35.5V109.125z"/>
	<path d="M50.125,184.125c14.241,0,27.167,7.918,27.167,37.5c0,29.581-12.926,37.5-27.167,37.5v-4.267
		c14.598,0,22.167-10.368,22.167-33.233s-7.569-33.234-22.167-33.234c-14.599,0-22.167,10.368-22.167,33.234
		s7.567,33.233,22.167,33.233v4.267c-14.241,0-27.167-7.919-27.167-37.5C22.958,192.043,35.884,184.125,50.125,184.125z"/>
	<path d="M50.125,334.125c16.392,0,27.833,9.332,27.833,37.5s-11.441,37.5-27.833,37.5v-6.533c12.939,0,19.833-8.792,19.833-30.967
		c0-22.176-6.895-30.967-19.833-30.967c-12.939,0-19.833,8.791-19.833,30.967c0,22.175,6.893,30.967,19.833,30.967v6.533
		c-16.393,0-27.833-9.332-27.833-37.5S33.733,334.125,50.125,334.125z"/>
	<path d="M50.125,484.125c18.543,0,28.5,10.744,28.5,37.5s-9.957,37.5-28.5,37.5v-8.8c11.28,0,17.5-7.216,17.5-28.7
		s-6.22-28.7-17.5-28.7c-11.281,0-17.5,7.216-17.5,28.7s6.219,28.7,17.5,28.7v8.8c-18.543,0-28.5-10.744-28.5-37.5
		S31.582,484.125,50.125,484.125z"/>
	<path d="M50.125,644.991c-9.939,0-15.333,6.427-15.333,26.634s5.394,26.633,15.333,26.633v10.867c-19.306,0-29.5-10.597-29.5-37.5
		c0-26.904,10.194-37.5,29.5-37.5c19.305,0,29.5,10.596,29.5,37.5c0,26.903-10.195,37.5-29.5,37.5v-10.867
		c9.938,0,15.333-6.426,15.333-26.633S60.064,644.991,50.125,644.991z"/>
	<path d="M50.125,797.059c-8.599,0-13.167,5.64-13.167,24.566s4.568,24.566,13.167,24.566v12.934c-20.066,0-30.5-10.448-30.5-37.5
		s10.434-37.5,30.5-37.5c20.065,0,30.5,10.448,30.5,37.5s-10.435,37.5-30.5,37.5v-12.934c8.598,0,13.167-5.64,13.167-24.566
		S58.723,797.059,50.125,797.059z"/>
	<path d="M50.125,934.125c20.827,0,31.5,10.301,31.5,37.5s-10.673,37.5-31.5,37.5v-15c7.256,0,11-4.848,11-22.5s-3.744-22.5-11-22.5
		s-11,4.848-11,22.5s3.744,22.5,11,22.5v15c-20.827,0-31.5-10.301-31.5-37.5S29.298,934.125,50.125,934.125z"/>
</g>
<g>
	<path d="M548.125,65.625c14.51,0,22.5,6.925,22.5,19.5c0,14.393-8.127,22-23.5,22c-6.492,0-13.212-1.892-18.433-5.19l-1.067,1.69
		c5.527,3.493,12.674,5.5,19.5,5.5c16.413,0,25.5-8.512,25.5-24c0-13.664-8.931-21.5-24.5-21.5c-5.909,0-11.438,1.611-16.154,4.535
		h-0.2l2.286-31.035h35.568v-2h-37.427l-2.614,35.5h2.125C536.194,67.463,542.087,65.625,548.125,65.625z"/>
	<path d="M570.457,189.458v-4.333h-39.116l-2.41,36.667h4.583c4.045-3.038,9.544-4.799,15.277-4.799
		c12.688,0,19.666,6.178,19.666,17.633c0,13.249-7.471,20.167-21.666,20.167c-6.13,0-12.639-1.764-18.12-4.96l-1.546,4.127
		c5.864,3.384,12.625,5.167,19.666,5.167c17.344,0,26.666-8.595,26.666-24.5c0-13.899-8.796-21.833-24-21.833
		c-5.564,0-10.764,1.413-15.202,4.023h-0.2l1.856-27.356h34.546V189.458z"/>
	<path d="M571.291,341.792v-6.667h-40.809l-2.205,37.834h7.041c3.604-2.914,8.71-4.601,14.139-4.601
		c10.867,0,16.834,5.432,16.834,15.767c0,12.105-6.816,18.334-19.834,18.334c-5.768,0-12.064-1.636-17.811-4.73l-2.021,6.563
		c6.202,3.275,12.577,4.834,19.832,4.834c18.271,0,27.834-8.679,27.834-25c0-14.135-8.662-22.166-23.5-22.166
		c-5.223,0-10.092,1.213-14.252,3.511h-0.199l1.429-23.678L571.291,341.792L571.291,341.792z"/>
	<path d="M528.625,545.625l-2.5,9c6.539,3.166,12.529,4.5,20,4.5c19.2,0,29-8.762,29-25.5c0-14.369-8.529-22.5-23-22.5
		c-4.88,0-9.42,1.016-13.301,3h-0.199l1-20h32.5v-9h-42.5l-2,39h9.5c3.161-2.789,7.875-4.4,13-4.4c9.045,0,14,4.688,14,13.9
		c0,10.963-6.162,16.5-18,16.5C540.721,550.125,534.632,548.618,528.625,545.625z"/>
	<path d="M572.957,635.125h-44.5l-2,40.5h12c3.077-2.615,6.85-4.1,11.334-4.1c8.039,0,12.5,4.136,12.5,11.933
		c0,9.46-5.541,14.4-16.834,14.4c-5.038,0-11.224-1.451-17.666-4.333l-3,11.267c6.84,3.008,13.314,4.333,21,4.333
		c20.258,0,30.334-8.754,30.334-25.667c0-14.496-8.688-22.666-23.668-22.666c-4.276,0-8.282,0.829-11.967,2.5h-0.198l0.833-16.834
		h31.833L572.957,635.125L572.957,635.125z"/>
	<path d="M573.791,785.125h-46.5l-2,42h14.5c2.991-2.44,5.82-3.8,9.666-3.8c7.034,0,11,3.588,11,9.967
		c0,7.956-4.921,12.3-15.666,12.3c-4.674,0-10.955-1.395-17.834-4.167l-3.5,13.533c7.14,2.852,14.101,4.167,22,4.167
		c21.313,0,31.668-8.745,31.668-25.833c0-14.624-8.845-22.834-24.334-22.834c-3.676,0-7.147,0.644-10.634,2h-0.2l0.668-13.666
		h31.166V785.125z"/>
	<path d="M545.125,1009.125c22.368,0,33-8.736,33-26c0-14.75-9.002-23-25-23c-3.074,0-6.014,0.457-9.301,1.5h-0.199l0.5-10.5h30.5
		v-16h-48.5l-2,43.5h17c2.905-2.266,4.793-3.5,8-3.5c6.027,0,9.5,3.039,9.5,8c0,6.453-4.302,10.2-14.5,10.2
		c-4.309,0-10.688-1.338-18-4l-4,15.8C529.563,1007.818,537.009,1009.125,545.125,1009.125z"/>
</g>
<g>
	<path d="M346.405,68.125c15.961,0,23.721,5.888,23.721,18c0,14.131-7.852,21-24,21c-6.692,0-12.714-1.739-17.896-5.168
		l-1.104,1.668c5.511,3.646,11.992,5.5,19,5.5c17.157,0,26-7.791,26-23c0-13.271-8.653-20-25.721-20h-5.88v-0.2l30.601-28.8v-2
		h-43.5v2h40.35v0.2l-30.57,28.8v2H346.405z"/>
	<path d="M327.125,185.125v4.333h37.732v0.2l-28.046,26v4.134h9c15.087,0,21.98,5.283,21.98,16c0,12.658-7.255,19-21.5,19
		c-6.269,0-12.052-1.647-17.766-5.112l-1.734,4.112c5.768,3.602,12.174,5.333,19.5,5.333c17.266,0,26.5-8.129,26.5-23.333
		c0-13.146-8.438-19.967-24.314-19.967h-4.92v-0.2l28.233-26.167v-4.333H327.125z"/>
	<path d="M326.625,335.125v6.667h35.115v0.2l-25.522,23.199v6.268h9c14.212,0,20.239,4.677,20.239,14c0,11.186-6.657,17-19,17
		c-5.844,0-11.389-1.557-17.632-5.057l-2.368,6.556c6.025,3.558,12.355,5.167,20,5.167c17.373,0,27-8.468,27-23.666
		c0-13.02-8.223-19.934-22.905-19.934h-3.96v-0.201l25.865-23.532v-6.667H326.625z"/>
	<path d="M329.125,545.125l-3,9c6.281,3.512,12.536,5,20.5,5c17.479,0,27.5-8.807,27.5-24c0-12.896-8.009-19.9-21.5-19.9h-3v-0.196
		l23.5-20.9v-9h-47v9h32.5v0.2l-23,20.396v8.4h9c13.338,0,18.5,4.072,18.5,12c0,9.714-6.063,15-16.5,15
		C341.205,550.125,335.898,548.66,329.125,545.125z"/>
	<path d="M325.29,635.125v11.333h31.001v0.2l-21.334,18.2v9.934h7.668c13.894,0,18.332,3.336,18.332,10.5
		c0,8.067-5.316,12.566-14.666,12.566c-5.395,0-10.739-1.432-17.877-5.067l-3.625,11c6.927,3.731,13.806,5.334,22.167,5.334
		c17.811,0,27.833-8.685,27.833-24c0-12.652-7.96-19.934-20.666-19.934h-2.5v-0.2l22.166-18.533v-11.333H325.29L325.29,635.125z"/>
	<path d="M324.457,785.125v13.667h29.5v0.2l-19.666,15.999v11.467h6.332c14.449,0,18.168,2.6,18.168,9
		c0,6.423-4.573,10.134-12.834,10.134c-5.366,0-10.752-1.392-18.251-5.134l-4.249,13c7.569,3.951,15.072,5.667,23.834,5.667
		c18.139,0,28.166-8.563,28.166-24c0-12.409-7.912-19.967-19.834-19.967h-2v-0.2l20.834-16.166v-13.667H324.457z"/>
	<path d="M347.625,1009.125c18.469,0,28.5-8.439,28.5-24c0-12.167-7.865-20-19-20h-1.5v-0.2l19.5-13.8v-16h-51.5v16h28v0.2l-18,13.8
		v13h5c15.005,0,18,1.863,18,7.5c0,4.777-3.828,7.7-11,7.7c-5.341,0-10.765-1.355-18.628-5.2l-4.872,15
		C330.338,1007.295,338.465,1009.125,347.625,1009.125z"/>
</g>
<g>
	<path d="M758.625,951.625c-11.552,17.099-21.391,35.488-30,56.5h21.5c8.63-23.404,16.054-38.733,27.5-57v-16h-55v16h36V951.625z"/>
	<path d="M760.791,799.191c-11.939,17.847-21.803,36.831-30.334,58.934h18.168c8.468-24.104,16.439-40.66,28.332-59.334v-13.666
		h-53.332v13.666h37.166V799.191z"/>
	<path d="M762.957,646.759c-12.327,18.598-22.214,38.175-30.666,61.366h14.834c8.306-24.803,16.826-42.586,29.166-61.667v-11.333
		h-51.666v11.333h38.332V646.759z"/>
	<path d="M765.125,494.325c-12.718,19.345-22.628,39.519-31,63.8h11.5c8.144-25.502,17.214-44.512,30-64v-9h-50v9h39.5V494.325z"/>
	<path d="M725.791,335.125v6.666h41.545v0.2c-12.697,19.503-23.02,40.843-31.718,66.134h8.372
		c8.548-26.151,18.342-46.787,31.135-66.334v-6.666H725.791L725.791,335.125z"/>
	<path d="M725.957,185.125v4.333h43.59v0.2c-12.678,19.66-23.41,42.166-32.434,68.466h5.244
		c8.95-26.801,19.467-49.063,32.268-68.667v-4.333L725.957,185.125L725.957,185.125z"/>
	<path d="M771.758,37.325c-12.656,19.818-23.803,43.489-33.146,70.8h2.113c9.356-27.45,20.596-51.338,33.4-71v-2h-48v2h45.633
		V37.325L771.758,37.325z"/>
</g>
<g>
	<path d="M650.125,1009.125c-18.226,0-30-10.148-30-29c0-28.474,17.337-46,44.5-46l3.5,16c-14.435,0-22.459,4.037-26.576,11.936
		l0.151,0.132c4.354-2.063,8.824-3.064,13.624-3.064c16.104,0,24.801,7.88,24.801,24
		C680.125,998.839,667.687,1009.125,650.125,1009.125v-14c6.669,0,11-4.1,11-12c0-6.841-4.178-11-11-11c-6.823,0-11,4.159-11,11
		c0,7.9,4.33,12,11,12V1009.125z"/>
	<path d="M664.125,784.125l3,13.666c-14.729,0.448-23.226,5.313-27.576,14.936l0.151,0.132c4.537-2.657,9.296-3.897,14.892-3.897
		c15.919,0,24.865,8.266,24.865,24.167c0,15.803-11.919,26-29.166,26v-12.334c7.856,0,12.834-4.628,12.834-13.666
		c0-7.89-4.94-12.732-12.834-12.732s-12.834,4.846-12.834,12.732c0,9.038,4.978,13.666,12.834,13.666v12.334
		c-17.845,0-29.166-9.931-29.166-29.167C621.125,802.068,637.729,784.664,664.125,784.125z"/>
	<path d="M663.625,634.125l2.5,11.333c-15.022,0.896-23.989,6.59-28.576,17.936l0.151,0.132c4.722-3.257,9.769-4.73,16.157-4.73
		c15.729,0,24.934,8.65,24.934,24.333c0,15.893-11.4,26-28.334,26V698.46c9.047,0,14.668-5.156,14.668-15.333
		c0-8.938-5.704-14.467-14.668-14.467c-8.962,0-14.666,5.528-14.666,14.467c0,10.177,5.621,15.333,14.666,15.333v10.667
		c-17.463,0-28.332-9.713-28.332-29.333C622.125,652.485,637.996,635.202,663.625,634.125z"/>
	<path d="M650.625,550.125c-10.233,0-16.5-5.686-16.5-17c0-9.986,6.468-16.2,16.5-16.2c10.031,0,16.5,6.214,16.5,16.2
		C667.125,544.439,660.858,550.125,650.625,550.125v9c16.617,0,27.5-10.021,27.5-26c0-15.463-9.455-24.5-25-24.5
		c-7.186,0-12.521,1.715-17.425,5.564l-0.151-0.132c4.821-13.067,14.26-19.592,29.576-20.936l-2-9c-24.86,1.616-40,18.777-40,45.5
		c0,20.005,10.416,29.5,27.5,29.5V550.125z"/>
</g>
<path d="M662.291,334.125c-24.035,2.146-38.666,19.694-38.666,46.667c0,18.601,10.28,28.333,26.834,28.333v-6.666
	c-11.248,0-18.834-6.932-18.834-19.334c0-10.779,7.532-17.8,18.834-17.8c11.299,0,18.832,7.021,18.832,17.8
	c0,12.402-7.253,19.334-18.832,19.334v6.666c16.241,0,26.832-10.082,26.832-26c0-14.823-9.8-24-25.166-24
	c-7.997,0-14.439,2.489-19.229,7.18l-0.171-0.098c4.394-15.143,14.847-23.674,30.994-25.422L662.291,334.125z"/>
<path d="M629.901,218.353c3.96-17.214,15.429-27.755,32.412-29.908l-0.855-4.32c-23.212,2.675-37.332,20.612-37.332,47.833
	c0,17.198,10.146,27.167,26.166,27.167v-4.333c-12.262,0-21.166-8.176-21.166-21.667c0-11.572,8.599-19.4,21.166-19.4
	s21.166,7.828,21.166,19.4c0,13.491-8.237,21.667-21.166,21.667v4.333c15.866,0,26.166-10.144,26.166-26
	c0-14.183-10.143-23.5-25.332-23.5c-8.811,0-16.36,3.264-21.036,8.796L629.901,218.353z"/>
<path d="M650.125,109.125c-15.49,0-25.5-10.206-25.5-26c0-27.471,13.61-45.795,36-49l0.282,1.979
	c-18.237,2.611-30.32,15.661-33.519,35.708l0.188,0.068c4.096-7.227,12.196-11.756,22.545-11.756c15.015,0,25.5,9.458,25.5,23
	C675.625,98.919,665.615,109.125,650.125,109.125v-2c14.274,0,23.5-9.421,23.5-24c0-12.364-9.664-21-23.5-21
	c-13.837,0-23.5,8.636-23.5,21c0,14.579,10.225,24,23.5,24V109.125z"/>
<polygon points="30.917,393.168 28.786,391.057 71.013,348.448 73.144,350.56 "/>
<polygon points="31.271,693.521 28.431,690.703 70.658,648.096 73.499,650.912 "/>
<polygon points="31.271,843.812 28.431,840.994 70.658,798.387 73.499,801.203 "/>
</svg>
