<?xml version="1.0" encoding="utf-8"?>
<!-- Generator: Adobe Illustrator 15.1.0, SVG Export Plug-In . SVG Version: 6.00 Build 0)  -->
<!DOCTYPE svg PUBLIC "-//W3C//DTD SVG 1.0//EN" "http://www.w3.org/TR/2001/REC-SVG-20010904/DTD/svg10.dtd">
<svg version="1.0" xmlns="http://www.w3.org/2000/svg" xmlns:xlink="http://www.w3.org/1999/xlink" x="0px" y="0px"
	 width="841.89px" height="595.275px" viewBox="0 0 841.89 595.275" enable-background="new 0 0 841.89 595.275"
	 xml:space="preserve">
<g id="レイヤー1">
	<g>
		<rect x="71.5" y="-226.5" fill="none" stroke="#000000" stroke-width="0.25" width="100" height="150"/>
		<rect x="171.5" y="-226.5" fill="none" stroke="#000000" stroke-width="0.25" width="100" height="150"/>
		<rect x="271.5" y="-226.5" fill="none" stroke="#000000" stroke-width="0.25" width="100" height="150"/>
		<rect x="371.5" y="-226.5" fill="none" stroke="#000000" stroke-width="0.25" width="100" height="150"/>
		<rect x="471.5" y="-226.5" fill="none" stroke="#000000" stroke-width="0.25" width="100" height="150"/>
		<rect x="571.5" y="-226.5" fill="none" stroke="#000000" stroke-width="0.25" width="100" height="150"/>
		<rect x="671.5" y="-226.5" fill="none" stroke="#000000" stroke-width="0.25" width="100" height="150"/>
		<rect x="71.5" y="-76.5" fill="none" stroke="#000000" stroke-width="0.25" width="100" height="150"/>
		<rect x="171.5" y="-76.5" fill="none" stroke="#000000" stroke-width="0.25" width="100" height="150"/>
		<rect x="271.5" y="-76.5" fill="none" stroke="#000000" stroke-width="0.25" width="100" height="150"/>
		<rect x="371.5" y="-76.5" fill="none" stroke="#000000" stroke-width="0.25" width="100" height="150"/>
		<rect x="471.5" y="-76.5" fill="none" stroke="#000000" stroke-width="0.25" width="100" height="150"/>
		<rect x="571.5" y="-76.5" fill="none" stroke="#000000" stroke-width="0.25" width="100" height="150"/>
		<rect x="671.5" y="-76.5" fill="none" stroke="#000000" stroke-width="0.25" width="100" height="150"/>
		<rect x="71.5" y="73.5" fill="none" stroke="#000000" stroke-width="0.25" width="100" height="150"/>
		<rect x="171.5" y="73.5" fill="none" stroke="#000000" stroke-width="0.25" width="100" height="150"/>
		<rect x="271.5" y="73.5" fill="none" stroke="#000000" stroke-width="0.25" width="100" height="150"/>
		<rect x="371.5" y="73.5" fill="none" stroke="#000000" stroke-width="0.25" width="100" height="150"/>
		<rect x="471.5" y="73.5" fill="none" stroke="#000000" stroke-width="0.25" width="100" height="150"/>
		<rect x="571.5" y="73.5" fill="none" stroke="#000000" stroke-width="0.25" width="100" height="150"/>
		<rect x="671.5" y="73.5" fill="none" stroke="#000000" stroke-width="0.25" width="100" height="150"/>
		<rect x="71.5" y="223.5" fill="none" stroke="#000000" stroke-width="0.25" width="100" height="150"/>
		<rect x="171.5" y="223.5" fill="none" stroke="#000000" stroke-width="0.25" width="100" height="150"/>
		<rect x="271.5" y="223.5" fill="none" stroke="#000000" stroke-width="0.25" width="100" height="150"/>
		<rect x="371.5" y="223.5" fill="none" stroke="#000000" stroke-width="0.25" width="100" height="150"/>
		<rect x="471.5" y="223.5" fill="none" stroke="#000000" stroke-width="0.25" width="100" height="150"/>
		<rect x="571.5" y="223.5" fill="none" stroke="#000000" stroke-width="0.25" width="100" height="150"/>
		<rect x="671.5" y="223.5" fill="none" stroke="#000000" stroke-width="0.25" width="100" height="150"/>
		<rect x="71.5" y="373.5" fill="none" stroke="#000000" stroke-width="0.25" width="100" height="150"/>
		<rect x="171.5" y="373.5" fill="none" stroke="#000000" stroke-width="0.25" width="100" height="150"/>
		<rect x="271.5" y="373.5" fill="none" stroke="#000000" stroke-width="0.25" width="100" height="150"/>
		<rect x="371.5" y="373.5" fill="none" stroke="#000000" stroke-width="0.25" width="100" height="150"/>
		<rect x="471.5" y="373.5" fill="none" stroke="#000000" stroke-width="0.25" width="100" height="150"/>
		<rect x="571.5" y="373.5" fill="none" stroke="#000000" stroke-width="0.25" width="100" height="150"/>
		<rect x="671.5" y="373.5" fill="none" stroke="#000000" stroke-width="0.25" width="100" height="150"/>
		<rect x="71.5" y="523.5" fill="none" stroke="#000000" stroke-width="0.25" width="100" height="150"/>
		<rect x="171.5" y="523.5" fill="none" stroke="#000000" stroke-width="0.25" width="100" height="150"/>
		<rect x="271.5" y="523.5" fill="none" stroke="#000000" stroke-width="0.25" width="100" height="150"/>
		<rect x="371.5" y="523.5" fill="none" stroke="#000000" stroke-width="0.25" width="100" height="150"/>
		<rect x="471.5" y="523.5" fill="none" stroke="#000000" stroke-width="0.25" width="100" height="150"/>
		<rect x="571.5" y="523.5" fill="none" stroke="#000000" stroke-width="0.25" width="100" height="150"/>
		<rect x="671.5" y="523.5" fill="none" stroke="#000000" stroke-width="0.25" width="100" height="150"/>
		<rect x="71.5" y="673.5" fill="none" stroke="#000000" stroke-width="0.25" width="100" height="150"/>
		<rect x="171.5" y="673.5" fill="none" stroke="#000000" stroke-width="0.25" width="100" height="150"/>
		<rect x="271.5" y="673.5" fill="none" stroke="#000000" stroke-width="0.25" width="100" height="150"/>
		<rect x="371.5" y="673.5" fill="none" stroke="#000000" stroke-width="0.25" width="100" height="150"/>
		<rect x="471.5" y="673.5" fill="none" stroke="#000000" stroke-width="0.25" width="100" height="150"/>
		<rect x="571.5" y="673.5" fill="none" stroke="#000000" stroke-width="0.25" width="100" height="150"/>
		<rect x="671.5" y="673.5" fill="none" stroke="#000000" stroke-width="0.25" width="100" height="150"/>
		<rect x="771.5" y="-226.5" fill="none" stroke="#000000" stroke-width="0.25" width="100" height="150"/>
		<rect x="771.5" y="-76.5" fill="none" stroke="#000000" stroke-width="0.25" width="100" height="150"/>
		<rect x="771.5" y="73.5" fill="none" stroke="#000000" stroke-width="0.25" width="100" height="150"/>
		<rect x="771.5" y="223.5" fill="none" stroke="#000000" stroke-width="0.25" width="100" height="150"/>
		<rect x="771.5" y="373.5" fill="none" stroke="#000000" stroke-width="0.25" width="100" height="150"/>
		<rect x="771.5" y="523.5" fill="none" stroke="#000000" stroke-width="0.25" width="100" height="150"/>
		<rect x="771.5" y="673.5" fill="none" stroke="#000000" stroke-width="0.25" width="100" height="150"/>
	</g>
	<g>
		<path d="M821.5,707.5c-22.752,0-37.5,14.226-37.5,37.5s14.748,37.5,37.5,37.5V766c-10.945,0-17-6.672-17-21s6.055-21,17-21
			s17,6.672,17,21s-6.055,21-17,21v16.5c22.752,0,37.5-14.226,37.5-37.5S844.252,707.5,821.5,707.5z"/>
		<path d="M821.5,557.5c-22.449,0-37,14.366-37,37.5s14.551,37.5,37,37.5v-14c-12.244,0-19.601-8.021-19.601-23.5
			c0-15.479,7.356-23.5,19.601-23.5s19.6,8.021,19.6,23.5c0,15.479-7.355,23.5-19.6,23.5v14c22.449,0,37-14.366,37-37.5
			S843.949,557.5,821.5,557.5z"/>
		<path d="M821.5,407.5c-22.146,0-36.5,14.507-36.5,37.5s14.354,37.5,36.5,37.5V471c-13.543,0-22.2-9.37-22.2-26s8.657-26,22.2-26
			s22.2,9.37,22.2,26s-8.657,26-22.2,26v11.5c22.146,0,36.5-14.507,36.5-37.5S843.646,407.5,821.5,407.5z"/>
		<path d="M821.5,257.5c-21.844,0-36,14.647-36,37.5s14.156,37.5,36,37.5v-9c-14.842,0-24.8-10.72-24.8-28.5s9.958-28.5,24.8-28.5
			s24.8,10.72,24.8,28.5s-9.958,28.5-24.8,28.5v9c21.844,0,36-14.647,36-37.5S843.344,257.5,821.5,257.5z"/>
		<path d="M821.5,175.833c-16.474,0-27.533-11.902-27.533-30.833c0-18.932,11.06-30.833,27.533-30.833s27.533,11.902,27.533,30.833
			C849.033,163.931,837.974,175.833,821.5,175.833v6.667c21.541,0,35.667-14.789,35.667-37.5c0-22.712-14.126-37.5-35.667-37.5
			s-35.667,14.788-35.667,37.5c0,22.711,14.126,37.5,35.667,37.5V175.833z"/>
		<path d="M821.5,28.167c-18.106,0-30.267-13.084-30.267-33.167c0-20.082,12.16-33.167,30.267-33.167S851.767-25.082,851.767-5
			C851.767,15.083,839.606,28.167,821.5,28.167V32.5c21.237,0,35.333-14.929,35.333-37.5S842.737-42.5,821.5-42.5
			S786.167-27.571,786.167-5s14.096,37.5,35.333,37.5V28.167z"/>
		<path d="M821.5-119.5c-19.738,0-33-14.267-33-35.5s13.262-35.5,33-35.5s33,14.267,33,35.5S841.238-119.5,821.5-119.5v2
			c20.935,0,35-15.07,35-37.5s-14.065-37.5-35-37.5s-35,15.07-35,37.5s14.065,37.5,35,37.5V-119.5z"/>
	</g>
	<g>
		<polygon points="640.3,741.5 640.3,781.5 659.5,781.5 659.5,708.5 638.3,708.5 621.4,751.5 621.2,751.5 604.3,708.5 583.5,708.5 
			583.5,781.5 602.3,781.5 602.3,741.5 602.5,741.5 612.3,766.5 630.3,766.5 640.1,741.5 		"/>
		<polygon points="642.033,586.833 642.033,631.5 658.5,631.5 658.5,558.5 640.699,558.5 621.4,601.5 621.2,601.5 601.899,558.5 
			584.5,558.5 584.5,631.5 600.566,631.5 600.566,586.833 600.767,586.833 613.633,614.833 628.967,614.833 641.833,586.833 		"/>
		<polygon points="643.767,432.167 643.767,481.5 657.5,481.5 657.5,408.5 643.1,408.5 621.4,451.5 621.2,451.5 599.5,408.5 
			585.5,408.5 585.5,481.5 598.833,481.5 598.833,432.167 599.033,432.167 614.967,463.167 627.633,463.167 643.566,432.167 		"/>
		<polygon points="586.5,331.5 597.1,331.5 597.1,277.5 597.3,277.5 616.3,311.5 626.3,311.5 645.3,277.5 645.5,277.5 645.5,331.5 
			656.5,331.5 656.5,258.5 645.5,258.5 621.4,301.5 621.2,301.5 597.1,258.5 586.5,258.5 		"/>
		<polygon points="587.166,181.5 594.899,181.5 594.899,121.879 595.1,121.879 617.633,159.833 625.1,159.833 647.633,121.879 
			647.833,121.879 647.833,181.5 655.833,181.5 655.833,108.5 647.433,108.5 621.467,152.513 621.267,152.513 595.3,108.5 
			587.166,108.5 		"/>
		<polygon points="587.833,31.5 592.7,31.5 592.7,-33.74 592.9,-33.74 618.967,8.167 623.9,8.167 649.967,-33.74 650.167,-33.74 
			650.167,31.5 655.167,31.5 655.167,-41.5 649.366,-41.5 621.534,3.527 621.334,3.527 593.5,-41.5 587.833,-41.5 		"/>
		<polygon points="652.5,-118.5 654.5,-118.5 654.5,-191.5 651.3,-191.5 621.601,-145.46 621.4,-145.46 591.7,-191.5 588.5,-191.5 
			588.5,-118.5 590.5,-118.5 590.5,-189.36 590.7,-189.36 620.3,-143.5 622.7,-143.5 652.3,-189.36 652.5,-189.36 		"/>
	</g>
	<g>
		<polygon points="502,-191.5 500,-191.5 500,-118.5 547,-118.5 547,-120.5 502,-120.5 		"/>
		<polygon points="505,-41.5 499.833,-41.5 499.833,31.5 547.833,31.5 547.833,27.1 505,27.1 		"/>
		<polygon points="508,108.5 499.667,108.5 499.667,181.5 548.667,181.5 548.667,174.7 508,174.7 		"/>
		<polygon points="511,258.5 499.5,258.5 499.5,331.5 549.5,331.5 549.5,322.3 511,322.3 		"/>
		<polygon points="513.167,408.5 498.666,408.5 498.666,481.5 550.333,481.5 550.333,469.866 513.167,469.866 		"/>
		<polygon points="515.333,558.5 497.833,558.5 497.833,631.5 551.167,631.5 551.167,617.434 515.333,617.434 		"/>
		<polygon points="517.5,708.5 497,708.5 497,781.5 552,781.5 552,765 517.5,765 		"/>
	</g>
	<g>
		<polygon points="146.5,-191.5 146.5,-159.5 96.5,-159.5 96.5,-191.5 94.5,-191.5 94.5,-118.5 96.5,-118.5 96.5,-157.5 
			146.5,-157.5 146.5,-118.5 148.5,-118.5 148.5,-191.5 		"/>
		<polygon points="98.667,-41.5 93.666,-41.5 93.666,31.5 98.667,31.5 98.667,-6.034 144.333,-6.034 144.333,31.5 149.333,31.5 
			149.333,-41.5 144.333,-41.5 144.333,-10.233 98.667,-10.233 		"/>
		<polygon points="100.833,108.5 92.833,108.5 92.833,181.5 100.833,181.5 100.833,145.434 142.167,145.434 142.167,181.5 
			150.167,181.5 150.167,108.5 142.167,108.5 142.167,139.033 100.833,139.033 		"/>
		<polygon points="103,258.5 92,258.5 92,331.5 103,331.5 103,296.9 140,296.9 140,331.5 151,331.5 151,258.5 140,258.5 140,288.3 
			103,288.3 		"/>
		<polygon points="105.167,408.5 91.167,408.5 91.167,481.5 105.167,481.5 105.167,448.434 137.833,448.434 137.833,481.5 
			151.833,481.5 151.833,408.5 137.833,408.5 137.833,437.7 105.167,437.7 		"/>
		<polygon points="107.333,558.5 90.333,558.5 90.333,631.5 107.333,631.5 107.333,599.967 135.667,599.967 135.667,631.5 
			152.667,631.5 152.667,558.5 135.667,558.5 135.667,587.1 107.333,587.1 		"/>
		<polygon points="133.5,751.5 133.5,781.5 153.5,781.5 153.5,708.5 133.5,708.5 133.5,736.5 109.5,736.5 109.5,708.5 89.5,708.5 
			89.5,781.5 109.5,781.5 109.5,751.5 		"/>
	</g>
	<g>
		<polygon points="746,-120.6 745.8,-120.6 698.2,-191.5 695,-191.5 695,-118.5 697,-118.5 697,-189.4 697.2,-189.4 744.8,-118.5 
			748,-118.5 748,-191.5 746,-191.5 		"/>
		<polygon points="748.833,-41.5 743.899,-41.5 743.899,24.1 743.7,24.1 699.899,-41.5 694.166,-41.5 694.166,31.5 699.1,31.5 
			699.1,-34.101 699.3,-34.101 743.1,31.5 748.833,31.5 		"/>
		<polygon points="749.667,108.5 741.8,108.5 741.8,168.8 741.6,168.8 701.6,108.5 693.333,108.5 693.333,181.5 701.2,181.5 
			701.2,121.2 701.4,121.2 741.4,181.5 749.667,181.5 		"/>
		<polygon points="692.5,331.5 703.3,331.5 703.3,276.5 703.5,276.5 739.7,331.5 750.5,331.5 750.5,258.5 739.7,258.5 739.7,313.5 
			739.5,313.5 703.3,258.5 692.5,258.5 		"/>
		<polygon points="751.333,408.5 737.634,408.5 737.634,458.666 737.433,458.666 705.366,408.5 691.667,408.5 691.667,481.5 
			705.366,481.5 705.366,431.333 705.566,431.333 737.634,481.5 751.333,481.5 		"/>
		<polygon points="752.167,558.5 735.566,558.5 735.566,603.833 735.366,603.833 707.434,558.5 690.833,558.5 690.833,631.5 
			707.434,631.5 707.434,586.167 707.634,586.167 735.566,631.5 752.167,631.5 		"/>
		<polygon points="733.3,749 709.5,708.5 690,708.5 690,781.5 709.5,781.5 709.5,741 709.7,741 733.5,781.5 753,781.5 753,708.5 
			733.5,708.5 733.5,749 		"/>
	</g>
	<g>
		<polygon points="400.7,-155.139 446.299,-118.5 449.5,-118.5 402,-156.5 448.5,-191.5 445.175,-191.5 400.7,-157.874 
			400.5,-157.874 400.5,-191.5 398.5,-191.5 398.5,-118.5 400.5,-118.5 400.5,-155.139 		"/>
		<polygon points="402.333,-41.5 397.333,-41.5 397.333,31.5 402.333,31.5 402.333,-4.593 402.533,-4.593 443.865,31.5 
			450.333,31.5 406.833,-6.5 449.333,-41.5 442.783,-41.5 402.533,-8.416 402.333,-8.416 		"/>
		<polygon points="404.167,108.5 396.167,108.5 396.167,181.5 404.167,181.5 404.167,145.954 404.367,145.954 441.433,181.5 
			451.167,181.5 411.667,143.5 450.167,108.5 440.392,108.5 404.367,141.042 404.167,141.042 		"/>
		<polygon points="406,258.5 395,258.5 395,331.5 406,331.5 406,296.5 406.2,296.5 439,331.5 452,331.5 416.5,293.5 451,258.5 
			438,258.5 406.2,290.5 406,290.5 		"/>
		<polygon points="407.833,408.5 393.833,408.5 393.833,481.5 407.833,481.5 407.833,446.833 408.033,446.833 437.167,481.5 
			453.5,481.5 421.5,443.5 452.5,408.5 436.166,408.5 408.033,440.167 407.833,440.167 		"/>
		<polygon points="409.667,558.5 392.667,558.5 392.667,631.5 409.667,631.5 409.667,597.167 409.867,597.167 435.333,631.5 
			455,631.5 426.5,593.5 454,558.5 434.333,558.5 409.867,589.833 409.667,589.833 		"/>
		<polygon points="411.5,739.5 411.5,708.5 391.5,708.5 391.5,781.5 411.5,781.5 411.5,747.5 411.7,747.5 433.5,781.5 456.5,781.5 
			431.5,743.5 455.5,708.5 432.5,708.5 411.7,739.5 		"/>
	</g>
	<g>
		<path d="M344.5,745.5v-37H324v33c0,21.719-3.127,25-13.5,25c-5.432,0-11.814-2.15-20-7.5l-5,15.5c8.683,5.539,16.959,8,26,8
			C335.539,782.5,344.5,774.008,344.5,745.5z"/>
		<path d="M311.667,632.5c-8.534,0-17.423-2.628-25.167-7.667l4.667-13.333c7.618,5.025,14.474,7.333,19.833,7.333
			c10.564,0,14.667-4.239,14.667-24.667V558.5h17.5v39C343.167,624.122,334.31,632.5,311.667,632.5z"/>
		<path d="M311.833,482.5c-8.027,0-17.529-2.796-24.333-7.333L291.833,464c7.049,4.701,14.379,7.167,19.667,7.167
			c10.754,0,15.833-5.198,15.833-24.334V408.5h14.5v41C341.833,474.237,333.081,482.5,311.833,482.5z"/>
		<path d="M312,332.5c-7.521,0-17.635-2.963-23.5-7l4-9c6.481,4.377,14.285,7,19.5,7c10.945,0,17-6.156,17-24v-41h11.5v43
			C340.5,324.352,331.852,332.5,312,332.5z"/>
		<path d="M339.5,108.5v43.667c0,22.027-8.531,30.334-27,30.334c-7.956,0-17.608-2.932-23.667-7.334l3.082-6.521
			c6.334,4.521,14.3,7.188,20.584,7.188c12.369,0,18.667-6.88,18.667-25V108.5H339.5z"/>
		<path d="M338.5-41.5V2.833c0,21.202-8.414,29.667-25.5,29.667c-8.391,0-17.582-2.9-23.833-7.667l2.164-4.043
			c6.186,4.663,14.316,7.376,21.669,7.376c13.792,0,20.333-7.604,20.333-26V-41.5H338.5z"/>
		<path d="M335.5-146.5c0,18.673-6.785,27-22,27c-8.423,0-16.716-2.758-22.754-7.564L289.5-125.5c6.444,5.131,15.174,8,24,8
			c15.704,0,24-8.623,24-29v-45h-2V-146.5z"/>
	</g>
	<g>
		<polygon points="235.5,-118.5 235.5,-120.5 222.5,-120.5 222.5,-189.5 235.5,-189.5 235.5,-191.5 207.5,-191.5 207.5,-189.5 
			220.5,-189.5 220.5,-120.5 207.5,-120.5 207.5,-118.5 		"/>
		<polygon points="236.5,31.5 236.5,27 224.125,27 224.125,-37 236.5,-37 236.5,-41.5 206.5,-41.5 206.5,-37 218.875,-37 
			218.875,27 206.5,27 206.5,31.5 		"/>
		<polygon points="237.5,181.5 237.5,174.5 225.75,174.5 225.75,115.5 237.5,115.5 237.5,108.5 205.5,108.5 205.5,115.5 
			217.25,115.5 217.25,174.5 205.5,174.5 205.5,181.5 		"/>
		<polygon points="238.5,331.5 238.5,322.25 227.25,322.25 227.25,267.75 238.5,267.75 238.5,258.5 204.5,258.5 204.5,267.75 
			215.75,267.75 215.75,322.25 204.5,322.25 204.5,331.5 		"/>
		<polygon points="239.5,481.5 239.5,470 228.75,470 228.75,420 239.5,420 239.5,408.5 203.5,408.5 203.5,420 214.25,420 
			214.25,470 203.5,470 203.5,481.5 		"/>
		<polygon points="240.663,571.75 240.663,558.5 202.538,558.5 202.538,571.75 212.375,571.75 212.375,618.25 202.538,618.25 
			202.538,631.5 240.663,631.5 240.663,618.25 230.625,618.25 230.625,571.75 		"/>
		<polygon points="241.825,723.5 241.825,708.5 201.575,708.5 201.575,723.5 210.5,723.5 210.5,766.5 201.575,766.5 201.575,781.5 
			241.825,781.5 241.825,766.5 232.5,766.5 232.5,723.5 		"/>
	</g>
</g>
<g id="レイヤー_2" display="none">
	<g display="inline">
		<rect x="210.5" y="708.5" width="22" height="73"/>
		<rect x="212.167" y="558.5" width="18.667" height="73"/>
		<rect x="213.833" y="408.5" width="15.333" height="73"/>
		<rect x="215.5" y="258.5" width="12" height="73"/>
		<rect x="217.167" y="108.5" width="8.667" height="73"/>
		<rect x="218.833" y="-41.5" width="5.333" height="73"/>
		<rect x="220.5" y="-191.5" width="2" height="73"/>
	</g>
</g>
</svg>
