<?xml version="1.0" encoding="utf-8"?>
<!-- Generator: Adobe Illustrator 16.0.3, SVG Export Plug-In . SVG Version: 6.00 Build 0)  -->
<!DOCTYPE svg PUBLIC "-//W3C//DTD SVG 1.0//EN" "http://www.w3.org/TR/2001/REC-SVG-20010904/DTD/svg10.dtd">
<svg version="1.0" id="レイヤー1" xmlns="http://www.w3.org/2000/svg" xmlns:xlink="http://www.w3.org/1999/xlink" x="0px"
	 y="0px" width="841.8896484px" height="595.2753906px" viewBox="0 0 841.8896484 595.2753906"
	 enable-background="new 0 0 841.8896484 595.2753906" xml:space="preserve">
<g>
	<rect x="71.5" y="-226.5" fill="none" stroke="#000000" stroke-width="0.25" width="100" height="150"/>
	<rect x="171.5" y="-226.5" fill="none" stroke="#000000" stroke-width="0.25" width="100" height="150"/>
	<rect x="271.5" y="-226.5" fill="none" stroke="#000000" stroke-width="0.25" width="100" height="150"/>
	<rect x="371.5" y="-226.5" fill="none" stroke="#000000" stroke-width="0.25" width="100" height="150"/>
	<rect x="471.5" y="-226.5" fill="none" stroke="#000000" stroke-width="0.25" width="100" height="150"/>
	<rect x="571.5" y="-226.5" fill="none" stroke="#000000" stroke-width="0.25" width="100" height="150"/>
	<rect x="671.5" y="-226.5" fill="none" stroke="#000000" stroke-width="0.25" width="100" height="150"/>
	<rect x="71.5" y="-76.5" fill="none" stroke="#000000" stroke-width="0.25" width="100" height="150"/>
	<rect x="171.5" y="-76.5" fill="none" stroke="#000000" stroke-width="0.25" width="100" height="150"/>
	<rect x="271.5" y="-76.5" fill="none" stroke="#000000" stroke-width="0.25" width="100" height="150"/>
	<rect x="371.5" y="-76.5" fill="none" stroke="#000000" stroke-width="0.25" width="100" height="150"/>
	<rect x="471.5" y="-76.5" fill="none" stroke="#000000" stroke-width="0.25" width="100" height="150"/>
	<rect x="571.5" y="-76.5" fill="none" stroke="#000000" stroke-width="0.25" width="100" height="150"/>
	<rect x="671.5" y="-76.5" fill="none" stroke="#000000" stroke-width="0.25" width="100" height="150"/>
	<rect x="71.5" y="73.5" fill="none" stroke="#000000" stroke-width="0.25" width="100" height="150"/>
	<rect x="171.5" y="73.5" fill="none" stroke="#000000" stroke-width="0.25" width="100" height="150"/>
	<rect x="271.5" y="73.5" fill="none" stroke="#000000" stroke-width="0.25" width="100" height="150"/>
	<rect x="371.5" y="73.5" fill="none" stroke="#000000" stroke-width="0.25" width="100" height="150"/>
	<rect x="471.5" y="73.5" fill="none" stroke="#000000" stroke-width="0.25" width="100" height="150"/>
	<rect x="571.5" y="73.5" fill="none" stroke="#000000" stroke-width="0.25" width="100" height="150"/>
	<rect x="671.5" y="73.5" fill="none" stroke="#000000" stroke-width="0.25" width="100" height="150"/>
	<rect x="71.5" y="223.5" fill="none" stroke="#000000" stroke-width="0.25" width="100" height="150"/>
	<rect x="171.5" y="223.5" fill="none" stroke="#000000" stroke-width="0.25" width="100" height="150"/>
	<rect x="271.5" y="223.5" fill="none" stroke="#000000" stroke-width="0.25" width="100" height="150"/>
	<rect x="371.5" y="223.5" fill="none" stroke="#000000" stroke-width="0.25" width="100" height="150"/>
	<rect x="471.5" y="223.5" fill="none" stroke="#000000" stroke-width="0.25" width="100" height="150"/>
	<rect x="571.5" y="223.5" fill="none" stroke="#000000" stroke-width="0.25" width="100" height="150"/>
	<rect x="671.5" y="223.5" fill="none" stroke="#000000" stroke-width="0.25" width="100" height="150"/>
	<rect x="71.5" y="373.5" fill="none" stroke="#000000" stroke-width="0.25" width="100" height="150"/>
	<rect x="171.5" y="373.5" fill="none" stroke="#000000" stroke-width="0.25" width="100" height="150"/>
	<rect x="271.5" y="373.5" fill="none" stroke="#000000" stroke-width="0.25" width="100" height="150"/>
	<rect x="371.5" y="373.5" fill="none" stroke="#000000" stroke-width="0.25" width="100" height="150"/>
	<rect x="471.5" y="373.5" fill="none" stroke="#000000" stroke-width="0.25" width="100" height="150"/>
	<rect x="571.5" y="373.5" fill="none" stroke="#000000" stroke-width="0.25" width="100" height="150"/>
	<rect x="671.5" y="373.5" fill="none" stroke="#000000" stroke-width="0.25" width="100" height="150"/>
	<rect x="71.5" y="523.5" fill="none" stroke="#000000" stroke-width="0.25" width="100" height="150"/>
	<rect x="171.5" y="523.5" fill="none" stroke="#000000" stroke-width="0.25" width="100" height="150"/>
	<rect x="271.5" y="523.5" fill="none" stroke="#000000" stroke-width="0.25" width="100" height="150"/>
	<rect x="371.5" y="523.5" fill="none" stroke="#000000" stroke-width="0.25" width="100" height="150"/>
	<rect x="471.5" y="523.5" fill="none" stroke="#000000" stroke-width="0.25" width="100" height="150"/>
	<rect x="571.5" y="523.5" fill="none" stroke="#000000" stroke-width="0.25" width="100" height="150"/>
	<rect x="671.5" y="523.5" fill="none" stroke="#000000" stroke-width="0.25" width="100" height="150"/>
	<rect x="71.5" y="673.5" fill="none" stroke="#000000" stroke-width="0.25" width="100" height="150"/>
	<rect x="171.5" y="673.5" fill="none" stroke="#000000" stroke-width="0.25" width="100" height="150"/>
	<rect x="271.5" y="673.5" fill="none" stroke="#000000" stroke-width="0.25" width="100" height="150"/>
	<rect x="371.5" y="673.5" fill="none" stroke="#000000" stroke-width="0.25" width="100" height="150"/>
	<rect x="471.5" y="673.5" fill="none" stroke="#000000" stroke-width="0.25" width="100" height="150"/>
	<rect x="571.5" y="673.5" fill="none" stroke="#000000" stroke-width="0.25" width="100" height="150"/>
	<rect x="671.5" y="673.5" fill="none" stroke="#000000" stroke-width="0.25" width="100" height="150"/>
	<rect x="771.5" y="-226.5" fill="none" stroke="#000000" stroke-width="0.25" width="100" height="150"/>
	<rect x="771.5" y="-76.5" fill="none" stroke="#000000" stroke-width="0.25" width="100" height="150"/>
	<rect x="771.5" y="73.5" fill="none" stroke="#000000" stroke-width="0.25" width="100" height="150"/>
	<rect x="771.5" y="223.5" fill="none" stroke="#000000" stroke-width="0.25" width="100" height="150"/>
	<rect x="771.5" y="373.5" fill="none" stroke="#000000" stroke-width="0.25" width="100" height="150"/>
	<rect x="771.5" y="523.5" fill="none" stroke="#000000" stroke-width="0.25" width="100" height="150"/>
	<rect x="771.5" y="673.5" fill="none" stroke="#000000" stroke-width="0.25" width="100" height="150"/>
</g>
<g>
	<rect x="513" y="700.5" width="17" height="103"/>
	<rect x="514.1660156" y="550.5" width="14.6669922" height="103"/>
	<rect x="515.3330078" y="400.5" width="12.3339844" height="103"/>
	<rect x="516.5" y="250.5" width="10" height="103"/>
	<rect x="517.8330078" y="100.4995117" width="7.3330078" height="103.0004883"/>
	<rect x="519.1669922" y="-49.5" width="4.6660156" height="103"/>
	<rect x="520.5" y="-199.5" width="2" height="103"/>
</g>
<g>
	<path d="M429.9970703-154.6000977C433.7382813-156.6391602,436-161.5883789,436-168.5v-16c0-9.9589844,3.9980469-12,10-12h15v-2
		h-15c-8.4111328,0-12,4.1870117-12,14v16c0,7.8974609-3.140625,13-8,13h-8v2h8c4.859375,0,8,5.1025391,8,13v16
		c0,9.8129883,3.5888672,14,12,14h15v-2h-15c-6.0019531,0-10-2.0410156-10-12v-16
		c0-6.9116211-2.2617188-11.8608398-6.0029297-13.8999023V-154.6000977z"/>
	<path d="M416.1665039-6.5834961h7.6665039C428.9707031-6.5834961,432-11.2597656,432-19.25v-15.5004883
		C432-44.9975586,435.8339844-49.25,444.8330078-49.25h16v3.9995117H446.5c-6.3935547,0-9.8330078,1.7929688-9.8330078,11.5
		v14.6669922c0,7.4272461-2.4501953,12.1708984-7.1689453,14.4833984v0.2001953
		c4.71875,2.3125,7.1689453,7.0551758,7.1689453,14.4829102v14.6665039c0,9.7075195,3.4394531,11.5,9.8330078,11.5h14.3330078V40.25
		h-16C435.8339844,40.25,432,35.9960938,432,25.7495117V10.25c0-7.9916992-3.0292969-12.6665039-8.1669922-12.6665039h-7.6665039
		V-6.5834961z"/>
	<path d="M414.3334961,142.3334961h7.3330078C427.0830078,142.3334961,430,138.0844727,430,130v-15
		c0-10.6811523,4.0800781-15,13.6669922-15h17v6H447c-6.7841797,0-9.6669922,1.5444336-9.6669922,11v13.3334961
		c0,7.9438477-2.6367188,12.480957-8.3339844,15.0668945v0.2001953c5.6972656,2.5859375,8.3339844,7.1220703,8.3339844,15.065918
		V174c0,9.4550781,2.8828125,11,9.6669922,11h13.6669922v6h-17C434.0800781,191,430,186.6796875,430,176v-15
		c0-8.0859375-2.9169922-12.3334961-8.3334961-12.3334961h-7.3330078V142.3334961z"/>
	<path d="M438,279.75c0,8.4599609-2.8251953,12.7910156-9.5,15.6503906v0.2001953c6.6748047,2.859375,9.5,7.1894531,9.5,15.6494141
		v12c0,9.203125,2.3251953,10.5,9.5,10.5h13v8h-18c-10.1738281,0-14.5-4.3867188-14.5-15.5v-14.5c0-8.1796875-2.8046875-12-8.5-12
		h-7v-8.5h7c5.6953125,0,8.5-3.8222656,8.5-12v-14.5c0-11.1152344,4.3261719-15.5,14.5-15.5h18v8h-13
		c-7.1748047,0-9.5,1.2958984-9.5,10.5V279.75z"/>
	<path d="M410.6660156,440.3330078h7.0004883c5.9731445,0,8.6665039-3.3955078,8.6665039-11.6660156V414.5
		c0-11.5488281,4.5722656-16,15.3330078-16h18.6669922v9.6660156H448c-7.5664063,0-9.3339844,1.0478516-9.3339844,10v11
		c0,8.8837891-3.0498047,13.2783203-10.3330078,16.2333984v0.2011719
		c7.2832031,2.9550781,10.3330078,7.3486328,10.3330078,16.2324219v11c0,8.9521484,1.7675781,10,9.3339844,10h12.3330078V492.5
		h-18.6669922c-10.7607422,0-15.3330078-4.4521484-15.3330078-16v-14.1669922
		c0-8.2724609-2.6933594-11.6669922-8.6665039-11.6669922h-7.0004883V440.3330078z"/>
	<path d="M408.8334961,589.4169922h7c6.2514648,0,8.8334961-2.96875,8.8334961-11.3339844V564.25
		c0-11.9824219,4.8183594-16.5,16.1660156-16.5h19.3339844v11.3330078H448.5c-7.9570313,0-9.1669922,0.7998047-9.1669922,9.5v10
		c0,9.3076172-3.2744141,13.7646484-11.1660156,16.8164063v0.2001953
		c7.8916016,3.0527344,11.1660156,7.5097656,11.1660156,16.8173828v10c0,8.7001953,1.2099609,9.5,9.1669922,9.5h11.6669922V643.25
		h-19.3339844c-11.3476563,0-16.1660156-4.5185547-16.1660156-16.5v-13.8330078
		c0-8.3662109-2.5820313-11.3339844-8.8334961-11.3339844h-7V589.4169922z"/>
	<path d="M428,745.3994141c8.5-3.1484375,12-7.6679688,12-17.3994141v-9c0-8.4492188,0.6523438-9,9-9h11v-13h-20
		c-11.9355469,0-17,4.5839844-17,17v13.5c0,8.4589844-2.4707031,11-9,11h-7v14h7c6.5292969,0,9,2.5410156,9,11V777
		c0,12.4160156,5.0644531,17,17,17h20v-13h-11c-8.3476563,0-9-0.5507813-9-9v-9c0-9.7314453-3.5-14.2519531-12-17.4003906
		V745.3994141z"/>
</g>
<g>
	<path d="M613.0029297-154.6000977C609.2617188-156.6391602,607-161.5883789,607-168.5v-16c0-9.9589844-3.9980469-12-10-12h-15v-2
		h15c8.4111328,0,12,4.1870117,12,14v16c0,7.8974609,3.140625,13,8,13h8v2h-8c-4.859375,0-8,5.1025391-8,13v16
		c0,9.8129883-3.5888672,14-12,14h-15v-2h15c6.0019531,0,10-2.0410156,10-12v-16
		c0-6.9116211,2.2617188-11.8608398,6.0029297-13.8999023V-154.6000977z"/>
	<path d="M626.8330078-6.5834961v4.1669922h-7.6669922C614.0283203-2.4165039,611,2.2583008,611,10.25v15.4995117
		C611,35.9960938,607.1650391,40.25,598.1660156,40.25h-16v-4.0004883H596.5c6.3925781,0,9.8330078-1.7924805,9.8330078-11.5
		V10.0830078c0-7.4277344,2.4501953-12.1704102,7.1689453-14.4829102v-0.2001953
		c-4.71875-2.3125-7.1689453-7.0561523-7.1689453-14.4833984v-14.6669922c0-9.7070313-3.4404297-11.5-9.8330078-11.5h-14.3339844
		V-49.25h16C607.1650391-49.25,611-44.9975586,611-34.7504883V-19.25c0,7.9902344,3.0283203,12.6665039,8.1660156,12.6665039
		H626.8330078z"/>
	<path d="M628.6669922,142.3334961v6.3330078h-7.3339844C615.9169922,148.6665039,613,152.9140625,613,161v15
		c0,10.6796875-4.0800781,15-13.6669922,15h-17v-6H596c6.7841797,0,9.6669922-1.5449219,9.6669922-11v-13.3334961
		c0-7.9438477,2.6367188-12.4799805,8.3339844-15.065918v-0.2001953c-5.6972656-2.5859375-8.3339844-7.1230469-8.3339844-15.0668945
		V117c0-9.4555664-2.8828125-11-9.6669922-11h-13.6669922v-6h17C608.9199219,100,613,104.3188477,613,115v15
		c0,8.0844727,2.9169922,12.3334961,8.3330078,12.3334961H628.6669922z"/>
	<path d="M605,279.75c0,8.4599609,2.8251953,12.7910156,9.5,15.6503906v0.2001953c-6.6748047,2.859375-9.5,7.1894531-9.5,15.6494141
		v12c0,9.203125-2.3251953,10.5-9.5,10.5h-13v8h18c10.1738281,0,14.5-4.3867188,14.5-15.5v-14.5c0-8.1796875,2.8046875-12,8.5-12h7
		v-8.5h-7c-5.6953125,0-8.5-3.8222656-8.5-12v-14.5c0-11.1152344-4.3261719-15.5-14.5-15.5h-18v8h13
		c7.1748047,0,9.5,1.2958984,9.5,10.5V279.75z"/>
	<path d="M632.3330078,440.3330078v10.3330078h-7c-5.9726563,0-8.6669922,3.3945313-8.6669922,11.6669922V476.5
		c0,11.5478516-4.5712891,16-15.3330078,16h-18.6669922v-9.6669922H595c7.5654297,0,9.3330078-1.0478516,9.3330078-10v-11
		c0-8.8837891,3.0498047-13.2773438,10.3339844-16.2324219v-0.2011719
		c-7.2841797-2.9550781-10.3339844-7.3496094-10.3339844-16.2333984v-11c0-8.9521484-1.7675781-10-9.3330078-10h-12.3339844V398.5
		h18.6669922c10.7617188,0,15.3330078,4.4511719,15.3330078,16v14.1669922c0,8.2705078,2.6943359,11.6660156,8.6669922,11.6660156
		H632.3330078z"/>
	<path d="M634.1669922,589.4169922v12.1660156h-7c-6.2519531,0-8.8339844,2.9677734-8.8339844,11.3339844V626.75
		c0,11.9814453-4.8183594,16.5-16.1660156,16.5h-19.3339844v-11.3330078H594.5c7.9570313,0,9.1669922-0.7998047,9.1669922-9.5v-10
		c0-9.3076172,3.2744141-13.7646484,11.1660156-16.8173828v-0.2001953
		c-7.8916016-3.0517578-11.1660156-7.5087891-11.1660156-16.8164063v-10c0-8.7001953-1.2099609-9.5-9.1669922-9.5h-11.6669922
		V547.75h19.3339844c11.3476563,0,16.1660156,4.5175781,16.1660156,16.5v13.8330078
		c0,8.3652344,2.5820313,11.3339844,8.8339844,11.3339844H634.1669922z"/>
	<path d="M615,745.3994141c-8.5-3.1484375-12-7.6679688-12-17.3994141v-9c0-8.4492188-0.6523438-9-9-9h-11v-13h20
		c11.9355469,0,17,4.5839844,17,17v13.5c0,8.4589844,2.4707031,11,9,11h7v14h-7c-6.5292969,0-9,2.5410156-9,11V777
		c0,12.4160156-5.0644531,17-17,17h-20v-13h11c8.3476563,0,9-0.5507813,9-9v-9c0-9.7314453,3.5-14.2519531,12-17.4003906
		V745.3994141z"/>
</g>
<g>
	<polygon points="121.4003906,763.6953125 129.2998047,781.5 150,781.5 134,755 149.5,729.5 129.2001953,729.5 
		121.7998047,746.5507813 121.5996094,746.5507813 114.2001953,729.5 93.5,729.5 109,755 93,781.5 113.2998047,781.5 
		121.2001953,763.6953125 	"/>
	<polygon points="121.3999023,612.8798828 130.8828125,631.5 148.6660156,631.5 131.8330078,605 148.1665039,579.5 
		130.7832031,579.5 121.7998047,597.2832031 121.5991211,597.2832031 112.6166992,579.5 94.8330078,579.5 111.1665039,605 
		94.3330078,631.5 111.7158203,631.5 121.199707,612.8798828 	"/>
	<polygon points="121.4003906,462.0654297 132.4667969,481.5 147.3334961,481.5 129.6665039,455 146.8334961,429.5 
		132.3671875,429.5 121.7998047,448.0166016 121.5996094,448.0166016 111.0336914,429.5 96.1665039,429.5 113.3334961,455 
		95.6665039,481.5 110.1333008,481.5 121.2001953,462.0654297 	"/>
	<polygon points="121.4003906,311.25 134.0498047,331.5 146,331.5 127.5,305 145.5,279.5 133.9501953,279.5 121.7998047,298.75 
		121.5996094,298.75 109.4501953,279.5 97.5,279.5 115.5,305 97,331.5 108.5498047,331.5 121.2001953,311.25 	"/>
	<polygon points="106.9863281,129.4995117 98.1660156,129.4995117 117.0727539,155.0629883 97.6665039,181.4995117 
		106.2197266,181.4995117 121.2666016,159.7587891 121.4663086,159.7587891 136.5126953,181.4995117 145.3330078,181.4995117 
		125.9262695,155.0629883 144.8330078,129.4995117 136.2797852,129.4995117 121.7329102,150.3676758 121.5327148,150.3676758 	"/>
	<polygon points="104.5234375,-20.5 98.8334961,-20.5 118.6464844,5.1264648 98.3334961,31.5 103.8901367,31.5 
		121.3334961,8.2680664 121.5336914,8.2680664 138.9765625,31.5 144.6665039,31.5 124.3535156,5.1264648 144.1665039,-20.5 
		138.6098633,-20.5 121.6669922,1.9853516 121.4663086,1.9853516 	"/>
	<polygon points="121.6000977,-143.2226563 141.4399414,-118.5 144,-118.5 122.7802734,-144.8100586 143.5,-170.5 
		140.9399414,-170.5 121.6000977,-146.3969727 121.3999023,-146.3969727 102.0600586,-170.5 99.5,-170.5 120.2197266,-144.8100586 
		99,-118.5 101.5600586,-118.5 121.3999023,-143.2226563 	"/>
</g>
<g>
	<polygon points="321.5,768.5 346,768.5 346,781.5 297,781.5 297,768.5 321.5,742.7001953 321.5,742.5 297,742.5 297,729.5 
		346,729.5 346,742.5 321.5,768.2998047 	"/>
	<polygon points="318.6665039,620.1660156 345,620.1660156 345,631.5 297.9995117,631.5 297.9995117,620.1660156 
		324.3330078,591.0332031 324.3330078,590.8330078 297.9995117,590.8330078 297.9995117,579.5 345,579.5 345,590.8330078 
		318.6665039,619.9667969 	"/>
	<polygon points="315.8334961,471.8330078 344,471.8330078 344,481.5 299,481.5 299,471.8330078 327.1665039,439.3671875 
		327.1665039,439.1669922 299,439.1669922 299,429.5 344,429.5 344,439.1669922 315.8334961,471.6328125 	"/>
	<polygon points="300,279.5 343,279.5 343,287.5 313,323.2998047 313,323.5 343,323.5 343,331.5 300,331.5 300,323.5 
		330,287.7001953 330,287.5 300,287.5 	"/>
	<polygon points="300.4995117,129.4995117 342.5,129.4995117 342.5,135.5 310.0566406,175.2993164 310.0566406,175.5 342.5,175.5 
		342.5,181.4995117 300.4995117,181.4995117 300.4995117,175.5 332.9428711,135.699707 332.9428711,135.5 300.4995117,135.5 	"/>
	<polygon points="301,-20.5 342,-20.5 342,-16.5 307.1132813,27.2998047 307.1132813,27.5 342,27.5 342,31.5 301,31.5 301,27.5 
		335.8867188,-16.2998047 335.8867188,-16.5 301,-16.5 	"/>
	<polygon points="338.8300781,-168.2998047 301.5,-120.5 301.5,-118.5 341.5,-118.5 341.5,-120.5 304.1699219,-120.5 
		304.1699219,-120.7001953 341.5,-168.5 341.5,-170.5 301.5,-170.5 301.5,-168.5 338.8300781,-168.5 	"/>
</g>
<g>
	<polygon points="221.8994141,765 213,729.5 191.5,729.5 213,781.5 203.5,803.5 223.5,803.5 251.5,729.5 231,729.5 222.0996094,765 
			"/>
	<polygon points="221.565918,616.8330078 210.9160156,579.5 192.8330078,579.5 213.9995117,631.5 204.2998047,653.5 
		221.1660156,653.5 250.1665039,579.5 232.8828125,579.5 221.765625,616.8330078 	"/>
	<polygon points="221.2329102,468.6669922 208.8334961,429.5 194.1669922,429.5 215,481.5 205.1005859,503.5 218.8334961,503.5 
		248.8334961,429.5 234.7670898,429.5 221.4331055,468.6669922 	"/>
	<polygon points="220.8994141,320.5 206.75,279.5 195.5,279.5 216,331.5 205.9003906,353.5 216.5,353.5 247.5,279.5 
		236.6503906,279.5 221.0996094,320.5 	"/>
	<polygon points="204.3959961,129.4995117 196.1665039,129.4995117 217.3881836,181.1660156 207.0292969,203.5 214.8330078,203.5 
		247.1660156,129.4995117 239.1958008,129.4995117 221.1977539,173.0380859 220.9975586,173.0380859 	"/>
	<polygon points="202.0429688,-20.5 196.8334961,-20.5 218.7773438,30.8334961 208.1586914,53.5 213.1665039,53.5 
		246.8334961,-20.5 241.7421875,-20.5 221.2963867,25.5761719 221.0961914,25.5761719 	"/>
	<polygon points="221.1943359,-121.8857422 199.6894531,-170.5 197.5,-170.5 220.1660156,-119.5 209.2880859,-96.5 211.5,-96.5 
		246.5,-170.5 244.2880859,-170.5 221.3945313,-121.8857422 	"/>
</g>
<g>
	<g>
		<path d="M825.5-154.5c0,16.9990234,5.9091797,31.9472656,17.1982422,44h-2.6845703
			C829.0644531-122.8027344,823.5-137.5908203,823.5-154.5s5.5644531-31.6972656,16.5136719-44h2.6845703
			C831.4091797-186.4472656,825.5-171.4990234,825.5-154.5z"/>
		<path d="M855.8544922-110.5C842.0253906-122.1152344,835-136.9003906,835-154.5s7.0253906-32.3847656,20.8544922-44H859
			c-14.4970703,11.3623047-22,25.9111328-22,44s7.5029297,32.6376953,22,44H855.8544922z"/>
	</g>
	<g>
		<path d="M825.4160156-4.5004883c0,17.2792969,5.9257813,32.3818359,17.3320313,44.7504883h-4.8203125
			c-11.1923828-12.2568359-17.0947266-27.5888672-17.0947266-44.7504883c0-17.1611328,5.9023438-32.4931641,17.0947266-44.7495117
			h4.8203125C831.3417969-36.8818359,825.4160156-21.7792969,825.4160156-4.5004883z"/>
		<path d="M854.3789063,40.25c-13.5927734-11.684082-20.7119141-27.0131836-20.7119141-44.7504883
			c0-17.7368164,7.1191406-33.065918,20.7119141-44.7495117h5.2041016C845.5029297-37.4575195,838.25-22.6875,838.25-4.5004883
			c0,18.1875,7.2529297,32.9575195,21.3330078,44.7504883H854.3789063z"/>
	</g>
	<g>
		<path d="M825.3330078,145.5c0,17.559082,5.9423828,32.815918,17.4658203,45.5h-6.9560547
			c-11.4375-12.2109375-17.6757813-28.0864258-17.6757813-45.5s6.2382813-33.2890625,17.6757813-45.5h6.9560547
			C831.2753906,112.6845703,825.3330078,127.940918,825.3330078,145.5z"/>
		<path d="M852.9033203,191c-13.3574219-11.7529297-20.5703125-27.6254883-20.5703125-45.5s7.2128906-33.7475586,20.5703125-45.5
			h7.2636719C846.5039063,112.2236328,839.5,127.2143555,839.5,145.5s7.0039063,33.2763672,20.6669922,45.5H852.9033203z"/>
	</g>
	<g>
		<path d="M825.25,295.5c0,17.8388672,5.9580078,33.25,17.5996094,46.25h-9.0927734
			C822.0761719,329.5849609,815.5,313.1660156,815.5,295.5s6.5761719-34.0849609,18.2568359-46.25h9.0927734
			C831.2080078,262.25,825.25,277.6611328,825.25,295.5z"/>
		<path d="M851.4277344,341.75C838.3066406,329.9287109,831,313.5117188,831,295.5s7.3066406-34.4287109,20.4277344-46.25H860.75
			c-13.2451172,12.6542969-20,27.8662109-20,46.25s6.7548828,33.5957031,20,46.25H851.4277344z"/>
	</g>
	<g>
		<path d="M824,445.5c0,18.1181641,5.9736328,33.6845703,17.7324219,47h-10.8945313
			C818.9130859,480.3808594,812,463.4179688,812,445.5c0-17.9189453,6.9130859-34.8808594,18.8378906-47h10.8945313
			C829.9736328,411.8154297,824,427.3808594,824,445.5z"/>
		<path d="M850.2851563,492.5C837.4003906,480.609375,830,463.6484375,830,445.5c0-18.1494141,7.4003906-35.1103516,20.2851563-47
			h11.0478516C848.5048828,411.5849609,842,427.0175781,842,445.5c0,18.4814453,6.5048828,33.9150391,19.3330078,47H850.2851563z"/>
	</g>
	<g>
		<path d="M822.75,595.5c0,18.3984375,5.9902344,34.1181641,17.8662109,47.75h-12.6972656
			C815.7509766,631.1767578,808.5,613.6708984,808.5,595.5s7.2509766-35.6767578,19.4189453-47.75h12.6972656
			C828.7402344,561.3818359,822.75,577.1015625,822.75,595.5z"/>
		<path d="M849.1425781,643.25C836.4951172,631.2910156,829,613.7861328,829,595.5s7.4951172-35.7910156,20.1425781-47.75
			h12.7744141C849.5058594,561.2666016,843.25,576.9199219,843.25,595.5s6.2558594,34.2333984,18.6669922,47.75H849.1425781z"/>
	</g>
	<g>
		<path d="M821.5,745.5c0,18.6787109,6.0068359,34.5527344,18,48.5H825c-12.4111328-12.0273438-20-30.0761719-20-48.5
			s7.5888672-36.4726563,20-48.5h14.5C827.5068359,710.9472656,821.5,726.8212891,821.5,745.5z"/>
		<path d="M844.5,745.5c0,18.6787109,6.0068359,34.5527344,18,48.5H848c-12.4111328-12.0273438-20-30.0761719-20-48.5
			s7.5888672-36.4726563,20-48.5h14.5C850.5068359,710.9472656,844.5,726.8212891,844.5,745.5z"/>
	</g>
</g>
<g>
	<path fill="#231815" d="M678.6845703-151.6035156c4.2890625-8.152832,13.3505859-17.4091797,23.2607422-17.4091797
		c20.3632813,0,19.8730469,31.875,39,31.875c10.5546875,0,19.5234375-15.4335938,19.6318359-15.6225586l1.7353516,0.9951172
		c-4.0234375,7.0112305-12.5683594,16.6274414-21.3671875,16.6274414c-20.6123047,0-20.1269531-31.875-39-31.875
		c-8.9785156,0-17.5078125,8.7851563-21.4902344,16.3408203L678.6845703-151.6035156z"/>
	<path fill="#231815" d="M677.7714844-1.8251953c5.234375-9.4355469,14.3847656-17.7939453,24.2148438-17.7929688
		c20.3261719,0,21.6865234,31.8950195,38.9589844,31.8950195c9.8486328,0,17.203125-12.9975586,18.5478516-14.9946289
		l3.7587891,2.4511719c-4.828125,8.1738281-12.8994141,17.043457-22.3066406,17.043457
		c-20.2001953,0-21.7509766-31.9604492-39.0400391-31.9604492c-8.2373047,0-16.2773438,8.2128906-20.3457031,15.7607422
		L677.7714844-1.8251953z"/>
	<path fill="#231815" d="M676.8574219,147.9526367c6.1796875-10.7177734,15.4189453-18.1787109,25.1699219-18.1757813
		c20.2890625,0,23.5,31.9140625,38.9179688,31.9140625c9.1425781,0,14.8828125-10.5610352,17.4628906-14.3662109
		l5.7841797,3.9072266c-5.6328125,9.3369141-13.2314453,17.4589844-23.2470703,17.4589844
		c-19.7880859,0-23.3759766-32.0458984-39.0800781-32.0458984c-7.4960938,0-15.0478516,7.6411133-19.2011719,15.1816406
		L676.8574219,147.9526367z"/>
	<path fill="#231815" d="M675.9453125,297.7373047c7.125-12,16.4511719-18.5629883,26.1230469-18.559082
		c20.2519531,0,25.3144531,31.934082,38.8769531,31.934082c8.4375,0,12.5625-8.125,16.3789063-13.7382813l7.8085938,5.3632813
		c-6.4375,10.5-13.5625,17.875-24.1875,17.875c-19.375,0-25-32.1313477-39.1191406-32.1313477
		c-6.7558594,0-13.8183594,7.0688477-18.0576172,14.6020508L675.9453125,297.7373047z"/>
	<path fill="#231815" d="M675.2988281,446.7773438c7.1875-11.5429688,16.4882813-18.3339844,26.7285156-18.3320313
		c22.5771484,0,24.9589844,31.9140625,38.9179688,31.9140625c7.6660156,0,12.28125-8.7177734,15.1503906-13.0263672
		l10.0996094,7.1513672c-6.7089844,10.6464844-14.5839844,18.2089844-25.25,18.2089844
		c-21.625,0-25.1611328-32.0458984-39.0800781-32.0458984c-6.3945313,0-13.1503906,7.1337891-16.8408203,13.7558594
		L675.2988281,446.7773438z"/>
	<path fill="#231815" d="M674.6533203,595.8164063c7.25-11.0839844,16.5253906-18.1044922,27.3330078-18.1035156
		c24.9023438,0,24.6044922,31.8945313,38.9589844,31.8945313c6.8955078,0,12-9.3115234,13.921875-12.3144531l12.390625,8.9394531
		c-6.9794922,10.7919922-15.6044922,18.5419922-26.3125,18.5419922c-23.875,0-25.3222656-31.9599609-39.0400391-31.9599609
		c-6.0341797,0-12.4814453,7.1992188-15.6259766,12.9101563L674.6533203,595.8164063z"/>
	<path fill="#231815" d="M674.0078125,744.8623047c7.3125-10.625,16.5625-17.875,27.9375-17.875
		c27.2285156,0,24.25,31.875,39,31.875c6.125,0,11.71875-9.9052734,12.6933594-11.6035156l14.6816406,10.7285156
		c-7.25,10.9375-16.625,18.875-27.375,18.875c-26.125,0-25.4824219-31.875-39-31.875
		c-5.6728516,0-11.8134766,7.2646484-14.4101563,12.0644531L674.0078125,744.8623047z"/>
</g>
</svg>
