<?xml version="1.0" encoding="utf-8"?>
<!-- Generator: Adobe Illustrator 15.1.0, SVG Export Plug-In . SVG Version: 6.00 Build 0)  -->
<!DOCTYPE svg PUBLIC "-//W3C//DTD SVG 1.0//EN" "http://www.w3.org/TR/2001/REC-SVG-20010904/DTD/svg10.dtd">
<svg version="1.0" id="Rx1.35_Bx1.3" xmlns="http://www.w3.org/2000/svg" xmlns:xlink="http://www.w3.org/1999/xlink" x="0px"
	 y="0px" width="592px" height="840px" viewBox="0 0 592 840" enable-background="new 0 0 592 840" xml:space="preserve">
<g>
	<rect x="46" y="70" fill="none" stroke="#000000" stroke-width="0.25" width="100" height="100"/>
	<rect x="446" y="70" fill="none" stroke="#000000" stroke-width="0.25" width="100" height="100"/>
	<rect x="146" y="70" fill="none" stroke="#000000" stroke-width="0.25" width="100" height="100"/>
	<rect x="246" y="70" fill="none" stroke="#000000" stroke-width="0.25" width="100" height="100"/>
	<rect x="346" y="70" fill="none" stroke="#000000" stroke-width="0.25" width="100" height="100"/>
	<rect x="46" y="170" fill="none" stroke="#000000" stroke-width="0.25" width="100" height="100"/>
	<rect x="446" y="170" fill="none" stroke="#000000" stroke-width="0.25" width="100" height="100"/>
	<rect x="146" y="170" fill="none" stroke="#000000" stroke-width="0.25" width="100" height="100"/>
	<rect x="246" y="170" fill="none" stroke="#000000" stroke-width="0.25" width="100" height="100"/>
	<rect x="346" y="170" fill="none" stroke="#000000" stroke-width="0.25" width="100" height="100"/>
	<rect x="46" y="270" fill="none" stroke="#000000" stroke-width="0.25" width="100" height="100"/>
	<rect x="446" y="270" fill="none" stroke="#000000" stroke-width="0.25" width="100" height="100"/>
	<rect x="146" y="270" fill="none" stroke="#000000" stroke-width="0.25" width="100" height="100"/>
	<rect x="246" y="270" fill="none" stroke="#000000" stroke-width="0.25" width="100" height="100"/>
	<rect x="346" y="270" fill="none" stroke="#000000" stroke-width="0.25" width="100" height="100"/>
	<rect x="46" y="370" fill="none" stroke="#000000" stroke-width="0.25" width="100" height="100"/>
	<rect x="446" y="370" fill="none" stroke="#000000" stroke-width="0.25" width="100" height="100"/>
	<rect x="146" y="370" fill="none" stroke="#000000" stroke-width="0.25" width="100" height="100"/>
	<rect x="246" y="370" fill="none" stroke="#000000" stroke-width="0.25" width="100" height="100"/>
	<rect x="346" y="370" fill="none" stroke="#000000" stroke-width="0.25" width="100" height="100"/>
	<rect x="46" y="470" fill="none" stroke="#000000" stroke-width="0.25" width="100" height="100"/>
	<rect x="446" y="470" fill="none" stroke="#000000" stroke-width="0.25" width="100" height="100"/>
	<rect x="146" y="470" fill="none" stroke="#000000" stroke-width="0.25" width="100" height="100"/>
	<rect x="246" y="470" fill="none" stroke="#000000" stroke-width="0.25" width="100" height="100"/>
	<rect x="346" y="470" fill="none" stroke="#000000" stroke-width="0.25" width="100" height="100"/>
	<rect x="46" y="570" fill="none" stroke="#000000" stroke-width="0.25" width="100" height="100"/>
	<rect x="446" y="570" fill="none" stroke="#000000" stroke-width="0.25" width="100" height="100"/>
	<rect x="146" y="570" fill="none" stroke="#000000" stroke-width="0.25" width="100" height="100"/>
	<rect x="246" y="570" fill="none" stroke="#000000" stroke-width="0.25" width="100" height="100"/>
	<rect x="346" y="570" fill="none" stroke="#000000" stroke-width="0.25" width="100" height="100"/>
	<rect x="46" y="670" fill="none" stroke="#000000" stroke-width="0.25" width="100" height="100"/>
	<rect x="446" y="670" fill="none" stroke="#000000" stroke-width="0.25" width="100" height="100"/>
	<rect x="146" y="670" fill="none" stroke="#000000" stroke-width="0.25" width="100" height="100"/>
	<rect x="246" y="670" fill="none" stroke="#000000" stroke-width="0.25" width="100" height="100"/>
	<rect x="346" y="670" fill="none" stroke="#000000" stroke-width="0.25" width="100" height="100"/>
</g>
<g>
	<path d="M74.7001953,681L57,679c-3.4345703,13.453125-5,26.5742188-5,42c0,15.4238281,1.5654297,28.5449219,5,42l17.7001953-2
		C71.5576172,748.6914063,70,735.3320313,70,721S71.5576172,693.3085938,74.7001953,681z"/>
	<path d="M57.6723633,579.2900391C54.2216797,592.6962891,52.6660156,605.6376953,52.6660156,621
		c0,15.3613281,1.5556641,28.3017578,5.0063477,41.7089844l15.0717773-1.7519531
		C69.5375977,648.5048828,67.9995117,635.453125,67.9995117,621c0-14.4541016,1.5380859-27.5058594,4.7446289-39.9570313
		L57.6723633,579.2900391z"/>
	<path d="M58.3452148,479.5810547C54.8789063,492.9394531,53.3334961,505.7001953,53.3334961,521
		c0,15.2988281,1.5454102,28.0595703,5.0117188,41.4189453l12.4438477-1.5048828C67.5180664,548.3193359,66,535.5751953,66,521
		s1.5180664-27.3193359,4.7890625-39.9140625L58.3452148,479.5810547z"/>
	<path d="M68.8330078,381.1289063l-9.8154297-1.2578125C55.5351563,393.1826172,54,405.7636719,54,421
		s1.5351563,27.8164063,5.0175781,41.1289063l9.8154297-1.2578125C65.4980469,448.1328125,64,435.6972656,64,421
		S65.4980469,393.8671875,68.8330078,381.1289063z"/>
</g>
<path d="M57.6894531,280.1606445c-3.4975586,13.2646484-5.0229492,25.6655273-5.0229492,40.8388672
	c0,15.1738281,1.5253906,27.5737305,5.0229492,40.8393555l7.1875-1.0117188
	c-3.3984375-12.8808594-4.8774414-25.0087891-4.8774414-39.8276367s1.4790039-26.9467773,4.8774414-39.8276367
	L57.6894531,280.1606445z"/>
<path d="M59.3623047,180.4511719C55.8491211,193.6689453,54.3334961,205.8891602,54.3334961,221
	s1.515625,27.3310547,5.0288086,40.5488281l4.559082-0.7641602C60.4589844,247.7612305,59,235.9404297,59,221
	c0-14.9399414,1.4589844-26.7607422,4.9213867-39.7841797L59.3623047,180.4511719z"/>
<path d="M56,121c0,15.0478516,1.5058594,27.0878906,5.0341797,40.2587891l1.9316406-0.5175781
	C59.4394531,147.5751953,58,136.0615234,58,121s1.4394531-26.5751953,4.9658203-39.7412109l-1.9316406-0.5175781
	C57.5058594,93.9121094,56,105.9521484,56,121z"/>
<g>
	<path d="M99,737c-5.1367188,0-7,1.7890625-7,5c0,3.3769531,2.03125,5,7,5c4.1992188,0,6-1.6542969,6-6v-30H79v-16h26v-17h8.6669922
		l-1.3334961,6.6669922l-1,11.6669922l6,7.6669922l20.6665039-1V711h-15v31c0,13.453125-8.6582031,21-23,21
		c-15.8359375,0-25-7.7578125-25-21c0-12.7988281,8.8310547-21,25-21c10.7539063,0,18.2216797,4.5,39,27l-11.5,11.5
		C109.3789063,739.8769531,104.7695313,737,99,737z"/>
	<path d="M79.6923828,594.8330078h27.3334961v-16.6660156h5.9736328l-0.3325195,5.8339844l0.3330078,15l10,5.3330078l15.0258789-2
		V608.5H122.359375V642c0,13.4003906-8.1401367,20.6660156-22.1669922,20.6660156
		c-15.3149414,0-24.1665039-7.4365234-24.1665039-20.1660156c0-12.1708984,8.5429688-19.8339844,24.1665039-19.8339844
		c10.7490234,0,18.7436523,4.7294922,38.6142578,25.8789063L128.8330078,658.5
		c-17.4887695-18.7832031-22.9726563-22.0839844-29.4736328-22.0839844c-6.2558594,0-8.6665039,2.1494141-8.6665039,6.0839844
		c0,4.3798828,2.734375,6.5,8.6665039,6.5c5.3681641,0,7.6665039-2.2265625,7.6665039-7.8330078V608.5H79.6923828V594.8330078z"/>
	<path d="M80.3862305,494.6669922h28.6665039v-16.3339844h3.6147461l-0.0004883,5.6679688v14l13.3330078,5l12.0527344-2V506
		h-16.3334961v36c0,13.3486328-7.6220703,20.3330078-21.3330078,20.3330078
		c-14.7944336,0-23.3334961-7.1152344-23.3334961-19.3330078c0-11.5419922,8.2548828-18.6669922,23.3334961-18.6669922
		c10.7431641,0,19.2646484,4.9580078,38.2275391,24.7578125L130.1665039,557.5
		c-16.8564453-17.9433594-23.2138672-21.6669922-30.4472656-21.6669922c-7.3745117,0-10.3330078,2.5087891-10.3330078,7.1669922
		c0,5.3837891,3.4379883,8,10.3330078,8c6.5380859,0,9.3334961-2.7978516,9.3334961-9.6669922V506H80.3862305V494.6669922z"/>
	<path d="M138.0791016,403.5h-17V442c0,13.296875-7.1044922,20-20.5,20c-14.2734375,0-22.5-6.7949219-22.5-18.5
		c0-10.9130859,7.9667969-17.5,22.5-17.5c10.7382813,0,19.7861328,5.1865234,37.8417969,23.6357422L131.5,456.5
		c-16.2246094-17.1035156-23.4560547-21.25-31.4208984-21.25c-8.4941406,0-12,2.8681641-12,8.25c0,6.3867188,4.1416016,9.5,12,9.5
		c7.7070313,0,11-3.3691406,11-11.5v-38h-30v-9h30v-16H114l1.3334961,6l-0.6669922,12.5009766L125.5,401.6674805
		l12.5791016-1.6665039V403.5z"/>
</g>
<path d="M78.1665039,295.6669922H108.5v-17.0004883h7.3330078v17.0004883L124.6665039,300.5l10.1669922-0.3330078v2.1665039
	h-19.0004883V342c0,13.2451172-6.5864258,19.6669922-19.6665039,19.6669922C82.4140625,361.6669922,74.5,355.1928711,74.5,344
	c0-10.2841797,7.6787109-16.3330078,21.6665039-16.3330078c10.7329102,0,20.3081055,5.4150391,37.456543,22.5141602
	l-5.0708008,5.0615234C112.7617188,339.1694336,104.5297852,334.5,95.8330078,334.5c-8.3994141,0-14,2.6064453-14,9.5
	c0,7.2236328,4.9482422,11.0004883,14,11.0004883c8.8764648,0,12.6669922-3.940918,12.6669922-13.3339844v-39.3330078H78.1665039
	V295.6669922z"/>
<path d="M81.0834961,196.8334961H112.75v-18h4.6669922l-1.3334961,7.769043l1.3334961,10.230957l10.75,3l9.25-1.1669922v2.5004883
	h-20V242c0,13.1928711-6.0688477,19.3334961-18.8334961,19.3334961C85.3515625,261.3334961,77.75,255.1801758,77.75,244.5
	c0-9.6557617,7.3916016-15.1665039,20.8334961-15.1665039c10.7280273,0,20.8300781,5.644043,37.0703125,21.3925781
	l-3.2197266,3.2597656C117.0771484,238.9428711,107.8452148,233.75,98.4169922,233.75c-8.3056641,0-16,2.3442383-16,10.75
	c0,8.0605469,5.7539063,12.5,16,12.5C108.4624023,257,112.75,252.487793,112.75,241.8334961v-40.6665039H81.0834961V196.8334961z"/>
<path d="M79,145c0,10.1679688,7.2890625,16,20,16c12.4492188,0,18-5.859375,18-19v-42h20v-2l-7.1875,1.1875L123.9379883,98H117V79
	h-2v19H81v2h34v42c0,11.9160156-4.7851563,17-16,17c-11.4394531,0-18-5.1025391-18-14c0-9.9179688,9.7890625-12,18-12
	c10.1601563,0,20.3925781,5.7158203,35.3154297,19.7285156l1.3691406-1.4570313C120.3515625,136.8730469,109.7226563,131,99,131
	C86.1035156,131,79,135.9726563,79,145z"/>
<g>
	<path d="M263,753.5c5.7060547-11.7890625,10.7890625-25.109375,14-37l-17-4c-3.0957031,10.7167969-8.1289063,24.0019531-13,34.5
		L263,753.5z"/>
	<path d="M260.8388672,612.8740234c-3.0512695,10.6894531-8.1542969,23.9013672-13.1489258,34.2070313l13.6196289,5.5878906
		c5.7041016-11.4052734,10.8632813-24.6806641,14.0175781-36.3759766L260.8388672,612.8740234z"/>
	<path d="M261.6787109,513.2470703c-3.0073242,10.6621094-8.1801758,23.8027344-13.2978516,33.9140625l11.2382813,4.6777344
		c5.7036133-11.0214844,10.9379883-24.2529297,14.0356445-35.7529297L261.6787109,513.2470703z"/>
	<path d="M262.5175781,413.6210938c-2.9628906,10.6347656-8.2050781,23.703125-13.4462891,33.6210938l8.8574219,3.765625
		c5.7021484-10.6367188,11.0126953-23.8242188,14.0537109-35.1289063L262.5175781,413.6210938z"/>
	<path d="M263.355957,313.9941406c-2.9174805,10.6074219-8.2299805,23.6040039-13.5947266,33.3286133l6.4770508,2.8540039
		c5.7006836-10.2529297,11.0869141-23.3955078,14.0717773-34.5048828L263.355957,313.9941406z"/>
	<path d="M264.1953125,214.3676758c-2.8720703,10.5800781-8.2553711,23.5048828-13.7431641,33.0366211l4.0957031,1.9414063
		c5.7001953-9.8686523,11.1621094-22.9667969,14.090332-33.8803711L264.1953125,214.3676758z"/>
	<path d="M251.1425781,147.4853516l1.7148438,1.0292969c5.6992188-9.484375,11.2363281-22.5380859,14.1083984-33.2558594
		l-1.9316406-0.5175781C262.2070313,125.2939453,256.7539063,138.1464844,251.1425781,147.4853516z"/>
</g>
<g>
	<path d="M345,747.5c-4.0371094-12.5488281-9.2490234-25.5117188-15-37l-16,7c5.6328125,10.5546875,10.75,22.8398438,14.5,35
		L345,747.5z"/>
	<path d="M315.5302734,617.1787109c5.7304688,10.2763672,11.0566406,22.7050781,14.7265625,34.6201172l14.0693359-4.2646484
		c-3.9189453-12.2685547-9.3427734-25.2998047-15.1894531-36.3798828L315.5302734,617.1787109z"/>
	<path d="M317.0595703,516.8583984c5.8291016,9.9970703,11.3652344,22.5703125,14.9550781,34.2392578l11.6376953-3.5283203
		c-3.7998047-11.9882813-9.4355469-25.0888672-15.3789063-35.7607422L317.0595703,516.8583984z"/>
	<path d="M318.5898438,416.5371094c5.9267578,9.71875,11.6728516,22.4355469,15.1816406,33.859375l9.2070313-2.7929688
		c-3.6806641-11.7080078-9.5292969-24.8769531-15.5683594-35.140625L318.5898438,416.5371094z"/>
	<path d="M320.1201172,316.2158203c6.0244141,9.4399414,11.9804688,22.3007813,15.4082031,33.4790039l6.7753906-2.0566406
		c-3.5605469-11.4282227-9.6220703-24.6660156-15.7578125-34.5209961L320.1201172,316.2158203z"/>
	<path d="M321.6503906,215.8945313c6.1220703,9.1621094,12.2871094,22.1669922,15.6357422,33.0991211l4.34375-1.3203125
		c-3.4423828-11.1484375-9.7148438-24.4545898-15.9472656-33.9013672L321.6503906,215.8945313z"/>
	<path d="M323.1806641,115.5732422c6.2197266,8.8837891,12.5947266,22.0322266,15.8632813,32.71875l1.9121094-0.5839844
		c-3.3232422-10.8681641-9.8076172-24.2431641-16.1367188-33.28125L323.1806641,115.5732422z"/>
</g>
<g>
	<path d="M361,744c7.8457031-9.703125,12.8300781-16.4765625,16.1337891-20.9628906
		C383.2138672,714.7792969,384.2666016,714,386.5,714c1.9033203,0,2.9931641,0.7265625,12.40625,9.8398438
		C405.0078125,729.7460938,415.2226563,739.6328125,432,755l13-15
		c-11.296875-10.3476563-19.6357422-18.3398438-26.3369141-24.7597656C397.1142578,694.5917969,395.6992188,694,387,694
		c-9.9472656,0-11.6738281,0.9375-26.2089844,19.6699219C357.1875,718.3144531,352.7011719,724.0917969,347,731L361,744z"/>
	<path d="M359.6230469,642.7783203c8.1533203-9.8789063,13.3564453-16.7832031,16.8759766-21.4423828
		c6.4501953-8.5410156,7.6064453-9.5029297,10.0839844-9.5029297c2.2158203,0,3.3955078,0.8662109,12.75,9.9052734
		c6.2177734,6.0058594,16.6259766,16.0605469,33.890625,31.7207031l11.0517578-12.7519531
		c-12.6914063-11.4726563-21.5332031-19.9433594-28.2470703-26.3759766
		C396.5146484,595.6357422,395.0117188,594.8330078,387,594.8330078c-9.0810547,0-10.8730469,1.2373047-24.3759766,18.484375
		c-3.7617188,4.7919922-8.5537109,10.859375-14.9140625,18.4042969L359.6230469,642.7783203z"/>
	<path d="M358.2470703,541.5556641c8.4599609-10.0546875,13.8818359-17.0888672,17.6171875-21.9199219
		c6.8193359-8.8242188,8.0810547-9.96875,10.8027344-9.96875c2.5273438,0,3.7978516,1.0048828,13.09375,9.9707031
		c6.3330078,6.1054688,16.9355469,16.3271484,34.6875,32.2802734l9.1035156-10.5029297
		c-14.0859375-12.5976563-23.4306641-21.5478516-30.1591797-27.9921875
		C395.9160156,496.6806641,394.3251953,495.6669922,387,495.6669922c-8.2148438,0-10.0722656,1.5371094-22.5429688,17.2978516
		c-3.9199219,4.9404297-9.0166016,11.296875-16.0380859,19.4794922L358.2470703,541.5556641z"/>
	<path d="M356.8710938,440.3339844c8.7666016-10.2304688,14.4072266-17.3955078,18.3583984-22.3984375
		C382.4189453,408.8271484,383.7851563,407.5,386.75,407.5c2.8398438,0,4.2011719,1.1445313,13.4375,10.0371094
		c6.4492188,6.2050781,17.2451172,16.59375,35.484375,32.8398438l7.15625-8.2539063
		c-15.4814453-13.7226563-25.328125-23.1523438-32.0703125-29.6083984C395.3173828,397.7246094,393.6386719,396.5,387,396.5
		c-7.3486328,0-9.2714844,1.8378906-20.7099609,16.1123047c-4.078125,5.0888672-9.4804688,11.734375-17.1611328,20.5537109
		L356.8710938,440.3339844z"/>
	<path d="M355.4951172,339.1118164c9.0732422-10.40625,14.9326172-17.7016602,19.0996094-22.8769531
		c7.5585938-9.3920898,9.0302734-10.9018555,12.2382813-10.9018555c3.1513672,0,4.6035156,1.2841797,13.78125,10.1030273
		c6.5654297,6.3046875,17.5546875,16.8603516,36.28125,33.3999023l5.2080078-6.0058594
		c-16.8759766-14.847168-27.2246094-24.7558594-33.9814453-31.2241211
		C394.7177734,298.7685547,392.9511719,297.3330078,387,297.3330078c-6.4824219,0-8.5039063,2.1118164-18.8769531,14.9262695
		c-4.2480469,5.2280273-9.9443359,12.171875-18.2851563,21.628418L355.4951172,339.1118164z"/>
	<path d="M354.1191406,237.890625c9.3798828-10.5820313,15.4580078-18.0087891,19.8408203-23.3554688
		c7.9287109-9.6762695,9.5039063-11.3686523,12.9570313-11.3686523c3.4628906,0,5.0058594,1.4233398,14.125,10.1689453
		c6.6806641,6.4047852,17.8642578,17.1269531,37.078125,33.9599609l3.2597656-3.7578125
		c-18.2705078-15.9711914-29.1230469-26.359375-35.8925781-32.8398438
		c-11.3681641-10.8837891-13.2226563-12.53125-18.4873047-12.53125c-5.6162109,0-7.7353516,2.3857422-17.0439453,13.7407227
		c-4.4179688,5.3666992-10.4072266,12.609375-19.4082031,22.7021484L354.1191406,237.890625z"/>
	<path d="M371.7890625,111.5546875c-4.5878906,5.5058594-10.8710938,13.046875-20.5322266,23.7763672l1.4863281,1.3378906
		c9.6865234-10.7578125,15.9833984-18.3154297,20.5820313-23.8339844C381.6240234,102.875,383.3037109,101,387,101
		c3.7753906,0,5.4082031,1.5625,14.46875,10.234375c6.796875,6.5048828,18.1738281,17.3935547,37.875,34.5205078l1.3125-1.5097656
		c-19.6660156-17.0957031-31.0205078-27.9628906-37.8046875-34.4560547C393.5205078,100.8583984,391.578125,99,387,99
		C382.25,99,380.0332031,101.6591797,371.7890625,111.5546875z"/>
</g>
<g>
	<path d="M172.0683594,698.1875C161.7070313,707.8203125,155.5,720.6367188,155.5,731c0,20.0898438,13.5820313,32,34.5,32
		c22.3535156,0,36-11.6640625,36-27c0-6.0859375-0.6542969-9.9667969-2.8945313-16.3564453l0.1533203-0.1289063
		C226.6855469,722.5996094,230.6503906,725.9082031,234,728.5l10-13.5
		c-3.7993164-2.9394531-7.8076172-6.2548828-11.8515625-9.7910156c-6.5332031-5.7119141-9.8256836,4-15.8149414-2.2089844
		l-8.7426758-11.4228516L200,698c6.9384766,17.0898438,7.5,19.9335938,7.5,32c0,10.984375-6.3759766,17-17.5,17
		c-9.1650391,0-15.5-5.8359375-15.5-17c0-10.8105469,7.3847656-23.9980469,17.5-31v-17h-38v16h18L172.0683594,698.1875z"/>
	<path d="M153.8334961,582.8330078V596.5h19.5634766l0.0791016,0.1826172
		c-10.9638672,9.9726563-17.3925781,23.2148438-17.3925781,34.484375c0,19.8583984,13.09375,31.5,33.75,31.5
		c21.9243164,0,35.3662109-11.6972656,35.3662109-27.8330078c0-6.1738281-0.8300781-10.6386719-3.5136719-17.6826172
		l0.1533203-0.1289063c4.0795898,3.8945313,8.6513672,7.8164063,12.7265625,10.9443359l8.5341797-11.5166016
		c-4.0644531-3.1298828-8.3647461-6.7226563-12.6469727-10.5429688C224.1494141,600.2851563,221.4155273,607.8505859,216,602
		l-7.7670898-10.1201172l-6.8798828,5.78125c6.8007813,15.8642578,8.0966797,21.1816406,8.0966797,32.1728516
		C209.449707,642.1650391,202.2089844,649,189.8334961,649C179.1425781,649,172.25,642.5810547,172.25,630.3330078
		c0-11.7851563,7.9946289-25.6630859,19.1640625-33.0205078v-14.4794922H153.8334961z"/>
	<path d="M153.6665039,483.6669922V495h21.1279297l0.0898438,0.1777344
		c-11.5673828,10.3125-18.2177734,23.9814453-18.2177734,36.1552734c0,19.6269531,12.6064453,31,33,31
		c21.4956055,0,34.7333984-11.7304688,34.7333984-28.6650391c0-6.2626953-1.0068359-11.3095703-4.1328125-19.0097656
		l0.1533203-0.1289063c4.7319336,4.7041016,9.9111328,9.2412109,14.7119141,12.9042969l7.0683594-9.5332031
		c-4.5019531-3.4511719-9.2900391-7.5087891-13.965332-11.7929688c-5.8730469-5.3818359-9.1738281,1.5703125-13.9018555-3.7734375
		l-7.0952148-8.78125l-4.5327148,3.7705078c6.6640625,14.6367188,8.6943359,22.4296875,8.6943359,32.3447266
		c0,13.6767578-8.105957,21.3320313-21.7333984,21.3320313C177.4501953,551,170,543.9970703,170,530.6669922
		c0-12.7617188,8.6049805-27.3300781,20.828125-35.0429688v-11.9570313H153.6665039z"/>
	<path d="M189.5,453c-13.7421875,0-21.75-7.5859375-21.75-22c0-13.7363281,9.2148438-28.9951172,22.4921875-37.0634766V384.5H153.5
		v9h22.6914063l0.1005859,0.1728516C164.1220703,404.3251953,157.25,418.4199219,157.25,431.5
		c0,19.3955078,12.1181641,30.5,32.25,30.5c21.0664063,0,34.0996094-11.7636719,34.0996094-29.4980469
		c0-6.3505859-1.1826172-11.9814453-4.7519531-20.3359375l0.1533203-0.1289063
		c5.3847656,5.5136719,11.1708984,10.6640625,16.6972656,14.8632813l5.6025391-7.5498047
		c-10.2666016-7.8349609-22.0019531-19.015625-29.8925781-28.3867188l-7.3496094,6.0205078
		c6.5263672,13.4111328,9.2910156,23.6777344,9.2910156,32.5175781C213.3496094,444.5253906,204.3789063,453,189.5,453z"/>
	<path d="M154,284.9047852v6.6665039h25.5893555l0.1000977,0.1728516C166.472168,302.1298828,158.5,317.0913086,158.5,331.237793
		c0,19.1640625,11.6303711,30,31.5,30c20.5239258,0,33.3999023-12.2910156,33.3999023-30.9985352
		c0-7.5200195-1.6923828-15.5556641-5.7416992-25.168457l0.1601563-0.1191406
		c5.9438477,6.4140625,12.8613281,12.7514648,19.1132813,17.4863281l4.1362305-5.565918
		C230.6918945,308.987793,218.8334961,297.5,211.5454102,288.355957l-5.4672852,4.3613281
		c6.5546875,13.0849609,9.8217773,25.3632813,9.8217773,35.5219727c0,16.4956055-9.9057617,26.3320313-25.8999023,26.3320313
		c-15.2675781,0-23.8334961-8.1694336-23.8334961-23.6665039c0-14.7114258,9.8251953-30.6611328,24.1572266-39.0844727v-6.9155273
		H154z"/>
	<path d="M154.5,185.3085938v4.3334961h28.4868164l0.1000977,0.1728516
		C168.8217773,199.934082,159.75,215.7617188,159.75,230.9755859c0,18.9326172,11.1420898,29.5,30.75,29.5
		c19.9819336,0,32.699707-12.8183594,32.699707-32.4995117c0-8.6899414-2.2011719-19.1298828-6.730957-30.0014648
		l0.1669922-0.109375c6.503418,7.3154297,14.5517578,14.8393555,21.5292969,20.109375l2.6694336-3.581543
		c-10.484375-7.934082-22.4667969-19.7285156-29.1523438-28.6450195l-3.5844727,2.7021484
		c6.5830078,12.7587891,10.3520508,27.0488281,10.3520508,38.5258789c0,17.9672852-10.840332,29.1660156-27.949707,29.1660156
		c-16.7929688,0-25.9165039-8.753418-25.9165039-25.3334961c0-15.6860352,10.4345703-32.3261719,25.8212891-41.1049805v-4.3950195
		H154.5z"/>
	<path d="M186.3847656,89l0.0996094,0.1728516C171.171875,99.0253906,161,115.7197266,161,132c0,18.7011719,10.6542969,29,30,29
		c19.4394531,0,32-13.3457031,32-34c0-9.859375-2.7109375-22.7041016-7.7207031-34.8339844l0.1738281-0.0996094
		c7.0625,8.2158203,16.2421875,16.9267578,23.9453125,22.7324219l1.203125-1.5976563
		c-10.59375-7.9833984-22.6992188-20.0849609-28.7822266-28.7744141l-1.7021484,1.0429688
		C216.7285156,97.9023438,221,114.2041016,221,127c0,19.4394531-11.7753906,32-30,32c-18.3183594,0-28-9.3369141-28-27
		c0-16.6611328,11.0449219-33.9921875,27.4863281-43.1259766V87H155v2H186.3847656z"/>
	<path d="M92,51"/>
</g>
<g>
	<path d="M456,121c0,15.0478516,1.5058594,27.0878906,5.0341797,40.2587891l1.9316406-0.5175781
		C459.4384766,147.5751953,458,136.0615234,458,121s1.4384766-26.5751953,4.9658203-39.7412109l-1.9316406-0.5175781
		C457.5058594,93.9121094,456,105.9521484,456,121z"/>
	<path d="M464.921875,181.215332l-4.5605469-0.7646484C456.8486328,193.668457,455.3330078,205.8891602,455.3330078,221
		c0,15.1103516,1.515625,27.3305664,5.0283203,40.5488281l4.5605469-0.7646484C461.4580078,247.7607422,460,235.9399414,460,221
		C460,206.0595703,461.4580078,194.2387695,464.921875,181.215332z"/>
	<path d="M466.8769531,281.1723633l-7.1875-1.0112305c-3.4970703,13.2646484-5.0224609,25.6655273-5.0224609,40.8388672
		s1.5253906,27.5737305,5.0224609,40.8388672l7.1875-1.0112305C463.4785156,347.9467773,462,335.8188477,462,321
		S463.4785156,294.0532227,466.8769531,281.1723633z"/>
	<path d="M468.8330078,381.1289063l-9.8154297-1.2578125C455.5351563,393.1826172,454,405.7636719,454,421
		s1.5351563,27.8164063,5.0175781,41.1289063l9.8154297-1.2578125C465.4980469,448.1328125,464,435.6972656,464,421
		S465.4980469,393.8671875,468.8330078,381.1289063z"/>
	<path d="M458.3447266,479.5800781c-3.4667969,13.359375-5.0117188,26.1201172-5.0117188,41.4199219
		c0,15.2988281,1.5449219,28.0595703,5.0117188,41.4189453l12.4433594-1.5048828C467.5175781,548.3183594,466,535.5751953,466,521
		c0-14.5761719,1.5175781-27.3193359,4.7880859-39.9140625L458.3447266,479.5800781z"/>
	<path d="M457.6728516,579.2900391c-3.4511719,13.40625-5.0058594,26.3476563-5.0058594,41.7099609
		c0,15.3613281,1.5546875,28.3017578,5.0058594,41.7099609l15.0712891-1.7529297C469.5380859,648.5048828,468,635.4541016,468,621
		s1.5380859-27.5048828,4.7441406-39.9570313L457.6728516,579.2900391z"/>
	<path d="M474.7001953,681L457,679c-3.4345703,13.453125-5,26.5742188-5,42c0,15.4238281,1.5654297,28.5449219,5,42l17.7001953-2
		C471.5576172,748.6914063,470,735.3320313,470,721S471.5576172,693.3085938,474.7001953,681z"/>
</g>
<g>
	<path d="M482,146c0-9.0917969,9.2451172-11,17-11c10.1621094,0,20.3935547,5.7158203,35.3154297,19.7285156l1.3691406-1.4570313
		C520.3525391,138.8730469,509.7246094,133,499,133c-16.53125,0-19,8.1445313-19,13c0,9.3925781,7.1025391,15,19,15
		c12.4492188,0,18-5.859375,18-19v-33h20v-2h-20V86h0.2919922l-0.3330078-1.25L516.5,84H482v2h33v21h-33v2h33v33
		c0,11.9160156-4.7851563,17-16,17C488.1962891,159,482,154.2617188,482,146z"/>
	<path d="M481.1933594,183.5830078H515.5l1,1.2504883l-0.5,3l-1.3330078,1.3334961l2.6923828,3.1655273v14.0834961h19.5v4.2504883
		h-19.5v31.4165039c0,13.1621094-6.0439453,19.3334961-18.5,19.3334961c-12.6855469,0-20-5.7905273-20-15.8334961
		c0-6.1240234,3.3867188-14.0830078,20-14.0830078c11,0,21.1591797,5.5834961,37.0703125,20.9760742l-3.2197266,3.1762695
		c-14.9980469-14.6411133-24.3828125-19.8188477-34.0175781-19.8188477c-7.9316406,0-15.1660156,2.121582-15.1660156,9.7495117
		c0,7.3857422,5.3242188,11.5004883,15,11.5004883c9.8945313,0,14.1669922-4.5390625,14.1669922-15.1669922v-31.25h-31.5v-4.2504883
		h31.5v-18.5h-31.5V183.5830078z"/>
	<path d="M480.3857422,283.1669922h33.4169922L515.5,286l-0.25,4v5.25l2.4697266,2.7504883v7.8330078h19v6.5h-19v29.8330078
		c0,13.1835938-6.5371094,19.6665039-19,19.6665039c-13.4736328,0-21-5.9731445-21-16.6665039
		c0-7.3925781,4.3037109-15.1665039,21-15.1665039c11.2753906,0,20.9648438,5.293457,37.4560547,21.6806641l-5.0703125,4.8955078
		c-15.0742188-15.269043-23.6123047-19.909668-32.7197266-19.909668c-8.1083984,0-13.3330078,2.3354492-13.3330078,8.5
		c0,6.5097656,4.4521484,10,13,10c8.5751953,0,12.3330078-3.9926758,12.3330078-13.3330078v-29.5h-30v-6.5h30v-16h-30V283.1669922z"
		/>
	<path d="M514.5,391l-0.75,6.75l4.3291016,7.5h18.5V414h-18.5v28.25c0,13.2050781-7.0302734,20-19.5,20
		c-14.2617188,0-22-6.15625-22-17.5c0-8.6611328,5.2216797-16.25,22-16.25c11.5507813,0,20.7714844,5.0039063,37.8417969,22.3857422
		L529.5,457.5c-15.1494141-15.8974609-22.8417969-20-31.4208984-20c-8.2851563,0-11.5,2.5488281-11.5,7.25
		c0,5.6337891,3.5800781,8.5,11,8.5c7.2558594,0,10.5-3.4472656,10.5-11.5V414h-28.5v-8.75h28.5v-13.5h-28.5v-9h31.6201172
		L513.75,386L514.5,391z"/>
	<path d="M479.7714844,482.3339844H510.25L512.75,486l-1,5.7998047l1,6.7001953l6.6894531,6.5h17.6660156v11h-17.6660156v26.3339844
		c0,13.2265625-7.5234375,20.3320313-20,20.3320313c-15.0488281,0-23-6.3378906-23-18.3320313
		c0-9.9296875,6.1386719-17.3339844,23-17.3339844c11.8261719,0,20.578125,4.7128906,38.2265625,23.0898438l-8.4472656,8.2441406
		c-15.4082031-16.3476563-22.3945313-20.1679688-30.4472656-20.1679688c-7.2636719,0-9.9980469,2.1894531-9.9980469,6.1679688
		c0,4.6816406,2.9296875,7,9.3320313,7c5.9375,0,8.6660156-2.9023438,8.6660156-9.6660156V516h-27v-11h27v-11.3339844h-27
		V482.3339844z"/>
	<path d="M479.859375,581.9169922H511.25l1,6.5830078l0.5,7.75l3,4.5l4.9433594,4h16.8330078V618h-16.8330078v24.4169922
		c0,13.2480469-8.0166016,20.6660156-20.5,20.6660156c-15.8378906,0-24-6.5214844-24-19.1660156
		c0-11.1982422,7.0566406-18.4169922,24-18.4169922c12.1025391,0,20.3847656,4.4228516,38.6132813,23.7949219l-9.9736328,9.8720703
		c-15.6669922-16.796875-21.9492188-20.3339844-29.4736328-20.3339844c-6.2421875,0-8.5,1.828125-8.5,5.0839844
		c0,3.7275391,2.28125,5.5,7.6669922,5.5c4.6171875,0,6.8330078-2.3574219,6.8330078-7.8339844V618h-25.5v-13.25h25.5v-9.1669922
		h-25.5V581.9169922z"/>
	<path d="M504,720h-24v-15.5h24v-7h-24v-16h31.5v9l2,11l5,2l3.5,1h16V720h-16v22.5c0,13.2695313-8.5097656,21-21,21
		c-16.625,0-25-6.7050781-25-20c0-12.4667969,7.9746094-19.5,25-19.5c12.3789063,0,20.1914063,4.1328125,39,24.5L528.5,760
		c-15.9257813-17.2460938-21.5039063-20.5-28.5-20.5c-5.2207031,0-7,1.4667969-7,4c0,2.7753906,1.6308594,4,6,4
		c3.2978516,0,5-1.8125,5-6V720z"/>
</g>
<g>
	<path d="M306.9921875,720.8710938C301.7539063,714.5546875,300.5,711.921875,300.5,709
		c0-3.0566406,2.6181641-6.4072266,7.6210938-9.0048828c1.0263672-0.5332031,2.1533203-1.0341797,3.3789063-1.4951172l-5.75-12.75
		l2.5-5.75H266.5v16h22.2119141l0.0683594,0.1875C283.1318359,701.5380859,280.5,706.6611328,280.5,711
		c0,5.6484375,2.1777344,10.3242188,8.2636719,17.0117188C294.5429688,734.3671875,296,737.4316406,296,741
		c0,3.6777344-2.4775391,6-6.5,6c-2.5644531,0-4.7617188-0.5488281-12-3.5l-6,15.5c5.3808594,2.9941406,13.1904297,5,19,5
		c15.9179688,0,26-8.5292969,26-23C316.5,734.984375,314.3193359,729.7109375,306.9921875,720.8710938z"/>
	<path d="M267.0830078,580.6669922v13.6669922h23.2470703l0.0683594,0.1875
		c-6.1640625,5.3222656-8.8154297,10.3095703-8.8154297,15.1464844c0,5.7753906,2.3701172,10.6230469,8.9365234,17.6904297
		c6.4648438,6.9453125,7.9814453,10.2617188,7.9814453,14.1435547c0,4.5126953-3.4667969,7.5-8.7509766,7.5
		c-2.7167969,0-5.5068359-0.7128906-12.5859375-3.6298828l-5.1611328,13.2753906
		c5.2724609,2.9316406,12.78125,4.8535156,18.5800781,4.8535156c15.390625,0,25.3339844-8.2988281,25.3339844-21.9990234
		c0-6.1542969-2.3056641-11.4208984-9.9716797-20.3310547c-5.7802734-6.6923828-7.3613281-9.7675781-7.3613281-13.1699219
		c0-3.4912109,3.1083984-7.2509766,8.8447266-9.9042969c1.578125-0.7304688-1.6445313-1.8134766,0.3212891-2.3466797l-2.25-5.25
		l3.5-9.8330078H267.0830078z"/>
	<path d="M267.6665039,481.3330078v11.3339844h24.2817383l0.0683594,0.1875
		c-6.6791992,5.2939453-9.3500977,10.1455078-9.3500977,15.4785156c0,5.9023438,2.5620117,10.9238281,9.6074219,18.3701172
		C299.4257813,534.2382813,301,537.8066406,301,542.0009766c0,5.3486328-4.4550781,9-11,9
		c-2.8691406,0-6.2524414-0.875-13.171875-3.7587891l-4.3232422,11.0507813
		c5.1650391,2.8691406,12.3735352,4.7080078,18.1616211,4.7080078c14.862793,0,24.6674805-8.0693359,24.6674805-21
		c0-6.2910156-2.4316406-11.5517578-10.4375-20.53125c-6.3222656-7.0683594-8.2299805-10.5869141-8.2299805-14.4697266
		c0-3.9150391,3.5473633-8.0820313,9.9731445-10.8662109C308.78125,495.2060547,304.9931641,494.0595703,307.75,493.5l1.5-9.8330078
		l-2.25-2.3339844H267.6665039z"/>
	<path d="M268,382v9h25.3164063l0.0683594,0.1875C286.1904297,396.4541016,283.5,401.1689453,283.5,407
		c0,6.0292969,2.7539063,11.2226563,10.2792969,19.0488281c7.8378906,8.125,9.4707031,11.9453125,9.4707031,16.453125
		c0,6.1835938-5.4433594,10.5-13.25,10.5c-3.0214844,0-6.9980469-1.0390625-13.7578125-3.8886719l-3.484375,8.8261719
		c5.0566406,2.8066406,11.9648438,4.5625,17.7421875,4.5625c14.3339844,0,24-7.8398438,24-20
		c0-6.4296875-2.5566406-11.6835938-10.9003906-20.7324219C296.734375,414.3242188,294.5,410.3632813,294.5,406
		c0-4.8217773,4.9003906-9.9414063,13.5673828-12.800293C310.1630859,392.5083008,307.4794922,391.390625,310,391l-0.25-6.5
		l-2.8496094-2.5H268z"/>
	<path d="M268.9995117,282.6665039v6.6665039c0,0,23.5556641,0,28.3520508,0l0.0566406,0.190918
		c-8.5351563,4.6235352-12.4086914,10.0292969-12.4086914,16.1420898c0,6.1552734,2.9467773,11.5224609,10.9511719,19.7265625
		c8.5239258,8.7158203,10.215332,12.7880859,10.215332,17.6083984c0,7.0195313-6.4326172,12-15.4995117,12
		c-3.8198242,0-8.3564453-1.1630859-14.34375-3.8842773l-2.6459961,6.4677734
		c4.9477539,2.7446289,11.5561523,4.4165039,17.3227539,4.4165039c13.8051758,0,23.3334961-7.6098633,23.3334961-19
		c0-6.5673828-2.7001953-11.7983398-11.3642578-20.9321289C295.546875,314.2602539,293,309.8427734,293,304.9995117
		c0-5.6806641,6.328125-11.7338867,17.2363281-14.3081055c1.7988281-0.4248047-0.7773438-2.5698242,1.2636719-2.7880859
		l-0.5-2.9985352l-0.75-2.2382813H268.9995117z"/>
	<path d="M270,183.3334961v4.3330078c0,0,21.7944336,0,31.3867188,0l0.0458984,0.1943359
		C291.5571289,191.8417969,286.5,197.9384766,286.5,204.3334961c0,6.28125,3.1391602,11.8212891,11.6220703,20.4042969
		c9.2099609,9.3051758,10.9609375,13.6293945,10.9609375,18.7626953c0,7.8554688-7.421875,13.5-17.7495117,13.5
		c-4.6181641,0-9.7143555-1.2875977-14.9296875-3.8793945l-1.8076172,4.1088867
		c4.8393555,2.6831055,11.1479492,4.2705078,16.9038086,4.2705078c13.2763672,0,22.6669922-7.3793945,22.6669922-18
		c0-6.7055664-2.84375-11.9125977-11.8291016-21.1318359C294.3598633,214.1972656,291.5,209.3227539,291.5,204
		c0-6.3417969,7.3652344-13.1054688,19.84375-15.4179688c1.7832031-0.3300781,0.0048828-0.9477539,1.9902344-1.0820313
		l-0.1669922-2.1914063L311.5,183.3334961H270z"/>
	<path d="M271,84v2c0,0,20.0332031,0,34.421875,0l0.0351563,0.1972656C294.2402344,89.5351563,288,96.3232422,288,103
		c0,6.4072266,3.3320313,12.1210938,12.2929688,21.0820313C310.1894531,133.9775391,312,138.5537109,312,144
		c0,8.6914063-8.4111328,15-20,15c-5.4160156,0-11.0722656-1.4121094-15.515625-3.875l-0.96875,1.75
		C280.2460938,159.4960938,286.2548828,161,292,161c12.7480469,0,22-7.1494141,22-17
		c0-6.84375-2.9873047-12.0273438-12.2929688-21.3320313C293.1728516,114.1337891,290,108.8027344,290,103
		c0-7.2114258,8.9248047-14.9243164,23.7480469-16.644043c1.3681641-0.1586914-2.0546875-0.9536133-0.5888672-1.0048828L314,84l0,0
		H271z"/>
</g>
<g>
	<path d="M321.5,501.5c-6.0751953,0-11-4.9248047-11-11s4.9248047-11,11-11s11,4.9248047,11,11S327.5751953,501.5,321.5,501.5z
		 M321.5,471c-10.7695313,0-19.5,8.7304688-19.5,19.5s8.7304688,19.5,19.5,19.5s19.5-8.7304688,19.5-19.5S332.2695313,471,321.5,471
		z"/>
	<path d="M321.5,601.5c-6.0751953,0-11-4.9248047-11-11s4.9248047-11,11-11s11,4.9248047,11,11S327.5751953,601.5,321.5,601.5z
		 M321.5,571c-10.7695313,0-19.5,8.7304688-19.5,19.5s8.7304688,19.5,19.5,19.5s19.5-8.7304688,19.5-19.5S332.2695313,571,321.5,571
		z"/>
	<path d="M321.5,701.5c-6.0751953,0-11-4.9248047-11-11s4.9248047-11,11-11s11,4.9248047,11,11S327.5751953,701.5,321.5,701.5z
		 M321.5,671c-10.7695313,0-19.5,8.7304688-19.5,19.5s8.7304688,19.5,19.5,19.5s19.5-8.7304688,19.5-19.5S332.2695313,671,321.5,671
		z"/>
</g>
<g>
	<path d="M125.5,501.5c-6.0751953,0-11-4.9248047-11-11s4.9248047-11,11-11s11,4.9248047,11,11S131.5751953,501.5,125.5,501.5z
		 M125.5,471c-10.7695313,0-19.5,8.7304688-19.5,19.5s8.7304688,19.5,19.5,19.5s19.5-8.7304688,19.5-19.5S136.2695313,471,125.5,471
		z"/>
	<path d="M125.5,601.5c-6.0751953,0-11-4.9248047-11-11s4.9248047-11,11-11s11,4.9248047,11,11S131.5751953,601.5,125.5,601.5z
		 M125.5,571c-10.7695313,0-19.5,8.7304688-19.5,19.5s8.7304688,19.5,19.5,19.5s19.5-8.7304688,19.5-19.5S136.2695313,571,125.5,571
		z"/>
	<path d="M125.5,701.5c-6.0751953,0-11-4.9248047-11-11s4.9248047-11,11-11s11,4.9248047,11,11S131.5751953,701.5,125.5,701.5z
		 M125.5,671c-10.7695313,0-19.5,8.7304688-19.5,19.5s8.7304688,19.5,19.5,19.5s19.5-8.7304688,19.5-19.5S136.2695313,671,125.5,671
		z"/>
</g>
<g>
	<path d="M225,501.5c-6.0751953,0-11-4.9248047-11-11s4.9248047-11,11-11s11,4.9248047,11,11S231.0751953,501.5,225,501.5z M225,471
		c-10.7695313,0-19.5,8.7304688-19.5,19.5S214.2304688,510,225,510s19.5-8.7304688,19.5-19.5S235.7695313,471,225,471z"/>
	<path d="M225,601.5c-6.0751953,0-11-4.9248047-11-11s4.9248047-11,11-11s11,4.9248047,11,11S231.0751953,601.5,225,601.5z M225,571
		c-10.7695313,0-19.5,8.7304688-19.5,19.5S214.2304688,610,225,610s19.5-8.7304688,19.5-19.5S235.7695313,571,225,571z"/>
	<path d="M225,701.5c-6.0751953,0-11-4.9248047-11-11s4.9248047-11,11-11s11,4.9248047,11,11S231.0751953,701.5,225,701.5z M225,671
		c-10.7695313,0-19.5,8.7304688-19.5,19.5S214.2304688,710,225,710s19.5-8.7304688,19.5-19.5S235.7695313,671,225,671z"/>
</g>
<g>
	<path d="M525.5,501.5c-6.0751953,0-11-4.9248047-11-11s4.9248047-11,11-11s11,4.9248047,11,11S531.5751953,501.5,525.5,501.5z
		 M525.5,471c-10.7695313,0-19.5,8.7304688-19.5,19.5s8.7304688,19.5,19.5,19.5s19.5-8.7304688,19.5-19.5S536.2695313,471,525.5,471
		z"/>
	<path d="M525.5,601.5c-6.0751953,0-11-4.9248047-11-11s4.9248047-11,11-11s11,4.9248047,11,11S531.5751953,601.5,525.5,601.5z
		 M525.5,571c-10.7695313,0-19.5,8.7304688-19.5,19.5s8.7304688,19.5,19.5,19.5s19.5-8.7304688,19.5-19.5S536.2695313,571,525.5,571
		z"/>
	<path d="M525.5,701.5c-6.0751953,0-11-4.9248047-11-11s4.9248047-11,11-11s11,4.9248047,11,11S531.5751953,701.5,525.5,701.5z
		 M525.5,671c-10.7695313,0-19.5,8.7304688-19.5,19.5s8.7304688,19.5,19.5,19.5s19.5-8.7304688,19.5-19.5S536.2695313,671,525.5,671
		z"/>
</g>
<g>
	<path d="M424.2001953,503.5996094c-6.5166016,0-11.7998047-5.2822266-11.7998047-11.7998047
		c0-6.5166016,5.2832031-11.7998047,11.7998047-11.7998047C430.7177734,480,436,485.2832031,436,491.7998047
		C436,498.3173828,430.7177734,503.5996094,424.2001953,503.5996094z M424.2001953,471
		c-11.4873047,0-20.7998047,9.3125-20.7998047,20.7998047s9.3125,20.7998047,20.7998047,20.7998047S445,503.2871094,445,491.7998047
		S435.6875,471,424.2001953,471z"/>
	<path d="M424.2001953,603.5996094c-6.5166016,0-11.7998047-5.2822266-11.7998047-11.7998047
		c0-6.5166016,5.2832031-11.7998047,11.7998047-11.7998047C430.7177734,580,436,585.2832031,436,591.7998047
		C436,598.3173828,430.7177734,603.5996094,424.2001953,603.5996094z M424.2001953,571
		c-11.4873047,0-20.7998047,9.3125-20.7998047,20.7998047s9.3125,20.7998047,20.7998047,20.7998047S445,603.2871094,445,591.7998047
		S435.6875,571,424.2001953,571z"/>
	<path d="M424.2001953,703.5996094c-6.5166016,0-11.7998047-5.2822266-11.7998047-11.7998047
		c0-6.5166016,5.2832031-11.7998047,11.7998047-11.7998047C430.7177734,680,436,685.2832031,436,691.7998047
		C436,698.3173828,430.7177734,703.5996094,424.2001953,703.5996094z M424.2001953,671
		c-11.4873047,0-20.7998047,9.3125-20.7998047,20.7998047s9.3125,20.7998047,20.7998047,20.7998047S445,703.2871094,445,691.7998047
		S435.6875,671,424.2001953,671z"/>
</g>
<path d="M126.7993164,400.6000977c-6.2958984,0-11.3999023-5.1035156-11.3999023-11.3994141
	c0-6.296875,5.1040039-11.4003906,11.3999023-11.4003906c6.2963867,0,11.3999023,5.1035156,11.3999023,11.4003906
	C138.1992188,395.496582,133.0957031,400.6000977,126.7993164,400.6000977z M126.7993164,370.300293
	c-10.4379883,0-18.8999023,8.4619141-18.8999023,18.8999023c0,10.4384766,8.4619141,18.8999023,18.8999023,18.8999023
	c10.4384766,0,18.8999023-8.4614258,18.8999023-18.8999023C145.6992188,378.762207,137.237793,370.300293,126.7993164,370.300293z"
	/>
<path d="M128.0991211,299.7871094c-6.5629883,0-11.8833008-5.3203125-11.8833008-11.8833008
	c0-6.5634766,5.3203125-11.8833008,11.8833008-11.8833008s11.8833008,5.3198242,11.8833008,11.8833008
	C139.9824219,294.4667969,134.6621094,299.7871094,128.0991211,299.7871094z M128.0991211,270.3535156
	c-9.6923828,0-17.5498047,7.8574219-17.5498047,17.550293c0,9.6923828,7.8574219,17.5498047,17.5498047,17.5498047
	c9.6928711,0,17.5498047-7.8574219,17.5498047-17.5498047C145.6489258,278.2109375,137.7919922,270.3535156,128.0991211,270.3535156
	z"/>
<path d="M129.402832,198.9692383c-6.8300781,0-12.3666992-5.5366211-12.3666992-12.3662109
	c0-6.8305664,5.5366211-12.3671875,12.3666992-12.3671875s12.3666992,5.5366211,12.3666992,12.3671875
	C141.7695313,193.4326172,136.2329102,198.9692383,129.402832,198.9692383z M129.402832,170.402832
	c-8.9472656,0-16.2001953,7.2529297-16.2001953,16.199707c0,8.9472656,7.2529297,16.2001953,16.2001953,16.2001953
	c8.9467773,0,16.2001953-7.2529297,16.2001953-16.2001953C145.6030273,177.6557617,138.3496094,170.402832,129.402832,170.402832z"
	/>
<path d="M130.7006836,98.1499023c-7.097168,0-12.8500977-5.753418-12.8500977-12.8500977
	c0-7.097168,5.7529297-12.8500977,12.8500977-12.8500977c7.0966797,0,12.8500977,5.7529297,12.8500977,12.8500977
	C143.5507813,92.3964844,137.7973633,98.1499023,130.7006836,98.1499023z M130.7006836,70.449707
	c-8.2016602,0-14.8500977,6.6484375-14.8500977,14.8500977c0,8.2011719,6.6484375,14.8500977,14.8500977,14.8500977
	c8.2011719,0,14.8500977-6.6489258,14.8500977-14.8500977C145.5507813,77.0981445,138.9018555,70.449707,130.7006836,70.449707z"/>
<path d="M226.1000977,401.2998047c-6.2958984,0-11.3999023-5.1035156-11.3999023-11.3994141
	c0-6.296875,5.1040039-11.4003906,11.3999023-11.4003906C232.3964844,378.5,237.5,383.6035156,237.5,389.9003906
	C237.5,396.1962891,232.3964844,401.2998047,226.1000977,401.2998047z M226.1000977,371
	c-10.4379883,0-18.8999023,8.4619141-18.8999023,18.8999023c0,10.4384766,8.4619141,18.8999023,18.8999023,18.8999023
	c10.4384766,0,18.8999023-8.4614258,18.8999023-18.8999023C245,379.4619141,236.5385742,371,226.1000977,371z"/>
<path d="M228.0991211,299.7871094c-6.5629883,0-11.8833008-5.3203125-11.8833008-11.8833008
	c0-6.5634766,5.3203125-11.8833008,11.8833008-11.8833008s11.8833008,5.3198242,11.8833008,11.8833008
	C239.9824219,294.4667969,234.6621094,299.7871094,228.0991211,299.7871094z M228.0991211,270.3535156
	c-9.6923828,0-17.5498047,7.8574219-17.5498047,17.550293c0,9.6923828,7.8574219,17.5498047,17.5498047,17.5498047
	c9.6928711,0,17.5498047-7.8574219,17.5498047-17.5498047C245.6489258,278.2109375,237.7919922,270.3535156,228.0991211,270.3535156
	z"/>
<path d="M229.402832,198.9692383c-6.8300781,0-12.3666992-5.5366211-12.3666992-12.3662109
	c0-6.8305664,5.5366211-12.3671875,12.3666992-12.3671875s12.3666992,5.5366211,12.3666992,12.3671875
	C241.7695313,193.4326172,236.2329102,198.9692383,229.402832,198.9692383z M229.402832,170.402832
	c-8.9472656,0-16.2001953,7.2529297-16.2001953,16.199707c0,8.9472656,7.2529297,16.2001953,16.2001953,16.2001953
	c8.9467773,0,16.2001953-7.2529297,16.2001953-16.2001953C245.6030273,177.6557617,238.3496094,170.402832,229.402832,170.402832z"
	/>
<path d="M230.7006836,98.1503906c-7.097168,0-12.8500977-5.753418-12.8500977-12.8500977
	c0-7.097168,5.7529297-12.8500977,12.8500977-12.8500977c7.0966797,0,12.8500977,5.7529297,12.8500977,12.8500977
	C243.5507813,92.3969727,237.7973633,98.1503906,230.7006836,98.1503906z M230.7006836,70.4501953
	c-8.2016602,0-14.8500977,6.6484375-14.8500977,14.8500977c0,8.2011719,6.6484375,14.8500977,14.8500977,14.8500977
	c8.2011719,0,14.8500977-6.6489258,14.8500977-14.8500977C245.5507813,77.0986328,238.9018555,70.4501953,230.7006836,70.4501953z"
	/>
<path d="M322.5,400.6000977c-6.2958984,0-11.4003906-5.1035156-11.4003906-11.3994141
	c0-6.296875,5.1044922-11.4003906,11.4003906-11.4003906c6.296875,0,11.4003906,5.1035156,11.4003906,11.4003906
	C333.9003906,395.496582,328.796875,400.6000977,322.5,400.6000977z M322.5,370.300293
	c-10.4375,0-18.9003906,8.4619141-18.9003906,18.8999023c0,10.4384766,8.4628906,18.8999023,18.9003906,18.8999023
	c10.4384766,0,18.9003906-8.4614258,18.9003906-18.8999023C341.4003906,378.762207,332.9384766,370.300293,322.5,370.300293z"/>
<path d="M323.8007813,299.7871094c-6.5634766,0-11.8837891-5.3203125-11.8837891-11.8833008
	c0-6.5634766,5.3203125-11.8833008,11.8837891-11.8833008s11.8828125,5.3198242,11.8828125,11.8833008
	C335.6835938,294.4667969,330.3642578,299.7871094,323.8007813,299.7871094z M323.8007813,270.3535156
	c-9.6923828,0-17.5507813,7.8574219-17.5507813,17.550293c0,9.6923828,7.8583984,17.5498047,17.5507813,17.5498047
	s17.5498047-7.8574219,17.5498047-17.5498047C341.3505859,278.2109375,333.4931641,270.3535156,323.8007813,270.3535156z"/>
<path d="M325.9199219,198.9697266c-6.8300781,0-12.3662109-5.5366211-12.3662109-12.3662109
	c0-6.8305664,5.5361328-12.3671875,12.3662109-12.3671875s12.3671875,5.5366211,12.3671875,12.3671875
	C338.2871094,193.4331055,332.75,198.9697266,325.9199219,198.9697266z M325.9199219,170.4033203
	c-8.9462891,0-16.1992188,7.2529297-16.1992188,16.199707c0,8.9472656,7.2529297,16.2001953,16.1992188,16.2001953
	c8.9472656,0,16.2001953-7.2529297,16.2001953-16.2001953C342.1201172,177.65625,334.8671875,170.4033203,325.9199219,170.4033203z"
	/>
<path d="M327.5,98.1503906c-7.0976563,0-12.8496094-5.753418-12.8496094-12.8500977
	c0-7.097168,5.7519531-12.8500977,12.8496094-12.8500977c7.0966797,0,12.8496094,5.7529297,12.8496094,12.8500977
	C340.3496094,92.3969727,334.5966797,98.1503906,327.5,98.1503906z M327.5,70.4501953
	c-8.2011719,0-14.8496094,6.6484375-14.8496094,14.8500977c0,8.2011719,6.6484375,14.8500977,14.8496094,14.8500977
	s14.8496094-6.6489258,14.8496094-14.8500977C342.3496094,77.0986328,335.7011719,70.4501953,327.5,70.4501953z"/>
<g>
	<path d="M424,403.2504883c-6.765625,0-12.25-5.484375-12.25-12.25s5.484375-12.25,12.25-12.25s12.25,5.484375,12.25,12.25
		S430.765625,403.2504883,424,403.2504883z M424,370.75c-11.1835938,0-20.25,9.0664063-20.25,20.25
		s9.0664063,20.2504883,20.25,20.2504883S444.25,402.1835938,444.25,391S435.1835938,370.75,424,370.75z"/>
	<path d="M423,304.8417969c-7,0-12.6757813-5.6748047-12.6757813-12.6748047c0-7.0004883,5.6757813-12.675293,12.6757813-12.675293
		s12.6748047,5.6748047,12.6748047,12.675293C435.6748047,299.1669922,430,304.8417969,423,304.8417969z M423,273.4912109
		c-10.3144531,0-18.6757813,8.3613281-18.6757813,18.675293c0,10.3134766,8.3613281,18.675293,18.6757813,18.675293
		c10.3134766,0,18.6738281-8.3618164,18.6738281-18.675293C441.6738281,281.8525391,433.3134766,273.4912109,423,273.4912109z"/>
	<path d="M422,206.4335938c-7.234375,0-13.0996094-5.8652344-13.0996094-13.0996094
		c0-7.2353516,5.8652344-13.1005859,13.0996094-13.1005859s13.0996094,5.8652344,13.0996094,13.1005859
		C435.0996094,200.5683594,429.234375,206.4335938,422,206.4335938z M422,176.2333984
		c-9.4433594,0-17.1005859,7.65625-17.1005859,17.1000977S412.5566406,210.4335938,422,210.4335938
		c9.4443359,0,17.0996094-7.65625,17.0996094-17.1000977S431.4443359,176.2333984,422,176.2333984z"/>
	<path d="M421,108.0249023c-7.4697266,0-13.5253906-6.0551758-13.5253906-13.5249023
		c0-7.4692383,6.0556641-13.5249023,13.5253906-13.5249023c7.46875,0,13.5244141,6.0556641,13.5244141,13.5249023
		C434.5244141,101.9697266,428.46875,108.0249023,421,108.0249023z M421,78.9750977
		c-8.5742188,0-15.5253906,6.9506836-15.5253906,15.5249023S412.4257813,110.0249023,421,110.0249023
		S436.5244141,103.0742188,436.5244141,94.5S429.5742188,78.9750977,421,78.9750977z"/>
</g>
<path d="M526.7998047,400.6000977c-6.2958984,0-11.4003906-5.1035156-11.4003906-11.3994141
	c0-6.296875,5.1044922-11.4003906,11.4003906-11.4003906c6.296875,0,11.4003906,5.1035156,11.4003906,11.4003906
	C538.2001953,395.496582,533.0966797,400.6000977,526.7998047,400.6000977z M526.7998047,370.300293
	c-10.4375,0-18.9003906,8.4619141-18.9003906,18.8999023c0,10.4384766,8.4628906,18.8999023,18.9003906,18.8999023
	c10.4384766,0,18.9003906-8.4614258,18.9003906-18.8999023C545.7001953,378.762207,537.2382813,370.300293,526.7998047,370.300293z"
	/>
<path d="M528.0996094,299.7871094c-6.5634766,0-11.8837891-5.3203125-11.8837891-11.8833008
	c0-6.5634766,5.3203125-11.8833008,11.8837891-11.8833008s11.8828125,5.3198242,11.8828125,11.8833008
	C539.9824219,294.4667969,534.6630859,299.7871094,528.0996094,299.7871094z M528.0996094,270.3535156
	c-9.6923828,0-17.5507813,7.8574219-17.5507813,17.550293c0,9.6923828,7.8583984,17.5498047,17.5507813,17.5498047
	s17.5498047-7.8574219,17.5498047-17.5498047C545.6494141,278.2109375,537.7919922,270.3535156,528.0996094,270.3535156z"/>
<path d="M529.4023438,198.9697266c-6.8300781,0-12.3662109-5.5366211-12.3662109-12.3662109
	c0-6.8305664,5.5361328-12.3671875,12.3662109-12.3671875s12.3671875,5.5366211,12.3671875,12.3671875
	C541.7695313,193.4331055,536.2324219,198.9697266,529.4023438,198.9697266z M529.4023438,170.4033203
	c-8.9462891,0-16.1992188,7.2529297-16.1992188,16.199707c0,8.9472656,7.2529297,16.2001953,16.1992188,16.2001953
	c8.9472656,0,16.2001953-7.2529297,16.2001953-16.2001953C545.6025391,177.65625,538.3496094,170.4033203,529.4023438,170.4033203z"
	/>
<path d="M530.7001953,98.1499023c-7.0976563,0-12.8496094-5.753418-12.8496094-12.8500977
	c0-7.097168,5.7519531-12.8500977,12.8496094-12.8500977c7.0966797,0,12.8496094,5.7529297,12.8496094,12.8500977
	C543.5498047,92.3964844,537.796875,98.1499023,530.7001953,98.1499023z M530.7001953,70.449707
	c-8.2011719,0-14.8496094,6.6484375-14.8496094,14.8500977c0,8.2011719,6.6484375,14.8500977,14.8496094,14.8500977
	s14.8496094-6.6489258,14.8496094-14.8500977C545.5498047,77.0981445,538.9013672,70.449707,530.7001953,70.449707z"/>
</svg>
