<?xml version="1.0" encoding="utf-8"?>
<!-- Generator: Adobe Illustrator 12.0.0, SVG Export Plug-In . SVG Version: 6.00 Build 51448)  -->
<!DOCTYPE svg PUBLIC "-//W3C//DTD SVG 1.0//EN" "http://www.w3.org/TR/2001/REC-SVG-20010904/DTD/svg10.dtd" [
	<!ENTITY ns_svg "http://www.w3.org/2000/svg">
	<!ENTITY ns_xlink "http://www.w3.org/1999/xlink">
]>
<svg  version="1.0" id="レイヤー1" xmlns="&ns_svg;" xmlns:xlink="&ns_xlink;" width="766.25" height="1050.25"
	 viewBox="0 0 766.25 1050.25" overflow="visible" enable-background="new 0 0 766.25 1050.25" xml:space="preserve">
<g>
	<rect x="0.125" y="0.125" fill="none" stroke="#000000" stroke-width="0.25" width="60" height="150"/>
	<rect x="100.125" y="0.125" fill="none" stroke="#000000" stroke-width="0.25" width="60" height="150"/>
	<rect x="200.125" y="0.125" fill="none" stroke="#000000" stroke-width="0.25" width="60" height="150"/>
	<rect x="300.125" y="0.125" fill="none" stroke="#000000" stroke-width="0.25" width="60" height="150"/>
	<rect x="400.125" y="0.125" fill="none" stroke="#000000" stroke-width="0.25" width="60" height="150"/>
	<rect x="500.125" y="0.125" fill="none" stroke="#000000" stroke-width="0.25" width="60" height="150"/>
	<rect x="600.125" y="0.125" fill="none" stroke="#000000" stroke-width="0.25" width="60" height="150"/>
	<rect x="0.125" y="150.125" fill="none" stroke="#000000" stroke-width="0.25" width="61" height="150"/>
	<rect x="100.125" y="150.125" fill="none" stroke="#000000" stroke-width="0.25" width="61" height="150"/>
	<rect x="200.125" y="150.125" fill="none" stroke="#000000" stroke-width="0.25" width="61" height="150"/>
	<rect x="300.125" y="150.125" fill="none" stroke="#000000" stroke-width="0.25" width="61" height="150"/>
	<rect x="400.125" y="150.125" fill="none" stroke="#000000" stroke-width="0.25" width="61" height="150"/>
	<rect x="500.125" y="150.125" fill="none" stroke="#000000" stroke-width="0.25" width="61" height="150"/>
	<rect x="600.125" y="150.125" fill="none" stroke="#000000" stroke-width="0.25" width="61" height="150"/>
	<rect x="0.125" y="300.125" fill="none" stroke="#000000" stroke-width="0.25" width="62" height="150"/>
	<rect x="100.125" y="300.125" fill="none" stroke="#000000" stroke-width="0.25" width="62" height="150"/>
	<rect x="200.125" y="300.125" fill="none" stroke="#000000" stroke-width="0.25" width="62" height="150"/>
	<rect x="300.125" y="300.125" fill="none" stroke="#000000" stroke-width="0.25" width="62" height="150"/>
	<rect x="400.125" y="300.125" fill="none" stroke="#000000" stroke-width="0.25" width="62" height="150"/>
	<rect x="500.125" y="300.125" fill="none" stroke="#000000" stroke-width="0.25" width="62" height="150"/>
	<rect x="600.125" y="300.125" fill="none" stroke="#000000" stroke-width="0.25" width="62" height="150"/>
	<rect x="0.125" y="450.125" fill="none" stroke="#000000" stroke-width="0.25" width="63" height="150"/>
	<rect x="100.125" y="450.125" fill="none" stroke="#000000" stroke-width="0.25" width="63" height="150"/>
	<rect x="200.125" y="450.125" fill="none" stroke="#000000" stroke-width="0.25" width="63" height="150"/>
	<rect x="300.125" y="450.125" fill="none" stroke="#000000" stroke-width="0.25" width="63" height="150"/>
	<rect x="400.125" y="450.125" fill="none" stroke="#000000" stroke-width="0.25" width="63" height="150"/>
	<rect x="500.125" y="450.125" fill="none" stroke="#000000" stroke-width="0.25" width="63" height="150"/>
	<rect x="600.125" y="450.125" fill="none" stroke="#000000" stroke-width="0.25" width="63" height="150"/>
	<rect x="0.125" y="600.125" fill="none" stroke="#000000" stroke-width="0.25" width="64" height="150"/>
	<rect x="100.125" y="600.125" fill="none" stroke="#000000" stroke-width="0.25" width="64" height="150"/>
	<rect x="200.125" y="600.125" fill="none" stroke="#000000" stroke-width="0.25" width="64" height="150"/>
	<rect x="300.125" y="600.125" fill="none" stroke="#000000" stroke-width="0.25" width="64" height="150"/>
	<rect x="400.125" y="600.125" fill="none" stroke="#000000" stroke-width="0.25" width="64" height="150"/>
	<rect x="500.125" y="600.125" fill="none" stroke="#000000" stroke-width="0.25" width="64" height="150"/>
	<rect x="600.125" y="600.125" fill="none" stroke="#000000" stroke-width="0.25" width="64" height="150"/>
	<rect x="0.125" y="750.125" fill="none" stroke="#000000" stroke-width="0.25" width="65" height="150"/>
	<rect x="100.125" y="750.125" fill="none" stroke="#000000" stroke-width="0.25" width="65" height="150"/>
	<rect x="200.125" y="750.125" fill="none" stroke="#000000" stroke-width="0.25" width="65" height="150"/>
	<rect x="300.125" y="750.125" fill="none" stroke="#000000" stroke-width="0.25" width="65" height="150"/>
	<rect x="400.125" y="750.125" fill="none" stroke="#000000" stroke-width="0.25" width="65" height="150"/>
	<rect x="500.125" y="750.125" fill="none" stroke="#000000" stroke-width="0.25" width="65" height="150"/>
	<rect x="600.125" y="750.125" fill="none" stroke="#000000" stroke-width="0.25" width="65" height="150"/>
	<rect x="0.125" y="900.125" fill="none" stroke="#000000" stroke-width="0.25" width="66" height="150"/>
	<rect x="100.125" y="900.125" fill="none" stroke="#000000" stroke-width="0.25" width="66" height="150"/>
	<rect x="200.125" y="900.125" fill="none" stroke="#000000" stroke-width="0.25" width="66" height="150"/>
	<rect x="300.125" y="900.125" fill="none" stroke="#000000" stroke-width="0.25" width="66" height="150"/>
	<rect x="400.125" y="900.125" fill="none" stroke="#000000" stroke-width="0.25" width="66" height="150"/>
	<rect x="500.125" y="900.125" fill="none" stroke="#000000" stroke-width="0.25" width="66" height="150"/>
	<rect x="600.125" y="900.125" fill="none" stroke="#000000" stroke-width="0.25" width="66" height="150"/>
	<rect x="700.125" y="0.125" fill="none" stroke="#000000" stroke-width="0.25" width="60" height="150"/>
	<rect x="700.125" y="150.125" fill="none" stroke="#000000" stroke-width="0.25" width="61" height="150"/>
	<rect x="700.125" y="300.125" fill="none" stroke="#000000" stroke-width="0.25" width="62" height="150"/>
	<rect x="700.125" y="450.125" fill="none" stroke="#000000" stroke-width="0.25" width="63" height="150"/>
	<rect x="700.125" y="600.125" fill="none" stroke="#000000" stroke-width="0.25" width="64" height="150"/>
	<rect x="700.125" y="750.125" fill="none" stroke="#000000" stroke-width="0.25" width="65" height="150"/>
	<rect x="700.125" y="900.125" fill="none" stroke="#000000" stroke-width="0.25" width="66" height="150"/>
</g>
<g>
	<path d="M30.125,109.125c11.405,0,25-6.506,25-37.5s-13.595-37.5-25-37.5s-25,6.506-25,37.5S18.72,109.125,30.125,109.125v-2
		c-15.262,0-23-11.944-23-35.5s7.738-35.5,23-35.5s23,11.944,23,35.5s-7.738,35.5-23,35.5V109.125z"/>
	<path d="M30.625,184.125c13.458,0,25.667,7.918,25.667,37.5s-12.208,37.5-25.667,37.5v-4.267c13.612,0,20.666-10.368,20.666-33.234
		c0-22.865-7.054-33.233-20.666-33.233c-13.613,0-20.667,10.368-20.667,33.233c0,22.866,7.054,33.234,20.667,33.234v4.267
		c-13.459,0-25.667-7.919-25.667-37.5S17.166,184.125,30.625,184.125z"/>
	<path d="M31.125,334.125c15.513,0,26.333,9.332,26.333,37.5s-10.82,37.5-26.333,37.5v-6.533c11.963,0,18.333-8.792,18.333-30.967
		c0-22.175-6.37-30.967-18.333-30.967s-18.333,8.792-18.333,30.967c0,22.175,6.37,30.967,18.333,30.967v6.533
		c-15.513,0-26.333-9.332-26.333-37.5S15.612,334.125,31.125,334.125z"/>
	<path d="M31.625,484.125c17.567,0,27,10.744,27,37.5c0,26.756-9.433,37.5-27,37.5v-8.799c10.314,0,16-7.217,16-28.702
		c0-21.484-5.686-28.7-16-28.7s-16,7.215-16,28.7c0,21.485,5.686,28.702,16,28.702v8.799c-17.567,0-27-10.744-27-37.5
		C4.625,494.869,14.058,484.125,31.625,484.125z"/>
	<path d="M32.125,634.125c18.323,0,28,10.596,28,37.499c0,26.904-9.677,37.501-28,37.501v-10.866
		c8.964,0,13.833-6.427,13.833-26.635c0-20.206-4.869-26.633-13.833-26.633c-8.965,0-13.834,6.427-13.834,26.633
		c0,20.208,4.869,26.635,13.834,26.635v10.866c-18.324,0-28-10.597-28-37.501C4.125,644.721,13.801,634.125,32.125,634.125z"/>
	<path d="M32.625,784.125c19.08,0,29,10.448,29,37.5s-9.92,37.5-29,37.5v-12.933c7.616,0,11.667-5.638,11.667-24.567
		s-4.051-24.566-11.667-24.566s-11.667,5.637-11.667,24.566s4.051,24.567,11.667,24.567v12.933c-19.08,0-29-10.448-29-37.5
		S13.545,784.125,32.625,784.125z"/>
	<path d="M33.125,994.125c6.266,0,9.5-4.848,9.5-22.5s-3.234-22.5-9.5-22.5s-9.5,4.848-9.5,22.5S26.859,994.125,33.125,994.125v15
		c-19.835,0-30-10.301-30-37.5s10.165-37.5,30-37.5c19.836,0,30,10.301,30,37.5s-10.164,37.5-30,37.5V994.125z"/>
</g>
<g>
	<polygon points="404.102,86.925 439.425,38.515 439.625,38.515 439.625,108.125 441.625,108.125 441.625,35.125 439.625,35.125 
		401.625,87.125 401.625,89.125 455.625,89.125 455.625,87.125 404.102,87.125 	"/>
	<polygon points="456.291,240.125 456.291,235.858 406.942,235.858 406.942,235.658 437.925,192.685 438.125,192.685 
		438.125,258.125 443.059,258.125 443.059,185.125 438.125,185.125 401.625,235.858 401.625,240.125 	"/>
	<polygon points="456.958,391.125 456.958,384.592 409.784,384.592 409.784,384.392 436.426,346.855 436.625,346.855 
		436.625,408.125 444.492,408.125 444.492,335.125 436.625,335.125 401.625,384.592 401.625,391.125 	"/>
	<polygon points="457.625,542.125 457.625,533.326 412.625,533.326 412.625,533.125 434.926,501.025 435.125,501.025 
		435.125,558.125 445.926,558.125 445.926,485.125 435.125,485.125 401.625,533.326 401.625,542.125 	"/>
	<polygon points="459.125,693.125 459.125,682.093 414.458,682.093 414.458,681.892 434.259,653.392 434.458,653.392 
		434.458,708.125 447.992,708.125 447.992,635.125 434.458,635.125 401.458,682.093 401.458,693.125 	"/>
	<polygon points="460.625,844.125 460.625,830.858 416.292,830.858 416.292,830.658 433.592,805.759 433.792,805.759 
		433.792,858.125 450.059,858.125 450.059,785.125 433.792,785.125 401.292,830.858 401.292,844.125 	"/>
	<polygon points="418.125,979.425 432.925,958.125 433.125,958.125 433.125,1008.125 452.125,1008.125 452.125,935.125 
		433.125,935.125 401.125,979.625 401.125,995.125 462.125,995.125 462.125,979.625 418.125,979.625 	"/>
</g>
<g>
	<path d="M750.303,37.125v0.2c-11.719,19.667-21.953,43.004-30.678,70.8h2.1c8.658-27.45,19.052-51.338,30.9-71v-2h-45v2H750.303z"
		/>
	<path d="M707.791,185.125v4.333h40.952v0.2c-11.778,19.56-21.69,41.842-30.118,68.466h5.233
		c8.306-26.8,18.057-49.063,29.933-68.667v-4.333H707.791z"/>
	<path d="M707.958,335.125v6.667h39.227v0.2c-11.838,19.452-21.429,40.681-29.56,66.133h8.366
		c7.954-26.151,17.062-46.787,28.967-66.333v-6.667H707.958z"/>
	<path d="M708.125,485.125v9h37.5v0.2c-11.896,19.344-21.166,39.519-29,63.8h11.5c7.602-25.502,16.066-44.512,28-64v-9H708.125z"/>
	<path d="M707.625,635.125v11.333h36.333v0.3c-11.589,18.597-20.884,38.176-28.833,61.367h14.833
		c7.787-24.803,15.771-42.586,27.334-61.667v-11.333H707.625z"/>
	<path d="M707.125,785.125v13.667h35.167v0.399c-11.281,17.848-20.603,36.832-28.667,58.934h18.167
		c7.973-24.104,15.474-40.659,26.666-59.333v-13.667H707.125z"/>
	<path d="M740.625,951.625c-10.974,17.099-20.32,35.488-28.5,56.5h21.5c8.158-23.404,15.178-38.733,26-57v-16h-53v16h34V951.625z"/>
</g>
<g>
	<path d="M623.038,962.574c1.224-9.57,6.832-14.449,15.587-14.449c5.376,0,10.926,1.096,15.635,3v-15
		c-6.115-1.443-11.145-2-16.635-2c-20.969,0-33.5,13.558-33.5,42c0,22.152,11.078,33,29,33v-14c-5.924,0-10-4.07-10-11.5
		c0-7.428,3.711-11.5,10-11.5c6.413,0,10,3.842,10,11.5c0,7.581-3.834,11.5-10,11.5v14c18.191,0,29-9.743,29-26
		c0-15.793-8.775-24-25-24c-5.063,0-10.525,1.425-13.914,3.55L623.038,962.574z"/>
	<path d="M653.048,786.125c-5.463-1.395-10.55-2-15.756-2c-20.497,0-32.667,13.521-32.667,42c0,22.456,10.567,33,28.167,33v-12.334
		c-6.865,0-11.768-4.802-11.768-13.333c0-8.038,4.529-12.9,11.768-12.9c7.346,0,11.833,4.546,11.833,12.9
		c0,8.832-4.532,13.333-11.833,13.333v12.334c17.445,0,28.166-9.69,28.166-26c0-15.38-8.896-24-24.667-24
		c-5.795,0-11.401,1.692-14.913,4.383l-0.173-0.101c1.254-11.193,7.534-16.949,16.753-16.949c5.201,0,10.51,1.01,15.09,2.833
		V786.125z"/>
	<path d="M651.837,636.125c-4.811-1.347-9.955-2-14.879-2c-20.023,0-31.833,13.484-31.833,42c0,22.761,10.058,33,27.333,33v-10.667
		c-7.805,0-13.533-5.534-13.533-15.166c0-8.649,5.347-14.301,13.533-14.301c8.279,0,13.667,5.25,13.667,14.301
		c0,10.083-5.23,15.166-13.667,15.166v10.667c16.701,0,27.334-9.637,27.334-26c0-14.967-9.017-24-24.334-24
		c-6.527,0-12.277,1.961-15.914,5.217l-0.173-0.101c1.286-12.816,8.238-19.449,17.921-19.449c5.026,0,10.093,0.924,14.545,2.666
		V636.125z"/>
	<path d="M617.538,515.074c1.316-14.439,8.94-21.949,19.087-21.949c4.853,0,9.677,0.838,14,2.5v-9.5c-4.158-1.298-9.36-2-14-2
		c-19.551,0-31,13.448-31,42c0,23.064,9.548,33,26.5,33v-9c-8.746,0-15.3-6.267-15.3-17c0-9.26,6.164-15.7,15.3-15.7
		c9.212,0,15.5,5.953,15.5,15.7c0,11.334-5.929,17-15.5,17v9c15.955,0,26.5-9.584,26.5-26c0-14.554-9.137-24-24-24
		c-7.261,0-13.154,2.229-16.914,6.05L617.538,515.074z"/>
</g>
<path d="M650.291,336.458c-4.609-1.584-9.613-2.333-14.666-2.333c-18.613,0-29.834,13.273-29.834,42c0,23.052,9.576,33,26,33v-6.667
	c-13.051,0-17.618-11.275-17.618-19.667c0-9.896,7.319-17.134,17.952-17.134c10.328,0,17.334,6.916,17.334,17.8
	c0,12.429-6.627,19-17.668,19v6.667c15.543,0,25.668-9.422,25.668-25.667c0-14.488-9.199-24-23.668-24
	c-8.725,0-15.592,3.213-19.379,8.528l-0.18-0.079c0.945-17.957,9.435-27.116,21.393-27.116c5.176,0,10.086,0.889,14.666,2.721
	V336.458z"/>
<path d="M634.625,188.458c5.499,0,10.494,0.941,15.333,2.942v-4.609c-5.062-1.87-9.868-2.667-15.333-2.667
	c-17.676,0-28.667,13.098-28.667,42c0,23.039,9.604,33,25.5,33v-4.333c-17.356,0-19.938-16.283-19.938-22.333
	c0-10.532,8.474-18.567,20.604-18.567c11.444,0,19.167,7.878,19.167,19.9c0,13.523-7.323,21-19.834,21v4.333
	c15.129,0,24.834-9.259,24.834-25.333c0-14.423-9.26-24-23.334-24c-10.19,0-18.029,4.197-21.844,11.006l-0.187-0.057
	C611.502,199.268,620.855,188.458,634.625,188.458z"/>
<path d="M631.125,107.125v2c14.716,0,24-9.097,24-25c0-14.358-9.32-24-23-24c-11.516,0-20.724,6.106-23.934,14.984l-0.193-0.035
	c0.242-26.491,10.006-38.95,25.627-38.95c5.822,0,10.902,0.992,16,3.164v-2.164c-5.514-2.157-10.123-3-16-3
	c-16.738,0-27.5,12.923-27.5,42c0,23.026,9.633,33,25,33V107.125c-21.662,0-22.257-21.292-22.257-25c0-11.168,9.628-20,23.257-20
	c12.561,0,21,8.841,21,22C653.125,98.742,645.105,107.125,631.125,107.125z"/>
<g>
	<polygon points="128.125,935.125 109.125,948.125 109.125,970.125 128.025,957.125 128.125,957.125 128.125,1008.125 
		149.125,1008.125 149.125,935.125 	"/>
	<polygon points="129.125,785.125 109.792,799.125 109.792,817.792 128.991,803.791 129.125,803.791 129.125,858.125 
		146.791,858.125 146.791,785.125 	"/>
	<polygon points="130.125,635.125 110.458,650.125 110.458,665.458 129.958,650.458 130.125,650.458 130.125,708.125 
		144.458,708.125 144.458,635.125 	"/>
	<polygon points="131.125,485.125 111.125,501.125 111.125,513.125 130.925,497.125 131.125,497.125 131.125,558.125 
		142.125,558.125 142.125,485.125 	"/>
	<polygon points="131.791,408.125 139.792,408.125 139.792,335.125 131.791,335.125 111.125,351.791 111.125,360.651 
		131.591,344.047 131.791,344.047 	"/>
	<polygon points="132.458,258.125 137.458,258.125 137.458,185.125 132.458,185.125 111.125,202.458 111.125,208.178 
		132.258,190.97 132.458,190.97 	"/>
	<polygon points="133.125,35.125 111.125,53.125 111.125,55.705 132.925,37.893 133.125,37.893 133.125,108.125 135.125,108.125 
		135.125,35.125 	"/>
</g>
<g>
	<path d="M233.625,992.125v-0.2c20.544-17.274,25.5-24.958,25.5-35.8c0-13.533-9.08-22-26-22c-7.093,0-17.354,1.683-24,4v18
		c8.714-3.608,16.628-5.5,21-5.5c5.742,0,8.5,2.629,8.5,7.5c0,7.836-3.951,13.664-31,34v16h52v-16H233.625z"/>
	<path d="M230.292,844.258c22.114-18.527,27.333-27.02,27.333-38.467c0-13.423-8.872-21.666-25.167-21.666
		c-7.118,0-16.585,1.681-23,4.166v15.5c8.113-3.685,15.75-5.6,20.5-5.6c6.835,0,10.2,3.246,10.2,9.267c0,8.843-4.755,15.967-32.2,37
		v13.667h50v-13.667h-27.667V844.258z"/>
	<path d="M226.958,696.591c23.685-19.779,29.167-29.081,29.167-41.133c0-13.313-8.665-21.333-24.333-21.333
		c-7.143,0-15.816,1.679-22,4.333v13c7.512-3.76,14.873-5.7,20-5.7c7.929,0,11.9,3.863,11.9,11.033
		c0,9.851-5.558,18.271-33.4,40.001v11.333h48v-11.333h-29.333V696.591z"/>
	<path d="M223.625,548.924c25.256-21.031,31-31.143,31-43.799c0-13.204-8.457-21-23.5-21c-7.168,0-15.048,1.677-21,4.5v10.5
		c6.91-3.836,13.995-5.8,19.5-5.8c9.021,0,13.6,4.48,13.6,12.8c0,10.857-6.361,20.573-34.6,43v9h46v-9h-31V548.924z"/>
	<path d="M230.625,334.125c-7.025,0-14.664,1.75-20.667,4.833v7.774c6.622-3.808,13.707-5.808,19.667-5.808
		c9.96,0,15.276,5.174,15.276,14.533c0,11.089-7,21.667-36.443,46v6.667h45v-6.667h-33.996v-0.201
		c26.567-22.673,33.707-33.762,33.707-46.466C253.168,341.814,244.959,334.125,230.625,334.125z"/>
	<path d="M230.125,184.125c-6.881,0-14.278,1.825-20.333,5.167v5.048c6.333-3.779,13.417-5.815,19.833-5.815
		c10.9,0,16.954,5.867,16.954,16.267c0,11.32-7.638,22.761-38.287,49v4.333h44v-4.333H215.3v-0.2
		c27.879-24.314,36.413-36.381,36.413-49.133C251.712,191.708,243.751,184.125,230.125,184.125z"/>
	<path d="M211.137,106.125v-0.2c29.191-25.955,39.119-39.001,39.119-51.8c0-12.523-7.713-20-20.631-20c-6.738,0-13.894,1.899-20,5.5
		v2.323c6.045-3.751,13.129-5.823,20-5.823c11.84,0,18.631,6.561,18.631,18c0,11.552-8.275,23.855-40.131,52v2h43v-2H211.137z"/>
</g>
<g>
	<path d="M340.125,965.125h-1v-0.2l18.5-13.8v-16h-50.5v16h27v0.2l-17,13.8v13h4c15.005,0,18,1.863,18,7.5
		c0,4.777-3.654,7.7-10.5,7.7c-5.197,0-13.03-1.565-21-4.7v17c6.612,2.102,15.831,3.5,23,3.5c18.145,0,28-8.439,28-24
		C358.625,972.958,350.967,965.125,340.125,965.125z"/>
	<path d="M338.125,815.158h-1.333v-0.2l19.5-16.167v-13.666h-48.667v13.666h28.333v0.201l-18.5,15.999v11.467h5
		c14.449,0,18.167,2.6,18.167,9c0,6.423-4.335,10.134-12.167,10.134c-5.212,0-13.271-1.728-20.333-4.717v14.75
		c6.178,2.143,14.714,3.5,21.666,3.5c17.712,0,27.501-8.563,27.501-24C357.292,822.716,349.641,815.158,338.125,815.158z"/>
	<path d="M336.125,665.191h-1.667v-0.2l20.5-18.533v-11.333h-46.833v11.333h29.667v0.2l-20,18.2v9.934h6
		c13.893,0,18.333,3.336,18.333,10.5c0,8.068-5.014,12.566-13.833,12.566c-5.228,0-13.513-1.89-19.667-4.733v12.5
		c5.745,2.185,13.597,3.5,20.333,3.5c17.278,0,27-8.685,27-24C355.958,672.474,348.316,665.191,336.125,665.191z"/>
	<path d="M334.125,515.225h-2v-0.2l21.5-20.9v-9h-45v9h31v0.2l-21.5,20.4v8.4h7c13.338,0,18.5,4.072,18.5,12
		c0,9.714-5.694,15-15.5,15c-5.242,0-13.753-2.052-19-4.75v10.25c5.311,2.227,12.48,3.5,19,3.5c16.845,0,26.5-8.807,26.5-24
		C354.625,522.231,346.99,515.225,334.125,515.225z"/>
	<path d="M308.625,335.125v6.667h33.547v0.2l-23.954,23.2v6.267h7.333c14.051,0,19.907,4.71,19.907,14c0,11.186-6.304,17-18,17
		c-5.596,0-13.02-1.887-18.167-4.794v7.628c5.207,2.516,11.766,3.833,18.167,3.833c16.729,0,26-8.468,26-23.667
		c0-13.02-7.862-19.933-21.907-19.933h-3.057v-0.201l23.964-23.533v-6.667H308.625z"/>
	<path d="M308.625,185.125v4.333h36.094v0.2l-26.407,26v4.134h7.667c14.765,0,21.314,5.349,21.314,16c0,12.658-6.914,19-20.5,19
		c-5.95,0-12.287-1.722-17.333-4.839v5.005c5.104,2.806,11.051,4.167,17.333,4.167c16.614,0,25.5-8.129,25.5-23.333
		c0-13.146-8.089-19.967-23.314-19.967h-4.113v-0.2l26.427-26.167v-4.333H308.625z"/>
	<path d="M326.404,66.125h-5.17v-0.2l28.891-28.8v-2h-41.5v2h38.641v0.2l-28.861,28.8v2h8c15.479,0,22.721,5.987,22.721,18
		c0,14.131-7.523,21-23,21c-6.305,0-11.553-1.557-16.5-4.883v2.383c5,3.095,10.336,4.5,16.5,4.5c16.498,0,25-7.791,25-23
		C351.125,72.854,342.809,66.125,326.404,66.125z"/>
</g>
<g>
	<path d="M536.125,960.125c-2.743,0-5.365,0.457-8.3,1.5h-0.2l0.5-10.5h28.5v-16h-46.5l-2,43.5h17c2.543-2.266,4.193-3.5,7-3.5
		c6.028,0,8.5,3.039,8.5,8c0,6.453-4.004,10.2-13.5,10.2c-4.068,0-11.395-1.126-18.5-3.2v16.5c5.857,1.587,13.189,2.5,19.5,2.5
		c21.691,0,32-8.736,32-26C560.125,968.375,551.484,960.125,536.125,960.125z"/>
	<path d="M535.208,810.458c-3.332,0-6.48,0.644-9.633,2h-0.2l0.667-13.667h29.167v-13.666h-44.5l-2.001,42h14.501
		c2.668-2.44,5.218-3.801,8.666-3.801c6.818,0,10,3.589,10,9.967c0,7.97-4.615,12.301-14.667,12.301
		c-4.248,0-11.539-1.348-18.333-3.702v14.401c5.747,1.832,12.684,2.834,19,2.834c20.641,0,30.667-8.745,30.667-25.834
		C558.542,818.668,550.062,810.458,535.208,810.458z"/>
	<path d="M534.375,660.792c-3.922,0-7.596,0.829-10.967,2.5h-0.199l0.832-16.834h29.834v-11.333h-42.5l-2,40.5h12
		c2.793-2.614,6.244-4.1,10.334-4.1c7.607,0,11.5,4.136,11.5,11.933c0,9.485-5.229,14.4-15.834,14.4
		c-4.43,0-11.684-1.569-18.166-4.203v12.303c5.637,2.077,12.178,3.167,18.5,3.167c19.59,0,29.332-8.753,29.332-25.667
		C557.041,668.962,548.723,660.792,534.375,660.792z"/>
	<path d="M533.625,511.125c-4.512,0-8.711,1.016-12.3,3h-0.2l1-20h30.5v-9h-40.5l-2,39h9.5c2.918-2.789,7.27-4.4,12-4.4
		c8.398,0,13,4.685,13,13.9c0,11.001-5.839,16.5-17,16.5c-4.61,0-11.828-1.791-18-4.705v10.205c5.526,2.322,11.672,3.5,18,3.5
		c18.539,0,28-8.762,28-25.5C555.625,519.255,547.467,511.125,533.625,511.125z"/>
	<path d="M551.291,341.792v-6.667h-38.809l-2.204,37.833h7.041c3.349-2.914,8.096-4.6,13.139-4.6
		c10.254,0,15.834,5.45,15.834,15.767c0,12.131-6.486,18.333-18.834,18.333c-5.066,0-11.994-1.775-17.833-4.729v7.562
		c5.41,2.51,11.603,3.833,17.833,3.833c17.616,0,26.833-8.679,26.833-25c0-14.135-8.293-22.167-22.5-22.167
		c-4.855,0-9.383,1.214-13.251,3.512h-0.2l1.429-23.678H551.291z"/>
	<path d="M549.958,189.458v-4.333h-37.117l-2.41,36.667h4.584c3.779-3.038,8.92-4.8,14.277-4.8c12.109,0,18.666,6.215,18.666,17.633
		c0,13.262-7.133,20.167-20.666,20.167c-5.522,0-12.162-1.759-17.667-4.753v4.919c5.295,2.698,11.534,4.167,17.667,4.167
		c16.693,0,25.666-8.595,25.666-24.5c0-13.899-8.43-21.833-23-21.833c-5.199,0-10.056,1.413-14.202,4.023h-0.2l1.857-27.356H549.958
		z"/>
	<path d="M528.125,63.625c-5.543,0-10.729,1.611-15.154,4.535h-0.2l2.286-31.035h33.568v-2h-35.426l-2.615,35.5h2.125
		c4.211-3.162,9.746-5,15.416-5c13.965,0,21.5,6.98,21.5,19.5c0,14.393-7.78,22-22.5,22c-5.979,0-12.328-1.743-17.5-4.776v2.276
		c5.179,2.885,11.465,4.5,17.5,4.5c15.771,0,24.5-8.512,24.5-24C551.625,71.461,543.06,63.625,528.125,63.625z"/>
</g>
<g>
	<g>
		<rect x="29.996" y="42.358" transform="matrix(-0.7454 -0.6666 0.6666 -0.7454 5.0147 147.8703)" width="1.5" height="61.239"/>
		
			<rect x="30.101" y="191.329" transform="matrix(-0.7453 -0.6667 0.6667 -0.7453 -93.7324 408.8407)" width="2.25" height="61.99"/>
		<rect x="30.206" y="340.299" transform="matrix(-0.7452 -0.6669 0.6669 -0.7452 -192.5258 669.771)" width="3" height="62.742"/>
		<rect x="30.039" y="490.133" transform="matrix(-0.7452 -0.6668 0.6668 -0.7452 -291.8395 931.4973)" width="4" height="62.742"/>
		
			<rect x="29.873" y="639.966" transform="matrix(-0.7452 -0.6669 0.6669 -0.7452 -391.1905 1193.1948)" width="5" height="62.742"/>
		
			<rect x="29.868" y="788.966" transform="matrix(-0.7452 -0.6668 0.6668 -0.7452 -489.6323 1453.6018)" width="6" height="62.742"/>
		
			<rect x="29.865" y="937.965" transform="matrix(-0.7452 -0.6668 0.6668 -0.7452 -588.1422 1713.9525)" width="7" height="62.742"/>
	</g>
</g>
</svg>
