<?xml version="1.0" encoding="utf-8"?>
<!-- Generator: Adobe Illustrator 16.0.3, SVG Export Plug-In . SVG Version: 6.00 Build 0)  -->
<!DOCTYPE svg PUBLIC "-//W3C//DTD SVG 1.0//EN" "http://www.w3.org/TR/2001/REC-SVG-20010904/DTD/svg10.dtd">
<svg version="1.0" id="レイヤー1" xmlns="http://www.w3.org/2000/svg" xmlns:xlink="http://www.w3.org/1999/xlink" x="0px"
	 y="0px" width="841.8896484px" height="595.2753906px" viewBox="0 0 841.8896484 595.2753906"
	 enable-background="new 0 0 841.8896484 595.2753906" xml:space="preserve">
<g>
	<rect x="71.5" y="-226.5" fill="none" stroke="#000000" stroke-width="0.25" width="100" height="150"/>
	<rect x="171.5" y="-226.5" fill="none" stroke="#000000" stroke-width="0.25" width="100" height="150"/>
	<rect x="271.5" y="-226.5" fill="none" stroke="#000000" stroke-width="0.25" width="100" height="150"/>
	<rect x="371.5" y="-226.5" fill="none" stroke="#000000" stroke-width="0.25" width="100" height="150"/>
	<rect x="471.5" y="-226.5" fill="none" stroke="#000000" stroke-width="0.25" width="100" height="150"/>
	<rect x="571.5" y="-226.5" fill="none" stroke="#000000" stroke-width="0.25" width="100" height="150"/>
	<rect x="671.5" y="-226.5" fill="none" stroke="#000000" stroke-width="0.25" width="100" height="150"/>
	<rect x="71.5" y="-76.5" fill="none" stroke="#000000" stroke-width="0.25" width="100" height="150"/>
	<rect x="171.5" y="-76.5" fill="none" stroke="#000000" stroke-width="0.25" width="100" height="150"/>
	<rect x="271.5" y="-76.5" fill="none" stroke="#000000" stroke-width="0.25" width="100" height="150"/>
	<rect x="371.5" y="-76.5" fill="none" stroke="#000000" stroke-width="0.25" width="100" height="150"/>
	<rect x="471.5" y="-76.5" fill="none" stroke="#000000" stroke-width="0.25" width="100" height="150"/>
	<rect x="571.5" y="-76.5" fill="none" stroke="#000000" stroke-width="0.25" width="100" height="150"/>
	<rect x="671.5" y="-76.5" fill="none" stroke="#000000" stroke-width="0.25" width="100" height="150"/>
	<rect x="71.5" y="73.5" fill="none" stroke="#000000" stroke-width="0.25" width="100" height="150"/>
	<rect x="171.5" y="73.5" fill="none" stroke="#000000" stroke-width="0.25" width="100" height="150"/>
	<rect x="271.5" y="73.5" fill="none" stroke="#000000" stroke-width="0.25" width="100" height="150"/>
	<rect x="371.5" y="73.5" fill="none" stroke="#000000" stroke-width="0.25" width="100" height="150"/>
	<rect x="471.5" y="73.5" fill="none" stroke="#000000" stroke-width="0.25" width="100" height="150"/>
	<rect x="571.5" y="73.5" fill="none" stroke="#000000" stroke-width="0.25" width="100" height="150"/>
	<rect x="671.5" y="73.5" fill="none" stroke="#000000" stroke-width="0.25" width="100" height="150"/>
	<rect x="71.5" y="223.5" fill="none" stroke="#000000" stroke-width="0.25" width="100" height="150"/>
	<rect x="171.5" y="223.5" fill="none" stroke="#000000" stroke-width="0.25" width="100" height="150"/>
	<rect x="271.5" y="223.5" fill="none" stroke="#000000" stroke-width="0.25" width="100" height="150"/>
	<rect x="371.5" y="223.5" fill="none" stroke="#000000" stroke-width="0.25" width="100" height="150"/>
	<rect x="471.5" y="223.5" fill="none" stroke="#000000" stroke-width="0.25" width="100" height="150"/>
	<rect x="571.5" y="223.5" fill="none" stroke="#000000" stroke-width="0.25" width="100" height="150"/>
	<rect x="671.5" y="223.5" fill="none" stroke="#000000" stroke-width="0.25" width="100" height="150"/>
	<rect x="71.5" y="373.5" fill="none" stroke="#000000" stroke-width="0.25" width="100" height="150"/>
	<rect x="171.5" y="373.5" fill="none" stroke="#000000" stroke-width="0.25" width="100" height="150"/>
	<rect x="271.5" y="373.5" fill="none" stroke="#000000" stroke-width="0.25" width="100" height="150"/>
	<rect x="371.5" y="373.5" fill="none" stroke="#000000" stroke-width="0.25" width="100" height="150"/>
	<rect x="471.5" y="373.5" fill="none" stroke="#000000" stroke-width="0.25" width="100" height="150"/>
	<rect x="571.5" y="373.5" fill="none" stroke="#000000" stroke-width="0.25" width="100" height="150"/>
	<rect x="671.5" y="373.5" fill="none" stroke="#000000" stroke-width="0.25" width="100" height="150"/>
	<rect x="71.5" y="523.5" fill="none" stroke="#000000" stroke-width="0.25" width="100" height="150"/>
	<rect x="171.5" y="523.5" fill="none" stroke="#000000" stroke-width="0.25" width="100" height="150"/>
	<rect x="271.5" y="523.5" fill="none" stroke="#000000" stroke-width="0.25" width="100" height="150"/>
	<rect x="371.5" y="523.5" fill="none" stroke="#000000" stroke-width="0.25" width="100" height="150"/>
	<rect x="471.5" y="523.5" fill="none" stroke="#000000" stroke-width="0.25" width="100" height="150"/>
	<rect x="571.5" y="523.5" fill="none" stroke="#000000" stroke-width="0.25" width="100" height="150"/>
	<rect x="671.5" y="523.5" fill="none" stroke="#000000" stroke-width="0.25" width="100" height="150"/>
	<rect x="71.5" y="673.5" fill="none" stroke="#000000" stroke-width="0.25" width="100" height="150"/>
	<rect x="171.5" y="673.5" fill="none" stroke="#000000" stroke-width="0.25" width="100" height="150"/>
	<rect x="271.5" y="673.5" fill="none" stroke="#000000" stroke-width="0.25" width="100" height="150"/>
	<rect x="371.5" y="673.5" fill="none" stroke="#000000" stroke-width="0.25" width="100" height="150"/>
	<rect x="471.5" y="673.5" fill="none" stroke="#000000" stroke-width="0.25" width="100" height="150"/>
	<rect x="571.5" y="673.5" fill="none" stroke="#000000" stroke-width="0.25" width="100" height="150"/>
	<rect x="671.5" y="673.5" fill="none" stroke="#000000" stroke-width="0.25" width="100" height="150"/>
	<rect x="771.5" y="-226.5" fill="none" stroke="#000000" stroke-width="0.25" width="100" height="150"/>
	<rect x="771.5" y="-76.5" fill="none" stroke="#000000" stroke-width="0.25" width="100" height="150"/>
	<rect x="771.5" y="73.5" fill="none" stroke="#000000" stroke-width="0.25" width="100" height="150"/>
	<rect x="771.5" y="223.5" fill="none" stroke="#000000" stroke-width="0.25" width="100" height="150"/>
	<rect x="771.5" y="373.5" fill="none" stroke="#000000" stroke-width="0.25" width="100" height="150"/>
	<rect x="771.5" y="523.5" fill="none" stroke="#000000" stroke-width="0.25" width="100" height="150"/>
	<rect x="771.5" y="673.5" fill="none" stroke="#000000" stroke-width="0.25" width="100" height="150"/>
</g>
<g>
	<polygon points="520,708.5 499.5,708.5 499.5,781.5 549.5,781.5 549.5,765 520,765 	"/>
	<polygon points="517.8330078,558.5 500.3330078,558.5 500.3330078,631.5 548.6660156,631.5 548.6660156,617.4326172 
		517.8330078,617.4326172 	"/>
	<polygon points="515.6669922,408.5 501.1669922,408.5 501.1669922,481.5 547.8330078,481.5 547.8330078,469.8662109 
		515.6669922,469.8662109 	"/>
	<polygon points="513.5,258.5 502,258.5 502,331.5 547,331.5 547,322.2998047 513.5,322.2998047 	"/>
	<polygon points="510.6660156,108.4995117 502.3330078,108.4995117 502.3330078,181.4995117 546,181.4995117 546,174.699707 
		510.6660156,174.699707 	"/>
	<polygon points="507.8330078,-41.5 502.6669922,-41.5 502.6669922,31.5 545,31.5 545,27.1000977 507.8330078,27.1000977 	"/>
	<polygon points="505,-191.5 503,-191.5 503,-118.5 544,-118.5 544,-120.5 505,-120.5 	"/>
</g>
<g>
	<polygon points="130.5,751.5 130.5,781.5 150.5,781.5 150.5,708.5 130.5,708.5 130.5,736.5 112.5,736.5 112.5,708.5 92.5,708.5 
		92.5,781.5 112.5,781.5 112.5,751.5 	"/>
	<polygon points="132.6660156,599.9667969 132.6660156,631.5 149.6665039,631.5 149.6665039,558.5 132.6660156,558.5 
		132.6660156,587.0996094 110.3330078,587.0996094 110.3330078,558.5 93.3330078,558.5 93.3330078,631.5 110.3330078,631.5 
		110.3330078,599.9667969 	"/>
	<polygon points="134.8334961,448.4335938 134.8334961,481.5 148.8334961,481.5 148.8334961,408.5 134.8334961,408.5 
		134.8334961,437.7001953 108.1665039,437.7001953 108.1665039,408.5 94.1669922,408.5 94.1669922,481.5 108.1665039,481.5 
		108.1665039,448.4335938 	"/>
	<polygon points="106,258.5 95,258.5 95,331.5 106,331.5 106,296.9003906 137,296.9003906 137,331.5 148,331.5 148,258.5 137,258.5 
		137,288.2998047 106,288.2998047 	"/>
	<polygon points="104.1665039,108.4995117 96.1665039,108.4995117 96.1665039,181.4995117 104.1665039,181.4995117 
		104.1665039,145.4331055 138.8330078,145.4331055 138.8330078,181.4995117 146.8330078,181.4995117 146.8330078,108.4995117 
		138.8330078,108.4995117 138.8330078,139.0332031 104.1665039,139.0332031 	"/>
	<polygon points="102.3334961,-41.5 97.3334961,-41.5 97.3334961,31.5 102.3334961,31.5 102.3334961,-6.0332031 
		140.6665039,-6.0332031 140.6665039,31.5 145.6669922,31.5 145.6669922,-41.5 140.6665039,-41.5 140.6665039,-10.2333984 
		102.3334961,-10.2333984 	"/>
	<polygon points="142.5,-191.5 142.5,-159.5 100.5,-159.5 100.5,-191.5 98.5,-191.5 98.5,-118.5 100.5,-118.5 100.5,-157.5 
		142.5,-157.5 142.5,-118.5 144.5,-118.5 144.5,-191.5 	"/>
</g>
<g>
	<polygon points="731.2998047,748.5 711.5,708.5 692.5,708.5 692.5,781.5 711.5,781.5 711.5,741.5 711.7001953,741.5 731.5,781.5 
		750.5,781.5 750.5,708.5 731.5,708.5 731.5,748.5 	"/>
	<polygon points="693.3330078,631.5 709.5996094,631.5 709.5996094,586.6660156 709.7998047,586.6660156 733.4003906,631.5 
		749.6660156,631.5 749.6660156,558.5 733.4003906,558.5 733.4003906,603.3330078 733.1992188,603.3330078 709.5996094,558.5 
		693.3330078,558.5 	"/>
	<polygon points="694.1669922,481.5 707.7001953,481.5 707.7001953,431.8330078 707.9003906,431.8330078 735.2998047,481.5 
		748.8330078,481.5 748.8330078,408.5 735.2998047,408.5 735.2998047,458.1669922 735.0996094,458.1669922 707.7001953,408.5 
		694.1669922,408.5 	"/>
	<polygon points="695,331.5 705.7998047,331.5 705.7998047,277 706,277 737.2001953,331.5 748,331.5 748,258.5 737.2001953,258.5 
		737.2001953,313 737,313 705.7998047,258.5 695,258.5 	"/>
	<polygon points="695.6660156,181.4995117 703.5332031,181.4995117 703.5332031,121.5463867 703.7333984,121.5463867 
		739.0527344,181.4995117 747.3330078,181.4995117 747.3330078,108.4995117 739.4667969,108.4995117 739.4667969,168.453125 
		739.2666016,168.453125 703.9462891,108.4995117 695.6660156,108.4995117 	"/>
	<polygon points="696.3330078,31.5 701.2666016,31.5 701.2666016,-33.90625 701.4667969,-33.90625 740.90625,31.5 746.6669922,31.5 
		746.6669922,-41.5 741.7333984,-41.5 741.7333984,23.9067383 741.5332031,23.9067383 702.09375,-41.5 696.3330078,-41.5 	"/>
	<polygon points="744,-120.6401367 743.7998047,-120.6401367 700.2402344,-191.5 697,-191.5 697,-118.5 699,-118.5 
		699,-189.3598633 699.2001953,-189.3598633 742.7597656,-118.5 746,-118.5 746,-191.5 744,-191.5 	"/>
</g>
<g>
	<polygon points="638.7998047,741.5 638.7998047,781.5 657.5,781.5 657.5,708.5 636.7998047,708.5 621.4003906,751.5 
		621.2001953,751.5 605.7998047,708.5 585.5,708.5 585.5,781.5 603.7998047,781.5 603.7998047,741.5 604,741.5 613.2998047,766.5 
		629.2998047,766.5 638.5996094,741.5 	"/>
	<polygon points="640.3662109,586.8330078 640.3662109,631.5 656.5,631.5 656.5,558.5 639.0332031,558.5 621.4003906,601.5 
		621.2001953,601.5 603.5664063,558.5 586.5,558.5 586.5,631.5 602.2324219,631.5 602.2324219,586.8330078 602.4335938,586.8330078 
		614.2998047,614.8330078 628.2998047,614.8330078 640.1660156,586.8330078 	"/>
	<polygon points="641.9335938,432.1669922 641.9335938,481.5 655.5,481.5 655.5,408.5 641.2666016,408.5 621.4003906,451.5 
		621.2001953,451.5 601.3330078,408.5 587.5,408.5 587.5,481.5 600.6660156,481.5 600.6660156,432.1669922 600.8662109,432.1669922 
		615.2998047,463.1669922 627.2998047,463.1669922 641.7333984,432.1669922 	"/>
	<polygon points="588.5,331.5 599.0996094,331.5 599.0996094,277.5 599.2998047,277.5 616.2998047,311.5 626.2998047,311.5 
		643.2998047,277.5 643.5,277.5 643.5,331.5 654.5,331.5 654.5,258.5 643.5,258.5 621.4003906,301.5 621.2001953,301.5 
		599.0996094,258.5 588.5,258.5 	"/>
	<polygon points="589.1660156,181.4995117 596.8994141,181.4995117 596.8994141,121.8793945 597.0996094,121.8793945 
		617.6328125,159.8330078 625.0996094,159.8330078 645.6328125,121.8793945 645.8330078,121.8793945 645.8330078,181.4995117 
		653.8330078,181.4995117 653.8330078,108.4995117 645.4130859,108.4995117 621.4667969,152.4863281 621.2666016,152.4863281 
		597.3193359,108.4995117 589.1660156,108.4995117 	"/>
	<polygon points="589.8330078,31.5 594.7001953,31.5 594.7001953,-33.7397461 594.9003906,-33.7397461 618.9667969,8.1669922 
		623.9003906,8.1669922 647.9667969,-33.7397461 648.1669922,-33.7397461 648.1669922,31.5 653.1669922,31.5 653.1669922,-41.5 
		647.3271484,-41.5 621.5341797,3.4731445 621.3339844,3.4731445 595.5400391,-41.5 589.8330078,-41.5 	"/>
	<polygon points="650.5,-118.5 652.5,-118.5 652.5,-191.5 649.2402344,-191.5 621.6005859,-145.5400391 621.4003906,-145.5400391 
		593.7597656,-191.5 590.5,-191.5 590.5,-118.5 592.5,-118.5 592.5,-189.3598633 592.7001953,-189.3598633 620.2998047,-143.5 
		622.7001953,-143.5 650.2998047,-189.3598633 650.5,-189.3598633 	"/>
</g>
<g>
	<polygon points="414,739.5 414,708.5 394,708.5 394,781.5 414,781.5 414,747.5 414.2001953,747.5 432,781.5 455,781.5 433,743.5 
		454,708.5 431,708.5 414.2001953,739.5 	"/>
	<polygon points="412.3330078,558.5 395.3330078,558.5 395.3330078,631.5 412.3330078,631.5 412.3330078,597.1660156 
		412.5332031,597.1660156 433.6660156,631.5 453.3330078,631.5 428.3330078,593.5 452.3330078,558.5 432.6660156,558.5 
		412.5332031,589.8330078 412.3330078,589.8330078 	"/>
	<polygon points="410.6665039,408.5 396.6669922,408.5 396.6669922,481.5 410.6665039,481.5 410.6665039,446.8330078 
		410.8671875,446.8330078 435.3330078,481.5 451.6669922,481.5 423.6669922,443.5 450.6669922,408.5 434.3330078,408.5 
		410.8671875,440.1669922 410.6665039,440.1669922 	"/>
	<polygon points="409,258.5 398,258.5 398,331.5 409,331.5 409,296.5 409.2001953,296.5 437,331.5 450,331.5 419,293.5 449,258.5 
		436,258.5 409.2001953,290.5 409,290.5 	"/>
	<polygon points="407.5,108.4995117 399.4995117,108.4995117 399.4995117,181.4995117 407.5,181.4995117 407.5,145.949707 
		407.699707,145.949707 439.1933594,181.4995117 448.8330078,181.4995117 414.6665039,143.5 447.8330078,108.4995117 
		438.1601563,108.4995117 407.699707,141.0498047 407.5,141.0498047 	"/>
	<polygon points="406,-41.5 401,-41.5 401,31.5 406,31.5 406,-4.5996094 406.2001953,-4.5996094 441.3867188,31.5 447.6669922,31.5 
		410.3334961,-6.5 446.6669922,-41.5 440.3203125,-41.5 406.2001953,-8.3999023 406,-8.3999023 	"/>
	<polygon points="404.7001953,-155.1499023 443.5800781,-118.5 446.5,-118.5 406,-156.5 445.5,-191.5 442.4804688,-191.5 
		404.7001953,-157.8500977 404.5,-157.8500977 404.5,-191.5 402.5,-191.5 402.5,-118.5 404.5,-118.5 404.5,-155.1499023 	"/>
</g>
<g>
	<g>
		<path d="M791.5-155c0,23.8320313,10.9345703,37.5,30,37.5v-2c-18.0556641,0-28-12.6074219-28-35.5s9.9443359-35.5,28-35.5
			s28,12.6074219,28,35.5s-9.9443359,35.5-28,35.5v2c19.0654297,0,30-13.6679688,30-37.5s-10.9345703-37.5-30-37.5
			S791.5-178.8320313,791.5-155z"/>
	</g>
	<path d="M821.5-38.1669922c-16.5117188,0-25.7666016,11.4770508-25.7666016,33.1669922S804.9882813,28.1665039,821.5,28.1665039
		V32.5c-19.2880859,0-30.8330078-13.6362305-30.8330078-37.5c0-23.8642578,11.5449219-37.5,30.8330078-37.5
		c19.2871094,0,30.8330078,13.6357422,30.8330078,37.5c0,23.8637695-11.5458984,37.5-30.8330078,37.5v-4.3334961
		c16.5117188,0,25.7666016-11.4765625,25.7666016-33.1665039S838.0117188-38.1669922,821.5-38.1669922z"/>
	<path d="M821.5,114.1665039c-14.9667969,0-23.5332031,10.3466797-23.5332031,30.8334961S806.5332031,175.8334961,821.5,175.8334961
		V182.5c-19.5097656,0-31.6669922-13.6044922-31.6669922-37.5c0-23.8959961,12.1572266-37.5,31.6669922-37.5
		s31.6669922,13.6040039,31.6669922,37.5c0,23.8955078-12.1572266,37.5-31.6669922,37.5v-6.6665039
		c14.9667969,0,23.5332031-10.3466797,23.5332031-30.8334961S836.4667969,114.1665039,821.5,114.1665039z"/>
	<path d="M821.5,257.5c19.7314453,0,32.5,13.5722656,32.5,37.5s-12.7685547,37.5-32.5,37.5v-9
		c13.4228516,0,21.2998047-9.2158203,21.2998047-28.5S834.9228516,266.5,821.5,266.5s-21.2998047,9.2158203-21.2998047,28.5
		S808.0771484,323.5,821.5,323.5v9c-19.7314453,0-32.5-13.5722656-32.5-37.5S801.7685547,257.5,821.5,257.5z"/>
	<path d="M821.5,419c-12.0322266,0-19.0332031,8.0957031-19.0332031,26c0,17.9033203,7.0009766,26,19.0332031,26v11.5
		c-20.3417969,0-33.3339844-13.7353516-33.3339844-37.5c0-23.765625,12.9921875-37.5,33.3339844-37.5
		s33.3330078,13.734375,33.3330078,37.5c0,23.7646484-12.9912109,37.5-33.3330078,37.5V471
		c12.03125,0,19.0332031-8.0966797,19.0332031-26C840.5332031,427.0957031,833.53125,419,821.5,419z"/>
	<path d="M821.5,571.5c-10.640625,0-16.7666016,6.9765625-16.7666016,23.5S810.859375,618.5,821.5,618.5v14
		c-20.953125,0-34.1669922-13.8974609-34.1669922-37.5S800.546875,557.5,821.5,557.5s34.1669922,13.8974609,34.1669922,37.5
		S842.453125,632.5,821.5,632.5v-14c10.640625,0,16.7666016-6.9765625,16.7666016-23.5S832.140625,571.5,821.5,571.5z"/>
	<path d="M821.5,707.5c21.5634766,0,35,14.0605469,35,37.5s-13.4365234,37.5-35,37.5V766c9.25,0,14.5-5.8574219,14.5-21
		s-5.25-21-14.5-21s-14.5,5.8574219-14.5,21s5.25,21,14.5,21v16.5c-21.5634766,0-35-14.0605469-35-37.5
		S799.9365234,707.5,821.5,707.5z"/>
</g>
<g>
	<path d="M320,708.5v43c0,11.2412109-3.640625,15-11,15c-5.4970703,0-12.8427734-1.796875-18.5-4.7001953V779
		c6.6181641,2.3808594,13.5009766,3.5,22,3.5c19.5605469,0,28-7.8916016,28-29v-45H320z"/>
	<path d="M291.5,629.1660156C297.652832,631.4082031,304.3442383,632.5,312.1665039,632.5
		c18.7631836,0,26.9995117-7.7236328,26.9995117-27.6669922V558.5h-17.4995117v44
		c0,12.2392578-3.9370117,16.3330078-11.8334961,16.3330078c-5.6420898,0-12.2236328-1.5556641-18.3330078-4.4667969V629.1660156z"
		/>
	<path d="M292.5,479.3330078C298.1879883,481.4365234,304.6884766,482.5,311.8334961,482.5c17.9663086,0,26-7.5556641,26-26.3330078
		V408.5h-14.5v45c0,13.2382813-4.2324219,17.6669922-12.6669922,17.6669922c-5.7866211,0-11.6049805-1.3144531-18.1665039-4.2333984
		V479.3330078z"/>
	<path d="M293.5,329.5c5.2226563,1.9638672,11.5322266,3,18,3c17.1689453,0,25-7.3876953,25-25v-49H325v46
		c0,14.2363281-4.5283203,19-13.5,19c-5.9316406,0-10.9863281-1.0732422-18-4V329.5z"/>
	<path d="M326.8330078,108.4995117v47c0,14.793457-4.972168,20.3334961-15.3330078,20.3334961
		c-5.7788086,0-11.3583984-1.1230469-17.6669922-3.7060547V179.5c5.0961914,1.9155273,11.5307617,3,17.6669922,3
		c16.0424805,0,23.6665039-7.4550781,23.6665039-25.0004883v-49H326.8330078z"/>
	<path d="M328.6669922-41.5v48c0,15.3500977-5.4160156,21.6669922-17.1669922,21.6669922
		c-5.6254883,0-11.7294922-1.1728516-17.3330078-3.4116211V29.5c4.9697266,1.8681641,11.5292969,3,17.3330078,3
		c14.9169922,0,22.3334961-7.5214844,22.3334961-25v-49H328.6669922z"/>
	<path d="M330.5-191.5v49c0,15.9067383-5.859375,23-19,23c-5.4726563,0-12.1015625-1.222168-17-3.1171875V-120.5
		c4.84375,1.8203125,11.5283203,3,17,3c13.7910156,0,21-7.5883789,21-25v-49H330.5z"/>
</g>
<g>
	<rect x="211.5" y="708.5" width="20" height="73"/>
	<rect x="212.9995117" y="558.5" width="17.0004883" height="73"/>
	<rect x="214.5" y="408.5" width="14" height="73"/>
	<rect x="216" y="258.5" width="11" height="73"/>
	<rect x="217.4995117" y="108.5" width="8.0004883" height="72.9995117"/>
	<rect x="219" y="-41.5" width="5" height="73"/>
	<rect x="220.5" y="-191.5" width="2" height="73"/>
</g>
<g>
	<rect x="211" y="-191.5" width="21" height="2"/>
	<rect x="210" y="-41.5" width="23" height="4.3999023"/>
	<rect x="209" y="108.5" width="25" height="6.7998047"/>
	<rect x="208" y="258.5" width="27" height="9.2001953"/>
	<rect x="206.1665039" y="408.5" width="30.6665039" height="11.4667969"/>
	<rect x="204.3330078" y="558.5" width="34.3339844" height="13.7333984"/>
	<rect x="202.5" y="708.5" width="38" height="16"/>
</g>
<g>
	<rect x="211" y="-120.5" width="21" height="2"/>
	<rect x="210" y="27.1030273" width="23" height="4.3994141"/>
	<rect x="209" y="174.7060547" width="25" height="6.7998047"/>
	<rect x="208" y="322.3095703" width="27" height="9.1992188"/>
	<rect x="206.1665039" y="470.0390625" width="30.6665039" height="11.4667969"/>
	<rect x="204.3330078" y="617.7695313" width="34.3339844" height="13.7333984"/>
	<rect x="202.5" y="765.5" width="38" height="16"/>
</g>
</svg>
