<?xml version="1.0" encoding="utf-8"?>
<!-- Generator: Adobe Illustrator 16.0.3, SVG Export Plug-In . SVG Version: 6.00 Build 0)  -->
<!DOCTYPE svg PUBLIC "-//W3C//DTD SVG 1.0//EN" "http://www.w3.org/TR/2001/REC-SVG-20010904/DTD/svg10.dtd">
<svg version="1.0" id="other" xmlns="http://www.w3.org/2000/svg" xmlns:xlink="http://www.w3.org/1999/xlink" x="0px" y="0px"
	 width="841.8896484px" height="595.2753906px" viewBox="0 0 841.8896484 595.2753906"
	 enable-background="new 0 0 841.8896484 595.2753906" xml:space="preserve">
<g>
	<rect x="71.5" y="-226.5" fill="none" stroke="#000000" stroke-width="0.25" width="100" height="150"/>
	<rect x="171.5" y="-226.5" fill="none" stroke="#000000" stroke-width="0.25" width="100" height="150"/>
	<rect x="271.5" y="-226.5" fill="none" stroke="#000000" stroke-width="0.25" width="100" height="150"/>
	<rect x="371.5" y="-226.5" fill="none" stroke="#000000" stroke-width="0.25" width="100" height="150"/>
	<rect x="471.5" y="-226.5" fill="none" stroke="#000000" stroke-width="0.25" width="100" height="150"/>
	<rect x="571.5" y="-226.5" fill="none" stroke="#000000" stroke-width="0.25" width="100" height="150"/>
	<rect x="671.5" y="-226.5" fill="none" stroke="#000000" stroke-width="0.25" width="100" height="150"/>
	<rect x="71.5" y="-76.5" fill="none" stroke="#000000" stroke-width="0.25" width="100" height="150"/>
	<rect x="171.5" y="-76.5" fill="none" stroke="#000000" stroke-width="0.25" width="100" height="150"/>
	<rect x="271.5" y="-76.5" fill="none" stroke="#000000" stroke-width="0.25" width="100" height="150"/>
	<rect x="371.5" y="-76.5" fill="none" stroke="#000000" stroke-width="0.25" width="100" height="150"/>
	<rect x="471.5" y="-76.5" fill="none" stroke="#000000" stroke-width="0.25" width="100" height="150"/>
	<rect x="571.5" y="-76.5" fill="none" stroke="#000000" stroke-width="0.25" width="100" height="150"/>
	<rect x="671.5" y="-76.5" fill="none" stroke="#000000" stroke-width="0.25" width="100" height="150"/>
	<rect x="71.5" y="73.5" fill="none" stroke="#000000" stroke-width="0.25" width="100" height="150"/>
	<rect x="171.5" y="73.5" fill="none" stroke="#000000" stroke-width="0.25" width="100" height="150"/>
	<rect x="271.5" y="73.5" fill="none" stroke="#000000" stroke-width="0.25" width="100" height="150"/>
	<rect x="371.5" y="73.5" fill="none" stroke="#000000" stroke-width="0.25" width="100" height="150"/>
	<rect x="471.5" y="73.5" fill="none" stroke="#000000" stroke-width="0.25" width="100" height="150"/>
	<rect x="571.5" y="73.5" fill="none" stroke="#000000" stroke-width="0.25" width="100" height="150"/>
	<rect x="671.5" y="73.5" fill="none" stroke="#000000" stroke-width="0.25" width="100" height="150"/>
	<rect x="71.5" y="223.5" fill="none" stroke="#000000" stroke-width="0.25" width="100" height="150"/>
	<rect x="171.5" y="223.5" fill="none" stroke="#000000" stroke-width="0.25" width="100" height="150"/>
	<rect x="271.5" y="223.5" fill="none" stroke="#000000" stroke-width="0.25" width="100" height="150"/>
	<rect x="371.5" y="223.5" fill="none" stroke="#000000" stroke-width="0.25" width="100" height="150"/>
	<rect x="471.5" y="223.5" fill="none" stroke="#000000" stroke-width="0.25" width="100" height="150"/>
	<rect x="571.5" y="223.5" fill="none" stroke="#000000" stroke-width="0.25" width="100" height="150"/>
	<rect x="671.5" y="223.5" fill="none" stroke="#000000" stroke-width="0.25" width="100" height="150"/>
	<rect x="71.5" y="373.5" fill="none" stroke="#000000" stroke-width="0.25" width="100" height="150"/>
	<rect x="171.5" y="373.5" fill="none" stroke="#000000" stroke-width="0.25" width="100" height="150"/>
	<rect x="271.5" y="373.5" fill="none" stroke="#000000" stroke-width="0.25" width="100" height="150"/>
	<rect x="371.5" y="373.5" fill="none" stroke="#000000" stroke-width="0.25" width="100" height="150"/>
	<rect x="471.5" y="373.5" fill="none" stroke="#000000" stroke-width="0.25" width="100" height="150"/>
	<rect x="571.5" y="373.5" fill="none" stroke="#000000" stroke-width="0.25" width="100" height="150"/>
	<rect x="671.5" y="373.5" fill="none" stroke="#000000" stroke-width="0.25" width="100" height="150"/>
	<rect x="71.5" y="523.5" fill="none" stroke="#000000" stroke-width="0.25" width="100" height="150"/>
	<rect x="171.5" y="523.5" fill="none" stroke="#000000" stroke-width="0.25" width="100" height="150"/>
	<rect x="271.5" y="523.5" fill="none" stroke="#000000" stroke-width="0.25" width="100" height="150"/>
	<rect x="371.5" y="523.5" fill="none" stroke="#000000" stroke-width="0.25" width="100" height="150"/>
	<rect x="471.5" y="523.5" fill="none" stroke="#000000" stroke-width="0.25" width="100" height="150"/>
	<rect x="571.5" y="523.5" fill="none" stroke="#000000" stroke-width="0.25" width="100" height="150"/>
	<rect x="671.5" y="523.5" fill="none" stroke="#000000" stroke-width="0.25" width="100" height="150"/>
	<rect x="71.5" y="673.5" fill="none" stroke="#000000" stroke-width="0.25" width="100" height="150"/>
	<rect x="171.5" y="673.5" fill="none" stroke="#000000" stroke-width="0.25" width="100" height="150"/>
	<rect x="271.5" y="673.5" fill="none" stroke="#000000" stroke-width="0.25" width="100" height="150"/>
	<rect x="371.5" y="673.5" fill="none" stroke="#000000" stroke-width="0.25" width="100" height="150"/>
	<rect x="471.5" y="673.5" fill="none" stroke="#000000" stroke-width="0.25" width="100" height="150"/>
	<rect x="571.5" y="673.5" fill="none" stroke="#000000" stroke-width="0.25" width="100" height="150"/>
	<rect x="671.5" y="673.5" fill="none" stroke="#000000" stroke-width="0.25" width="100" height="150"/>
	<rect x="771.5" y="-226.5" fill="none" stroke="#000000" stroke-width="0.25" width="100" height="150"/>
	<rect x="771.5" y="-76.5" fill="none" stroke="#000000" stroke-width="0.25" width="100" height="150"/>
	<rect x="771.5" y="73.5" fill="none" stroke="#000000" stroke-width="0.25" width="100" height="150"/>
	<rect x="771.5" y="223.5" fill="none" stroke="#000000" stroke-width="0.25" width="100" height="150"/>
	<rect x="771.5" y="373.5" fill="none" stroke="#000000" stroke-width="0.25" width="100" height="150"/>
	<rect x="771.5" y="523.5" fill="none" stroke="#000000" stroke-width="0.25" width="100" height="150"/>
	<rect x="771.5" y="673.5" fill="none" stroke="#000000" stroke-width="0.25" width="100" height="150"/>
</g>
<g>
	<polygon points="407,-146.8798828 407,-193.5 405,-193.5 405,-118.5 407,-118.5 407,-144.1396484 407.2001953,-144.1396484 
		439.7802734,-118.5 443,-118.5 408.5,-145.5 442.5,-170.5 439.1201172,-170.5 407.2001953,-146.8798828 	"/>
	<polygon points="408.6665039,-43.5004883 403.8330078,-43.5004883 403.8330078,31.4995117 408.6665039,31.4995117 
		408.6665039,6.0737305 408.8662109,6.0737305 437.8535156,31.4995117 444.1660156,31.4995117 413.1665039,4.4995117 
		443.8330078,-20.5004883 437.4130859,-20.5004883 408.8662109,2.9130859 408.6665039,2.9130859 	"/>
	<polygon points="410.3334961,106.5 402.6665039,106.5 402.6665039,181.5 410.3334961,181.5 410.3334961,156.2866211 
		410.5336914,156.2866211 435.9267578,181.5 445.3330078,181.5 417.8334961,154.5 445.1669922,129.5 435.7070313,129.5 
		410.5336914,152.706543 410.3334961,152.706543 	"/>
	<polygon points="412.2001953,306.5 434,331.5 446.5,331.5 422.5,304.5 446.5,279.5 434,279.5 412.2001953,302.5 412,302.5 
		412,256.5 401.5,256.5 401.5,331.5 412,331.5 412,306.5 	"/>
	<polygon points="413.1665039,406.5 399.8330078,406.5 399.8330078,481.5 413.1665039,481.5 413.1665039,458.5 413.3666992,458.5 
		432.3330078,481.5 447.8330078,481.5 425.1669922,454.5 447.8330078,429.5 432.3330078,429.5 413.3666992,450.8330078 
		413.1665039,450.8330078 	"/>
	<polygon points="414.3334961,556.5 398.1669922,556.5 398.1669922,631.5 414.3334961,631.5 414.3334961,610.5 414.5336914,610.5 
		430.6669922,631.5 449.1669922,631.5 427.8330078,604.5 449.1669922,579.5 430.6669922,579.5 414.5336914,599.1669922 
		414.3334961,599.1669922 	"/>
	<polygon points="415.5,747.5 415.5,706.5 396.5,706.5 396.5,781.5 415.5,781.5 415.5,762.5 415.7001953,762.5 429,781.5 
		450.5,781.5 430.5,754.5 450.5,729.5 429,729.5 415.7001953,747.5 	"/>
</g>
<g>
	<path d="M821.5,728.5c17.1210938,0,27,10.0791016,27,27s-9.8789063,27-27,27v-13c5.3544922,0,8-3.3828125,8-14s-2.6455078-14-8-14
		s-8,3.3828125-8,14s2.6455078,14,8,14v13c-17.1230469,0-27-10.0791016-27-27S804.3769531,728.5,821.5,728.5z"/>
	<path d="M821.5,578.5c16.5019531,0,26.1669922,9.9619141,26.1669922,27c0,17.0371094-9.6650391,27-26.1669922,27v-11.3339844
		c6.5126953,0,9.9160156-4.2285156,9.9160156-15.6660156S828.0126953,589.8330078,821.5,589.8330078
		c-6.5136719,0-9.9169922,4.2294922-9.9169922,15.6669922s3.4033203,15.6660156,9.9169922,15.6660156V632.5
		c-16.5029297,0-26.1669922-9.9628906-26.1669922-27C795.3330078,588.4619141,804.9970703,578.5,821.5,578.5z"/>
	<path d="M821.5,428.5c15.8818359,0,25.3330078,9.8457031,25.3330078,27s-9.4511719,27-25.3330078,27v-9.6669922
		c7.671875,0,11.8330078-5.0761719,11.8330078-17.3330078S829.171875,438.1669922,821.5,438.1669922
		S809.6669922,443.2431641,809.6669922,455.5S813.828125,472.8330078,821.5,472.8330078V482.5
		c-15.8828125,0-25.3330078-9.8457031-25.3330078-27S805.6171875,428.5,821.5,428.5z"/>
	<path d="M821.5,278.5c15.2626953,0,24.5,9.7285156,24.5,27s-9.2373047,27-24.5,27v-8c8.8300781,0,13.75-5.9228516,13.75-19
		s-4.9199219-19-13.75-19s-13.75,5.9228516-13.75,19s4.9199219,19,13.75,19v8c-15.2626953,0-24.5-9.7285156-24.5-27
		S806.2373047,278.5,821.5,278.5z"/>
	<path d="M821.5,128.5c14.9414063,0,23.8330078,9.765625,23.8330078,27c0,17.2333984-8.8916016,27-23.8330078,27v-6.0004883
		c10.2929688,0,16-6.9082031,16-20.9995117c0-14.0922852-5.7070313-21.0004883-16-21.0004883s-16,6.9082031-16,21.0004883
		c0,14.0913086,5.7070313,20.9995117,16,20.9995117V182.5c-14.9414063,0-23.8339844-9.7666016-23.8339844-27
		C797.6660156,138.265625,806.5585938,128.5,821.5,128.5z"/>
	<path d="M821.5-21.5c14.6201172,0,23.1669922,9.8037109,23.1669922,27s-8.546875,27-23.1669922,27v-4
		c11.7568359,0,18.25-7.8930664,18.25-23s-6.4931641-23-18.25-23s-18.25,7.8930664-18.25,23s6.4931641,23,18.25,23v4
		c-14.6201172,0-23.1669922-9.8037109-23.1669922-27S806.8798828-21.5,821.5-21.5z"/>
	<path d="M821.5-117.5c14.2988281,0,22.5-9.8413086,22.5-27s-8.2011719-27-22.5-27s-22.5,9.8413086-22.5,27
		S807.2011719-117.5,821.5-117.5v-2c-13.2197266,0-20.5-8.878418-20.5-25s7.2802734-25,20.5-25s20.5,8.878418,20.5,25
		s-7.2802734,25-20.5,25V-117.5z"/>
</g>
<g>
	<rect x="211.5" y="706.5" width="20" height="14"/>
	<rect x="212.9995117" y="556.5" width="17" height="13"/>
	<rect x="214.5" y="406.5" width="14" height="12"/>
	<rect x="216" y="256.5" width="11" height="11"/>
	<rect x="217.4995117" y="106.4995117" width="8" height="10.6669922"/>
	<rect x="219" y="-43.5" width="5" height="10.3334961"/>
	<rect x="220.5" y="-193.5" width="2" height="10"/>
</g>
<g>
	<rect x="211.5" y="729.5" width="20" height="52"/>
	<rect x="212.9995117" y="579.5" width="17" height="52"/>
	<rect x="214.5" y="429.5" width="14" height="52"/>
	<rect x="216" y="279.5" width="11" height="52"/>
	<rect x="217.4995117" y="129.4995117" width="8" height="52"/>
	<rect x="219" y="-20.5" width="5" height="52"/>
	<rect x="220.5" y="-170.5" width="2" height="52"/>
</g>
<g>
	<rect x="311.5" y="706.5" width="20" height="14"/>
	<rect x="313.1665039" y="556.5" width="16.9995117" height="13"/>
	<rect x="314.8334961" y="406.5" width="14" height="12"/>
	<rect x="316.5" y="256.5" width="11" height="11"/>
	<rect x="318.1660156" y="106.4995117" width="8.0004883" height="10.6669922"/>
	<rect x="319.8334961" y="-43.5" width="5" height="10.3334961"/>
	<rect x="321.5" y="-193.5" width="2" height="10"/>
</g>
<g>
	<path d="M295.5,803.5c29.0947266,0,36-5.5361328,36-23v-51h-20v51c0,7.1015625-1.8525391,8.5-16,8.5V803.5z"/>
	<path d="M297.1660156,653.5c26.8154297,0,33-5.2646484,33-23v-51h-16.9995117v51
		c0,8.8144531-1.9350586,10.4160156-16.0004883,10.4160156V653.5z"/>
	<path d="M298.8334961,503.5c24.5351563,0,30-4.9931641,30-23v-51h-14v51c0,10.5283203-2.0166016,12.3330078-16,12.3330078V503.5z"
		/>
	<path d="M300.5,353.5c22.2558594,0,27-4.7216797,27-23v-51h-11v51c0,12.2421875-2.0986328,14.25-16,14.25V353.5z"/>
	<path d="M301.1665039,196.9995117V203.5c20.4633789,0,25-4.3911133,25-21.6669922v-52.3334961h-8.0004883v52.3334961
		C318.1660156,194.7080078,315.7016602,196.9995117,301.1665039,196.9995117z"/>
	<path d="M301.8334961,49.25v4.25c18.6708984,0,23-4.0600586,23-20.3334961V-20.5h-5v53.6665039
		C319.8334961,46.6743164,317.0029297,49.25,301.8334961,49.25z"/>
	<path d="M321.5-170.5v55c0,14.1401367-3.1962891,17-19,17v2c16.878418,0,21-3.7290039,21-19v-55H321.5z"/>
</g>
<g>
	<path d="M105-159.6757813V-193.5h-2v75h2v-35c0-6.4921875,10.1796875-16,19-16c9.5,0,15,3.2724609,15,20v31h2v-31
		c0-16.328125-5.1855469-22-17-22c-7.5107422,0-15.2050781,5.796875-18.7998047,11.8242188H105z"/>
</g>
<path d="M106.9995117-43.5004883h-4.8330078v75h4.8330078V-0.6665039c0-7.4672852,9.3989258-16.6674805,17.0004883-16.6674805
	c8.9101563,0,13.4165039,3.1123047,13.4165039,18.5004883v30.3330078h4.7495117V0.5c0-16.2441406-5.3330078-22-17.1660156-22
	c-6.8813477,0-13.0751953,3.6142578-17.7998047,10.3828125h-0.2006836V-43.5004883z"/>
<path d="M109,106.5h-7.6669922v75H109v-31.5830078c0-6.9467773,8.0800781-15.0839844,15-15.0839844
	c8.3208008,0,11.8330078,2.9516602,11.8330078,17V181.5h7.5v-31c0-16.159668-5.4804688-22-17.3330078-22
	c-6.4316406,0-12.0224609,2.9750977-16.7998047,8.9414063H109V106.5z"/>
<g>
	<path d="M144.5,300.5c0-16.0751953-5.6279297-22-17.5-22c-5.9824219,0-10.9697266,2.3359375-15.7998047,7.5H111v-29.5h-10.5v75H111
		v-31c0-6.4257813,6.7617188-13.5,13-13.5c7.7314453,0,10.25,2.7910156,10.25,15.5v29h10.25V300.5z"/>
	<path d="M112.4995117,406.5v29h0.2006836c4.8408203-4.8017578,9.8286133-7,15.4663086-7
		c11.9189453,0,17.3330078,5.7597656,17.3330078,23v30h-13v-28c0-11.8457031-2.168457-14.3339844-8.8330078-14.3339844
		c-5.4321289,0-11.1669922,5.8984375-11.1669922,11.3339844v31H99.1660156v-75H112.4995117z"/>
	<path d="M114,556.5V585h0.2001953c4.8530273-4.4384766,9.840332-6.5,15.1333008-6.5
		c11.9663086,0,17.1665039,5.5957031,17.1665039,24v29h-15.75v-27c0-10.9824219-1.8193359-13.1669922-7.4165039-13.1669922
		C118.7075195,591.3330078,114,596.0546875,114,600.5v31H97.8334961v-75H114z"/>
	<path d="M115.5,781.5h-19v-75h19v28h0.2001953c4.8642578-4.0751953,9.8515625-6,14.7998047-6c12.0136719,0,17,5.4316406,17,25v28
		H129v-26c0-10.1191406-1.4697266-12-6-12c-3.8193359,0-7.5,3.5449219-7.5,7V781.5z"/>
</g>
<g>
	<path d="M715.5,781.5h-19v-52h18.2001953l0.2001953,6.5996094h0.2001953C719.0771484,731.1904297,724.3115234,728.5,730.5,728.5
		c11.8632813,0,17,5.921875,17,23v30H729v-30c0-6.1201172-1.46875-8-6-8c-3.8193359,0-7.5,3.5449219-7.5,7V781.5z"/>
	<path d="M697.6660156,579.5h15.4003906l0.2001953,6.5664063h0.2001953c4.3125-4.9941406,9.5166016-7.5664063,15.6992188-7.5664063
		c11.9130859,0,17.1669922,6.0009766,17.1669922,22.6660156V631.5h-15.75v-29.8339844
		c0-8.1269531-1.8642578-10.4990234-7.4169922-10.4990234c-4.6542969,0-9.3330078,4.6015625-9.3330078,8.9990234V631.5h-16.1669922
		V579.5z"/>
	<path d="M698.8330078,429.5h12.6005859l0.2001953,6.5332031h0.2001953C716.4814453,430.9541016,721.65625,428.5,727.8330078,428.5
		c11.9619141,0,17.3339844,6.0810547,17.3339844,22.3330078V481.5h-13v-29.6669922c0-10.1337891-2.2607422-13-8.8339844-13
		c-5.4892578,0-11.1660156,5.6582031-11.1660156,11V481.5h-13.3339844V429.5z"/>
	<path d="M710.2001953,286H710l-0.2001953-6.5H700v52h10.5v-32c0-6.2851563,6.6748047-13,13-13c7.59375,0,10.25,3.359375,10.25,15.5
		v29.5H744v-31c0-15.8398438-5.4892578-22-17.5-22C720.328125,278.5,715.1835938,280.8359375,710.2001953,286z"/>
</g>
<path d="M708.1992188,129.5H701v52h7.6660156v-32.25c0-6.8286133,8.0488281-14.75,15-14.75
	c8.2304688,0,11.8339844,3.3300781,11.8339844,17v30h7.5v-31c0-16.0029297-5.3886719-22-17.3339844-22
	c-6.5849609,0-12.3085938,2.9194336-17.1328125,8.8325195h-0.1992188L708.1992188,129.5z"/>
<path d="M706.5996094-20.5H702v52h4.8330078V-1c0-7.3720703,9.421875-16.5,17-16.5C732.6982422-17.5,737.25-14.1987305,737.25,1
	v30.5H742v-31c0-16.1655273-5.2871094-22-17.1669922-22c-6.9990234,0-13.3017578,3.5029297-17.9658203,10.1650391h-0.2001953
	L706.5996094-20.5z"/>
<path d="M705-160.0029297V-170.5h-2v52h2v-35c0-7.0527344,10.0996094-16,19-16c9.5,0,15,3.2724609,15,20v31h2v-31
	c0-16.328125-5.1855469-22-17-22c-7.3037109,0-15.1533203,5.3134766-18.7998047,11.4970703H705z"/>
<path d="M592.5-161.2890625V-170.5h-2v52h2v-35c0-7.96875,7.4619141-16,15-16c8.6611328,0,13,4.859375,13,18v33h2v-35
	c0-7.96875,7.4619141-16,15-16c9.1123047,0,13,5.3828125,13,18v33h2v-33c0-13.6455078-4.7666016-20-15-20
	c-6.5830078,0-12.9628906,5.2539063-15.6259766,11.8017578h-0.2001953C620.3535156-165.9609375,616.8652344-171.5,607.5-171.5
	c-6.0410156,0-11.8007813,4.4238281-14.7998047,10.2109375H592.5z"/>
<g>
	<path d="M641.5498047,781.5v-33c0-4.6210938-1.1425781-5.7998047-4.5498047-5.7998047c-2.7119141,0-5.5,2.1611328-5.5,3.7998047v35
		h-18.4501953v-33c0-4.6210938-1.1425781-5.7998047-4.5498047-5.7998047c-2.7119141,0-5.5,2.1611328-5.5,3.7998047v35h-19v-52h17.5
		l0.4003906,7h0.2001953c3.7197266-5.0820313,9.0771484-8,13.8994141-8c6.1953125,0,9.3535156,1.7929688,12.6494141,7.5h0.2001953
		c5.28125-5.3242188,9.6777344-7.5,14.6503906-7.5c11.2851563,0,16.5,5.4736328,16.5,20v33H641.5498047z"/>
	<path d="M585.8330078,579.5h15l0.3339844,6.6660156h0.2001953C605.1816406,581.171875,610.1318359,578.5,615,578.5
		c6.0800781,0,9.2822266,1.8798828,12.3994141,7.6669922h0.2001953c4.9335938-5.4384766,9.3125-7.6669922,14.4833984-7.6669922
		c11.0830078,0,16.0830078,5.2919922,16.0830078,20v33h-15.7324219v-32c0-7.2578125-1.4121094-8.8662109-5.7001953-8.8662109
		c-3.0976563,0-6.6503906,3.1015625-6.6503906,5.5332031V631.5h-15.7333984v-32
		c0-7.2578125-1.4111328-8.8662109-5.6992188-8.8662109c-3.0976563,0-6.6503906,3.1015625-6.6503906,5.5332031V631.5h-16.1669922
		V579.5z"/>
	<path d="M587.6669922,429.5h12.5l0.2666016,6.3330078h0.2001953C604.5439453,430.9267578,609.0859375,428.5,614,428.5
		c5.9648438,0,9.2109375,1.9667969,12.1494141,7.8330078h0.2001953C630.9365234,430.78125,635.296875,428.5,640.6669922,428.5
		c10.8808594,0,15.6660156,5.1113281,15.6660156,20v33h-13.0166016v-31c0-9.8945313-1.6806641-11.9335938-6.8496094-11.9335938
		c-3.4824219,0-7.7998047,4.0429688-7.7998047,7.2666016V481.5h-13.0166016v-31
		c0-9.8945313-1.6816406-11.9335938-6.8505859-11.9335938c-3.4824219,0-7.7998047,4.0429688-7.7998047,7.2666016V481.5h-13.3330078
		V429.5z"/>
	<path d="M627.25,295.5c0-4.0166016,5.0820313-9,8.9501953-9c6.0498047,0,8,2.46875,8,15v30H654.5v-33
		c0-15.0703125-4.5703125-20-15.25-20c-5.5683594,0-9.9101563,2.3339844-14.1503906,8h-0.2001953
		c-2.7597656-5.9462891-6.0498047-8-11.8994141-8c-4.9599609,0-9.0947266,2.1806641-13.0996094,7h-0.2001953L599.5,279.5h-10v52H600
		v-36c0-4.0166016,5.0820313-9,8.9501953-9c6.0498047,0,8,2.46875,8,15v30H627.25V295.5z"/>
</g>
<path d="M597.1660156,129.5h-7.3320313v52H597.5v-34.9169922C597.5,140.8828125,603.6142578,134.5,608.4667969,134.5
	c6.9199219,0,9.6660156,3.265625,9.6660156,16v31h7.5332031v-34.9169922c0-5.7001953,6.1152344-12.0830078,10.9667969-12.0830078
	c7.0712891,0,9.6679688,3.4404297,9.6679688,16v31h7.5332031v-33c0-14.5957031-4.6367188-20-15.1679688-20
	c-5.8994141,0-10.7109375,2.8828125-14.6416016,9.2675781h-0.2001953C621.3652344,131.1025391,617.5917969,128.5,611.1660156,128.5
	c-5.3603516,0-9.7578125,2.5371094-13.6660156,8.0703125h-0.1992188L597.1660156,129.5z"/>
<path d="M637.0664063-17.5c8.0917969,0,11.3339844,4.4116211,11.3339844,17v32h4.7666016v-33
	c0-14.1206055-4.7011719-20-15.0839844-20c-6.2314453,0-11.5126953,3.4316406-15.1337891,10.534668h-0.2001953
	C620.5908203-18.3481445,616.3349609-21.5,609.3330078-21.5c-5.7617188,0-10.4208984,2.8930664-14.2324219,9.140625h-0.2001953
	L594.8330078-20.5h-4.6660156v52H595V-2.3334961C595-9.7182617,602.1464844-17.5,607.9833984-17.5
	c7.7910156,0,11.3330078,4.0625,11.3330078,17v32h4.7666016V-2.3334961C624.0830078-9.7182617,631.2294922-17.5,637.0664063-17.5z"
	/>
<path d="M535.5,331.5h-10.125c-5.1689453,0-9.375-4.4296875-9.375-9.875V257.5h11c0,0,0,57.5068359,0,59.1875
	c0,4.9375,5.8125,5.3125,8.5,5.3125C535.5,323.875,535.5,331.5,535.5,331.5z"/>
<g>
	<path d="M536,481.5h-10.625c-5.9960938,0-10.875-5.1025391-10.875-11.375V407.5h14c0,0,0,54.5712891,0,57.2382813
		c0,6.0439453,4.375,6.0117188,7.5,6.0117188C536,473.25,536,481.5,536,481.5z"/>
	<path d="M536.5839844,631.5H525.375c-6.5478516,0-11.875-5.5507813-11.875-12.375V557.5h16c0,0,0,53.2373047,0,55.9873047
		c0,5.7646484,4.375,6.0126953,7.0839844,6.0126953C536.5839844,622.0703125,536.5839844,631.5,536.5839844,631.5z"/>
	<path d="M537.1669922,781.5H525.375c-7.0996094,0-12.875-6-12.875-13.375V707.5h18c0,0,0,51.9033203,0,54.7363281
		c0,5.484375,4.375,6.0136719,6.6669922,6.0136719C537.1669922,770.8916016,537.1669922,781.5,537.1669922,781.5z"/>
</g>
<g>
	<path d="M534-118.25h-8.625c-3.0107422,0-4.875-2.7900391-4.875-5.375V-192.5h2v68.875c0,1.6298828,1.1552734,3.375,2.875,3.375
		H534V-118.25z"/>
	<path d="M534.75,31.75h-9.375c-3.6757813,0-6.375-3.2734375-6.375-6.875V-42.5h5c0,0,0,63.9047852,0,65.2802734
		c0,2.909668,1.453125,3.8447266,3.375,4.0634766C528.2851563,27.03125,534.75,27,534.75,27V31.75z"/>
	<path d="M535.5,181.75h-10.125c-4.3417969,0-7.875-3.7568359-7.875-8.375V107.5h8c0,0,0,58.9345703,0,61.6860352
		c0,4.1889648,1.75,4.3139648,3.875,4.7514648c1.8203125,0.3745117,6.125,0.3125,6.125,0.3125V181.75z"/>
</g>
</svg>
