<?xml version="1.0" encoding="utf-8"?>
<!-- Generator: Adobe Illustrator 16.0.3, SVG Export Plug-In . SVG Version: 6.00 Build 0)  -->
<!DOCTYPE svg PUBLIC "-//W3C//DTD SVG 1.0//EN" "http://www.w3.org/TR/2001/REC-SVG-20010904/DTD/svg10.dtd">
<svg version="1.0" id="Rx1.35_Bx1.3" xmlns="http://www.w3.org/2000/svg" xmlns:xlink="http://www.w3.org/1999/xlink" x="0px"
	 y="0px" width="592px" height="840px" viewBox="0 0 592 840" enable-background="new 0 0 592 840" xml:space="preserve">
<g>
	<rect x="46" y="70" fill="none" stroke="#000000" stroke-width="0.25" width="100" height="100"/>
	<rect x="446" y="70" fill="none" stroke="#000000" stroke-width="0.25" width="100" height="100"/>
	<rect x="146" y="70" fill="none" stroke="#000000" stroke-width="0.25" width="100" height="100"/>
	<rect x="246" y="70" fill="none" stroke="#000000" stroke-width="0.25" width="100" height="100"/>
	<rect x="346" y="70" fill="none" stroke="#000000" stroke-width="0.25" width="100" height="100"/>
	<rect x="46" y="170" fill="none" stroke="#000000" stroke-width="0.25" width="100" height="100"/>
	<rect x="446" y="170" fill="none" stroke="#000000" stroke-width="0.25" width="100" height="100"/>
	<rect x="146" y="170" fill="none" stroke="#000000" stroke-width="0.25" width="100" height="100"/>
	<rect x="246" y="170" fill="none" stroke="#000000" stroke-width="0.25" width="100" height="100"/>
	<rect x="346" y="170" fill="none" stroke="#000000" stroke-width="0.25" width="100" height="100"/>
	<rect x="46" y="270" fill="none" stroke="#000000" stroke-width="0.25" width="100" height="100"/>
	<rect x="446" y="270" fill="none" stroke="#000000" stroke-width="0.25" width="100" height="100"/>
	<rect x="146" y="270" fill="none" stroke="#000000" stroke-width="0.25" width="100" height="100"/>
	<rect x="246" y="270" fill="none" stroke="#000000" stroke-width="0.25" width="100" height="100"/>
	<rect x="346" y="270" fill="none" stroke="#000000" stroke-width="0.25" width="100" height="100"/>
	<rect x="46" y="370" fill="none" stroke="#000000" stroke-width="0.25" width="100" height="100"/>
	<rect x="446" y="370" fill="none" stroke="#000000" stroke-width="0.25" width="100" height="100"/>
	<rect x="146" y="370" fill="none" stroke="#000000" stroke-width="0.25" width="100" height="100"/>
	<rect x="246" y="370" fill="none" stroke="#000000" stroke-width="0.25" width="100" height="100"/>
	<rect x="346" y="370" fill="none" stroke="#000000" stroke-width="0.25" width="100" height="100"/>
	<rect x="46" y="470" fill="none" stroke="#000000" stroke-width="0.25" width="100" height="100"/>
	<rect x="446" y="470" fill="none" stroke="#000000" stroke-width="0.25" width="100" height="100"/>
	<rect x="146" y="470" fill="none" stroke="#000000" stroke-width="0.25" width="100" height="100"/>
	<rect x="246" y="470" fill="none" stroke="#000000" stroke-width="0.25" width="100" height="100"/>
	<rect x="346" y="470" fill="none" stroke="#000000" stroke-width="0.25" width="100" height="100"/>
	<rect x="46" y="570" fill="none" stroke="#000000" stroke-width="0.25" width="100" height="100"/>
	<rect x="446" y="570" fill="none" stroke="#000000" stroke-width="0.25" width="100" height="100"/>
	<rect x="146" y="570" fill="none" stroke="#000000" stroke-width="0.25" width="100" height="100"/>
	<rect x="246" y="570" fill="none" stroke="#000000" stroke-width="0.25" width="100" height="100"/>
	<rect x="346" y="570" fill="none" stroke="#000000" stroke-width="0.25" width="100" height="100"/>
	<rect x="46" y="670" fill="none" stroke="#000000" stroke-width="0.25" width="100" height="100"/>
	<rect x="446" y="670" fill="none" stroke="#000000" stroke-width="0.25" width="100" height="100"/>
	<rect x="146" y="670" fill="none" stroke="#000000" stroke-width="0.25" width="100" height="100"/>
	<rect x="246" y="670" fill="none" stroke="#000000" stroke-width="0.25" width="100" height="100"/>
	<rect x="346" y="670" fill="none" stroke="#000000" stroke-width="0.25" width="100" height="100"/>
</g>
<g>
	<path d="M53.125,155.515625l1.75,0.96875c12.7158203-22.9404297,20.1523438-44.3222656,24.1123047-69.328125l-1.9746094-0.3125
		C73.0898438,111.6083984,65.7236328,132.7871094,53.125,155.515625z"/>
	<path d="M75.3432617,186.3691406c-3.4082031,24.6152344-10.6953125,46.3916016-23.0727539,68.6435547l4.5419922,2.2241211
		c12.7060547-22.7661133,20.1337891-45.2299805,23.5102539-70.4404297L75.3432617,186.3691406z"/>
	<path d="M73.6748047,285.8959961c-2.8935547,24.4658203-10.1020508,46.8388672-22.2583008,68.6142578L58.75,357.9897461
		c12.6967773-22.5922852,20.1157227-46.1376953,22.9086914-71.5522461L73.6748047,285.8959961z"/>
	<path d="M72.0058594,385.421875c-2.3789063,24.3164063-9.5087891,47.2871094-21.4433594,68.5859375l10.125,4.734375
		c12.6875-22.4179688,20.0976563-47.0449219,22.3066406-72.6640625L72.0058594,385.421875z"/>
	<path d="M70.3369141,484.9472656c-1.8642578,24.1679688-8.9160156,47.7363281-20.6289063,68.5576172L62.625,559.4951172
		c12.6777344-22.2441406,20.0791016-47.9521484,21.7041016-73.7763672L70.3369141,484.9472656z"/>
	<path d="M68.668457,584.4736328c-1.3496094,24.0185547-8.3222656,48.1835938-19.8139648,68.5292969L64.5625,660.2470703
		c12.668457-22.0703125,20.0605469-48.859375,21.1025391-74.8876953L68.668457,584.4736328z"/>
	<path d="M66.5,761c12.6591797-21.8964844,20.0419922-49.7666016,20.5-76l-20-1c-0.8349609,23.8691406-7.7294922,48.6318359-19,68.5
		L66.5,761z"/>
</g>
<g>
	<path d="M116.0791016,106.390625c6.3251953,14.9003906,11.3955078,30.1132813,16.9550781,50.8681641l1.9316406-0.5175781
		c-5.5839844-20.8496094-10.6816406-36.1416016-17.0449219-51.1318359L116.0791016,106.390625z"/>
	<path d="M114.815918,207.3256836c6.0302734,15.0302734,10.90625,30.3544922,16.1293945,50.5566406l5.0258789-1.0976563
		c-5.3266602-20.4355469-10.2919922-35.8486328-16.4536133-51.0268555L114.815918,207.3256836z"/>
	<path d="M113.5522461,308.2602539c5.7363281,15.1601563,10.4169922,30.5966797,15.3041992,50.2451172l8.1206055-1.6777344
		c-5.0698242-20.0214844-9.9033203-35.5556641-15.862793-50.9213867L113.5522461,308.2602539z"/>
	<path d="M112.2890625,409.1953125c5.4414063,15.2900391,9.9277344,30.8378906,14.4785156,49.9335938l11.2148438-2.2578125
		c-4.8125-19.6074219-9.5136719-35.2626953-15.2714844-50.8164063L112.2890625,409.1953125z"/>
	<path d="M111.0258789,510.1298828c5.1464844,15.4199219,9.4384766,31.0800781,13.6523438,49.6230469l14.3100586-2.8388672
		c-4.5556641-19.1923828-9.125-34.9697266-14.6811523-50.7109375L111.0258789,510.1298828z"/>
	<path d="M109.7631836,611.0654297c4.8515625,15.5498047,8.9482422,31.3203125,12.8261719,49.3105469l17.4047852-3.4189453
		c-4.2988281-18.7783203-8.7363281-34.6757813-14.090332-50.6054688L109.7631836,611.0654297z"/>
	<path d="M141,757c-4.0419922-18.3632813-8.3476563-34.3828125-13.5-50.5l-19,5.5c4.5566406,15.6796875,8.4589844,31.5625,12,49
		L141,757z"/>
</g>
<g>
	<path d="M185,157c15.5644531,0,28.7441406-0.4492188,44.0683594-1.5019531l-0.1367188-1.9960938
		C213.6552734,154.5517578,200.5166016,155,185,155c-17.2714844,0-21-3.7285156-21-21v-15.1513672
		c22.1181641-3.5546875,42.0048828-8.7792969,64.3417969-16.9091797l-0.6835938-1.8789063
		C205.5507813,108.1054688,185.8613281,113.2900391,164,116.8232422V83h-2v51C162,152.2714844,166.7285156,157,185,157z"/>
	<path d="M166.5,182.6665039v32.2695313c18.8017578-3.0610352,36.21875-7.3886719,54.8081055-13.675293
		c2.2558594-0.7631836,1.0639648,0.4780273,3.3588867-0.34375l4.8681641,2.3662109
		c-21.6835938,7.7558594-41.4472656,12.8676758-63.0351563,16.3408203v14.7929688
		c0,15.3291016,3.3330078,18.6665039,18.6669922,18.6665039c15.6132813,0,28.8466797-0.4458008,44.2763672-1.4980469
		l0.1972656,4.5795898c-15.5458984,1.0458984-28.9960938,1.5019531-44.7236328,1.5019531
		c-18.2753906,0-23.3339844-4.9638672-23.3339844-23.3334961v-51.6669922H166.5z"/>
	<path d="M168.7421875,282.3334961v30.7158203c17.8588867-2.9316406,34.7045898-7.0488281,52.3208008-12.859375
		c2.4121094-0.7954102,1.9912109,2.6708984,4.4370117,1.8105469l4.140625-0.0791016l0.8295898,2.7050781
		c-21.0292969,7.3823242-40.6704102,12.3818359-61.7280273,15.7724609v14.434082
		c0,13.3862305,2.9389648,16.3334961,16.3334961,16.3334961c15.7109375,0,29.0385742-0.4438477,44.6210938-1.4985352
		l0.2578125,7.1640625c-15.7675781,1.0375977-29.487793,1.5014648-45.3789063,1.5014648
		c-18.2788086,0-23.6669922-5.1992188-23.6669922-23.6669922v-52.3330078H168.7421875z"/>
	<path d="M160.1816406,382h10.75v29.1621094c15.6669922-2.59375,30.769043-6.1362305,46.1513672-10.8925781
		c3.7880859-1.1713867,0.4575195,3.9282227,4.2919922,2.6054688l8.6772461-1.2246094l1.300293,4.3193359
		c-20.375,7.0087891-39.8935547,11.8955078-60.4208984,15.2041016V435.25c0,11.4433594,2.5439453,14,14,14
		c15.8085938,0,29.2304688-0.4414063,44.9658203-1.4990234l0.3183594,9.7480469
		C214.2265625,458.5292969,200.2363281,459,184.1816406,459c-18.2822266,0-24-5.4345703-24-24V382z"/>
	<path d="M173.1210938,481.6660156v27.9414063c13.9853516-2.3359375,27.7226563-5.4599609,41.4824219-9.4882813
		c4.6835938-1.3710938,1.6967773,4.8007813,6.3964844,3.2148438l9.9814453,0.1035156l1.2529297,4.2089844
		c-19.7207031,6.6347656-39.1162109,11.4091797-59.1132813,14.6357422v13.3837891
		c0,9.5009766,2.1489258,11.6669922,11.6660156,11.6669922c15.9057617,0,29.4228516-0.4394531,45.3110352-1.4990234
		l0.378418,12.3320313c-16.2109375,1.0224609-30.4711914,1.5009766-46.6894531,1.5009766
		c-18.2856445,0-24.3330078-5.6699219-24.3330078-24.3339844v-53.6669922H173.1210938z"/>
	<path d="M175.3105469,581.3330078v26.7207031c12.9785156-2.1894531,25.9487305-5.0859375,38.7856445-8.7089844
		c4.9355469-1.3925781,1.3481445,5.2646484,6.2373047,3.65625l11.2661133,1.1875l1.5180664,5.1347656
		c-19.0668945,6.2617188-38.3398438,10.9238281-57.8071289,14.0683594v12.6914063
		c0,7.5585938,1.7543945,9.3339844,9.3334961,9.3339844c16.0024414,0,29.6137695-0.4375,45.6552734-1.5l0.4394531,14.9160156
		c-16.4331055,1.015625-30.9633789,1.5-47.3447266,1.5c-18.2895508,0-24.6669922-5.9052734-24.6669922-24.6660156v-54.3339844
		H175.3105469z"/>
	<path d="M230.5,742l0.5,17.5c-16.6552734,1.0078125-31.4550781,1.5-48,1.5c-18.2929688,0-25-6.140625-25-25v-55h19.5v25.5
		c11.9145508-2.03125,24.0292969-4.6865234,35.9052734-7.9033203c5.2578125-1.4238281,1.46875,8.0390625,6.5947266,6.4003906
		l11.6499023-1.9873047L234,711c-18.4130859,5.8876953-37.5625,10.4375-56.5,13.5v12c0,5.6152344,1.359375,7,7,7
		C200.5996094,743.5,214.3056641,743.0644531,230.5,742z"/>
	<path d="M232.234375,704.9970703"/>
</g>
<g>
	<path d="M313.6669922,694.0009766L310.8339844,684H254v18h59.6669922l6.5,3.3339844L311,691.3427734
		c0,4.3427734-0.1669922,4.0449219-0.5136719,7.8085938C307.6611328,729.8085938,292.9155273,741.8007813,259.5,744.5L263,762
		c39.5957031-3.1806641,61.3984375-20.0498047,66.7099609-55.9931641
		c0.3945313-2.6669922-10.4228516-1.2939453-10.2099609-4.1728516L313.6669922,694.0009766z"/>
	<path d="M311.5,591.8339844l-1.6660156-7.1669922H254.5V600h60.1669922h1l-1.3330078-2.4990234
		c0,3.9511719-0.4794922-2.5009766-0.7792969,0.9902344c-2.7226563,31.7402344-18.1655273,44.8945313-52.4916992,47.9267578
		l2.9570313,14.9140625c39.0307617-3.3945313,60.4672852-20.2480469,65.7016602-55.3701172
		c0.4169922-2.7939453-11.4335938-0.4326172-11.2216797-3.4609375L311.5,591.8339844z"/>
	<path d="M310.8330078,491.7998047l-0.5-6.4667969H255V498h55.6669922l3.5,1.0009766L315,500.3339844
		c0,5.8183594,1.6689453-1.5175781,0.9833984,3.3554688c-4.0292969,28.6601563-20.2944336,41.484375-53.3569336,44.6464844
		l2.4140625,12.328125c38.456543-3.6054688,59.527832-20.4335938,64.6918945-54.7304688
		c0.4404297-2.9257813-8.7753906,3.9169922-8.5654297,0.734375L310.8330078,491.7998047z"/>
	<path d="M312,394.75V386h-56.5v10h54l2.375,2.875l3,3c0,5.3974609,4.8271484-3.4799805,4.2158203,1.1376953
		c-3.9423828,29.7744141-20.90625,43.7490234-54.9013672,47.2412109l1.8710938,9.7421875
		c38.6601563-3.8916016,59.4335938-21.3076172,63.9785156-56.1796875c0.3154297-2.4169922-9.3652344,0.7695313-9.2050781-1.8164063
		L312,394.75z"/>
	<path d="M256,286.6665039V294h56.0839844l1.7910156,3.5l3.25,3.25c0.5419922,1.4169922,1.4072266,0.8710938,2.2080078,1.6669922
		c0.8300781,0.824707,2.0966797,0.7265625,1.9326172,1.8466797c-4.3271484,29.5610352-21.9892578,44.1601563-56.1796875,47.9077148
		l1.3286133,7.1567383c38.8461914-4.2011719,59.2749023-22.2368164,63.1694336-57.5825195
		C329.8632813,299.2114258,323.5,303.75,317.5,298.125l-2.5625-3.5l-1.2705078-7.9584961H256z"/>
	<path d="M256.5,187.3334961V192h58l1.3339844,3.1669922L317.25,197.3334961c1.5,1.75,2.5,2.1235352,3.5,3.0834961
		c0.5751953,0.5522461,3.2958984,0.4985352,3.2060547,1.2739258c-3.7197266,31.8823242-22.1308594,48.2294922-57.9736328,52.3984375
		l0.7856445,4.5708008c38.0219727-4.3930664,58.0688477-22.2036133,62.0844727-56.2314453
		c0.0878906-0.7475586-3.7490234-1.7519531-4.4355469-2.0952148C323.75,200,321.0703125,198.5429688,319.75,197.4165039l-2.75-2.75
		l-3-7.3330078H256.5z"/>
	<path d="M321.0839844,96.9169922c0.5654297,0.690918,1.75,1.3330078,3.0830078,2.0830078
		c0.4189453,0.2358398,2.3876953,0.2939453,2.3427734,0.7670898c-3.2216797,33.7011719-22.3984375,51.6674805-59.6308594,56.2397461
		l0.2431641,1.9853516c38.2587891-4.6987305,57.9941406-23.1445313,61.3564453-57.7363281
		C328.5263672,99.7626953,327.4521484,99.215332,327,99c-1.75-0.8334961-4.0830078-1.5834961-5.75-3.25l-2-1.6665039L316.1669922,88
		H257v2h59.3330078l2.75,5C319.0830078,95,320.6455078,96.3808594,321.0839844,96.9169922z"/>
</g>
<g>
	<path d="M509.5,717c4.3623047,10.6123047,9.9082031,24.8867188,14.5,37.5l17-6c-4.3955078-11.9746094-9.8125-25.625-15-37.5
		L509.5,717z"/>
	<path d="M525.6835938,653.4892578l14.6328125-5.3125c-4.6074219-11.9140625-10.2167969-25.3583984-15.5058594-36.9267578
		l-14.2050781,5.3330078C515.203125,627.0927734,520.9160156,641.0498047,525.6835938,653.4892578z"/>
	<path d="M527.3671875,552.4794922l12.265625-4.6259766C534.8144531,536,529.0117188,522.7617188,523.6220703,511.5
		l-11.9111328,4.6669922C516.5439453,526.5732422,522.4238281,540.2128906,527.3671875,552.4794922z"/>
	<path d="M512.8164063,415.75c5.0683594,10.3037109,11.1152344,23.6259766,16.234375,35.71875l9.8984375-3.9384766
		c-5.0302734-11.7929688-11.0253906-24.8251953-16.5166016-35.7802734L512.8164063,415.75z"/>
</g>
<path d="M514.2548828,314.3330078c5.3037109,10.2011719,11.5175781,23.2060547,16.8125,35.1254883l7.1982422-2.9179688
	c-5.2421875-11.7329102-11.4296875-24.559082-17.0214844-35.2075195L514.2548828,314.3330078z"/>
<g>
	<path d="M463.5,712c-4.3984375,12.0498047-9.5859375,24.9775391-14.5,36l16.5,6.5
		c5.3808594-11.8896484,10.8476563-25.5654297,15-37.5L463.5,712z"/>
	<path d="M449.6904297,647.5800781l14.2021484,5.7558594c5.5742188-11.7236328,11.1972656-25.0771484,15.5068359-36.7626953
		l-14.6328125-4.4804688C460.2568359,623.8662109,454.8701172,636.5888672,449.6904297,647.5800781z"/>
	<path d="M450.3808594,547.1611328l11.9052734,5.0097656c5.7675781-11.5556641,11.546875-24.5878906,16.0136719-36.0253906
		l-12.265625-3.9589844C461.4121094,523.6835938,455.8271484,536.2001953,450.3808594,547.1611328z"/>
	<path d="M467.3007813,412.2802734c-4.7333984,11.2207031-10.5166016,23.53125-16.2294922,34.4619141l9.6074219,4.2646484
		c5.9609375-11.3886719,11.8974609-24.0996094,16.5205078-35.2880859L467.3007813,412.2802734z"/>
</g>
<path d="M468.5673828,311.7070313c-4.8447266,10.9443359-10.8261719,23.0488281-16.8056641,33.9492188l6.9765625,3.1860352
	c6.1542969-11.2216797,12.2470703-23.6108398,17.0273438-34.5507813L468.5673828,311.7070313z"/>
<path d="M517.1337891,112.5c5.7724609,9.9960938,12.3212891,22.3662109,17.9677734,33.9384766l1.796875-0.8769531
	C531.234375,133.9492188,524.6611328,121.5351563,518.8662109,111.5L517.1337891,112.5z"/>
<path d="M453.1425781,144.4853516l1.7148438,1.0292969c6.5410156-10.8876953,12.9482422-22.6337891,18.0410156-33.0761719
	l-1.796875-0.8769531C466.0332031,121.953125,459.6542969,133.6455078,453.1425781,144.4853516z"/>
<path d="M517.25,92.546875L517.75,92H497V77h-2v15h-40v2h40v55c0,6.3544922-1.1367188,7-6,7
	c-4.7353516,0-10.4042969-0.5664063-14.796875-1.4794922l-0.40625,1.9589844C478.3125,157.4169922,484.1376953,158,489,158
	c6.2802734,0,8-1.9345703,8-9V94h21.75l-1.25-0.546875L517.25,92.546875z"/>
<path d="M515.6943359,213.2495117c5.5380859,10.0991211,11.9199219,22.7866211,17.3896484,34.5322266l4.4980469-1.8974609
	c-5.4541016-11.671875-11.8330078-24.2924805-17.5273438-34.6347656L515.6943359,213.2495117z"/>
<path d="M469.8339844,211.4672852c-4.9560547,10.6679688-11.1357422,22.5664063-17.3818359,33.4365234l4.3457031,2.1083984
	c6.3476563-11.0551758,12.5976563-23.1225586,17.5341797-33.8139648L469.8339844,211.4672852z"/>
<g>
	<path d="M486.5,707v35.5c0,3.4326172-0.0664063,3.5-3,3.5c-1.8085938,0-4.9638672-0.203125-10.5-0.75L472,762
		c6.3544922,0.6035156,13.1259766,1,16,1c16.4121094,0,18-1.421875,18-18v-38h11.8330078l-4.5-5.0830078l-2.4169922-5.4160156
		L509.5,690H506v-14h-19.5v14H453v17H486.5z"/>
	<path d="M453.3330078,591v14.5h34.5v38.2080078c0,4.0332031-0.0517578,4.0830078-3.4160156,4.0830078
		c-2.3271484,0-5.9189453-0.2558594-11.2539063-0.8515625l-1.0302734,14.3076172
		c6.0859375,0.6601563,12.7421875,1.0859375,16.0341797,1.0859375c14.7226563,0,16.3330078-1.5068359,16.3330078-16.5V605.5
		h12.1660156l-2.5830078-2.0820313l-1.5-1l-0.2402344-1.2636719L509.9589844,591H504.5v-14.6669922h-16.6669922V591H453.3330078z"/>
	<path d="M453.6669922,492v12h35.5v40.9169922c0,4.6337891-0.0371094,4.6660156-3.8339844,4.6660156
		c-2.84375,0-6.8730469-0.3095703-12.0078125-0.953125l-1.0595703,11.8632813
		c5.8183594,0.7167969,12.3583984,1.1738281,16.0673828,1.1738281c13.0351563,0,14.6669922-1.5917969,14.6669922-15V504h10.9160156
		l0.1669922-1.2490234l-0.9169922-2L512.375,497.25L509.25,492H503v-15.3330078h-13.8330078V492H453.6669922z"/>
	<path d="M501.5,402.5H518l-0.7080078-1.3330078l-0.625-0.8334961L514.5,398.125L512.8164063,393H501.5v-16h-11v16H454v9.5h36.5
		v43.625c0,5.234375-0.0214844,5.25-4.25,5.25c-3.3623047,0-7.828125-0.3632813-12.7617188-1.0556641l-1.0898438,9.4208984
		C477.9492188,460.5136719,484.3730469,461,488.5,461c11.3457031,0,13-1.6767578,13-13.5V402.5z"/>
</g>
<path d="M454.6660156,191.3334961v4.5H493.5v51.875c0,5.980957-0.765625,6.4169922-5.4169922,6.4169922
	c-4.2773438,0-9.5458984-0.4990234-14.1181641-1.3383789l-0.6347656,4.4462891
	c4.8613281,0.8828125,10.8857422,1.4335938,15.5029297,1.4335938c7.96875,0,9.6669922-1.8486328,9.6669922-10.5v-52.3334961
	h20.1455078l-1.5615234-1.1621094l-0.9375-2.1503906l0.1035156-1.1875H498.5v-14.6669922h-5v14.6669922H454.6660156z"/>
<path d="M454.3330078,292.4990234v7H492v47.25c0,5.6079102-0.3935547,5.8334961-4.8330078,5.8334961
	c-3.8203125,0-8.6875-0.4311523-13.4404297-1.1967773l-0.8623047,6.9331055
	c5.2060547,0.828125,11.4306641,1.3466797,15.8027344,1.3466797c9.6572266,0,11.3330078-1.762207,11.3330078-12v-48.1665039
	h18.59375L514.2548828,297.375L512.875,294.5l1.3798828-2.0009766H500v-15.8330078h-8v15.8330078H454.3330078z"/>
<g>
	<path d="M225.5,501.5c-6.0751953,0-11-4.9248047-11-11s4.9248047-11,11-11s11,4.9248047,11,11S231.5751953,501.5,225.5,501.5z
		 M225.5,471c-10.7695313,0-19.5,8.7304688-19.5,19.5s8.7304688,19.5,19.5,19.5s19.5-8.7304688,19.5-19.5S236.2695313,471,225.5,471
		z"/>
	<path d="M225.5,601.5c-6.0751953,0-11-4.9248047-11-11s4.9248047-11,11-11s11,4.9248047,11,11S231.5751953,601.5,225.5,601.5z
		 M225.5,571c-10.7695313,0-19.5,8.7304688-19.5,19.5s8.7304688,19.5,19.5,19.5s19.5-8.7304688,19.5-19.5S236.2695313,571,225.5,571
		z"/>
	<path d="M225.5,701.5c-6.0751953,0-11-4.9248047-11-11s4.9248047-11,11-11s11,4.9248047,11,11S231.5751953,701.5,225.5,701.5z
		 M225.5,671c-10.7695313,0-19.5,8.7304688-19.5,19.5s8.7304688,19.5,19.5,19.5s19.5-8.7304688,19.5-19.5S236.2695313,671,225.5,671
		z"/>
</g>
<g>
	<path d="M325.5,501.5c-6.0751953,0-11-4.9248047-11-11s4.9248047-11,11-11s11,4.9248047,11,11S331.5751953,501.5,325.5,501.5z
		 M325.5,471c-10.7695313,0-19.5,8.7304688-19.5,19.5s8.7304688,19.5,19.5,19.5s19.5-8.7304688,19.5-19.5S336.2695313,471,325.5,471
		z"/>
	<path d="M325.5,601.5c-6.0751953,0-11-4.9248047-11-11s4.9248047-11,11-11s11,4.9248047,11,11S331.5751953,601.5,325.5,601.5z
		 M325.5,571c-10.7695313,0-19.5,8.7304688-19.5,19.5s8.7304688,19.5,19.5,19.5s19.5-8.7304688,19.5-19.5S336.2695313,571,325.5,571
		z"/>
	<path d="M325.5,701.5c-6.0751953,0-11-4.9248047-11-11s4.9248047-11,11-11s11,4.9248047,11,11S331.5751953,701.5,325.5,701.5z
		 M325.5,671c-10.7695313,0-19.5,8.7304688-19.5,19.5s8.7304688,19.5,19.5,19.5s19.5-8.7304688,19.5-19.5S336.2695313,671,325.5,671
		z"/>
</g>
<g>
	<path d="M525.5,501.5c-6.0751953,0-11-4.9248047-11-11s4.9248047-11,11-11s11,4.9248047,11,11S531.5751953,501.5,525.5,501.5z
		 M525.5,471c-10.7695313,0-19.5,8.7304688-19.5,19.5s8.7304688,19.5,19.5,19.5s19.5-8.7304688,19.5-19.5S536.2695313,471,525.5,471
		z"/>
	<path d="M525.5,601.5c-6.0751953,0-11-4.9248047-11-11s4.9248047-11,11-11s11,4.9248047,11,11S531.5751953,601.5,525.5,601.5z
		 M525.5,571c-10.7695313,0-19.5,8.7304688-19.5,19.5s8.7304688,19.5,19.5,19.5s19.5-8.7304688,19.5-19.5S536.2695313,571,525.5,571
		z"/>
	<path d="M525.5,701.5c-6.0751953,0-11-4.9248047-11-11s4.9248047-11,11-11s11,4.9248047,11,11S531.5751953,701.5,525.5,701.5z
		 M525.5,671c-10.7695313,0-19.5,8.7304688-19.5,19.5s8.7304688,19.5,19.5,19.5s19.5-8.7304688,19.5-19.5S536.2695313,671,525.5,671
		z"/>
</g>
<g>
	<path d="M424.2001953,503.5996094c-6.5166016,0-11.7998047-5.2822266-11.7998047-11.7998047
		c0-6.5166016,5.2832031-11.7998047,11.7998047-11.7998047C430.7177734,480,436,485.2832031,436,491.7998047
		C436,498.3173828,430.7177734,503.5996094,424.2001953,503.5996094z M424.2001953,471
		c-11.4873047,0-20.7998047,9.3125-20.7998047,20.7998047s9.3125,20.7998047,20.7998047,20.7998047S445,503.2871094,445,491.7998047
		S435.6875,471,424.2001953,471z"/>
	<path d="M424.2001953,603.5996094c-6.5166016,0-11.7998047-5.2822266-11.7998047-11.7998047
		c0-6.5166016,5.2832031-11.7998047,11.7998047-11.7998047C430.7177734,580,436,585.2832031,436,591.7998047
		C436,598.3173828,430.7177734,603.5996094,424.2001953,603.5996094z M424.2001953,571
		c-11.4873047,0-20.7998047,9.3125-20.7998047,20.7998047s9.3125,20.7998047,20.7998047,20.7998047S445,603.2871094,445,591.7998047
		S435.6875,571,424.2001953,571z"/>
	<path d="M424.2001953,703.5996094c-6.5166016,0-11.7998047-5.2822266-11.7998047-11.7998047
		c0-6.5166016,5.2832031-11.7998047,11.7998047-11.7998047C430.7177734,680,436,685.2832031,436,691.7998047
		C436,698.3173828,430.7177734,703.5996094,424.2001953,703.5996094z M424.2001953,671
		c-11.4873047,0-20.7998047,9.3125-20.7998047,20.7998047s9.3125,20.7998047,20.7998047,20.7998047S445,703.2871094,445,691.7998047
		S435.6875,671,424.2001953,671z"/>
</g>
<g>
	<path fill="none" stroke="#000000" stroke-width="2" d="M440.171875,144c-45.7197266-39.7451172-45.6650391-45-53-45
		c-5.3828125,0-7.1699219,3.8061523-22.0947266,21.2900391C362.609375,123.1875,355.671875,123.0625,352.828125,123.0625"/>
	<path fill="none" stroke="#000000" stroke-width="5" d="M439.796875,244.4570313c-45.7197266-39.7451172-45.6650391-45-53-45
		c-5.3828125,0-7.1699219,3.8056641-22.0947266,21.2900391c-2.4677734,2.8974609-9.4052734,2.7724609-12.2490234,2.7724609"/>
	<path fill="none" stroke="#000000" stroke-width="7.9998999" d="M439.421875,344.9135742
		c-45.7197266-39.7451172-45.6650391-45-53-45c-5.3828125,0-7.1699219,3.8061523-22.0947266,21.2905273
		c-2.4677734,2.8969727-9.4052734,2.7719727-12.2490234,2.7719727"/>
	<path fill="none" stroke="#000000" stroke-width="11" d="M439.046875,445.375c-45.7197266-39.7451172-45.6650391-45-53-45
		c-5.3828125,0-7.1699219,3.8061523-22.0947266,21.2910156C361.484375,424.5625,354.546875,424.4375,351.703125,424.4375"/>
	<path fill="none" stroke="#000000" stroke-width="14" d="M438.796875,545.5400391c-45.7197266-39.7451172-45.6650391-45-53-45
		c-5.3828125,0-7.1699219,3.8056641-22.0947266,21.2900391c-2.4677734,2.8974609-9.4052734,2.7724609-12.2490234,2.7724609"/>
	<path fill="none" stroke="#000000" stroke-width="16.9998989" d="M438.546875,645.7050781
		c-45.7197266-39.7451172-45.6650391-45-53-45c-5.3828125,0-7.1699219,3.8066406-22.0947266,21.2910156
		c-2.4677734,2.8964844-9.4052734,2.7714844-12.2490234,2.7714844"/>
	<path fill="none" stroke="#000000" stroke-width="20" d="M438.296875,745.875c-45.7197266-39.7451172-45.6650391-45-53-45
		c-5.3828125,0-7.1699219,3.8066406-22.0947266,21.2910156C360.734375,725.0625,353.796875,724.9375,350.953125,724.9375"/>
</g>
<g>
	<path d="M119,501c-6.0751953,0-11-4.9248047-11-11s4.9248047-11,11-11s11,4.9248047,11,11S125.0751953,501,119,501z M119,470.5
		c-10.7695313,0-19.5,8.7304688-19.5,19.5s8.7304688,19.5,19.5,19.5s19.5-8.7304688,19.5-19.5S129.7695313,470.5,119,470.5z"/>
	<path d="M119,601c-6.0751953,0-11-4.9248047-11-11s4.9248047-11,11-11s11,4.9248047,11,11S125.0751953,601,119,601z M119,570.5
		c-10.7695313,0-19.5,8.7304688-19.5,19.5s8.7304688,19.5,19.5,19.5s19.5-8.7304688,19.5-19.5S129.7695313,570.5,119,570.5z"/>
	<path d="M119,701c-6.0751953,0-11-4.9248047-11-11s4.9248047-11,11-11s11,4.9248047,11,11S125.0751953,701,119,701z M119,670.5
		c-10.7695313,0-19.5,8.7304688-19.5,19.5s8.7304688,19.5,19.5,19.5s19.5-8.7304688,19.5-19.5S129.7695313,670.5,119,670.5z"/>
</g>
<g>
	<path d="M119,401.2998047c-6.2958984,0-11.3999023-5.1035156-11.3999023-11.3994141
		C107.6000977,383.6035156,112.7041016,378.5,119,378.5c6.2963867,0,11.3999023,5.1035156,11.3999023,11.4003906
		C130.3999023,396.1962891,125.2963867,401.2998047,119,401.2998047z M119,371
		c-10.4379883,0-18.8999023,8.4619141-18.8999023,18.8999023c0,10.4384766,8.4619141,18.8999023,18.8999023,18.8999023
		c10.4384766,0,18.8999023-8.4614258,18.8999023-18.8999023C137.8999023,379.4619141,129.4384766,371,119,371z"/>
	<path d="M119,300.7646484c-6.5629883,0-11.8833008-5.3203125-11.8833008-11.8833008
		c0-6.5634766,5.3203125-11.8833008,11.8833008-11.8833008s11.8833008,5.3198242,11.8833008,11.8833008
		C130.8833008,295.4443359,125.5629883,300.7646484,119,300.7646484z M119,271.3310547
		c-9.6923828,0-17.5498047,7.8574219-17.5498047,17.550293c0,9.6923828,7.8574219,17.5498047,17.5498047,17.5498047
		c9.6928711,0,17.5498047-7.8574219,17.5498047-17.5498047C136.5498047,279.1884766,128.6928711,271.3310547,119,271.3310547z"/>
	<path d="M119,200.2290039c-6.8300781,0-12.3666992-5.5366211-12.3666992-12.3662109
		c0-6.8305664,5.5366211-12.3671875,12.3666992-12.3671875s12.3666992,5.5366211,12.3666992,12.3671875
		C131.3666992,194.6923828,125.8300781,200.2290039,119,200.2290039z M119,171.6625977
		c-8.9472656,0-16.2001953,7.2529297-16.2001953,16.199707c0,8.9472656,7.2529297,16.2001953,16.2001953,16.2001953
		c8.9467773,0,16.2001953-7.2529297,16.2001953-16.2001953C135.2001953,178.9155273,127.9467773,171.6625977,119,171.6625977z"/>
	<path d="M119,99.6938477c-7.097168,0-12.8500977-5.753418-12.8500977-12.8500977
		c0-7.097168,5.7529297-12.8500977,12.8500977-12.8500977c7.0966797,0,12.8500977,5.7529297,12.8500977,12.8500977
		C131.8500977,93.9404297,126.0966797,99.6938477,119,99.6938477z M119,71.9936523
		c-8.2016602,0-14.8500977,6.6484375-14.8500977,14.8500977c0,8.2011719,6.6484375,14.8500977,14.8500977,14.8500977
		c8.2011719,0,14.8500977-6.6489258,14.8500977-14.8500977C133.8500977,78.6420898,127.2011719,71.9936523,119,71.9936523z"/>
</g>
<path d="M226.1000977,401.2998047c-6.2958984,0-11.3999023-5.1035156-11.3999023-11.3994141
	c0-6.296875,5.1040039-11.4003906,11.3999023-11.4003906C232.3964844,378.5,237.5,383.6035156,237.5,389.9003906
	C237.5,396.1962891,232.3964844,401.2998047,226.1000977,401.2998047z M226.1000977,371
	c-10.4379883,0-18.8999023,8.4619141-18.8999023,18.8999023c0,10.4384766,8.4619141,18.8999023,18.8999023,18.8999023
	c10.4384766,0,18.8999023-8.4614258,18.8999023-18.8999023C245,379.4619141,236.5385742,371,226.1000977,371z"/>
<path d="M226.6665039,300.4301758c-6.5629883,0-11.8833008-5.3203125-11.8833008-11.8833008
	c0-6.5634766,5.3203125-11.8833008,11.8833008-11.8833008s11.8833008,5.3198242,11.8833008,11.8833008
	C238.5498047,295.1098633,233.2294922,300.4301758,226.6665039,300.4301758z M226.6665039,270.996582
	c-9.6923828,0-17.5498047,7.8574219-17.5498047,17.550293c0,9.6923828,7.8574219,17.5498047,17.5498047,17.5498047
	c9.6928711,0,17.5498047-7.8574219,17.5498047-17.5498047C244.2163086,278.8540039,236.359375,270.996582,226.6665039,270.996582z"
	/>
<path d="M227.3330078,199.5664063c-6.8300781,0-12.3666992-5.5366211-12.3666992-12.3662109
	c0-6.8305664,5.5366211-12.3671875,12.3666992-12.3671875s12.3666992,5.5366211,12.3666992,12.3671875
	C239.699707,194.0297852,234.1630859,199.5664063,227.3330078,199.5664063z M227.3330078,171
	c-8.9472656,0-16.2001953,7.2529297-16.2001953,16.199707c0,8.9472656,7.2529297,16.2001953,16.2001953,16.2001953
	c8.9467773,0,16.2001953-7.2529297,16.2001953-16.2001953C243.5332031,178.2529297,236.2797852,171,227.3330078,171z"/>
<path d="M228,98.7001953c-7.097168,0-12.8500977-5.753418-12.8500977-12.8500977C215.1499023,78.7529297,220.902832,73,228,73
	c7.0966797,0,12.8500977,5.7529297,12.8500977,12.8500977C240.8500977,92.9467773,235.0966797,98.7001953,228,98.7001953z M228,71
	c-8.2016602,0-14.8500977,6.6484375-14.8500977,14.8500977c0,8.2011719,6.6484375,14.8500977,14.8500977,14.8500977
	c8.2011719,0,14.8500977-6.6489258,14.8500977-14.8500977C242.8500977,77.6484375,236.2011719,71,228,71z"/>
<g>
	<path d="M326.0996094,401.2998047c-6.2958984,0-11.4003906-5.1035156-11.4003906-11.3994141
		c0-6.296875,5.1044922-11.4003906,11.4003906-11.4003906c6.296875,0,11.4003906,5.1035156,11.4003906,11.4003906
		C337.5,396.1962891,332.3964844,401.2998047,326.0996094,401.2998047z M326.0996094,371
		c-10.4375,0-18.9003906,8.4619141-18.9003906,18.8999023c0,10.4384766,8.4628906,18.8999023,18.9003906,18.8999023
		c10.4384766,0,18.9003906-8.4614258,18.9003906-18.8999023C345,379.4619141,336.5380859,371,326.0996094,371z"/>
	<path d="M327.4492188,300.4345703c-6.5625,0-11.8828125-5.3203125-11.8828125-11.8833008
		c0-6.5639648,5.3203125-11.8837891,11.8828125-11.8837891c6.5644531,0,11.8837891,5.3198242,11.8837891,11.8837891
		C339.3330078,295.1142578,334.0136719,300.4345703,327.4492188,300.4345703z M327.4492188,271.0009766
		c-9.6914063,0-17.5498047,7.8574219-17.5498047,17.5498047c0,9.6928711,7.8583984,17.550293,17.5498047,17.550293
		c9.6933594,0,17.5507813-7.8574219,17.5507813-17.550293C345,278.8583984,337.1425781,271.0009766,327.4492188,271.0009766z"/>
	<path d="M328.7998047,199.5693359c-6.8300781,0-12.3662109-5.5371094-12.3662109-12.3671875
		s5.5361328-12.3662109,12.3662109-12.3662109c6.8310547,0,12.3662109,5.5361328,12.3662109,12.3662109
		S335.6308594,199.5693359,328.7998047,199.5693359z M328.7998047,171.0019531
		c-8.9462891,0-16.1992188,7.2529297-16.1992188,16.2001953s7.2529297,16.2001953,16.1992188,16.2001953
		c8.9472656,0,16.2001953-7.2529297,16.2001953-16.2001953S337.7470703,171.0019531,328.7998047,171.0019531z"/>
	<path d="M330.1503906,98.7036133c-7.0976563,0-12.8496094-5.753418-12.8496094-12.8500977
		c0-7.097168,5.7519531-12.8500977,12.8496094-12.8500977C337.2470703,73.003418,343,78.7563477,343,85.8535156
		C343,92.9501953,337.2470703,98.7036133,330.1503906,98.7036133z M330.1503906,71.003418
		c-8.2011719,0-14.8496094,6.6484375-14.8496094,14.8500977c0,8.2011719,6.6484375,14.8500977,14.8496094,14.8500977
		S345,94.0546875,345,85.8535156C345,77.6518555,338.3515625,71.003418,330.1503906,71.003418z"/>
</g>
<path d="M526.0996094,401.2998047c-6.2958984,0-11.4003906-5.1035156-11.4003906-11.3994141
	c0-6.296875,5.1044922-11.4003906,11.4003906-11.4003906c6.296875,0,11.4003906,5.1035156,11.4003906,11.4003906
	C537.5,396.1962891,532.3964844,401.2998047,526.0996094,401.2998047z M526.0996094,371
	c-10.4375,0-18.9003906,8.4619141-18.9003906,18.8999023c0,10.4384766,8.4628906,18.8999023,18.9003906,18.8999023
	c10.4384766,0,18.9003906-8.4614258,18.9003906-18.8999023C545,379.4619141,536.5380859,371,526.0996094,371z"/>
<path d="M527.4501953,300.4345703c-6.5634766,0-11.8837891-5.3203125-11.8837891-11.8833008
	c0-6.5634766,5.3203125-11.8833008,11.8837891-11.8833008s11.8828125,5.3198242,11.8828125,11.8833008
	C539.3330078,295.1142578,534.0136719,300.4345703,527.4501953,300.4345703z M527.4501953,271.0009766
	c-9.6923828,0-17.5507813,7.8574219-17.5507813,17.550293c0,9.6923828,7.8583984,17.5498047,17.5507813,17.5498047
	S545,298.2436523,545,288.5512695C545,278.8583984,537.1425781,271.0009766,527.4501953,271.0009766z"/>
<path d="M528.7998047,199.5688477c-6.8300781,0-12.3662109-5.5366211-12.3662109-12.3662109
	c0-6.8305664,5.5361328-12.3671875,12.3662109-12.3671875s12.3671875,5.5366211,12.3671875,12.3671875
	C541.1669922,194.0322266,535.6298828,199.5688477,528.7998047,199.5688477z M528.7998047,171.0024414
	c-8.9462891,0-16.1992188,7.2529297-16.1992188,16.199707c0,8.9472656,7.2529297,16.2001953,16.1992188,16.2001953
	c8.9472656,0,16.2001953-7.2529297,16.2001953-16.2001953C545,178.2553711,537.7470703,171.0024414,528.7998047,171.0024414z"/>
<path d="M530.1503906,99.8500977c-7.0976563,0-12.8496094-5.753418-12.8496094-12.8500977
	c0-7.097168,5.7519531-12.8500977,12.8496094-12.8500977C537.2470703,74.1499023,543,79.902832,543,87
	C543,94.0966797,537.2470703,99.8500977,530.1503906,99.8500977z M530.1503906,72.1499023
	c-8.2011719,0-14.8496094,6.6484375-14.8496094,14.8500977c0,8.2011719,6.6484375,14.8500977,14.8496094,14.8500977
	S545,95.2011719,545,87C545,78.7983398,538.3515625,72.1499023,530.1503906,72.1499023z"/>
<path fill="none" d="M325.25,389.3999023"/>
<path fill="none" d="M325.25,86.84375"/>
<g>
	<path d="M424,403.2504883c-6.765625,0-12.25-5.484375-12.25-12.25s5.484375-12.25,12.25-12.25s12.25,5.484375,12.25,12.25
		S430.765625,403.2504883,424,403.2504883z M424,370.75c-11.1835938,0-20.25,9.0664063-20.25,20.25
		s9.0664063,20.2504883,20.25,20.2504883S444.25,402.1835938,444.25,391S435.1835938,370.75,424,370.75z"/>
	<path d="M423,304.8417969c-7,0-12.6757813-5.6748047-12.6757813-12.6748047c0-7.0004883,5.6757813-12.675293,12.6757813-12.675293
		s12.6748047,5.6748047,12.6748047,12.675293C435.6748047,299.1669922,430,304.8417969,423,304.8417969z M423,273.4912109
		c-10.3144531,0-18.6757813,8.3613281-18.6757813,18.675293c0,10.3134766,8.3613281,18.675293,18.6757813,18.675293
		c10.3134766,0,18.6738281-8.3618164,18.6738281-18.675293C441.6738281,281.8525391,433.3134766,273.4912109,423,273.4912109z"/>
	<path d="M422,206.4335938c-7.234375,0-13.0996094-5.8652344-13.0996094-13.0996094
		c0-7.2353516,5.8652344-13.1005859,13.0996094-13.1005859s13.0996094,5.8652344,13.0996094,13.1005859
		C435.0996094,200.5683594,429.234375,206.4335938,422,206.4335938z M422,176.2333984
		c-9.4433594,0-17.1005859,7.65625-17.1005859,17.1000977S412.5566406,210.4335938,422,210.4335938
		c9.4443359,0,17.0996094-7.65625,17.0996094-17.1000977S431.4443359,176.2333984,422,176.2333984z"/>
	<path d="M421,108.0249023c-7.4697266,0-13.5253906-6.0551758-13.5253906-13.5249023
		c0-7.4692383,6.0556641-13.5249023,13.5253906-13.5249023c7.46875,0,13.5244141,6.0556641,13.5244141,13.5249023
		C434.5244141,101.9697266,428.46875,108.0249023,421,108.0249023z M421,78.9750977
		c-8.5742188,0-15.5253906,6.9506836-15.5253906,15.5249023S412.4257813,110.0249023,421,110.0249023
		S436.5244141,103.0742188,436.5244141,94.5S429.5742188,78.9750977,421,78.9750977z"/>
</g>
</svg>
