<?xml version="1.0" encoding="utf-8"?>
<!-- Generator: Adobe Illustrator 16.0.3, SVG Export Plug-In . SVG Version: 6.00 Build 0)  -->
<!DOCTYPE svg PUBLIC "-//W3C//DTD SVG 1.0//EN" "http://www.w3.org/TR/2001/REC-SVG-20010904/DTD/svg10.dtd">
<svg version="1.0" id="レイヤー1" xmlns="http://www.w3.org/2000/svg" xmlns:xlink="http://www.w3.org/1999/xlink" x="0px"
	 y="0px" width="841.8896484px" height="595.2753906px" viewBox="0 0 841.8896484 595.2753906"
	 enable-background="new 0 0 841.8896484 595.2753906" xml:space="preserve">
<g>
	<rect x="71.5" y="-226.5" fill="none" stroke="#000000" stroke-width="0.25" width="100" height="150"/>
	<rect x="171.5" y="-226.5" fill="none" stroke="#000000" stroke-width="0.25" width="100" height="150"/>
	<rect x="271.5" y="-226.5" fill="none" stroke="#000000" stroke-width="0.25" width="100" height="150"/>
	<rect x="371.5" y="-226.5" fill="none" stroke="#000000" stroke-width="0.25" width="100" height="150"/>
	<rect x="471.5" y="-226.5" fill="none" stroke="#000000" stroke-width="0.25" width="100" height="150"/>
	<rect x="571.5" y="-226.5" fill="none" stroke="#000000" stroke-width="0.25" width="100" height="150"/>
	<rect x="671.5" y="-226.5" fill="none" stroke="#000000" stroke-width="0.25" width="100" height="150"/>
	<rect x="71.5" y="-76.5" fill="none" stroke="#000000" stroke-width="0.25" width="100" height="150"/>
	<rect x="171.5" y="-76.5" fill="none" stroke="#000000" stroke-width="0.25" width="100" height="150"/>
	<rect x="271.5" y="-76.5" fill="none" stroke="#000000" stroke-width="0.25" width="100" height="150"/>
	<rect x="371.5" y="-76.5" fill="none" stroke="#000000" stroke-width="0.25" width="100" height="150"/>
	<rect x="471.5" y="-76.5" fill="none" stroke="#000000" stroke-width="0.25" width="100" height="150"/>
	<rect x="571.5" y="-76.5" fill="none" stroke="#000000" stroke-width="0.25" width="100" height="150"/>
	<rect x="671.5" y="-76.5" fill="none" stroke="#000000" stroke-width="0.25" width="100" height="150"/>
	<rect x="71.5" y="73.5" fill="none" stroke="#000000" stroke-width="0.25" width="100" height="150"/>
	<rect x="171.5" y="73.5" fill="none" stroke="#000000" stroke-width="0.25" width="100" height="150"/>
	<rect x="271.5" y="73.5" fill="none" stroke="#000000" stroke-width="0.25" width="100" height="150"/>
	<rect x="371.5" y="73.5" fill="none" stroke="#000000" stroke-width="0.25" width="100" height="150"/>
	<rect x="471.5" y="73.5" fill="none" stroke="#000000" stroke-width="0.25" width="100" height="150"/>
	<rect x="571.5" y="73.5" fill="none" stroke="#000000" stroke-width="0.25" width="100" height="150"/>
	<rect x="671.5" y="73.5" fill="none" stroke="#000000" stroke-width="0.25" width="100" height="150"/>
	<rect x="71.5" y="223.5" fill="none" stroke="#000000" stroke-width="0.25" width="100" height="150"/>
	<rect x="171.5" y="223.5" fill="none" stroke="#000000" stroke-width="0.25" width="100" height="150"/>
	<rect x="271.5" y="223.5" fill="none" stroke="#000000" stroke-width="0.25" width="100" height="150"/>
	<rect x="371.5" y="223.5" fill="none" stroke="#000000" stroke-width="0.25" width="100" height="150"/>
	<rect x="471.5" y="223.5" fill="none" stroke="#000000" stroke-width="0.25" width="100" height="150"/>
	<rect x="571.5" y="223.5" fill="none" stroke="#000000" stroke-width="0.25" width="100" height="150"/>
	<rect x="671.5" y="223.5" fill="none" stroke="#000000" stroke-width="0.25" width="100" height="150"/>
	<rect x="71.5" y="373.5" fill="none" stroke="#000000" stroke-width="0.25" width="100" height="150"/>
	<rect x="171.5" y="373.5" fill="none" stroke="#000000" stroke-width="0.25" width="100" height="150"/>
	<rect x="271.5" y="373.5" fill="none" stroke="#000000" stroke-width="0.25" width="100" height="150"/>
	<rect x="371.5" y="373.5" fill="none" stroke="#000000" stroke-width="0.25" width="100" height="150"/>
	<rect x="471.5" y="373.5" fill="none" stroke="#000000" stroke-width="0.25" width="100" height="150"/>
	<rect x="571.5" y="373.5" fill="none" stroke="#000000" stroke-width="0.25" width="100" height="150"/>
	<rect x="671.5" y="373.5" fill="none" stroke="#000000" stroke-width="0.25" width="100" height="150"/>
	<rect x="71.5" y="523.5" fill="none" stroke="#000000" stroke-width="0.25" width="100" height="150"/>
	<rect x="171.5" y="523.5" fill="none" stroke="#000000" stroke-width="0.25" width="100" height="150"/>
	<rect x="271.5" y="523.5" fill="none" stroke="#000000" stroke-width="0.25" width="100" height="150"/>
	<rect x="371.5" y="523.5" fill="none" stroke="#000000" stroke-width="0.25" width="100" height="150"/>
	<rect x="471.5" y="523.5" fill="none" stroke="#000000" stroke-width="0.25" width="100" height="150"/>
	<rect x="571.5" y="523.5" fill="none" stroke="#000000" stroke-width="0.25" width="100" height="150"/>
	<rect x="671.5" y="523.5" fill="none" stroke="#000000" stroke-width="0.25" width="100" height="150"/>
	<rect x="71.5" y="673.5" fill="none" stroke="#000000" stroke-width="0.25" width="100" height="150"/>
	<rect x="171.5" y="673.5" fill="none" stroke="#000000" stroke-width="0.25" width="100" height="150"/>
	<rect x="271.5" y="673.5" fill="none" stroke="#000000" stroke-width="0.25" width="100" height="150"/>
	<rect x="371.5" y="673.5" fill="none" stroke="#000000" stroke-width="0.25" width="100" height="150"/>
	<rect x="471.5" y="673.5" fill="none" stroke="#000000" stroke-width="0.25" width="100" height="150"/>
	<rect x="571.5" y="673.5" fill="none" stroke="#000000" stroke-width="0.25" width="100" height="150"/>
	<rect x="671.5" y="673.5" fill="none" stroke="#000000" stroke-width="0.25" width="100" height="150"/>
	<rect x="771.5" y="-226.5" fill="none" stroke="#000000" stroke-width="0.25" width="100" height="150"/>
	<rect x="771.5" y="-76.5" fill="none" stroke="#000000" stroke-width="0.25" width="100" height="150"/>
	<rect x="771.5" y="73.5" fill="none" stroke="#000000" stroke-width="0.25" width="100" height="150"/>
	<rect x="771.5" y="223.5" fill="none" stroke="#000000" stroke-width="0.25" width="100" height="150"/>
	<rect x="771.5" y="373.5" fill="none" stroke="#000000" stroke-width="0.25" width="100" height="150"/>
	<rect x="771.5" y="523.5" fill="none" stroke="#000000" stroke-width="0.25" width="100" height="150"/>
	<rect x="771.5" y="673.5" fill="none" stroke="#000000" stroke-width="0.25" width="100" height="150"/>
</g>
<g>
	<path d="M821.5,707.5c-22.7519531,0-37.5,14.2255859-37.5,37.5s14.7480469,37.5,37.5,37.5V766c-10.9453125,0-17-6.671875-17-21
		s6.0546875-21,17-21s17,6.671875,17,21s-6.0546875,21-17,21v16.5c22.7519531,0,37.5-14.2255859,37.5-37.5
		S844.2519531,707.5,821.5,707.5z"/>
	<path d="M821.5,557.5c-22.4492188,0-37,14.3662109-37,37.5s14.5507813,37.5,37,37.5v-14
		c-12.2441406,0-19.6005859-8.0214844-19.6005859-23.5c0-15.4794922,7.3564453-23.5,19.6005859-23.5
		s19.5996094,8.0205078,19.5996094,23.5c0,15.4785156-7.3554688,23.5-19.5996094,23.5v14c22.4492188,0,37-14.3662109,37-37.5
		S843.9492188,557.5,821.5,557.5z"/>
	<path d="M821.5,407.5c-22.1464844,0-36.5,14.5068359-36.5,37.5s14.3535156,37.5,36.5,37.5V471
		c-13.5429688,0-22.2001953-9.3701172-22.2001953-26S807.9570313,419,821.5,419s22.2001953,9.3701172,22.2001953,26
		S835.0429688,471,821.5,471v11.5c22.1464844,0,36.5-14.5068359,36.5-37.5S843.6464844,407.5,821.5,407.5z"/>
	<path d="M821.5,257.5c-21.84375,0-36,14.6474609-36,37.5s14.15625,37.5,36,37.5v-9
		c-14.8417969,0-24.7998047-10.7197266-24.7998047-28.5S806.6582031,266.5,821.5,266.5s24.7998047,10.7197266,24.7998047,28.5
		S836.3417969,323.5,821.5,323.5v9c21.84375,0,36-14.6474609,36-37.5S843.34375,257.5,821.5,257.5z"/>
	<path d="M821.5,175.8330078c-16.4736328,0-27.5332031-11.9018555-27.5332031-30.8330078
		c0-18.9316406,11.0595703-30.8334961,27.5332031-30.8334961S849.0332031,126.0683594,849.0332031,145
		C849.0332031,163.9311523,837.9736328,175.8330078,821.5,175.8330078V182.5c21.5410156,0,35.6669922-14.7885742,35.6669922-37.5
		c0-22.7119141-14.1259766-37.5-35.6669922-37.5s-35.6669922,14.7880859-35.6669922,37.5
		c0,22.7114258,14.1259766,37.5,35.6669922,37.5V175.8330078z"/>
	<path d="M821.5,28.1669922c-18.1064453,0-30.2666016-13.0844727-30.2666016-33.1669922
		c0-20.0820313,12.1601563-33.1665039,30.2666016-33.1665039S851.7666016-25.0820313,851.7666016-5
		C851.7666016,15.0825195,839.6064453,28.1669922,821.5,28.1669922V32.5c21.2373047,0,35.3330078-14.9291992,35.3330078-37.5
		S842.7373047-42.5,821.5-42.5S786.1669922-27.5708008,786.1669922-5S800.2626953,32.5,821.5,32.5V28.1669922z"/>
	<path d="M821.5-119.5c-19.7382813,0-33-14.2666016-33-35.5s13.2617188-35.5,33-35.5s33,14.2666016,33,35.5
		S841.2382813-119.5,821.5-119.5v2c20.9345703,0,35-15.0703125,35-37.5s-14.0654297-37.5-35-37.5s-35,15.0703125-35,37.5
		s14.0654297,37.5,35,37.5V-119.5z"/>
</g>
<g>
	<polygon points="520,708.5 499.5,708.5 499.5,781.5 549.5,781.5 549.5,765 520,765 	"/>
	<polygon points="517.8330078,558.5 500.3330078,558.5 500.3330078,631.5 548.6660156,631.5 548.6660156,617.4326172 
		517.8330078,617.4326172 	"/>
	<polygon points="515.6669922,408.5 501.1669922,408.5 501.1669922,481.5 547.8330078,481.5 547.8330078,469.8662109 
		515.6669922,469.8662109 	"/>
	<polygon points="513.5,258.5 502,258.5 502,331.5 547,331.5 547,322.2998047 513.5,322.2998047 	"/>
	<polygon points="510.5,108.4995117 502.1669922,108.4995117 502.1669922,181.4995117 546.1669922,181.4995117 
		546.1669922,174.699707 510.5,174.699707 	"/>
	<polygon points="507.5,-41.5 502.3330078,-41.5 502.3330078,31.5 545.3330078,31.5 545.3330078,27.1000977 507.5,27.1000977 	"/>
	<polygon points="504.5,-191.5 502.5,-191.5 502.5,-118.5 544.5,-118.5 544.5,-120.5 504.5,-120.5 	"/>
</g>
<g>
	<polygon points="132,751.5 132,781.5 152,781.5 152,708.5 132,708.5 132,736.5 111,736.5 111,708.5 91,708.5 91,781.5 111,781.5 
		111,751.5 	"/>
	<polygon points="134.1660156,599.9667969 134.1660156,631.5 151.1665039,631.5 151.1665039,558.5 134.1660156,558.5 
		134.1660156,587.0996094 108.8330078,587.0996094 108.8330078,558.5 91.8330078,558.5 91.8330078,631.5 108.8330078,631.5 
		108.8330078,599.9667969 	"/>
	<polygon points="136.3334961,448.4335938 136.3334961,481.5 150.3334961,481.5 150.3334961,408.5 136.3334961,408.5 
		136.3334961,437.7001953 106.6665039,437.7001953 106.6665039,408.5 92.6669922,408.5 92.6669922,481.5 106.6665039,481.5 
		106.6665039,448.4335938 	"/>
	<polygon points="104.5,258.5 93.5,258.5 93.5,331.5 104.5,331.5 104.5,296.9003906 138.5,296.9003906 138.5,331.5 149.5,331.5 
		149.5,258.5 138.5,258.5 138.5,288.2998047 104.5,288.2998047 	"/>
	<polygon points="102.5,108.4995117 94.4995117,108.4995117 94.4995117,181.4995117 102.5,181.4995117 102.5,145.4331055 
		140.4995117,145.4331055 140.4995117,181.4995117 148.5,181.4995117 148.5,108.4995117 140.4995117,108.4995117 
		140.4995117,139.0332031 102.5,139.0332031 	"/>
	<polygon points="100.5,-41.5 95.5,-41.5 95.5,31.5 100.5,31.5 100.5,-6.0332031 142.5,-6.0332031 142.5,31.5 147.5,31.5 
		147.5,-41.5 142.5,-41.5 142.5,-10.2333984 100.5,-10.2333984 	"/>
	<polygon points="144.5,-191.5 144.5,-159.5 98.5,-159.5 98.5,-191.5 96.5,-191.5 96.5,-118.5 98.5,-118.5 98.5,-157.5 
		144.5,-157.5 144.5,-118.5 146.5,-118.5 146.5,-191.5 	"/>
</g>
<g>
	<polygon points="732.2998047,748.5 710.5,708.5 691,708.5 691,781.5 710.5,781.5 710.5,741.5 710.7001953,741.5 732.5,781.5 
		752,781.5 752,708.5 732.5,708.5 732.5,748.5 	"/>
	<polygon points="691.8330078,631.5 708.4335938,631.5 708.4335938,586.6660156 708.6328125,586.6660156 734.5664063,631.5 
		751.1660156,631.5 751.1660156,558.5 734.5664063,558.5 734.5664063,603.3330078 734.3662109,603.3330078 708.4335938,558.5 
		691.8330078,558.5 	"/>
	<polygon points="692.6669922,481.5 706.3662109,481.5 706.3662109,431.8330078 706.5664063,431.8330078 736.6337891,481.5 
		750.3330078,481.5 750.3330078,408.5 736.6337891,408.5 736.6337891,458.1669922 736.4335938,458.1669922 706.3662109,408.5 
		692.6669922,408.5 	"/>
	<polygon points="693.5,331.5 704.2998047,331.5 704.2998047,277 704.5,277 738.7001953,331.5 749.5,331.5 749.5,258.5 
		738.7001953,258.5 738.7001953,313 738.5,313 704.2998047,258.5 693.5,258.5 	"/>
	<polygon points="694.3330078,181.4995117 702.1992188,181.4995117 702.1992188,121.5463867 702.4003906,121.5463867 
		740.3994141,181.4995117 748.6669922,181.4995117 748.6669922,108.4995117 740.7998047,108.4995117 740.7998047,168.453125 
		740.5996094,168.453125 702.5996094,108.4995117 694.3330078,108.4995117 	"/>
	<polygon points="695.1669922,31.5 700.0996094,31.5 700.0996094,-33.90625 700.2998047,-33.90625 742.0996094,31.5 
		747.8330078,31.5 747.8330078,-41.5 742.9003906,-41.5 742.9003906,23.9067383 742.7001953,23.9067383 700.9003906,-41.5 
		695.1669922,-41.5 	"/>
	<polygon points="745,-120.6401367 744.7998047,-120.6401367 699.2001953,-191.5 696,-191.5 696,-118.5 698,-118.5 
		698,-189.3598633 698.2001953,-189.3598633 743.7998047,-118.5 747,-118.5 747,-191.5 745,-191.5 	"/>
</g>
<g>
	<polygon points="640.2998047,741.5 640.2998047,781.5 659.5,781.5 659.5,708.5 638.2998047,708.5 621.4003906,751.5 
		621.2001953,751.5 604.2998047,708.5 583.5,708.5 583.5,781.5 602.2998047,781.5 602.2998047,741.5 602.5,741.5 612.2998047,766.5 
		630.2998047,766.5 640.0996094,741.5 	"/>
	<polygon points="642.0332031,586.8330078 642.0332031,631.5 658.5,631.5 658.5,558.5 640.6992188,558.5 621.4003906,601.5 
		621.2001953,601.5 601.8994141,558.5 584.5,558.5 584.5,631.5 600.5664063,631.5 600.5664063,586.8330078 600.7666016,586.8330078 
		613.6328125,614.8330078 628.9667969,614.8330078 641.8330078,586.8330078 	"/>
	<polygon points="643.7666016,432.1669922 643.7666016,481.5 657.5,481.5 657.5,408.5 643.0996094,408.5 621.4003906,451.5 
		621.2001953,451.5 599.5,408.5 585.5,408.5 585.5,481.5 598.8330078,481.5 598.8330078,432.1669922 599.0332031,432.1669922 
		614.9667969,463.1669922 627.6328125,463.1669922 643.5664063,432.1669922 	"/>
	<polygon points="586.5,331.5 597.0996094,331.5 597.0996094,277.5 597.2998047,277.5 616.2998047,311.5 626.2998047,311.5 
		645.2998047,277.5 645.5,277.5 645.5,331.5 656.5,331.5 656.5,258.5 645.5,258.5 621.4003906,301.5 621.2001953,301.5 
		597.0996094,258.5 586.5,258.5 	"/>
	<polygon points="587.1660156,181.4995117 594.8994141,181.4995117 594.8994141,121.8793945 595.0996094,121.8793945 
		617.6328125,159.8330078 625.0996094,159.8330078 647.6328125,121.8793945 647.8330078,121.8793945 647.8330078,181.4995117 
		655.8330078,181.4995117 655.8330078,108.4995117 647.4326172,108.4995117 621.4667969,152.5126953 621.2666016,152.5126953 
		595.2998047,108.4995117 587.1660156,108.4995117 	"/>
	<polygon points="587.8330078,31.5 592.7001953,31.5 592.7001953,-33.7397461 592.9003906,-33.7397461 618.9667969,8.1669922 
		623.9003906,8.1669922 649.9667969,-33.7397461 650.1669922,-33.7397461 650.1669922,31.5 655.1669922,31.5 655.1669922,-41.5 
		649.3662109,-41.5 621.5341797,3.5268555 621.3339844,3.5268555 593.5,-41.5 587.8330078,-41.5 	"/>
	<polygon points="652.5,-118.5 654.5,-118.5 654.5,-191.5 651.2998047,-191.5 621.6005859,-145.4599609 621.4003906,-145.4599609 
		591.7001953,-191.5 588.5,-191.5 588.5,-118.5 590.5,-118.5 590.5,-189.3598633 590.7001953,-189.3598633 620.2998047,-143.5 
		622.7001953,-143.5 652.2998047,-189.3598633 652.5,-189.3598633 	"/>
</g>
<g>
	<polygon points="413,739.5 413,708.5 393,708.5 393,781.5 413,781.5 413,747.5 413.2001953,747.5 433,781.5 456,781.5 432,743.5 
		455,708.5 432,708.5 413.2001953,739.5 	"/>
	<polygon points="411.3330078,558.5 394.3330078,558.5 394.3330078,631.5 411.3330078,631.5 411.3330078,597.1660156 
		411.5332031,597.1660156 434.6669922,631.5 454.3330078,631.5 427.3330078,593.5 453.3330078,558.5 433.6660156,558.5 
		411.5332031,589.8330078 411.3330078,589.8330078 	"/>
	<polygon points="409.6665039,408.5 395.6665039,408.5 395.6665039,481.5 409.6665039,481.5 409.6665039,446.8330078 
		409.8666992,446.8330078 436.3330078,481.5 452.6669922,481.5 422.6669922,443.5 451.6669922,408.5 435.3330078,408.5 
		409.8666992,440.1669922 409.6665039,440.1669922 	"/>
	<polygon points="408,258.5 397,258.5 397,331.5 408,331.5 408,296.5 408.2001953,296.5 438,331.5 451,331.5 418,293.5 450,258.5 
		437,258.5 408.2001953,290.5 408,290.5 	"/>
	<polygon points="406.4995117,108.4995117 398.5,108.4995117 398.5,181.4995117 406.4995117,181.4995117 406.4995117,145.949707 
		406.7001953,145.949707 440.1660156,181.4995117 449.8330078,181.4995117 413.6665039,143.5 448.8330078,108.4995117 
		439.1328125,108.4995117 406.7001953,141.0498047 406.4995117,141.0498047 	"/>
	<polygon points="405,-41.5 400,-41.5 400,31.5 405,31.5 405,-4.5996094 405.2001953,-4.5996094 442.3330078,31.5 448.6669922,31.5 
		409.3334961,-6.5 447.6669922,-41.5 441.2666016,-41.5 405.2001953,-8.3999023 405,-8.3999023 	"/>
	<polygon points="403.7001953,-155.1499023 444.5,-118.5 447.5,-118.5 405,-156.5 446.5,-191.5 443.4003906,-191.5 
		403.7001953,-157.8500977 403.5,-157.8500977 403.5,-191.5 401.5,-191.5 401.5,-118.5 403.5,-118.5 403.5,-155.1499023 	"/>
</g>
<g>
	<path d="M294.5-120.5c4.7128906,2.1044922,9.2089844,3,15,3c15.5175781,0,25-9.6274414,25-29v-45h-2v45
		c0,17.6635742-7.953125,27-23,27c-5.5058594,0-9.7480469-0.8452148-14.1845703-2.8261719L294.5-120.5z"/>
	<path d="M335.4995117-41.5004883V4.1665039c0,19.4165039-9.2504883,28.3334961-26,28.3334961
		c-5.7524414,0-10.605957-1.0722656-15.3330078-3.3334961l1.3764648-4.2841797
		c4.7949219,2.3154297,9.0341797,3.2841797,13.956543,3.2841797c13.5839844,0,20.8334961-8.1015625,20.8334961-24.6665039
		v-45.0004883H335.4995117z"/>
	<path d="M336.5,108.5v46.3334961c0,19.4604492-9.0195313,27.6665039-27,27.6665039
		c-5.7133789,0-10.9248047-1.2490234-15.6665039-3.6665039l1.9384766-6.7426758
		c5.1518555,2.6503906,9.3891602,3.7426758,13.7280273,3.7426758c12.1206055,0,18.6669922-6.8676758,18.6669922-22.3334961v-45
		H336.5z"/>
	<path d="M296,319.2998047c5.5097656,2.984375,9.7441406,4.2001953,13.5,4.2001953c10.6572266,0,16.5-5.6328125,16.5-20v-45h11.5v47
		c0,19.5048828-8.7880859,27-28,27c-5.6748047,0-11.2441406-1.4257813-16-4L296,319.2998047z"/>
	<path d="M339.1660156,408.5v45c0,21.2646484-8.7275391,29-28.9995117,29c-6.3798828,0-12.5825195-1.5742188-18-4.5
		l2.8330078-11.4667969c5.7949219,3.1875,10.7617188,4.6337891,14.8334961,4.6337891
		c10.0283203,0,14.8334961-4.7441406,14.8334961-19.6669922v-43H339.1660156z"/>
	<path d="M340.8334961,558.5v43c0,23.0253906-8.6674805,31-30,31c-7.0849609,0-13.9208984-1.7226563-20-5L294,613.7666016
		c6.0795898,3.3916016,11.7792969,5.0664063,16.1665039,5.0664063c9.3999023,0,13.1669922-3.8535156,13.1669922-19.3330078v-41
		H340.8334961z"/>
	<path d="M322,708.5v39c0,16.0361328-2.7294922,19-11.5,19c-4.703125,0-11.1357422-1.9052734-17.5-5.5l-3.5,16
		c6.7412109,3.6289063,14.2099609,5.5,22,5.5c22.3925781,0,31-8.2138672,31-33v-41H322z"/>
</g>
<g>
	<rect x="211.5" y="708.5" width="20" height="73"/>
	<rect x="213.0664063" y="558.5" width="16.8666992" height="73"/>
	<rect x="214.6337891" y="408.5" width="13.7329102" height="73"/>
	<rect x="216.2001953" y="258.5" width="10.5996094" height="73"/>
	<rect x="217.6333008" y="108.5" width="7.7329102" height="72.9995117"/>
	<rect x="219.0664063" y="-41.5" width="4.8671875" height="73"/>
	<rect x="220.5" y="-191.5" width="2" height="73"/>
</g>
<g>
	<rect x="209" y="-191.5" width="25" height="2"/>
	<rect x="208.0830078" y="-41.5" width="26.8330078" height="4.2333984"/>
	<rect x="207.1665039" y="108.5" width="28.6665039" height="6.4667969"/>
	<rect x="206.25" y="258.5" width="30.5" height="8.7001953"/>
	<rect x="204.3330078" y="408.5" width="34.3334961" height="10.7998047"/>
	<rect x="202.4169922" y="558.5" width="38.1665039" height="12.9003906"/>
	<rect x="200.5" y="708.5" width="42" height="15"/>
</g>
<g>
	<rect x="209" y="-120.5" width="25" height="2"/>
	<rect x="208.0830078" y="27.2695313" width="26.8330078" height="4.2329102"/>
	<rect x="207.1665039" y="175.0400391" width="28.6665039" height="6.4658203"/>
	<rect x="206.25" y="322.8095703" width="30.5" height="8.6992188"/>
	<rect x="204.3330078" y="470.7060547" width="34.3334961" height="10.7998047"/>
	<rect x="202.4169922" y="618.6035156" width="38.1665039" height="12.8994141"/>
	<rect x="200.5" y="766.5" width="42" height="15"/>
</g>
</svg>
