<?xml version="1.0" encoding="utf-8"?>
<!-- Generator: Adobe Illustrator 16.0.3, SVG Export Plug-In . SVG Version: 6.00 Build 0)  -->
<!DOCTYPE svg PUBLIC "-//W3C//DTD SVG 1.0//EN" "http://www.w3.org/TR/2001/REC-SVG-20010904/DTD/svg10.dtd">
<svg version="1.0" id="レイヤー1" xmlns="http://www.w3.org/2000/svg" xmlns:xlink="http://www.w3.org/1999/xlink" x="0px"
	 y="0px" width="841.8896484px" height="595.2753906px" viewBox="0 0 841.8896484 595.2753906"
	 enable-background="new 0 0 841.8896484 595.2753906" xml:space="preserve">
<g>
	<rect x="71.5" y="-226.5" fill="none" stroke="#000000" stroke-width="0.25" width="100" height="150"/>
	<rect x="171.5" y="-226.5" fill="none" stroke="#000000" stroke-width="0.25" width="100" height="150"/>
	<rect x="271.5" y="-226.5" fill="none" stroke="#000000" stroke-width="0.25" width="100" height="150"/>
	<rect x="371.5" y="-226.5" fill="none" stroke="#000000" stroke-width="0.25" width="100" height="150"/>
	<rect x="471.5" y="-226.5" fill="none" stroke="#000000" stroke-width="0.25" width="100" height="150"/>
	<rect x="571.5" y="-226.5" fill="none" stroke="#000000" stroke-width="0.25" width="100" height="150"/>
	<rect x="671.5" y="-226.5" fill="none" stroke="#000000" stroke-width="0.25" width="100" height="150"/>
	<rect x="71.5" y="-76.5" fill="none" stroke="#000000" stroke-width="0.25" width="100" height="150"/>
	<rect x="171.5" y="-76.5" fill="none" stroke="#000000" stroke-width="0.25" width="100" height="150"/>
	<rect x="271.5" y="-76.5" fill="none" stroke="#000000" stroke-width="0.25" width="100" height="150"/>
	<rect x="371.5" y="-76.5" fill="none" stroke="#000000" stroke-width="0.25" width="100" height="150"/>
	<rect x="471.5" y="-76.5" fill="none" stroke="#000000" stroke-width="0.25" width="100" height="150"/>
	<rect x="571.5" y="-76.5" fill="none" stroke="#000000" stroke-width="0.25" width="100" height="150"/>
	<rect x="671.5" y="-76.5" fill="none" stroke="#000000" stroke-width="0.25" width="100" height="150"/>
	<rect x="71.5" y="73.5" fill="none" stroke="#000000" stroke-width="0.25" width="100" height="150"/>
	<rect x="171.5" y="73.5" fill="none" stroke="#000000" stroke-width="0.25" width="100" height="150"/>
	<rect x="271.5" y="73.5" fill="none" stroke="#000000" stroke-width="0.25" width="100" height="150"/>
	<rect x="371.5" y="73.5" fill="none" stroke="#000000" stroke-width="0.25" width="100" height="150"/>
	<rect x="471.5" y="73.5" fill="none" stroke="#000000" stroke-width="0.25" width="100" height="150"/>
	<rect x="571.5" y="73.5" fill="none" stroke="#000000" stroke-width="0.25" width="100" height="150"/>
	<rect x="671.5" y="73.5" fill="none" stroke="#000000" stroke-width="0.25" width="100" height="150"/>
	<rect x="71.5" y="223.5" fill="none" stroke="#000000" stroke-width="0.25" width="100" height="150"/>
	<rect x="171.5" y="223.5" fill="none" stroke="#000000" stroke-width="0.25" width="100" height="150"/>
	<rect x="271.5" y="223.5" fill="none" stroke="#000000" stroke-width="0.25" width="100" height="150"/>
	<rect x="371.5" y="223.5" fill="none" stroke="#000000" stroke-width="0.25" width="100" height="150"/>
	<rect x="471.5" y="223.5" fill="none" stroke="#000000" stroke-width="0.25" width="100" height="150"/>
	<rect x="571.5" y="223.5" fill="none" stroke="#000000" stroke-width="0.25" width="100" height="150"/>
	<rect x="671.5" y="223.5" fill="none" stroke="#000000" stroke-width="0.25" width="100" height="150"/>
	<rect x="71.5" y="373.5" fill="none" stroke="#000000" stroke-width="0.25" width="100" height="150"/>
	<rect x="171.5" y="373.5" fill="none" stroke="#000000" stroke-width="0.25" width="100" height="150"/>
	<rect x="271.5" y="373.5" fill="none" stroke="#000000" stroke-width="0.25" width="100" height="150"/>
	<rect x="371.5" y="373.5" fill="none" stroke="#000000" stroke-width="0.25" width="100" height="150"/>
	<rect x="471.5" y="373.5" fill="none" stroke="#000000" stroke-width="0.25" width="100" height="150"/>
	<rect x="571.5" y="373.5" fill="none" stroke="#000000" stroke-width="0.25" width="100" height="150"/>
	<rect x="671.5" y="373.5" fill="none" stroke="#000000" stroke-width="0.25" width="100" height="150"/>
	<rect x="71.5" y="523.5" fill="none" stroke="#000000" stroke-width="0.25" width="100" height="150"/>
	<rect x="171.5" y="523.5" fill="none" stroke="#000000" stroke-width="0.25" width="100" height="150"/>
	<rect x="271.5" y="523.5" fill="none" stroke="#000000" stroke-width="0.25" width="100" height="150"/>
	<rect x="371.5" y="523.5" fill="none" stroke="#000000" stroke-width="0.25" width="100" height="150"/>
	<rect x="471.5" y="523.5" fill="none" stroke="#000000" stroke-width="0.25" width="100" height="150"/>
	<rect x="571.5" y="523.5" fill="none" stroke="#000000" stroke-width="0.25" width="100" height="150"/>
	<rect x="671.5" y="523.5" fill="none" stroke="#000000" stroke-width="0.25" width="100" height="150"/>
	<rect x="71.5" y="673.5" fill="none" stroke="#000000" stroke-width="0.25" width="100" height="150"/>
	<rect x="171.5" y="673.5" fill="none" stroke="#000000" stroke-width="0.25" width="100" height="150"/>
	<rect x="271.5" y="673.5" fill="none" stroke="#000000" stroke-width="0.25" width="100" height="150"/>
	<rect x="371.5" y="673.5" fill="none" stroke="#000000" stroke-width="0.25" width="100" height="150"/>
	<rect x="471.5" y="673.5" fill="none" stroke="#000000" stroke-width="0.25" width="100" height="150"/>
	<rect x="571.5" y="673.5" fill="none" stroke="#000000" stroke-width="0.25" width="100" height="150"/>
	<rect x="671.5" y="673.5" fill="none" stroke="#000000" stroke-width="0.25" width="100" height="150"/>
	<rect x="771.5" y="-226.5" fill="none" stroke="#000000" stroke-width="0.25" width="100" height="150"/>
	<rect x="771.5" y="-76.5" fill="none" stroke="#000000" stroke-width="0.25" width="100" height="150"/>
	<rect x="771.5" y="73.5" fill="none" stroke="#000000" stroke-width="0.25" width="100" height="150"/>
	<rect x="771.5" y="223.5" fill="none" stroke="#000000" stroke-width="0.25" width="100" height="150"/>
	<rect x="771.5" y="373.5" fill="none" stroke="#000000" stroke-width="0.25" width="100" height="150"/>
	<rect x="771.5" y="523.5" fill="none" stroke="#000000" stroke-width="0.25" width="100" height="150"/>
	<rect x="771.5" y="673.5" fill="none" stroke="#000000" stroke-width="0.25" width="100" height="150"/>
</g>
<g>
	<polygon points="324.5322266,-129.5 316.5234375,-107.5 318.6523438,-107.5 326.6601563,-129.5 	"/>
	<polygon points="322.1879883,19.1665039 314.5151367,42.5 319.2680664,42.5 328.2729492,19.1665039 	"/>
	<polygon points="319.8442383,167.8334961 312.5078125,192.5 319.8842773,192.5 329.8867188,167.8334961 	"/>
	<polygon points="317.5,316.5 310.5,342.5 320.5,342.5 331.5,316.5 	"/>
	<polygon points="316,464.5 309.3330078,492.5 321.3330078,492.5 332.6660156,464.5 	"/>
	<polygon points="314.5,612.5 308.1665039,642.5 322.1669922,642.5 333.8334961,612.5 	"/>
	<polygon points="323,792.5 335,760.5 313,760.5 307,792.5 	"/>
</g>
<g>
	<polygon points="118.5,704.5 106.5,736.5 128.5,736.5 134.5,704.5 	"/>
	<polygon points="127.1665039,584.5 133.5,554.5 119.4995117,554.5 107.8330078,584.5 	"/>
	<polygon points="125.8334961,432.5 132.5,404.5 120.5,404.5 109.1665039,432.5 	"/>
	<polygon points="124.5,280.5 131.5,254.5 121.5,254.5 110.5,280.5 	"/>
	<polygon points="122.496582,129.1660156 129.8330078,104.5 122.456543,104.5 112.4541016,129.1660156 	"/>
	<polygon points="120.4941406,-22.1665039 128.1669922,-45.5 123.4140625,-45.5 114.4091797,-22.1665039 	"/>
	<polygon points="118.4912109,-173.5 126.5,-195.5 124.3710938,-195.5 116.3632813,-173.5 	"/>
</g>
<g>
	<polygon points="507.5,704.5 495.5,736.5 515.5,736.5 521.5,704.5 	"/>
	<polygon points="515.1669922,584.5 521.5,554.5 509.1660156,554.5 497.5,584.5 	"/>
	<polygon points="514.8330078,432.5 521.5,404.5 510.8330078,404.5 499.5,432.5 	"/>
	<polygon points="514.5,280.5 521.5,254.5 512.5,254.5 501.5,280.5 	"/>
	<polygon points="513.2089844,129.1660156 520.5458984,104.5 513.8359375,104.5 503.8330078,129.1660156 	"/>
	<polygon points="511.9189453,-22.1665039 519.5908203,-45.5 515.171875,-45.5 506.1669922,-22.1665039 	"/>
	<polygon points="510.6279297,-173.5 518.6367188,-195.5 516.5078125,-195.5 508.5,-173.5 	"/>
</g>
<g>
	<polygon points="532.5,704.5 520.5,736.5 540.5,736.5 546.5,704.5 	"/>
	<polygon points="538.5,584.5 544.8330078,554.5 532.5,554.5 520.8330078,584.5 	"/>
	<polygon points="536.5,432.5 543.1669922,404.5 532.5,404.5 521.1669922,432.5 	"/>
	<polygon points="534.5,280.5 541.5,254.5 532.5,254.5 521.5,280.5 	"/>
	<polygon points="539.1660156,104.5 532.4570313,104.5 522.4541016,129.1660156 531.8300781,129.1660156 	"/>
	<polygon points="536.8330078,-45.5 532.4140625,-45.5 523.4091797,-22.1665039 529.1611328,-22.1665039 	"/>
	<polygon points="526.4912109,-173.5 534.5,-195.5 532.3710938,-195.5 524.3632813,-173.5 	"/>
</g>
<g>
	<polygon points="610.5,736.5 622.5,704.5 602.5,704.5 596.5,736.5 	"/>
	<polygon points="604.5,554.5 598.1669922,584.5 610.5,584.5 622.1660156,554.5 	"/>
	<polygon points="606.5,404.5 599.8330078,432.5 610.5,432.5 621.8330078,404.5 	"/>
	<polygon points="608.5,254.5 601.5,280.5 610.5,280.5 621.5,254.5 	"/>
	<polygon points="610.5419922,129.1660156 620.5449219,104.5 611.1689453,104.5 603.8330078,129.1660156 	"/>
	<polygon points="610.5849609,-22.1665039 619.5908203,-45.5 613.8388672,-45.5 606.1669922,-22.1665039 	"/>
	<polygon points="610.6279297,-173.5 618.6367188,-195.5 616.5078125,-195.5 608.5,-173.5 	"/>
</g>
<g>
	<polygon points="635.5,736.5 647.5,704.5 627.5,704.5 621.5,736.5 	"/>
	<polygon points="627.8330078,554.5 621.5,584.5 633.8330078,584.5 645.5,554.5 	"/>
	<polygon points="628.1669922,404.5 621.5,432.5 632.1669922,432.5 643.5,404.5 	"/>
	<polygon points="628.5,254.5 621.5,280.5 630.5,280.5 641.5,254.5 	"/>
	<polygon points="629.1630859,129.1660156 639.1669922,104.5 629.7900391,104.5 622.4541016,129.1660156 	"/>
	<polygon points="627.8271484,-22.1665039 636.8330078,-45.5 631.0810547,-45.5 623.4091797,-22.1665039 	"/>
	<polygon points="626.4912109,-173.5 634.5,-195.5 632.3710938,-195.5 624.3632813,-173.5 	"/>
</g>
<g>
	<polygon points="832.5,736.5 820.5,704.5 840.5,704.5 846.5,736.5 	"/>
	<polygon points="838.5,554.5 844.8330078,584.5 832.5,584.5 820.8330078,554.5 	"/>
	<polygon points="836.5,404.5 843.1669922,432.5 832.5,432.5 821.1669922,404.5 	"/>
	<polygon points="834.5,254.5 841.5,280.5 832.5,280.5 821.5,254.5 	"/>
	<polygon points="822.4541016,104.5 831.8300781,104.5 839.1660156,129.1660156 832.4570313,129.1660156 	"/>
	<polygon points="823.4091797,-45.5 829.1611328,-45.5 836.8330078,-22.1665039 832.4150391,-22.1665039 	"/>
	<polygon points="832.3720703,-173.5 824.3632813,-195.5 826.4921875,-195.5 834.5,-173.5 	"/>
</g>
<g>
	<polygon points="807.5,736.5 795.5,704.5 815.5,704.5 821.5,736.5 	"/>
	<polygon points="815.1669922,554.5 821.5,584.5 809.1660156,584.5 797.5,554.5 	"/>
	<polygon points="814.8330078,404.5 821.5,432.5 810.8330078,432.5 799.5,404.5 	"/>
	<polygon points="814.5,254.5 821.5,280.5 812.5,280.5 801.5,254.5 	"/>
	<polygon points="803.8330078,104.5 813.2089844,104.5 820.5458984,129.1660156 813.8359375,129.1660156 	"/>
	<polygon points="806.1669922,-45.5 811.9189453,-45.5 819.5908203,-22.1665039 815.1728516,-22.1665039 	"/>
	<polygon points="816.5087891,-173.5 808.5,-195.5 810.6289063,-195.5 818.6367188,-173.5 	"/>
</g>
<g>
	<polygon points="710.5,792.5 722.5,760.5 702.5,760.5 696.5,792.5 	"/>
	<polygon points="704.5,612.5 698.1660156,642.5 710.5,642.5 722.1669922,612.5 	"/>
	<polygon points="706.5,464.5 699.8330078,492.5 710.5,492.5 721.8330078,464.5 	"/>
	<polygon points="708.5,316.5 701.5,342.5 710.5,342.5 721.5,316.5 	"/>
	<polygon points="710.5429688,192.4995117 720.5449219,167.8330078 711.1689453,167.8330078 703.8330078,192.4995117 	"/>
	<polygon points="710.5849609,42.5 719.5908203,19.1665039 713.8388672,19.1665039 706.1669922,42.5 	"/>
	<polygon points="710.6279297,-107.5 718.6367188,-129.5 716.5078125,-129.5 708.5,-107.5 	"/>
</g>
<g>
	<polygon points="735.5,792.5 747.5,760.5 727.5,760.5 721.5,792.5 	"/>
	<polygon points="727.8330078,612.5 721.5,642.5 733.8330078,642.5 745.5,612.5 	"/>
	<polygon points="728.1669922,464.5 721.5,492.5 732.1669922,492.5 743.5,464.5 	"/>
	<polygon points="728.5,316.5 721.5,342.5 730.5,342.5 741.5,316.5 	"/>
	<polygon points="729.1630859,192.4995117 739.1660156,167.8330078 729.7900391,167.8330078 722.4541016,192.4995117 	"/>
	<polygon points="727.8271484,42.5 736.8330078,19.1665039 731.0810547,19.1665039 723.4091797,42.5 	"/>
	<polygon points="726.4912109,-107.5 734.5,-129.5 732.3710938,-129.5 724.3632813,-107.5 	"/>
</g>
<g>
	<polygon points="218.4912109,-173.5 226.5,-195.5 224.3710938,-195.5 216.3632813,-173.5 	"/>
	<polygon points="228.1660156,-45.5 222.0805664,-45.5 214.4082031,-22.1669922 219.1606445,-22.1669922 	"/>
	<polygon points="229.8334961,104.5 219.7905273,104.5 212.4545898,129.1665039 219.8305664,129.1665039 	"/>
	<polygon points="217.5,254.5 210.5,280.5 220.5,280.5 231.5,254.5 	"/>
	<polygon points="232.4995117,404.5 215.8330078,404.5 209.1665039,432.5 221.1660156,432.5 	"/>
	<polygon points="233.5,554.5 214.1665039,554.5 207.8334961,584.5 221.8334961,584.5 	"/>
	<polygon points="222.5,736.5 234.5,704.5 212.5,704.5 206.5,736.5 	"/>
</g>
<g>
	<polygon points="424.5087891,-173.5 416.5,-195.5 418.6289063,-195.5 426.6367188,-173.5 	"/>
	<polygon points="414.8330078,-45.5 420.9189453,-45.5 428.5908203,-22.1669922 423.8388672,-22.1669922 	"/>
	<polygon points="413.1669922,104.5 423.2099609,104.5 430.5458984,129.1665039 423.1699219,129.1665039 	"/>
	<polygon points="425.5,254.5 432.5,280.5 422.5,280.5 411.5,254.5 	"/>
	<polygon points="410.4995117,404.5 427.1669922,404.5 433.8330078,432.5 421.8330078,432.5 	"/>
	<polygon points="409.5,554.5 428.8330078,554.5 435.1669922,584.5 421.1669922,584.5 	"/>
	<polygon points="420.5,736.5 408.5,704.5 430.5,704.5 436.5,736.5 	"/>
</g>
<g>
	<circle cx="120.5" cy="736.5" r="14"/>
	<circle cx="120.0830078" cy="584.5" r="12.3056641"/>
	<circle cx="119.6669922" cy="432.5" r="10.6113281"/>
	<circle cx="119.2502441" cy="280.5" r="8.916748"/>
	<circle cx="119.3708496" cy="129.1660156" r="7.0280762"/>
	<circle cx="119.4924316" cy="-22.1669922" r="5.138916"/>
	<circle cx="119.6132813" cy="-173.5" r="3.25"/>
</g>
<g>
	<circle cx="509.5" cy="736.5" r="14"/>
	<circle cx="509.7495117" cy="584.5" r="12.3051758"/>
	<circle cx="510" cy="432.5" r="10.6113281"/>
	<circle cx="510.2504883" cy="280.5" r="8.9165039"/>
	<circle cx="510.6777344" cy="129.1660156" r="7.0273438"/>
	<circle cx="511.1064453" cy="-22.1669922" r="5.1386719"/>
	<circle cx="511.5341797" cy="-173.5" r="3.25"/>
</g>
<g>
	<circle cx="535.5" cy="736.5" r="14"/>
	<circle cx="533.8105469" cy="584.5" r="12.3056641"/>
	<circle cx="532.121582" cy="432.5" r="10.6108398"/>
	<circle cx="530.4321289" cy="280.5" r="8.9165039"/>
	<circle cx="529.4921875" cy="129.1660156" r="7.0273438"/>
	<circle cx="528.5527344" cy="-22.1669922" r="5.1386719"/>
	<circle cx="527.6132813" cy="-173.5" r="3.25"/>
</g>
<g>
	<circle cx="220.5" cy="704.5" r="14"/>
	<circle cx="221.166748" cy="554.5" r="12.3054199"/>
	<circle cx="221.8337402" cy="404.5" r="10.611084"/>
	<circle cx="222.5002441" cy="254.5" r="8.916748"/>
	<circle cx="222.75" cy="104.5" r="7.027832"/>
	<circle cx="223" cy="-45.5" r="5.1386719"/>
	<circle cx="223.25" cy="-195.5" r="3.25"/>
</g>
<g>
	<circle cx="607.5" cy="704.5" r="14"/>
	<circle cx="609.1669922" cy="554.5" r="12.3056641"/>
	<circle cx="610.8339844" cy="404.5" r="10.6113281"/>
	<circle cx="612.5004883" cy="254.5" r="8.9165039"/>
	<circle cx="613.5229492" cy="104.5" r="7.027832"/>
	<circle cx="614.5458984" cy="-45.5" r="5.1386719"/>
	<circle cx="615.5683594" cy="-195.5" r="3.25"/>
</g>
<g>
	<circle cx="633.5" cy="704.5" r="14"/>
	<circle cx="633.1943359" cy="554.5" r="12.3056641"/>
	<circle cx="632.8891602" cy="404.5" r="10.6108398"/>
	<circle cx="632.5834961" cy="254.5" r="8.9165039"/>
	<circle cx="632.1386719" cy="104.5" r="7.0273438"/>
	<circle cx="631.6943359" cy="-45.5" r="5.1386719"/>
	<circle cx="631.25" cy="-195.5" r="3.25"/>
</g>
</svg>
